<svg xmlns="http://www.w3.org/2000/svg" xmlns:xlink="http://www.w3.org/1999/xlink" width="332" zoomAndPan="magnify" viewBox="0 0 249 374.999991" height="500" preserveAspectRatio="xMidYMid meet" version="1.0"><defs><filter x="0%" y="0%" width="100%" height="100%" id="03d0780620"><feColorMatrix values="0 0 0 0 1 0 0 0 0 1 0 0 0 0 1 0 0 0 1 0" color-interpolation-filters="sRGB"/></filter><clipPath id="2306ea16f3"><path d="M 15.882812 104 L 235.703125 104 L 235.703125 301.722656 L 15.882812 301.722656 Z M 15.882812 104 " clip-rule="nonzero"/></clipPath><clipPath id="da52366073"><path d="M 15.886719 282.265625 C 19.824219 239.296875 18.128906 198.242188 18.839844 185.230469 C 19.113281 180.367188 19.332031 178.945312 19.933594 175.171875 C 20.644531 170.414062 22.007812 164.292969 23.101562 158.9375 C 24.195312 153.6875 25.507812 146.636719 26.601562 143.355469 C 27.09375 141.714844 27.3125 140.839844 28.078125 139.855469 C 28.789062 138.871094 30.101562 137.945312 30.976562 137.453125 C 31.632812 137.070312 32.066406 136.960938 32.777344 136.851562 C 33.816406 136.6875 35.402344 136.632812 36.605469 136.960938 C 37.753906 137.34375 39.011719 138 39.886719 138.871094 C 40.761719 139.691406 41.527344 140.894531 41.910156 142.042969 C 42.292969 143.246094 41.800781 144.394531 42.238281 145.871094 C 42.890625 148.167969 45.023438 151.664062 46.664062 154.289062 C 48.195312 156.695312 49.5625 159.15625 51.695312 160.902344 C 53.933594 162.707031 57.160156 163.691406 59.894531 164.785156 C 62.464844 165.769531 64.867188 166.699219 67.492188 167.136719 C 70.117188 167.574219 72.742188 167.628906 75.582031 167.355469 C 78.753906 166.972656 82.199219 165.933594 85.476562 164.839844 C 88.867188 163.746094 92.695312 162.433594 95.699219 160.847656 C 98.324219 159.429688 100.292969 158.5 102.535156 156.148438 C 105.921875 152.757812 108.820312 146.910156 112.59375 140.839844 C 117.839844 132.421875 125.933594 116.132812 130.632812 110.117188 C 132.929688 107.164062 134.242188 104.871094 136.648438 104.269531 C 139.105469 103.613281 143.207031 104.761719 145.285156 106.511719 C 147.359375 108.203125 147.90625 110.882812 149.21875 114.4375 C 151.515625 120.832031 153.757812 135.757812 155.835938 142.316406 C 157.039062 146.035156 157.910156 148.167969 159.277344 150.84375 C 160.589844 153.46875 161.191406 156.804688 163.761719 158.28125 C 167.535156 160.410156 175.515625 159.644531 181.800781 158.554688 C 189.289062 157.242188 199.894531 151.992188 205.417969 149.585938 C 208.535156 148.222656 210.445312 147.785156 212.523438 146.035156 C 214.875 144.066406 216.570312 139.636719 218.484375 138.109375 C 219.6875 137.125 220.722656 136.6875 221.925781 136.46875 C 223.128906 136.195312 224.714844 136.359375 225.699219 136.578125 C 226.410156 136.742188 226.847656 136.960938 227.449219 137.34375 C 228.324219 137.890625 229.582031 139.089844 230.238281 139.964844 C 230.621094 140.566406 230.785156 140.675781 231.058594 141.660156 C 232.148438 146.308594 231.273438 173.695312 231.984375 182.824219 C 232.3125 187.308594 233.023438 189.605469 233.242188 192.9375 C 233.515625 196.21875 233.40625 197.804688 233.460938 202.613281 C 233.625 216.9375 237.835938 271.769531 233.460938 287.402344 C 231.601562 294.074219 230.238281 298.445312 225.589844 300.578125 C 218.320312 303.859375 200.660156 295.332031 189.289062 294.292969 C 179.339844 293.363281 169.5 294.566406 161.191406 293.910156 C 154.46875 293.363281 149.21875 291.777344 143.097656 291.230469 C 136.972656 290.683594 130.6875 291.175781 124.457031 290.574219 C 118.167969 290.027344 113.960938 288.441406 105.539062 287.785156 C 89.304688 286.527344 45.898438 288.222656 33.433594 287.292969 C 29.007812 286.964844 27.09375 287.292969 24.578125 286.089844 C 22.0625 284.890625 17.855469 281.117188 18.292969 280.078125 C 18.730469 278.984375 26.382812 281.71875 28.40625 280.1875 C 30.265625 278.820312 29.773438 275.046875 30.8125 272.480469 C 31.851562 269.855469 33.707031 267.503906 34.691406 264.714844 C 35.675781 261.765625 36.113281 258.429688 36.660156 255.257812 C 37.207031 251.980469 37.589844 250.011719 37.863281 245.417969 C 38.574219 234.648438 38.738281 201.683594 38.136719 191.515625 C 37.863281 187.527344 37.589844 186.214844 36.988281 183.207031 C 36.222656 179.382812 33.761719 172.875 33.597656 170.46875 C 33.488281 169.597656 33.597656 169.324219 33.761719 168.613281 C 34.089844 167.628906 34.855469 166.042969 35.457031 165.222656 C 35.894531 164.621094 36.277344 164.292969 36.878906 163.910156 C 37.753906 163.363281 39.175781 162.652344 40.378906 162.488281 C 41.636719 162.324219 43.164062 162.597656 44.148438 162.871094 C 44.859375 163.089844 45.296875 163.308594 45.898438 163.746094 C 46.71875 164.347656 47.867188 165.441406 48.46875 166.535156 C 49.070312 167.574219 49.507812 168.722656 49.453125 170.195312 C 49.34375 172.4375 48.03125 178.125 46.28125 178.671875 C 44.585938 179.164062 39.121094 174.953125 39.285156 173.695312 C 39.394531 172.601562 43.273438 171.78125 45.023438 171.34375 C 46.390625 170.960938 47.59375 170.742188 48.796875 170.90625 C 50.054688 171.015625 51.367188 171.5625 52.351562 172.21875 C 53.386719 172.929688 54.316406 174.1875 54.863281 175.0625 C 55.246094 175.71875 55.410156 176.265625 55.519531 176.867188 C 55.683594 177.46875 55.792969 178.070312 55.738281 178.78125 C 55.683594 179.820312 55.410156 181.347656 54.863281 182.441406 C 54.261719 183.535156 53.113281 184.628906 52.351562 185.285156 C 51.75 185.722656 51.148438 185.558594 50.65625 186.160156 C 49.507812 187.527344 49.5625 194.359375 47.757812 194.90625 C 45.734375 195.5625 38.464844 190.097656 38.464844 187.800781 C 38.410156 185.832031 42.507812 183.917969 45.296875 182.058594 C 48.90625 179.65625 56.121094 175.9375 58.582031 175.117188 C 59.457031 174.84375 59.730469 174.84375 60.496094 174.898438 C 61.480469 174.953125 63.066406 175.171875 64.15625 175.71875 C 65.25 176.265625 66.398438 177.414062 67.054688 178.234375 C 67.492188 178.78125 67.710938 179.21875 67.929688 179.875 C 68.257812 180.855469 68.585938 182.441406 68.476562 183.644531 C 68.3125 184.847656 67.710938 186.324219 67.164062 187.199219 C 66.78125 187.855469 66.507812 188.183594 65.90625 188.675781 C 65.140625 189.332031 62.792969 190.699219 62.574219 190.480469 C 62.300781 190.152344 67.546875 184.191406 67.710938 184.300781 C 67.929688 184.464844 63.121094 191.953125 60.441406 195.835938 C 57.597656 199.992188 52.949219 206.496094 51.09375 208.410156 C 50.4375 209.066406 50.273438 209.230469 49.617188 209.613281 C 48.6875 210.050781 47.210938 210.652344 46.007812 210.761719 C 44.75 210.816406 43.382812 210.542969 42.238281 210.050781 C 41.144531 209.558594 39.941406 208.519531 39.230469 207.753906 C 38.738281 207.207031 38.519531 206.714844 38.246094 206.113281 C 37.972656 205.511719 37.753906 205.019531 37.699219 204.308594 C 37.535156 203.269531 37.425781 201.957031 37.863281 200.484375 C 38.683594 198.023438 41.363281 194.523438 43.601562 191.242188 C 46.28125 187.363281 50.65625 181.292969 53.003906 178.78125 C 54.152344 177.578125 54.972656 176.867188 55.902344 176.320312 C 56.503906 175.9375 57.050781 175.828125 57.707031 175.664062 C 58.308594 175.554688 58.855469 175.445312 59.566406 175.5 C 60.605469 175.554688 62.191406 175.828125 63.230469 176.429688 C 64.320312 177.03125 65.414062 178.179688 66.070312 179 C 66.507812 179.601562 66.726562 180.09375 66.945312 180.691406 C 67.109375 181.292969 67.328125 181.839844 67.328125 182.550781 C 67.382812 183.589844 67.382812 184.738281 66.835938 186.324219 C 65.742188 189.550781 62.082031 195.070312 58.910156 199.9375 C 54.917969 206.058594 47.101562 217.429688 44.585938 219.890625 C 43.875 220.601562 43.710938 220.710938 43.054688 220.984375 C 42.074219 221.421875 40.597656 221.914062 39.339844 221.914062 C 38.136719 221.96875 36.769531 221.640625 35.675781 221.039062 C 34.582031 220.492188 33.488281 219.5625 32.777344 218.578125 C 32.121094 217.539062 31.632812 216.0625 31.414062 215.023438 C 31.304688 214.3125 31.304688 213.820312 31.414062 213.109375 C 31.578125 212.070312 31.851562 210.980469 32.722656 209.558594 C 34.636719 206.605469 40.652344 201.25 44.640625 197.695312 C 48.195312 194.46875 51.476562 191.953125 55.410156 189.058594 C 59.949219 185.777344 67.109375 180.691406 70.5 179.164062 C 72.03125 178.453125 72.90625 178.179688 74.160156 178.179688 C 75.363281 178.179688 76.894531 178.617188 77.878906 179 C 78.535156 179.273438 78.917969 179.546875 79.464844 180.039062 C 80.175781 180.800781 81.214844 182.003906 81.652344 183.152344 C 82.144531 184.300781 82.308594 185.667969 82.199219 186.871094 C 82.089844 188.128906 81.433594 189.605469 80.941406 190.480469 C 80.558594 191.078125 80.339844 191.242188 79.683594 191.953125 C 77.824219 193.8125 71.539062 198.625 68.039062 201.957031 C 64.921875 205.019531 62.355469 207.972656 59.566406 211.089844 C 56.777344 214.257812 53.824219 217.59375 51.257812 220.765625 C 48.90625 223.714844 46.773438 227.652344 44.859375 229.457031 C 43.710938 230.550781 42.617188 231.097656 41.636719 231.535156 C 40.980469 231.808594 40.542969 231.917969 39.777344 231.917969 C 38.738281 231.972656 37.152344 231.808594 36.058594 231.371094 C 34.910156 230.878906 33.761719 230.058594 32.996094 229.128906 C 32.175781 228.144531 31.578125 226.886719 31.304688 225.683594 C 31.03125 224.480469 31.085938 223.113281 31.414062 221.914062 C 31.742188 220.710938 32.613281 220.054688 33.269531 218.578125 C 34.472656 216.007812 35.785156 210.871094 37.261719 207.425781 C 38.628906 204.308594 39.996094 201.464844 41.746094 198.679688 C 43.492188 195.890625 45.40625 192.882812 47.8125 190.699219 C 50.109375 188.566406 53.550781 186.542969 55.792969 185.777344 C 57.214844 185.230469 58.308594 185.121094 59.566406 185.230469 C 60.769531 185.339844 62.082031 185.832031 63.121094 186.488281 C 64.15625 187.144531 65.085938 188.183594 65.6875 189.277344 C 66.289062 190.371094 66.617188 191.898438 66.671875 192.9375 C 66.726562 193.648438 66.617188 194.25 66.507812 194.851562 C 66.34375 195.453125 66.234375 196 65.851562 196.65625 C 65.359375 197.53125 64.210938 198.023438 63.390625 199.554688 C 61.644531 202.832031 61.261719 210.050781 58.417969 217.046875 C 53.660156 228.691406 38.738281 256.023438 34.144531 261.4375 C 32.886719 262.96875 32.066406 263.296875 31.140625 263.789062 C 30.484375 264.117188 29.9375 264.226562 29.335938 264.332031 C 28.734375 264.441406 28.132812 264.550781 27.421875 264.441406 C 26.382812 264.332031 24.851562 263.953125 23.8125 263.351562 C 22.773438 262.695312 21.734375 261.492188 21.136719 260.617188 C 20.699219 260.015625 20.535156 259.632812 20.371094 258.921875 C 20.097656 257.882812 19.988281 256.132812 20.152344 255.09375 C 20.207031 254.382812 20.316406 254.109375 20.699219 253.292969 C 21.679688 251.214844 24.578125 246.347656 27.3125 242.796875 C 30.539062 238.640625 35.566406 233.609375 39.285156 230.167969 C 42.128906 227.488281 44.039062 226.011719 47.320312 223.496094 C 52.132812 219.835938 58.253906 215.296875 65.359375 210.597656 C 75.144531 204.144531 93.84375 193.867188 100.894531 189.058594 C 104.121094 186.871094 105.375 185.996094 107.617188 183.972656 C 110.242188 181.511719 113.140625 176.703125 115.382812 175.007812 C 116.636719 174.078125 117.839844 173.695312 118.824219 173.421875 C 119.535156 173.257812 120.082031 173.257812 120.738281 173.257812 C 121.394531 173.3125 121.941406 173.367188 122.597656 173.585938 C 123.582031 173.96875 125.113281 174.84375 125.878906 175.5 C 126.476562 175.992188 126.75 176.375 127.078125 176.976562 C 127.570312 177.90625 128.171875 179.382812 128.28125 180.582031 C 128.390625 181.839844 128.171875 182.769531 127.625 184.355469 C 126.53125 187.527344 123.691406 192.390625 120.300781 197.75 C 114.726562 206.605469 104.339844 220.710938 95.863281 231.863281 C 87.445312 243.015625 74.269531 260.179688 69.625 264.605469 C 68.257812 265.917969 67.492188 266.355469 66.5625 266.792969 C 65.90625 267.121094 65.414062 267.230469 64.703125 267.285156 C 63.664062 267.339844 61.917969 267.175781 60.933594 266.902344 C 60.222656 266.683594 59.730469 266.355469 59.238281 266.027344 C 58.691406 265.644531 58.253906 265.371094 57.761719 264.769531 C 57.105469 263.953125 56.285156 262.640625 55.957031 261.4375 C 55.628906 260.234375 55.628906 258.867188 55.902344 257.664062 C 56.175781 256.460938 56.394531 255.640625 57.597656 254.273438 C 60.988281 250.449219 72.25 244.980469 82.417969 237.546875 C 99.800781 224.808594 136.648438 184.847656 151.351562 182.933594 C 157.53125 182.167969 164.089844 185.996094 165.457031 189.222656 C 166.660156 192.007812 163.707031 195.945312 161.519531 200.320312 C 157.855469 207.589844 147.960938 221.09375 143.316406 227.761719 C 140.582031 231.699219 139.324219 233.445312 136.59375 237 C 132.65625 242.140625 125.058594 251.488281 121.722656 255.3125 C 120.082031 257.171875 119.261719 258.210938 118.003906 259.25 C 116.964844 260.125 115.980469 260.945312 114.835938 261.328125 C 113.632812 261.765625 112.265625 261.875 111.0625 261.710938 C 109.804688 261.492188 108.382812 260.835938 107.507812 260.234375 C 106.90625 259.851562 106.578125 259.523438 106.140625 258.921875 C 105.539062 258.101562 104.722656 256.515625 104.449219 255.53125 C 104.285156 254.820312 104.285156 254.273438 104.285156 253.621094 C 104.285156 253.019531 104.339844 252.417969 104.558594 251.761719 C 104.886719 250.777344 105.375 249.738281 106.414062 248.425781 C 108.601562 245.691406 114.34375 240.773438 118.277344 237.4375 C 121.832031 234.375 123.910156 232.683594 128.882812 229.128906 C 139.707031 221.421875 169.226562 202.613281 181.855469 195.125 C 188.691406 191.132812 194.265625 187.746094 197.984375 186.433594 C 199.785156 185.832031 200.878906 185.667969 202.246094 185.722656 C 203.503906 185.722656 204.816406 185.996094 205.964844 186.542969 C 207.058594 187.089844 208.097656 188.019531 208.808594 189.058594 C 209.519531 190.042969 210.066406 191.351562 210.226562 192.554688 C 210.390625 193.757812 210.121094 195.34375 209.847656 196.328125 C 209.628906 197.039062 209.410156 197.476562 208.972656 198.023438 C 208.316406 198.84375 206.949219 199.390625 206.183594 200.59375 C 205.035156 202.394531 205.089844 205.566406 203.777344 208.300781 C 202.082031 211.800781 198.859375 215.679688 196.015625 219.453125 C 192.898438 223.550781 189.835938 227.542969 185.792969 231.917969 C 180.761719 237.328125 172.945312 243.886719 167.699219 249.082031 C 163.433594 253.292969 159.277344 258.757812 156.4375 260.726562 C 155.070312 261.65625 154.140625 261.984375 152.9375 262.203125 C 151.734375 262.421875 150.3125 262.257812 149.164062 261.875 C 148.015625 261.492188 146.816406 260.78125 145.941406 259.851562 C 145.121094 258.976562 144.410156 257.773438 144.027344 256.570312 C 143.699219 255.421875 143.644531 254 143.863281 252.800781 C 144.136719 251.597656 144.464844 250.449219 145.503906 249.355469 C 147.144531 247.660156 150.421875 246.511719 154.140625 244.707031 C 160.425781 241.648438 171.960938 236.453125 180.160156 233.5 C 187.269531 230.988281 194.921875 226.832031 200.441406 227.707031 C 204.761719 228.472656 210.066406 231.699219 211.210938 235.25 C 212.46875 239.1875 208.589844 245.035156 205.746094 251.105469 C 201.425781 260.34375 189.890625 279.804688 185.792969 284.125 C 184.480469 285.488281 183.550781 285.816406 182.621094 286.253906 C 181.964844 286.527344 181.472656 286.636719 180.761719 286.691406 C 179.722656 286.691406 178.140625 286.636719 176.992188 286.144531 C 175.84375 285.707031 174.695312 284.890625 173.929688 283.960938 C 173.109375 283.03125 172.453125 281.773438 172.179688 280.570312 C 171.90625 279.367188 172.015625 277.78125 172.234375 276.796875 C 172.398438 276.085938 172.398438 275.59375 172.945312 274.992188 C 174.09375 273.738281 177.8125 272.917969 180.761719 271.222656 C 184.808594 268.816406 190.546875 263.953125 194.703125 261.546875 C 197.765625 259.742188 200.277344 258.703125 203.066406 257.390625 C 205.855469 256.078125 209.847656 253.511719 211.539062 253.730469 C 212.304688 253.839844 212.195312 254.601562 213.070312 255.039062 C 215.53125 256.1875 227.886719 256.023438 228.597656 258.320312 C 229.199219 260.179688 224.496094 263.898438 221.105469 266.355469 C 216.570312 269.746094 207.496094 272.589844 202.738281 275.210938 C 199.515625 276.960938 197.65625 278.820312 194.976562 280.023438 C 192.40625 281.226562 188.253906 281.554688 186.886719 282.539062 C 186.230469 283.03125 186.285156 283.632812 185.792969 284.125 C 185.027344 284.835938 183.769531 285.816406 182.621094 286.253906 C 181.472656 286.636719 180.050781 286.800781 178.847656 286.636719 C 177.648438 286.472656 176.226562 285.816406 175.296875 285.273438 C 174.695312 284.890625 174.367188 284.5625 173.929688 283.960938 C 173.273438 283.140625 172.453125 281.773438 172.179688 280.570312 C 171.90625 279.367188 171.742188 278.546875 172.234375 276.796875 C 173.546875 271.988281 183.113281 257.445312 186.777344 251.433594 C 188.800781 248.042969 189.945312 246.128906 191.75 243.558594 C 193.664062 240.992188 195.742188 236.179688 197.875 236.070312 C 200.003906 236.015625 205.035156 241.15625 204.542969 243.015625 C 203.832031 245.691406 192.625 246.019531 185.847656 248.316406 C 177.375 251.214844 161.136719 257.226562 157.800781 259.359375 C 156.984375 259.90625 157.039062 260.289062 156.4375 260.726562 C 155.5625 261.273438 153.976562 261.984375 152.9375 262.203125 C 152.226562 262.367188 151.734375 262.367188 151.023438 262.257812 C 149.984375 262.148438 148.453125 261.710938 147.414062 261.054688 C 146.378906 260.453125 145.394531 259.195312 144.792969 258.375 C 144.410156 257.71875 144.191406 257.28125 144.027344 256.570312 C 143.808594 255.585938 143.644531 254 143.863281 252.800781 C 144.136719 251.597656 144.574219 250.777344 145.503906 249.355469 C 147.523438 246.457031 152.71875 241.59375 156.929688 237.4375 C 161.902344 232.519531 168.953125 226.777344 173.546875 221.804688 C 177.320312 217.867188 179.613281 215.023438 183.003906 210.378906 C 187.707031 204.035156 194.757812 189.441406 198.585938 186.652344 C 199.949219 185.667969 200.988281 185.722656 202.246094 185.722656 C 203.449219 185.667969 204.816406 185.996094 205.964844 186.542969 C 207.058594 187.089844 208.152344 188.238281 208.808594 189.058594 C 209.300781 189.605469 209.519531 190.042969 209.738281 190.699219 C 210.066406 191.679688 210.390625 193.265625 210.226562 194.46875 C 210.121094 195.671875 209.464844 197.148438 208.972656 198.023438 C 208.589844 198.679688 208.207031 199.0625 207.714844 199.5 C 207.222656 199.9375 206.730469 200.429688 206.183594 200.59375 C 205.582031 200.8125 205.144531 200.429688 204.269531 200.648438 C 201.753906 201.410156 196.34375 204.910156 190.273438 208.574219 C 178.414062 215.734375 149.21875 234.101562 138.667969 241.59375 C 133.75 245.089844 131.726562 246.785156 128.226562 249.792969 C 124.347656 253.019531 119.425781 258.757812 116.527344 260.507812 C 115.109375 261.328125 113.960938 261.601562 112.976562 261.765625 C 112.210938 261.875 111.773438 261.820312 111.0625 261.710938 C 110.023438 261.492188 108.546875 261 107.507812 260.234375 C 106.523438 259.523438 105.59375 258.265625 105.105469 257.335938 C 104.722656 256.679688 104.558594 256.242188 104.449219 255.53125 C 104.285156 254.492188 104.339844 252.746094 104.558594 251.761719 C 104.722656 251.050781 104.777344 250.832031 105.320312 249.957031 C 107.289062 246.621094 117.183594 236.398438 123.800781 227.707031 C 132.382812 216.390625 144.519531 188.183594 151.734375 187.308594 C 155.398438 186.871094 161.191406 191.734375 161.082031 195.453125 C 160.863281 204.636719 117.675781 230.277344 103.027344 241.539062 C 94.28125 248.261719 88.429688 252.800781 81.871094 257.28125 C 76.402344 261 70.007812 265.535156 66.5625 266.792969 C 64.976562 267.394531 63.992188 267.449219 62.792969 267.339844 C 61.589844 267.175781 60.222656 266.683594 59.238281 266.027344 C 58.199219 265.316406 57.214844 264.117188 56.667969 263.242188 C 56.285156 262.585938 56.121094 262.148438 55.957031 261.4375 C 55.738281 260.453125 55.683594 258.867188 55.902344 257.664062 C 56.121094 256.515625 56.339844 255.96875 57.214844 254.4375 C 60.386719 249.136719 74.816406 233.335938 83.074219 222.511719 C 91.273438 211.800781 101.113281 198.460938 106.578125 189.824219 C 109.96875 184.464844 111.9375 178.945312 114.070312 176.375 C 115.109375 175.117188 115.925781 174.515625 117.019531 174.023438 C 118.113281 173.476562 119.535156 173.203125 120.738281 173.257812 C 121.941406 173.3125 123.472656 173.914062 124.402344 174.351562 C 125.003906 174.679688 125.386719 174.953125 125.878906 175.5 C 126.585938 176.265625 127.515625 177.578125 127.898438 178.726562 C 128.28125 179.875 128.390625 181.292969 128.171875 182.496094 C 128.007812 183.699219 127.570312 184.628906 126.695312 185.996094 C 125.058594 188.566406 120.957031 193.15625 117.894531 196.054688 C 115.109375 198.570312 113.25 199.828125 109.3125 202.449219 C 101.714844 207.644531 83.894531 217.375 74.433594 223.605469 C 67.65625 228.089844 61.863281 232.355469 57.378906 235.742188 C 54.425781 237.984375 52.734375 239.296875 50.164062 241.648438 C 46.9375 244.652344 42.890625 248.753906 39.886719 252.472656 C 37.152344 255.804688 34.964844 261 32.777344 262.804688 C 31.578125 263.789062 30.539062 264.117188 29.335938 264.332031 C 28.132812 264.550781 26.546875 264.386719 25.5625 264.117188 C 24.851562 263.953125 24.359375 263.679688 23.8125 263.351562 C 23.265625 263.023438 22.773438 262.695312 22.28125 262.148438 C 21.625 261.382812 20.699219 259.851562 20.371094 258.921875 C 20.097656 258.210938 19.988281 257.773438 19.988281 257.007812 C 19.988281 255.96875 20.042969 255.148438 20.699219 253.292969 C 23.046875 246.621094 38.300781 222.296875 44.257812 209.941406 C 48.523438 201.140625 51.039062 189.714844 54.097656 186.707031 C 55.300781 185.503906 56.394531 185.449219 57.652344 185.285156 C 58.855469 185.066406 60.441406 185.339844 61.425781 185.613281 C 62.136719 185.832031 62.519531 186.050781 63.121094 186.488281 C 63.9375 187.089844 65.085938 188.183594 65.6875 189.277344 C 66.289062 190.371094 66.617188 191.898438 66.671875 192.9375 C 66.726562 193.648438 66.671875 194.140625 66.507812 194.851562 C 66.179688 195.835938 65.796875 196.984375 64.8125 198.242188 C 63.066406 200.539062 58.363281 202.722656 55.519531 206.605469 C 51.476562 212.070312 46.992188 226.667969 44.859375 229.457031 C 44.257812 230.222656 43.984375 230.332031 43.382812 230.660156 C 42.453125 231.207031 41.035156 231.808594 39.777344 231.917969 C 38.574219 232.027344 37.152344 231.808594 36.058594 231.371094 C 34.910156 230.878906 33.761719 230.058594 32.996094 229.128906 C 32.175781 228.144531 31.578125 226.886719 31.304688 225.683594 C 31.03125 224.480469 31.195312 222.894531 31.414062 221.914062 C 31.578125 221.203125 31.6875 220.984375 32.175781 220.164062 C 33.597656 217.59375 39.558594 209.941406 43.164062 205.566406 C 46.335938 201.738281 48.796875 198.898438 52.570312 195.179688 C 57.488281 190.316406 67.546875 181.019531 70.5 179.164062 C 71.320312 178.671875 71.539062 178.617188 72.25 178.453125 C 73.289062 178.234375 74.871094 178.125 76.074219 178.34375 C 77.277344 178.617188 78.535156 179.273438 79.464844 180.039062 C 80.394531 180.855469 81.214844 182.003906 81.652344 183.152344 C 82.144531 184.300781 82.253906 185.886719 82.199219 186.871094 C 82.199219 187.636719 82.089844 188.074219 81.761719 188.785156 C 81.378906 189.714844 80.886719 190.753906 79.683594 191.898438 C 77.113281 194.523438 69.296875 198.570312 64.976562 201.738281 C 61.371094 204.363281 58.582031 206.496094 55.410156 209.339844 C 51.804688 212.507812 46.609375 218.195312 44.585938 219.890625 C 43.875 220.492188 43.710938 220.710938 43.054688 220.984375 C 42.074219 221.421875 40.597656 221.914062 39.339844 221.914062 C 38.136719 221.96875 36.605469 221.476562 35.675781 221.039062 C 35.019531 220.765625 34.582031 220.492188 34.089844 220 C 33.324219 219.234375 32.339844 217.8125 31.902344 216.882812 C 31.578125 216.226562 31.46875 215.734375 31.414062 215.023438 C 31.359375 213.984375 31.414062 212.617188 31.851562 211.253906 C 32.449219 209.394531 33.761719 207.753906 35.402344 205.238281 C 38.410156 200.648438 46.0625 191.515625 49.070312 186.542969 C 50.984375 183.535156 51.96875 180.3125 53.003906 178.78125 C 53.496094 178.070312 53.714844 177.851562 54.316406 177.414062 C 55.136719 176.757812 56.503906 175.9375 57.707031 175.664062 C 58.855469 175.390625 60.441406 175.554688 61.480469 175.71875 C 62.191406 175.882812 62.683594 176.15625 63.230469 176.429688 C 63.828125 176.757812 64.320312 177.03125 64.8125 177.523438 C 65.523438 178.289062 66.507812 179.546875 66.890625 180.691406 C 67.328125 181.839844 67.382812 183.425781 67.328125 184.464844 C 67.273438 185.175781 67.273438 185.449219 66.835938 186.324219 C 65.25 189.714844 53.660156 205.675781 51.09375 208.410156 C 50.4375 209.121094 50.273438 209.230469 49.617188 209.613281 C 48.6875 210.050781 47.210938 210.652344 46.007812 210.761719 C 44.75 210.816406 43.382812 210.542969 42.238281 210.050781 C 41.144531 209.558594 39.941406 208.519531 39.230469 207.753906 C 38.738281 207.207031 38.519531 206.824219 38.246094 206.113281 C 37.863281 205.128906 37.480469 203.597656 37.535156 202.394531 C 37.589844 201.140625 37.972656 200.15625 38.683594 198.734375 C 39.777344 196.4375 42.292969 192.9375 44.640625 190.207031 C 47.15625 187.199219 50.984375 184.246094 53.496094 181.511719 C 55.519531 179.273438 56.777344 175.992188 58.582031 175.117188 C 59.785156 174.515625 61.152344 174.789062 62.355469 175.0625 C 63.554688 175.335938 64.8125 175.992188 65.742188 176.8125 C 66.671875 177.578125 67.492188 178.726562 67.929688 179.875 C 68.421875 181.019531 68.585938 182.441406 68.476562 183.644531 C 68.3125 184.847656 67.875 186.214844 67.164062 187.199219 C 66.507812 188.238281 65.796875 188.730469 64.375 189.769531 C 60.824219 192.28125 50.273438 199.554688 44.476562 200.59375 C 40.324219 201.304688 35.128906 201.140625 33.324219 198.953125 C 31.523438 196.765625 32.886719 190.808594 33.925781 187.144531 C 34.964844 183.644531 37.535156 180.257812 39.558594 177.46875 C 41.253906 175.117188 43.601562 172.21875 45.023438 171.34375 C 45.734375 170.90625 46.171875 170.90625 46.882812 170.90625 C 47.921875 170.851562 49.507812 170.90625 50.65625 171.34375 C 51.804688 171.78125 52.949219 172.601562 53.769531 173.53125 C 54.589844 174.40625 55.246094 175.664062 55.519531 176.867188 C 55.847656 178.070312 55.847656 179.492188 55.519531 180.691406 C 55.246094 181.839844 54.371094 183.207031 53.769531 184.027344 C 53.332031 184.574219 53.058594 184.847656 52.351562 185.285156 C 50.492188 186.433594 45.078125 189.113281 41.746094 189.386719 C 39.011719 189.550781 35.894531 189.277344 33.871094 187.636719 C 31.632812 185.777344 29.554688 180.855469 29.664062 177.851562 C 29.773438 175.226562 33.050781 172.164062 33.597656 170.46875 C 33.816406 169.707031 33.597656 169.324219 33.761719 168.613281 C 34.089844 167.628906 34.691406 166.152344 35.457031 165.222656 C 36.277344 164.292969 37.425781 163.417969 38.574219 162.980469 C 39.722656 162.542969 41.089844 162.324219 42.292969 162.433594 C 43.546875 162.597656 44.859375 163.035156 45.898438 163.746094 C 46.882812 164.402344 47.648438 165.113281 48.46875 166.535156 C 49.945312 169.105469 51.421875 175.226562 52.351562 179.109375 C 53.058594 182.332031 53.332031 183.863281 53.660156 188.128906 C 54.480469 198.296875 54.535156 227.105469 53.933594 240.0625 C 53.550781 247.824219 52.949219 253.457031 52.132812 258.703125 C 51.53125 262.585938 50.875 265.480469 49.945312 268.707031 C 49.015625 271.933594 48.578125 275.59375 46.554688 278.054688 C 44.476562 280.625 40.816406 282.484375 37.535156 283.6875 C 34.308594 284.835938 30.429688 285.542969 27.148438 285.164062 C 23.921875 284.726562 19.714844 283.632812 18.074219 281.335938 C 16.269531 278.875 15.777344 272.972656 17.253906 270.457031 C 18.621094 268.105469 23.375 266.191406 26.109375 266.410156 C 28.734375 266.628906 29.445312 270.183594 33.433594 271.441406 C 44.859375 275.046875 93.1875 271.441406 105.921875 271.933594 C 110.460938 272.097656 111.609375 272.152344 115.21875 272.589844 C 120.191406 273.136719 127.734375 274.882812 132.929688 275.320312 C 136.972656 275.648438 140.417969 275.15625 143.808594 275.375 C 146.871094 275.539062 149.492188 275.867188 152.5 276.304688 C 155.671875 276.742188 158.183594 277.671875 162.285156 278.054688 C 169.226562 278.765625 180.488281 277.5625 190.328125 278.492188 C 201.425781 279.53125 225.371094 282.8125 225.535156 284.726562 C 225.589844 285.652344 219.632812 288.878906 217.609375 287.402344 C 210.9375 282.648438 218.429688 215.296875 217.554688 196.546875 C 217.171875 188.128906 216.1875 185.011719 215.914062 178.289062 C 215.53125 169.925781 215.804688 157.078125 215.914062 150.296875 C 215.96875 146.417969 215.476562 143.300781 216.242188 141.167969 C 216.734375 139.746094 217.554688 138.871094 218.484375 138.109375 C 219.414062 137.34375 220.722656 136.6875 221.925781 136.46875 C 223.128906 136.195312 224.714844 136.359375 225.699219 136.578125 C 226.410156 136.742188 226.847656 136.960938 227.449219 137.34375 C 228.324219 137.890625 229.527344 138.925781 230.238281 139.964844 C 230.894531 141.003906 231.382812 142.261719 231.4375 143.519531 C 231.492188 145.050781 231.058594 146.691406 230.292969 148.496094 C 229.199219 150.953125 227.011719 154.5625 224.769531 156.75 C 222.746094 158.882812 220.996094 159.863281 217.554688 161.613281 C 210.609375 165.167969 193.882812 172.273438 184.316406 174.132812 C 177.429688 175.5 171.085938 175.0625 165.949219 174.625 C 162.285156 174.242188 159.167969 174.023438 156.492188 172.601562 C 153.867188 171.234375 151.84375 168.667969 150.039062 166.371094 C 148.234375 164.074219 146.816406 161.503906 145.503906 158.828125 C 144.191406 156.148438 143.152344 153.140625 142.058594 150.296875 C 140.964844 147.457031 139.980469 145.214844 138.996094 141.769531 C 137.574219 136.742188 135.390625 127.886719 134.84375 122.855469 C 134.460938 119.574219 133.367188 115.804688 134.734375 114.601562 C 136.375 113.289062 143.972656 114.21875 145.066406 116.570312 C 147.089844 120.941406 132.601562 138.542969 127.460938 147.019531 C 123.691406 153.25 120.628906 158.882812 117.347656 162.980469 C 115 165.988281 112.8125 168.121094 110.40625 170.085938 C 108.21875 171.890625 106.523438 173.09375 103.683594 174.570312 C 99.527344 176.703125 91.820312 179.546875 87.335938 180.855469 C 84.277344 181.785156 82.308594 182.167969 79.519531 182.496094 C 76.292969 182.933594 72.304688 183.261719 69.078125 183.097656 C 66.179688 182.988281 63.828125 182.605469 60.988281 181.839844 C 57.652344 181.019531 53.550781 179.382812 50.328125 177.90625 C 47.539062 176.703125 44.96875 175.5 42.617188 173.914062 C 40.269531 172.328125 38.027344 170.578125 36.277344 168.339844 C 34.472656 166.097656 33.378906 163.636719 32.011719 160.410156 C 30.101562 155.820312 26.4375 146.855469 26.601562 143.355469 C 26.65625 141.714844 27.3125 140.839844 28.078125 139.855469 C 28.789062 138.871094 29.882812 138 30.976562 137.453125 C 32.121094 136.90625 33.652344 136.6875 34.691406 136.6875 C 35.457031 136.6875 35.894531 136.742188 36.605469 136.960938 C 37.589844 137.34375 39.011719 138 39.886719 138.871094 C 40.761719 139.691406 41.527344 141.113281 41.910156 142.042969 C 42.183594 142.753906 42.292969 142.917969 42.292969 143.957031 C 42.347656 148.277344 36.605469 169.976562 35.511719 178.125 C 34.910156 182.496094 34.855469 183.425781 34.691406 188.457031 C 34.144531 201.519531 35.675781 242.359375 34.636719 259.851562 C 34.035156 270.128906 35.839844 281.007812 31.796875 284.179688 C 28.515625 286.800781 15.886719 282.265625 15.886719 282.265625 " clip-rule="nonzero"/></clipPath><mask id="76ad972aeb"><g filter="url(#03d0780620)"><rect x="-24.9" width="298.8" fill="#000000" y="-37.499999" height="449.999989" fill-opacity="0.5"/></g></mask><clipPath id="256aba62f5"><path d="M 0.882812 0 L 220.703125 0 L 220.703125 197.722656 L 0.882812 197.722656 Z M 0.882812 0 " clip-rule="nonzero"/></clipPath><clipPath id="de5cc9b24b"><path d="M 0.886719 178.265625 C 4.824219 135.296875 3.128906 94.242188 3.839844 81.230469 C 4.113281 76.367188 4.332031 74.945312 4.933594 71.171875 C 5.644531 66.414062 7.007812 60.292969 8.101562 54.9375 C 9.195312 49.6875 10.507812 42.636719 11.601562 39.355469 C 12.09375 37.714844 12.3125 36.839844 13.078125 35.855469 C 13.789062 34.871094 15.101562 33.945312 15.976562 33.453125 C 16.632812 33.070312 17.066406 32.960938 17.777344 32.851562 C 18.816406 32.6875 20.402344 32.632812 21.605469 32.960938 C 22.753906 33.34375 24.011719 34 24.886719 34.871094 C 25.761719 35.691406 26.527344 36.894531 26.910156 38.042969 C 27.292969 39.246094 26.800781 40.394531 27.238281 41.871094 C 27.890625 44.167969 30.023438 47.664062 31.664062 50.289062 C 33.195312 52.695312 34.5625 55.15625 36.695312 56.902344 C 38.933594 58.707031 42.160156 59.691406 44.894531 60.785156 C 47.464844 61.769531 49.867188 62.699219 52.492188 63.136719 C 55.117188 63.574219 57.742188 63.628906 60.582031 63.355469 C 63.753906 62.972656 67.199219 61.933594 70.476562 60.839844 C 73.867188 59.746094 77.695312 58.433594 80.699219 56.847656 C 83.324219 55.429688 85.292969 54.5 87.535156 52.148438 C 90.921875 48.757812 93.820312 42.910156 97.59375 36.839844 C 102.839844 28.421875 110.933594 12.132812 115.632812 6.117188 C 117.929688 3.164062 119.242188 0.871094 121.648438 0.269531 C 124.105469 -0.386719 128.207031 0.761719 130.285156 2.511719 C 132.359375 4.203125 132.90625 6.882812 134.21875 10.4375 C 136.515625 16.832031 138.757812 31.757812 140.835938 38.316406 C 142.039062 42.035156 142.910156 44.167969 144.277344 46.84375 C 145.589844 49.46875 146.191406 52.804688 148.761719 54.28125 C 152.535156 56.410156 160.515625 55.644531 166.800781 54.554688 C 174.289062 53.242188 184.894531 47.992188 190.417969 45.585938 C 193.535156 44.222656 195.445312 43.785156 197.523438 42.035156 C 199.875 40.066406 201.570312 35.636719 203.484375 34.109375 C 204.6875 33.125 205.722656 32.6875 206.925781 32.46875 C 208.128906 32.195312 209.714844 32.359375 210.699219 32.578125 C 211.410156 32.742188 211.847656 32.960938 212.449219 33.34375 C 213.324219 33.890625 214.582031 35.089844 215.238281 35.964844 C 215.621094 36.566406 215.785156 36.675781 216.058594 37.660156 C 217.148438 42.308594 216.273438 69.695312 216.984375 78.824219 C 217.3125 83.308594 218.023438 85.605469 218.242188 88.9375 C 218.515625 92.21875 218.40625 93.804688 218.460938 98.613281 C 218.625 112.9375 222.835938 167.769531 218.460938 183.402344 C 216.601562 190.074219 215.238281 194.445312 210.589844 196.578125 C 203.320312 199.859375 185.660156 191.332031 174.289062 190.292969 C 164.339844 189.363281 154.5 190.566406 146.191406 189.910156 C 139.46875 189.363281 134.21875 187.777344 128.097656 187.230469 C 121.972656 186.683594 115.6875 187.175781 109.457031 186.574219 C 103.167969 186.027344 98.960938 184.441406 90.539062 183.785156 C 74.304688 182.527344 30.898438 184.222656 18.433594 183.292969 C 14.007812 182.964844 12.09375 183.292969 9.578125 182.089844 C 7.0625 180.890625 2.855469 177.117188 3.292969 176.078125 C 3.730469 174.984375 11.382812 177.71875 13.40625 176.1875 C 15.265625 174.820312 14.773438 171.046875 15.8125 168.480469 C 16.851562 165.855469 18.707031 163.503906 19.691406 160.714844 C 20.675781 157.765625 21.113281 154.429688 21.660156 151.257812 C 22.207031 147.980469 22.589844 146.011719 22.863281 141.417969 C 23.574219 130.648438 23.738281 97.683594 23.136719 87.515625 C 22.863281 83.527344 22.589844 82.214844 21.988281 79.207031 C 21.222656 75.382812 18.761719 68.875 18.597656 66.46875 C 18.488281 65.597656 18.597656 65.324219 18.761719 64.613281 C 19.089844 63.628906 19.855469 62.042969 20.457031 61.222656 C 20.894531 60.621094 21.277344 60.292969 21.878906 59.910156 C 22.753906 59.363281 24.175781 58.652344 25.378906 58.488281 C 26.636719 58.324219 28.164062 58.597656 29.148438 58.871094 C 29.859375 59.089844 30.296875 59.308594 30.898438 59.746094 C 31.71875 60.347656 32.867188 61.441406 33.46875 62.535156 C 34.070312 63.574219 34.507812 64.722656 34.453125 66.195312 C 34.34375 68.4375 33.03125 74.125 31.28125 74.671875 C 29.585938 75.164062 24.121094 70.953125 24.285156 69.695312 C 24.394531 68.601562 28.273438 67.78125 30.023438 67.34375 C 31.390625 66.960938 32.59375 66.742188 33.796875 66.90625 C 35.054688 67.015625 36.367188 67.5625 37.351562 68.21875 C 38.386719 68.929688 39.316406 70.1875 39.863281 71.0625 C 40.246094 71.71875 40.410156 72.265625 40.519531 72.867188 C 40.683594 73.46875 40.792969 74.070312 40.738281 74.78125 C 40.683594 75.820312 40.410156 77.347656 39.863281 78.441406 C 39.261719 79.535156 38.113281 80.628906 37.351562 81.285156 C 36.75 81.722656 36.148438 81.558594 35.65625 82.160156 C 34.507812 83.527344 34.5625 90.359375 32.757812 90.90625 C 30.734375 91.5625 23.464844 86.097656 23.464844 83.800781 C 23.410156 81.832031 27.507812 79.917969 30.296875 78.058594 C 33.90625 75.65625 41.121094 71.9375 43.582031 71.117188 C 44.457031 70.84375 44.730469 70.84375 45.496094 70.898438 C 46.480469 70.953125 48.066406 71.171875 49.15625 71.71875 C 50.25 72.265625 51.398438 73.414062 52.054688 74.234375 C 52.492188 74.78125 52.710938 75.21875 52.929688 75.875 C 53.257812 76.855469 53.585938 78.441406 53.476562 79.644531 C 53.3125 80.847656 52.710938 82.324219 52.164062 83.199219 C 51.78125 83.855469 51.507812 84.183594 50.90625 84.675781 C 50.140625 85.332031 47.792969 86.699219 47.574219 86.480469 C 47.300781 86.152344 52.546875 80.191406 52.710938 80.300781 C 52.929688 80.464844 48.121094 87.953125 45.441406 91.835938 C 42.597656 95.992188 37.949219 102.496094 36.09375 104.410156 C 35.4375 105.066406 35.273438 105.230469 34.617188 105.613281 C 33.6875 106.050781 32.210938 106.652344 31.007812 106.761719 C 29.75 106.816406 28.382812 106.542969 27.238281 106.050781 C 26.144531 105.558594 24.941406 104.519531 24.230469 103.753906 C 23.738281 103.207031 23.519531 102.714844 23.246094 102.113281 C 22.972656 101.511719 22.753906 101.019531 22.699219 100.308594 C 22.535156 99.269531 22.425781 97.957031 22.863281 96.484375 C 23.683594 94.023438 26.363281 90.523438 28.601562 87.242188 C 31.28125 83.363281 35.65625 77.292969 38.003906 74.78125 C 39.152344 73.578125 39.972656 72.867188 40.902344 72.320312 C 41.503906 71.9375 42.050781 71.828125 42.707031 71.664062 C 43.308594 71.554688 43.855469 71.445312 44.566406 71.5 C 45.605469 71.554688 47.191406 71.828125 48.230469 72.429688 C 49.320312 73.03125 50.414062 74.179688 51.070312 75 C 51.507812 75.601562 51.726562 76.09375 51.945312 76.691406 C 52.109375 77.292969 52.328125 77.839844 52.328125 78.550781 C 52.382812 79.589844 52.382812 80.738281 51.835938 82.324219 C 50.742188 85.550781 47.082031 91.070312 43.910156 95.9375 C 39.917969 102.058594 32.101562 113.429688 29.585938 115.890625 C 28.875 116.601562 28.710938 116.710938 28.054688 116.984375 C 27.074219 117.421875 25.597656 117.914062 24.339844 117.914062 C 23.136719 117.96875 21.769531 117.640625 20.675781 117.039062 C 19.582031 116.492188 18.488281 115.5625 17.777344 114.578125 C 17.121094 113.539062 16.632812 112.0625 16.414062 111.023438 C 16.304688 110.3125 16.304688 109.820312 16.414062 109.109375 C 16.578125 108.070312 16.851562 106.980469 17.722656 105.558594 C 19.636719 102.605469 25.652344 97.25 29.640625 93.695312 C 33.195312 90.46875 36.476562 87.953125 40.410156 85.058594 C 44.949219 81.777344 52.109375 76.691406 55.5 75.164062 C 57.03125 74.453125 57.90625 74.179688 59.160156 74.179688 C 60.363281 74.179688 61.894531 74.617188 62.878906 75 C 63.535156 75.273438 63.917969 75.546875 64.464844 76.039062 C 65.175781 76.800781 66.214844 78.003906 66.652344 79.152344 C 67.144531 80.300781 67.308594 81.667969 67.199219 82.871094 C 67.089844 84.128906 66.433594 85.605469 65.941406 86.480469 C 65.558594 87.078125 65.339844 87.242188 64.683594 87.953125 C 62.824219 89.8125 56.539062 94.625 53.039062 97.957031 C 49.921875 101.019531 47.355469 103.972656 44.566406 107.089844 C 41.777344 110.257812 38.824219 113.59375 36.257812 116.765625 C 33.90625 119.714844 31.773438 123.652344 29.859375 125.457031 C 28.710938 126.550781 27.617188 127.097656 26.636719 127.535156 C 25.980469 127.808594 25.542969 127.917969 24.777344 127.917969 C 23.738281 127.972656 22.152344 127.808594 21.058594 127.371094 C 19.910156 126.878906 18.761719 126.058594 17.996094 125.128906 C 17.175781 124.144531 16.578125 122.886719 16.304688 121.683594 C 16.03125 120.480469 16.085938 119.113281 16.414062 117.914062 C 16.742188 116.710938 17.613281 116.054688 18.269531 114.578125 C 19.472656 112.007812 20.785156 106.871094 22.261719 103.425781 C 23.628906 100.308594 24.996094 97.464844 26.746094 94.679688 C 28.492188 91.890625 30.40625 88.882812 32.8125 86.699219 C 35.109375 84.566406 38.550781 82.542969 40.792969 81.777344 C 42.214844 81.230469 43.308594 81.121094 44.566406 81.230469 C 45.769531 81.339844 47.082031 81.832031 48.121094 82.488281 C 49.15625 83.144531 50.085938 84.183594 50.6875 85.277344 C 51.289062 86.371094 51.617188 87.898438 51.671875 88.9375 C 51.726562 89.648438 51.617188 90.25 51.507812 90.851562 C 51.34375 91.453125 51.234375 92 50.851562 92.65625 C 50.359375 93.53125 49.210938 94.023438 48.390625 95.554688 C 46.644531 98.832031 46.261719 106.050781 43.417969 113.046875 C 38.660156 124.691406 23.738281 152.023438 19.144531 157.4375 C 17.886719 158.96875 17.066406 159.296875 16.140625 159.789062 C 15.484375 160.117188 14.9375 160.226562 14.335938 160.332031 C 13.734375 160.441406 13.132812 160.550781 12.421875 160.441406 C 11.382812 160.332031 9.851562 159.953125 8.8125 159.351562 C 7.773438 158.695312 6.734375 157.492188 6.136719 156.617188 C 5.699219 156.015625 5.535156 155.632812 5.371094 154.921875 C 5.097656 153.882812 4.988281 152.132812 5.152344 151.09375 C 5.207031 150.382812 5.316406 150.109375 5.699219 149.292969 C 6.679688 147.214844 9.578125 142.347656 12.3125 138.796875 C 15.539062 134.640625 20.566406 129.609375 24.285156 126.167969 C 27.128906 123.488281 29.039062 122.011719 32.320312 119.496094 C 37.132812 115.835938 43.253906 111.296875 50.359375 106.597656 C 60.144531 100.144531 78.84375 89.867188 85.894531 85.058594 C 89.121094 82.871094 90.375 81.996094 92.617188 79.972656 C 95.242188 77.511719 98.140625 72.703125 100.382812 71.007812 C 101.636719 70.078125 102.839844 69.695312 103.824219 69.421875 C 104.535156 69.257812 105.082031 69.257812 105.738281 69.257812 C 106.394531 69.3125 106.941406 69.367188 107.597656 69.585938 C 108.582031 69.96875 110.113281 70.84375 110.878906 71.5 C 111.476562 71.992188 111.75 72.375 112.078125 72.976562 C 112.570312 73.90625 113.171875 75.382812 113.28125 76.582031 C 113.390625 77.839844 113.171875 78.769531 112.625 80.355469 C 111.53125 83.527344 108.691406 88.390625 105.300781 93.75 C 99.726562 102.605469 89.339844 116.710938 80.863281 127.863281 C 72.445312 139.015625 59.269531 156.179688 54.625 160.605469 C 53.257812 161.917969 52.492188 162.355469 51.5625 162.792969 C 50.90625 163.121094 50.414062 163.230469 49.703125 163.285156 C 48.664062 163.339844 46.917969 163.175781 45.933594 162.902344 C 45.222656 162.683594 44.730469 162.355469 44.238281 162.027344 C 43.691406 161.644531 43.253906 161.371094 42.761719 160.769531 C 42.105469 159.953125 41.285156 158.640625 40.957031 157.4375 C 40.628906 156.234375 40.628906 154.867188 40.902344 153.664062 C 41.175781 152.460938 41.394531 151.640625 42.597656 150.273438 C 45.988281 146.449219 57.25 140.980469 67.417969 133.546875 C 84.800781 120.808594 121.648438 80.847656 136.351562 78.933594 C 142.53125 78.167969 149.089844 81.996094 150.457031 85.222656 C 151.660156 88.007812 148.707031 91.945312 146.519531 96.320312 C 142.855469 103.589844 132.960938 117.09375 128.316406 123.761719 C 125.582031 127.699219 124.324219 129.445312 121.59375 133 C 117.65625 138.140625 110.058594 147.488281 106.722656 151.3125 C 105.082031 153.171875 104.261719 154.210938 103.003906 155.25 C 101.964844 156.125 100.980469 156.945312 99.835938 157.328125 C 98.632812 157.765625 97.265625 157.875 96.0625 157.710938 C 94.804688 157.492188 93.382812 156.835938 92.507812 156.234375 C 91.90625 155.851562 91.578125 155.523438 91.140625 154.921875 C 90.539062 154.101562 89.722656 152.515625 89.449219 151.53125 C 89.285156 150.820312 89.285156 150.273438 89.285156 149.621094 C 89.285156 149.019531 89.339844 148.417969 89.558594 147.761719 C 89.886719 146.777344 90.375 145.738281 91.414062 144.425781 C 93.601562 141.691406 99.34375 136.773438 103.277344 133.4375 C 106.832031 130.375 108.910156 128.683594 113.882812 125.128906 C 124.707031 117.421875 154.226562 98.613281 166.855469 91.125 C 173.691406 87.132812 179.265625 83.746094 182.984375 82.433594 C 184.785156 81.832031 185.878906 81.667969 187.246094 81.722656 C 188.503906 81.722656 189.816406 81.996094 190.964844 82.542969 C 192.058594 83.089844 193.097656 84.019531 193.808594 85.058594 C 194.519531 86.042969 195.066406 87.351562 195.226562 88.554688 C 195.390625 89.757812 195.121094 91.34375 194.847656 92.328125 C 194.628906 93.039062 194.410156 93.476562 193.972656 94.023438 C 193.316406 94.84375 191.949219 95.390625 191.183594 96.59375 C 190.035156 98.394531 190.089844 101.566406 188.777344 104.300781 C 187.082031 107.800781 183.859375 111.679688 181.015625 115.453125 C 177.898438 119.550781 174.835938 123.542969 170.792969 127.917969 C 165.761719 133.328125 157.945312 139.886719 152.699219 145.082031 C 148.433594 149.292969 144.277344 154.757812 141.4375 156.726562 C 140.070312 157.65625 139.140625 157.984375 137.9375 158.203125 C 136.734375 158.421875 135.3125 158.257812 134.164062 157.875 C 133.015625 157.492188 131.816406 156.78125 130.941406 155.851562 C 130.121094 154.976562 129.410156 153.773438 129.027344 152.570312 C 128.699219 151.421875 128.644531 150 128.863281 148.800781 C 129.136719 147.597656 129.464844 146.449219 130.503906 145.355469 C 132.144531 143.660156 135.421875 142.511719 139.140625 140.707031 C 145.425781 137.648438 156.960938 132.453125 165.160156 129.5 C 172.269531 126.988281 179.921875 122.832031 185.441406 123.707031 C 189.761719 124.472656 195.066406 127.699219 196.210938 131.25 C 197.46875 135.1875 193.589844 141.035156 190.746094 147.105469 C 186.425781 156.34375 174.890625 175.804688 170.792969 180.125 C 169.480469 181.488281 168.550781 181.816406 167.621094 182.253906 C 166.964844 182.527344 166.472656 182.636719 165.761719 182.691406 C 164.722656 182.691406 163.140625 182.636719 161.992188 182.144531 C 160.84375 181.707031 159.695312 180.890625 158.929688 179.960938 C 158.109375 179.03125 157.453125 177.773438 157.179688 176.570312 C 156.90625 175.367188 157.015625 173.78125 157.234375 172.796875 C 157.398438 172.085938 157.398438 171.59375 157.945312 170.992188 C 159.09375 169.738281 162.8125 168.917969 165.761719 167.222656 C 169.808594 164.816406 175.546875 159.953125 179.703125 157.546875 C 182.765625 155.742188 185.277344 154.703125 188.066406 153.390625 C 190.855469 152.078125 194.847656 149.511719 196.539062 149.730469 C 197.304688 149.839844 197.195312 150.601562 198.070312 151.039062 C 200.53125 152.1875 212.886719 152.023438 213.597656 154.320312 C 214.199219 156.179688 209.496094 159.898438 206.105469 162.355469 C 201.570312 165.746094 192.496094 168.589844 187.738281 171.210938 C 184.515625 172.960938 182.65625 174.820312 179.976562 176.023438 C 177.40625 177.226562 173.253906 177.554688 171.886719 178.539062 C 171.230469 179.03125 171.285156 179.632812 170.792969 180.125 C 170.027344 180.835938 168.769531 181.816406 167.621094 182.253906 C 166.472656 182.636719 165.050781 182.800781 163.847656 182.636719 C 162.648438 182.472656 161.226562 181.816406 160.296875 181.273438 C 159.695312 180.890625 159.367188 180.5625 158.929688 179.960938 C 158.273438 179.140625 157.453125 177.773438 157.179688 176.570312 C 156.90625 175.367188 156.742188 174.546875 157.234375 172.796875 C 158.546875 167.988281 168.113281 153.445312 171.777344 147.433594 C 173.800781 144.042969 174.945312 142.128906 176.75 139.558594 C 178.664062 136.992188 180.742188 132.179688 182.875 132.070312 C 185.003906 132.015625 190.035156 137.15625 189.542969 139.015625 C 188.832031 141.691406 177.625 142.019531 170.847656 144.316406 C 162.375 147.214844 146.136719 153.226562 142.800781 155.359375 C 141.984375 155.90625 142.039062 156.289062 141.4375 156.726562 C 140.5625 157.273438 138.976562 157.984375 137.9375 158.203125 C 137.226562 158.367188 136.734375 158.367188 136.023438 158.257812 C 134.984375 158.148438 133.453125 157.710938 132.414062 157.054688 C 131.378906 156.453125 130.394531 155.195312 129.792969 154.375 C 129.410156 153.71875 129.191406 153.28125 129.027344 152.570312 C 128.808594 151.585938 128.644531 150 128.863281 148.800781 C 129.136719 147.597656 129.574219 146.777344 130.503906 145.355469 C 132.523438 142.457031 137.71875 137.59375 141.929688 133.4375 C 146.902344 128.519531 153.953125 122.777344 158.546875 117.804688 C 162.320312 113.867188 164.613281 111.023438 168.003906 106.378906 C 172.707031 100.035156 179.757812 85.441406 183.585938 82.652344 C 184.949219 81.667969 185.988281 81.722656 187.246094 81.722656 C 188.449219 81.667969 189.816406 81.996094 190.964844 82.542969 C 192.058594 83.089844 193.152344 84.238281 193.808594 85.058594 C 194.300781 85.605469 194.519531 86.042969 194.738281 86.699219 C 195.066406 87.679688 195.390625 89.265625 195.226562 90.46875 C 195.121094 91.671875 194.464844 93.148438 193.972656 94.023438 C 193.589844 94.679688 193.207031 95.0625 192.714844 95.5 C 192.222656 95.9375 191.730469 96.429688 191.183594 96.59375 C 190.582031 96.8125 190.144531 96.429688 189.269531 96.648438 C 186.753906 97.410156 181.34375 100.910156 175.273438 104.574219 C 163.414062 111.734375 134.21875 130.101562 123.667969 137.59375 C 118.75 141.089844 116.726562 142.785156 113.226562 145.792969 C 109.347656 149.019531 104.425781 154.757812 101.527344 156.507812 C 100.109375 157.328125 98.960938 157.601562 97.976562 157.765625 C 97.210938 157.875 96.773438 157.820312 96.0625 157.710938 C 95.023438 157.492188 93.546875 157 92.507812 156.234375 C 91.523438 155.523438 90.59375 154.265625 90.105469 153.335938 C 89.722656 152.679688 89.558594 152.242188 89.449219 151.53125 C 89.285156 150.492188 89.339844 148.746094 89.558594 147.761719 C 89.722656 147.050781 89.777344 146.832031 90.320312 145.957031 C 92.289062 142.621094 102.183594 132.398438 108.800781 123.707031 C 117.382812 112.390625 129.519531 84.183594 136.734375 83.308594 C 140.398438 82.871094 146.191406 87.734375 146.082031 91.453125 C 145.863281 100.636719 102.675781 126.277344 88.027344 137.539062 C 79.28125 144.261719 73.429688 148.800781 66.871094 153.28125 C 61.402344 157 55.007812 161.535156 51.5625 162.792969 C 49.976562 163.394531 48.992188 163.449219 47.792969 163.339844 C 46.589844 163.175781 45.222656 162.683594 44.238281 162.027344 C 43.199219 161.316406 42.214844 160.117188 41.667969 159.242188 C 41.285156 158.585938 41.121094 158.148438 40.957031 157.4375 C 40.738281 156.453125 40.683594 154.867188 40.902344 153.664062 C 41.121094 152.515625 41.339844 151.96875 42.214844 150.4375 C 45.386719 145.136719 59.816406 129.335938 68.074219 118.511719 C 76.273438 107.800781 86.113281 94.460938 91.578125 85.824219 C 94.96875 80.464844 96.9375 74.945312 99.070312 72.375 C 100.109375 71.117188 100.925781 70.515625 102.019531 70.023438 C 103.113281 69.476562 104.535156 69.203125 105.738281 69.257812 C 106.941406 69.3125 108.472656 69.914062 109.402344 70.351562 C 110.003906 70.679688 110.386719 70.953125 110.878906 71.5 C 111.585938 72.265625 112.515625 73.578125 112.898438 74.726562 C 113.28125 75.875 113.390625 77.292969 113.171875 78.496094 C 113.007812 79.699219 112.570312 80.628906 111.695312 81.996094 C 110.058594 84.566406 105.957031 89.15625 102.894531 92.054688 C 100.109375 94.570312 98.25 95.828125 94.3125 98.449219 C 86.714844 103.644531 68.894531 113.375 59.433594 119.605469 C 52.65625 124.089844 46.863281 128.355469 42.378906 131.742188 C 39.425781 133.984375 37.734375 135.296875 35.164062 137.648438 C 31.9375 140.652344 27.890625 144.753906 24.886719 148.472656 C 22.152344 151.804688 19.964844 157 17.777344 158.804688 C 16.578125 159.789062 15.539062 160.117188 14.335938 160.332031 C 13.132812 160.550781 11.546875 160.386719 10.5625 160.117188 C 9.851562 159.953125 9.359375 159.679688 8.8125 159.351562 C 8.265625 159.023438 7.773438 158.695312 7.28125 158.148438 C 6.625 157.382812 5.699219 155.851562 5.371094 154.921875 C 5.097656 154.210938 4.988281 153.773438 4.988281 153.007812 C 4.988281 151.96875 5.042969 151.148438 5.699219 149.292969 C 8.046875 142.621094 23.300781 118.296875 29.257812 105.941406 C 33.523438 97.140625 36.039062 85.714844 39.097656 82.707031 C 40.300781 81.503906 41.394531 81.449219 42.652344 81.285156 C 43.855469 81.066406 45.441406 81.339844 46.425781 81.613281 C 47.136719 81.832031 47.519531 82.050781 48.121094 82.488281 C 48.9375 83.089844 50.085938 84.183594 50.6875 85.277344 C 51.289062 86.371094 51.617188 87.898438 51.671875 88.9375 C 51.726562 89.648438 51.671875 90.140625 51.507812 90.851562 C 51.179688 91.835938 50.796875 92.984375 49.8125 94.242188 C 48.066406 96.539062 43.363281 98.722656 40.519531 102.605469 C 36.476562 108.070312 31.992188 122.667969 29.859375 125.457031 C 29.257812 126.222656 28.984375 126.332031 28.382812 126.660156 C 27.453125 127.207031 26.035156 127.808594 24.777344 127.917969 C 23.574219 128.027344 22.152344 127.808594 21.058594 127.371094 C 19.910156 126.878906 18.761719 126.058594 17.996094 125.128906 C 17.175781 124.144531 16.578125 122.886719 16.304688 121.683594 C 16.03125 120.480469 16.195312 118.894531 16.414062 117.914062 C 16.578125 117.203125 16.6875 116.984375 17.175781 116.164062 C 18.597656 113.59375 24.558594 105.941406 28.164062 101.566406 C 31.335938 97.738281 33.796875 94.898438 37.570312 91.179688 C 42.488281 86.316406 52.546875 77.019531 55.5 75.164062 C 56.320312 74.671875 56.539062 74.617188 57.25 74.453125 C 58.289062 74.234375 59.871094 74.125 61.074219 74.34375 C 62.277344 74.617188 63.535156 75.273438 64.464844 76.039062 C 65.394531 76.855469 66.214844 78.003906 66.652344 79.152344 C 67.144531 80.300781 67.253906 81.886719 67.199219 82.871094 C 67.199219 83.636719 67.089844 84.074219 66.761719 84.785156 C 66.378906 85.714844 65.886719 86.753906 64.683594 87.898438 C 62.113281 90.523438 54.296875 94.570312 49.976562 97.738281 C 46.371094 100.363281 43.582031 102.496094 40.410156 105.339844 C 36.804688 108.507812 31.609375 114.195312 29.585938 115.890625 C 28.875 116.492188 28.710938 116.710938 28.054688 116.984375 C 27.074219 117.421875 25.597656 117.914062 24.339844 117.914062 C 23.136719 117.96875 21.605469 117.476562 20.675781 117.039062 C 20.019531 116.765625 19.582031 116.492188 19.089844 116 C 18.324219 115.234375 17.339844 113.8125 16.902344 112.882812 C 16.578125 112.226562 16.46875 111.734375 16.414062 111.023438 C 16.359375 109.984375 16.414062 108.617188 16.851562 107.253906 C 17.449219 105.394531 18.761719 103.753906 20.402344 101.238281 C 23.410156 96.648438 31.0625 87.515625 34.070312 82.542969 C 35.984375 79.535156 36.96875 76.3125 38.003906 74.78125 C 38.496094 74.070312 38.714844 73.851562 39.316406 73.414062 C 40.136719 72.757812 41.503906 71.9375 42.707031 71.664062 C 43.855469 71.390625 45.441406 71.554688 46.480469 71.71875 C 47.191406 71.882812 47.683594 72.15625 48.230469 72.429688 C 48.828125 72.757812 49.320312 73.03125 49.8125 73.523438 C 50.523438 74.289062 51.507812 75.546875 51.890625 76.691406 C 52.328125 77.839844 52.382812 79.425781 52.328125 80.464844 C 52.273438 81.175781 52.273438 81.449219 51.835938 82.324219 C 50.25 85.714844 38.660156 101.675781 36.09375 104.410156 C 35.4375 105.121094 35.273438 105.230469 34.617188 105.613281 C 33.6875 106.050781 32.210938 106.652344 31.007812 106.761719 C 29.75 106.816406 28.382812 106.542969 27.238281 106.050781 C 26.144531 105.558594 24.941406 104.519531 24.230469 103.753906 C 23.738281 103.207031 23.519531 102.824219 23.246094 102.113281 C 22.863281 101.128906 22.480469 99.597656 22.535156 98.394531 C 22.589844 97.140625 22.972656 96.15625 23.683594 94.734375 C 24.777344 92.4375 27.292969 88.9375 29.640625 86.207031 C 32.15625 83.199219 35.984375 80.246094 38.496094 77.511719 C 40.519531 75.273438 41.777344 71.992188 43.582031 71.117188 C 44.785156 70.515625 46.152344 70.789062 47.355469 71.0625 C 48.554688 71.335938 49.8125 71.992188 50.742188 72.8125 C 51.671875 73.578125 52.492188 74.726562 52.929688 75.875 C 53.421875 77.019531 53.585938 78.441406 53.476562 79.644531 C 53.3125 80.847656 52.875 82.214844 52.164062 83.199219 C 51.507812 84.238281 50.796875 84.730469 49.375 85.769531 C 45.824219 88.28125 35.273438 95.554688 29.476562 96.59375 C 25.324219 97.304688 20.128906 97.140625 18.324219 94.953125 C 16.523438 92.765625 17.886719 86.808594 18.925781 83.144531 C 19.964844 79.644531 22.535156 76.257812 24.558594 73.46875 C 26.253906 71.117188 28.601562 68.21875 30.023438 67.34375 C 30.734375 66.90625 31.171875 66.90625 31.882812 66.90625 C 32.921875 66.851562 34.507812 66.90625 35.65625 67.34375 C 36.804688 67.78125 37.949219 68.601562 38.769531 69.53125 C 39.589844 70.40625 40.246094 71.664062 40.519531 72.867188 C 40.847656 74.070312 40.847656 75.492188 40.519531 76.691406 C 40.246094 77.839844 39.371094 79.207031 38.769531 80.027344 C 38.332031 80.574219 38.058594 80.847656 37.351562 81.285156 C 35.492188 82.433594 30.078125 85.113281 26.746094 85.386719 C 24.011719 85.550781 20.894531 85.277344 18.871094 83.636719 C 16.632812 81.777344 14.554688 76.855469 14.664062 73.851562 C 14.773438 71.226562 18.050781 68.164062 18.597656 66.46875 C 18.816406 65.707031 18.597656 65.324219 18.761719 64.613281 C 19.089844 63.628906 19.691406 62.152344 20.457031 61.222656 C 21.277344 60.292969 22.425781 59.417969 23.574219 58.980469 C 24.722656 58.542969 26.089844 58.324219 27.292969 58.433594 C 28.546875 58.597656 29.859375 59.035156 30.898438 59.746094 C 31.882812 60.402344 32.648438 61.113281 33.46875 62.535156 C 34.945312 65.105469 36.421875 71.226562 37.351562 75.109375 C 38.058594 78.332031 38.332031 79.863281 38.660156 84.128906 C 39.480469 94.296875 39.535156 123.105469 38.933594 136.0625 C 38.550781 143.824219 37.949219 149.457031 37.132812 154.703125 C 36.53125 158.585938 35.875 161.480469 34.945312 164.707031 C 34.015625 167.933594 33.578125 171.59375 31.554688 174.054688 C 29.476562 176.625 25.816406 178.484375 22.535156 179.6875 C 19.308594 180.835938 15.429688 181.542969 12.148438 181.164062 C 8.921875 180.726562 4.714844 179.632812 3.074219 177.335938 C 1.269531 174.875 0.777344 168.972656 2.253906 166.457031 C 3.621094 164.105469 8.375 162.191406 11.109375 162.410156 C 13.734375 162.628906 14.445312 166.183594 18.433594 167.441406 C 29.859375 171.046875 78.1875 167.441406 90.921875 167.933594 C 95.460938 168.097656 96.609375 168.152344 100.21875 168.589844 C 105.191406 169.136719 112.734375 170.882812 117.929688 171.320312 C 121.972656 171.648438 125.417969 171.15625 128.808594 171.375 C 131.871094 171.539062 134.492188 171.867188 137.5 172.304688 C 140.671875 172.742188 143.183594 173.671875 147.285156 174.054688 C 154.226562 174.765625 165.488281 173.5625 175.328125 174.492188 C 186.425781 175.53125 210.371094 178.8125 210.535156 180.726562 C 210.589844 181.652344 204.632812 184.878906 202.609375 183.402344 C 195.9375 178.648438 203.429688 111.296875 202.554688 92.546875 C 202.171875 84.128906 201.1875 81.011719 200.914062 74.289062 C 200.53125 65.925781 200.804688 53.078125 200.914062 46.296875 C 200.96875 42.417969 200.476562 39.300781 201.242188 37.167969 C 201.734375 35.746094 202.554688 34.871094 203.484375 34.109375 C 204.414062 33.34375 205.722656 32.6875 206.925781 32.46875 C 208.128906 32.195312 209.714844 32.359375 210.699219 32.578125 C 211.410156 32.742188 211.847656 32.960938 212.449219 33.34375 C 213.324219 33.890625 214.527344 34.925781 215.238281 35.964844 C 215.894531 37.003906 216.382812 38.261719 216.4375 39.519531 C 216.492188 41.050781 216.058594 42.691406 215.292969 44.496094 C 214.199219 46.953125 212.011719 50.5625 209.769531 52.75 C 207.746094 54.882812 205.996094 55.863281 202.554688 57.613281 C 195.609375 61.167969 178.882812 68.273438 169.316406 70.132812 C 162.429688 71.5 156.085938 71.0625 150.949219 70.625 C 147.285156 70.242188 144.167969 70.023438 141.492188 68.601562 C 138.867188 67.234375 136.84375 64.667969 135.039062 62.371094 C 133.234375 60.074219 131.816406 57.503906 130.503906 54.828125 C 129.191406 52.148438 128.152344 49.140625 127.058594 46.296875 C 125.964844 43.457031 124.980469 41.214844 123.996094 37.769531 C 122.574219 32.742188 120.390625 23.886719 119.84375 18.855469 C 119.460938 15.574219 118.367188 11.804688 119.734375 10.601562 C 121.375 9.289062 128.972656 10.21875 130.066406 12.570312 C 132.089844 16.941406 117.601562 34.542969 112.460938 43.019531 C 108.691406 49.25 105.628906 54.882812 102.347656 58.980469 C 100 61.988281 97.8125 64.121094 95.40625 66.085938 C 93.21875 67.890625 91.523438 69.09375 88.683594 70.570312 C 84.527344 72.703125 76.820312 75.546875 72.335938 76.855469 C 69.277344 77.785156 67.308594 78.167969 64.519531 78.496094 C 61.292969 78.933594 57.304688 79.261719 54.078125 79.097656 C 51.179688 78.988281 48.828125 78.605469 45.988281 77.839844 C 42.652344 77.019531 38.550781 75.382812 35.328125 73.90625 C 32.539062 72.703125 29.96875 71.5 27.617188 69.914062 C 25.269531 68.328125 23.027344 66.578125 21.277344 64.339844 C 19.472656 62.097656 18.378906 59.636719 17.011719 56.410156 C 15.101562 51.820312 11.4375 42.855469 11.601562 39.355469 C 11.65625 37.714844 12.3125 36.839844 13.078125 35.855469 C 13.789062 34.871094 14.882812 34 15.976562 33.453125 C 17.121094 32.90625 18.652344 32.6875 19.691406 32.6875 C 20.457031 32.6875 20.894531 32.742188 21.605469 32.960938 C 22.589844 33.34375 24.011719 34 24.886719 34.871094 C 25.761719 35.691406 26.527344 37.113281 26.910156 38.042969 C 27.183594 38.753906 27.292969 38.917969 27.292969 39.957031 C 27.347656 44.277344 21.605469 65.976562 20.511719 74.125 C 19.910156 78.496094 19.855469 79.425781 19.691406 84.457031 C 19.144531 97.519531 20.675781 138.359375 19.636719 155.851562 C 19.035156 166.128906 20.839844 177.007812 16.796875 180.179688 C 13.515625 182.800781 0.886719 178.265625 0.886719 178.265625 " clip-rule="nonzero"/></clipPath><clipPath id="6458d2e245"><rect x="0" width="221" y="0" height="198"/></clipPath><clipPath id="2bab9e0446"><path d="M 21.277344 76 L 52.742188 76 L 52.742188 110.746094 L 21.277344 110.746094 Z M 21.277344 76 " clip-rule="nonzero"/></clipPath><clipPath id="9c3fa35600"><path d="M 21.375 93.230469 C 24 80.714844 25.914062 78.308594 28.15625 77.160156 C 30.339844 75.957031 33.621094 75.902344 36.246094 76.175781 C 38.816406 76.503906 41.65625 77.378906 43.84375 78.855469 C 46.195312 80.441406 48.328125 83.0625 49.804688 85.523438 C 51.222656 87.875 52.371094 90.554688 52.589844 93.230469 C 52.863281 96.128906 52.371094 99.847656 50.894531 102.308594 C 49.476562 104.765625 46.578125 106.898438 44.007812 108.101562 C 41.492188 109.25 36.792969 108.539062 35.589844 109.414062 C 35.042969 109.796875 35.316406 110.617188 34.878906 110.726562 C 34.058594 110.945312 32.035156 109.359375 30.449219 108.265625 C 28.210938 106.734375 24.601562 104.492188 23.125 101.925781 C 21.703125 99.464844 21.375 93.230469 21.375 93.230469 " clip-rule="nonzero"/></clipPath><mask id="3e0ddb2686"><g filter="url(#03d0780620)"><rect x="-24.9" width="298.8" fill="#000000" y="-37.499999" height="449.999989" fill-opacity="0.5"/></g></mask><clipPath id="cfdc3ca4cb"><path d="M 0.359375 0 L 31.742188 0 L 31.742188 34.746094 L 0.359375 34.746094 Z M 0.359375 0 " clip-rule="nonzero"/></clipPath><clipPath id="af52333964"><path d="M 0.375 17.230469 C 3 4.714844 4.914062 2.308594 7.15625 1.160156 C 9.339844 -0.0429688 12.621094 -0.0976562 15.246094 0.175781 C 17.816406 0.503906 20.65625 1.378906 22.84375 2.855469 C 25.195312 4.441406 27.328125 7.0625 28.804688 9.523438 C 30.222656 11.875 31.371094 14.554688 31.589844 17.230469 C 31.863281 20.128906 31.371094 23.847656 29.894531 26.308594 C 28.476562 28.765625 25.578125 30.898438 23.007812 32.101562 C 20.492188 33.25 15.792969 32.539062 14.589844 33.414062 C 14.042969 33.796875 14.316406 34.617188 13.878906 34.726562 C 13.058594 34.945312 11.035156 33.359375 9.449219 32.265625 C 7.210938 30.734375 3.601562 28.492188 2.125 25.925781 C 0.703125 23.464844 0.375 17.230469 0.375 17.230469 " clip-rule="nonzero"/></clipPath><clipPath id="2b69ba2ab2"><rect x="0" width="32" y="0" height="35"/></clipPath><clipPath id="8ce8893f89"><path d="M 122.074219 40.207031 L 160.304688 40.207031 L 160.304688 75.519531 L 122.074219 75.519531 Z M 122.074219 40.207031 " clip-rule="nonzero"/></clipPath><clipPath id="cccce08c7a"><path d="M 145.695312 72.925781 C 139.464844 72.269531 135.964844 71.613281 133.449219 70.410156 C 130.882812 69.207031 128.257812 67.566406 126.453125 65.433594 C 124.59375 63.300781 123.117188 60.296875 122.570312 57.5625 C 122.027344 54.773438 121.917969 51.386719 123.117188 48.816406 C 124.375 46.027344 127.65625 43.128906 130.335938 41.765625 C 132.742188 40.507812 135.582031 40.5625 138.316406 40.398438 C 141.050781 40.234375 144 40.125 146.679688 40.671875 C 149.359375 41.164062 152.3125 41.820312 154.441406 43.511719 C 156.738281 45.316406 158.925781 48.542969 159.800781 51.441406 C 160.675781 54.445312 160.238281 58.328125 159.472656 61.335938 C 158.761719 64.121094 157.558594 66.746094 155.589844 68.933594 C 153.40625 71.449219 148.703125 76.148438 146.570312 75.328125 C 143.78125 74.234375 141.214844 58.710938 142.746094 56.851562 C 143.507812 55.976562 145.914062 56.03125 146.734375 56.90625 C 148.375 58.710938 145.695312 72.925781 145.695312 72.925781 " clip-rule="nonzero"/></clipPath><mask id="1822f1b145"><g filter="url(#03d0780620)"><rect x="-24.9" width="298.8" fill="#000000" y="-37.499999" height="449.999989" fill-opacity="0.5"/></g></mask><clipPath id="e736266f63"><path d="M 0.0742188 0.207031 L 38.304688 0.207031 L 38.304688 35.519531 L 0.0742188 35.519531 Z M 0.0742188 0.207031 " clip-rule="nonzero"/></clipPath><clipPath id="b5ee00a785"><path d="M 23.695312 32.925781 C 17.464844 32.269531 13.964844 31.613281 11.449219 30.410156 C 8.882812 29.207031 6.257812 27.566406 4.453125 25.433594 C 2.59375 23.300781 1.117188 20.296875 0.570312 17.5625 C 0.0273438 14.773438 -0.0820312 11.386719 1.117188 8.816406 C 2.375 6.027344 5.65625 3.128906 8.335938 1.765625 C 10.742188 0.507812 13.582031 0.5625 16.316406 0.398438 C 19.050781 0.234375 22 0.125 24.679688 0.671875 C 27.359375 1.164062 30.3125 1.820312 32.441406 3.511719 C 34.738281 5.316406 36.925781 8.542969 37.800781 11.441406 C 38.675781 14.445312 38.238281 18.328125 37.472656 21.335938 C 36.761719 24.121094 35.558594 26.746094 33.589844 28.933594 C 31.40625 31.449219 26.703125 36.148438 24.570312 35.328125 C 21.78125 34.234375 19.214844 18.710938 20.746094 16.851562 C 21.507812 15.976562 23.914062 16.03125 24.734375 16.90625 C 26.375 18.710938 23.695312 32.925781 23.695312 32.925781 " clip-rule="nonzero"/></clipPath><clipPath id="e6c8217ecd"><rect x="0" width="39" y="0" height="36"/></clipPath><clipPath id="110c41a5e8"><path d="M 193.835938 71.59375 L 234 71.59375 L 234 111.21875 L 193.835938 111.21875 Z M 193.835938 71.59375 " clip-rule="nonzero"/></clipPath><clipPath id="d6e8f78181"><path d="M 193.992188 88.09375 C 197.984375 77.707031 200.550781 75.246094 203.066406 73.878906 C 205.472656 72.511719 208.207031 71.964844 211.101562 71.75 C 214.382812 71.585938 218.757812 71.695312 221.816406 73.222656 C 224.824219 74.808594 227.339844 78.363281 229.308594 81.152344 C 231.113281 83.71875 232.804688 86.289062 233.460938 89.1875 C 234.117188 92.25 234.28125 96.347656 233.132812 99.246094 C 232.039062 102.035156 229.144531 104.875 226.902344 106.351562 C 225.097656 107.5 221.925781 107.0625 221.160156 108.101562 C 220.667969 108.8125 221.652344 110.234375 221.160156 110.726562 C 220.453125 111.382812 218.15625 110.890625 216.242188 110.726562 C 213.453125 110.398438 209.191406 109.796875 206.238281 108.539062 C 203.449219 107.335938 200.660156 105.640625 198.75 103.507812 C 196.945312 101.542969 195.796875 98.863281 194.976562 96.292969 C 194.15625 93.722656 193.992188 88.09375 193.992188 88.09375 M 212.851562 92.304688 C 215.421875 93.722656 217.664062 92.902344 217.664062 92.523438 C 217.664062 92.140625 214.929688 91.265625 214.054688 91.429688 C 213.507812 91.484375 212.851562 92.304688 212.851562 92.304688 " clip-rule="nonzero"/></clipPath><mask id="8ec7bbeb98"><g filter="url(#03d0780620)"><rect x="-24.9" width="298.8" fill="#000000" y="-37.499999" height="449.999989" fill-opacity="0.5"/></g></mask><clipPath id="a4d1d1500c"><path d="M 0.921875 0.59375 L 41 0.59375 L 41 40.21875 L 0.921875 40.21875 Z M 0.921875 0.59375 " clip-rule="nonzero"/></clipPath><clipPath id="2cacc6b385"><path d="M 0.992188 17.09375 C 4.984375 6.707031 7.550781 4.246094 10.066406 2.878906 C 12.472656 1.511719 15.207031 0.964844 18.101562 0.75 C 21.382812 0.585938 25.757812 0.695312 28.816406 2.222656 C 31.824219 3.808594 34.339844 7.363281 36.308594 10.152344 C 38.113281 12.71875 39.804688 15.289062 40.460938 18.1875 C 41.117188 21.25 41.28125 25.347656 40.132812 28.246094 C 39.039062 31.035156 36.144531 33.875 33.902344 35.351562 C 32.097656 36.5 28.925781 36.0625 28.160156 37.101562 C 27.667969 37.8125 28.652344 39.234375 28.160156 39.726562 C 27.453125 40.382812 25.15625 39.890625 23.242188 39.726562 C 20.453125 39.398438 16.191406 38.796875 13.238281 37.539062 C 10.449219 36.335938 7.660156 34.640625 5.75 32.507812 C 3.945312 30.542969 2.796875 27.863281 1.976562 25.292969 C 1.15625 22.722656 0.992188 17.09375 0.992188 17.09375 M 19.851562 21.304688 C 22.421875 22.722656 24.664062 21.902344 24.664062 21.523438 C 24.664062 21.140625 21.929688 20.265625 21.054688 20.429688 C 20.507812 20.484375 19.851562 21.304688 19.851562 21.304688 " clip-rule="nonzero"/></clipPath><clipPath id="e51f5607bf"><rect x="0" width="41" y="0" height="41"/></clipPath></defs><g clip-path="url(#2306ea16f3)"><g clip-path="url(#da52366073)"><g mask="url(#76ad972aeb)"><g transform="matrix(1, 0, 0, 1, 15, 104)"><g clip-path="url(#6458d2e245)"><g clip-path="url(#256aba62f5)"><g clip-path="url(#de5cc9b24b)"><path fill="#fff234" d="M -1.300781 -1.917969 L 220.703125 -1.917969 L 220.703125 198.8125 L -1.300781 198.8125 Z M -1.300781 -1.917969 " fill-opacity="1" fill-rule="nonzero"/></g></g></g></g></g></g></g><g clip-path="url(#2bab9e0446)"><g clip-path="url(#9c3fa35600)"><g mask="url(#3e0ddb2686)"><g transform="matrix(1, 0, 0, 1, 21, 76)"><g clip-path="url(#2b69ba2ab2)"><g clip-path="url(#cfdc3ca4cb)"><g clip-path="url(#af52333964)"><rect x="-75.78" width="358.56" fill="#fff234" height="539.999987" y="-158.499998" fill-opacity="1"/></g></g></g></g></g></g></g><g clip-path="url(#8ce8893f89)"><g clip-path="url(#cccce08c7a)"><g mask="url(#1822f1b145)"><g transform="matrix(1, 0, 0, 1, 122, 40)"><g clip-path="url(#e6c8217ecd)"><g clip-path="url(#e736266f63)"><g clip-path="url(#b5ee00a785)"><rect x="-176.78" width="358.56" fill="#fff234" height="539.999987" y="-122.499998" fill-opacity="1"/></g></g></g></g></g></g></g><g clip-path="url(#110c41a5e8)"><g clip-path="url(#d6e8f78181)"><g mask="url(#8ec7bbeb98)"><g transform="matrix(1, 0, 0, 1, 193, 71)"><g clip-path="url(#e51f5607bf)"><g clip-path="url(#a4d1d1500c)"><g clip-path="url(#2cacc6b385)"><rect x="-247.78" width="358.56" fill="#fff234" height="539.999987" y="-153.499998" fill-opacity="1"/></g></g></g></g></g></g></g></svg>