<svg xmlns="http://www.w3.org/2000/svg" xmlns:xlink="http://www.w3.org/1999/xlink" width="500" zoomAndPan="magnify" viewBox="0 0 375 374.999991" height="500" preserveAspectRatio="xMidYMid meet" version="1.0"><defs><clipPath id="4600d12a53"><path d="M 141 169 L 172 169 L 172 191 L 141 191 Z M 141 169 " clip-rule="nonzero"/></clipPath><clipPath id="16afb3b662"><path d="M 171.308594 189.386719 L 141.609375 190.171875 L 141.078125 170.054688 L 170.777344 169.269531 Z M 171.308594 189.386719 " clip-rule="nonzero"/></clipPath><clipPath id="dcbf505ee1"><path d="M 163.378906 184.390625 C 162.386719 177.683594 160.332031 177.242188 158.957031 176.730469 C 157.722656 176.328125 156.480469 175.757812 155.261719 175.898438 C 153.96875 176.042969 152.359375 176.90625 151.496094 177.75 C 150.632812 178.539062 150.386719 179.585938 150.011719 180.800781 C 149.445312 182.511719 149.597656 185.738281 149.09375 187.230469 C 148.773438 188.117188 148.585938 188.722656 147.988281 189.175781 C 147.386719 189.628906 146.375 190.039062 145.558594 190.0625 C 144.742188 190.082031 143.644531 189.785156 143.023438 189.417969 C 142.539062 189.15625 142.121094 188.785156 141.90625 188.296875 C 141.617188 187.703125 141.457031 186.832031 141.78125 186.164062 C 142.167969 185.441406 143.230469 184.429688 144.246094 184.183594 C 145.261719 183.9375 146.902344 184.167969 147.730469 184.695312 C 148.5625 185.21875 149.074219 186.519531 149.09375 187.285156 C 149.109375 187.941406 148.652344 188.613281 148.121094 189.0625 C 147.585938 189.515625 146.847656 189.917969 146.035156 189.996094 C 145.082031 190.074219 143.375 189.792969 142.675781 189.207031 C 141.980469 188.625 141.539062 187.320312 141.722656 186.496094 C 141.902344 185.667969 142.964844 184.65625 143.910156 184.300781 C 144.851562 183.949219 146.558594 184.011719 147.386719 184.484375 C 148.285156 184.953125 149.070312 186.410156 149.09375 187.230469 C 149.109375 187.941406 148.585938 188.722656 147.988281 189.175781 C 147.386719 189.628906 146.375 190.039062 145.558594 190.0625 C 144.742188 190.082031 143.648438 189.839844 143.023438 189.417969 C 142.398438 188.996094 141.910156 188.460938 141.683594 187.589844 C 141.222656 185.6875 142.046875 180.738281 143.132812 178.027344 C 144.023438 175.757812 145.328125 173.589844 146.996094 172.230469 C 148.394531 171.097656 150.347656 170.335938 152.039062 169.960938 C 153.527344 169.648438 154.757812 169.78125 156.394531 169.957031 C 158.785156 170.222656 162.824219 171.101562 164.960938 172.03125 C 166.542969 172.699219 167.652344 173.492188 168.5625 174.453125 C 169.472656 175.359375 170.179688 176.273438 170.554688 177.628906 C 171.152344 179.695312 171.273438 184.234375 170.429688 185.792969 C 169.972656 186.570312 169.234375 186.972656 168.425781 187.214844 C 167.683594 187.453125 166.523438 187.425781 165.769531 187.230469 C 165.152344 187.082031 164.667969 186.765625 164.320312 186.390625 C 163.828125 185.910156 163.378906 184.390625 163.378906 184.390625 " clip-rule="nonzero"/></clipPath><clipPath id="34dbdfbe9d"><path d="M 0.121094 0.441406 L 30.359375 0.441406 L 30.359375 21.320312 L 0.121094 21.320312 Z M 0.121094 0.441406 " clip-rule="nonzero"/></clipPath><clipPath id="4544c29010"><path d="M 30.308594 20.386719 L 0.609375 21.171875 L 0.078125 1.054688 L 29.777344 0.269531 Z M 30.308594 20.386719 " clip-rule="nonzero"/></clipPath><clipPath id="ba2a4b0f27"><path d="M 22.378906 15.390625 C 21.386719 8.683594 19.332031 8.242188 17.957031 7.730469 C 16.722656 7.328125 15.480469 6.757812 14.261719 6.898438 C 12.96875 7.042969 11.359375 7.90625 10.496094 8.75 C 9.632812 9.539062 9.386719 10.585938 9.011719 11.800781 C 8.445312 13.511719 8.597656 16.738281 8.09375 18.230469 C 7.773438 19.117188 7.585938 19.722656 6.988281 20.175781 C 6.386719 20.628906 5.375 21.039062 4.558594 21.0625 C 3.742188 21.082031 2.644531 20.785156 2.023438 20.417969 C 1.539062 20.15625 1.121094 19.785156 0.90625 19.296875 C 0.617188 18.703125 0.457031 17.832031 0.78125 17.164062 C 1.167969 16.441406 2.230469 15.429688 3.246094 15.183594 C 4.261719 14.9375 5.902344 15.167969 6.730469 15.695312 C 7.5625 16.21875 8.074219 17.519531 8.09375 18.285156 C 8.109375 18.941406 7.652344 19.613281 7.121094 20.0625 C 6.585938 20.515625 5.847656 20.917969 5.035156 20.996094 C 4.082031 21.074219 2.375 20.792969 1.675781 20.207031 C 0.980469 19.625 0.539062 18.320312 0.722656 17.496094 C 0.902344 16.667969 1.964844 15.65625 2.910156 15.300781 C 3.851562 14.949219 5.558594 15.011719 6.386719 15.484375 C 7.285156 15.953125 8.070312 17.410156 8.09375 18.230469 C 8.109375 18.941406 7.585938 19.722656 6.988281 20.175781 C 6.386719 20.628906 5.375 21.039062 4.558594 21.0625 C 3.742188 21.082031 2.648438 20.839844 2.023438 20.417969 C 1.398438 19.996094 0.910156 19.460938 0.683594 18.589844 C 0.222656 16.6875 1.046875 11.738281 2.132812 9.027344 C 3.023438 6.757812 4.328125 4.589844 5.996094 3.230469 C 7.394531 2.097656 9.347656 1.335938 11.039062 0.960938 C 12.527344 0.648438 13.757812 0.78125 15.394531 0.957031 C 17.785156 1.222656 21.824219 2.101562 23.960938 3.03125 C 25.542969 3.699219 26.652344 4.492188 27.5625 5.453125 C 28.472656 6.359375 29.179688 7.273438 29.554688 8.628906 C 30.152344 10.695312 30.273438 15.234375 29.429688 16.792969 C 28.972656 17.570312 28.234375 17.972656 27.425781 18.214844 C 26.683594 18.453125 25.523438 18.425781 24.769531 18.230469 C 24.152344 18.082031 23.667969 17.765625 23.320312 17.390625 C 22.828125 16.910156 22.378906 15.390625 22.378906 15.390625 " clip-rule="nonzero"/></clipPath><clipPath id="74947a4de4"><rect x="0" width="31" y="0" height="22"/></clipPath><clipPath id="24e0cfe40b"><path d="M 194.804688 168.273438 L 226.976562 168.273438 L 226.976562 190.0625 L 194.804688 190.0625 Z M 194.804688 168.273438 " clip-rule="nonzero"/></clipPath><clipPath id="94404f510c"><path d="M 218.539062 184.425781 C 217.652344 177.136719 215.445312 176.605469 213.96875 176.011719 C 212.644531 175.539062 211.316406 174.886719 209.992188 175.003906 C 208.589844 175.125 206.824219 176.011719 205.863281 176.902344 C 204.90625 177.730469 204.613281 178.855469 204.171875 180.160156 C 203.507812 181.996094 203.582031 185.492188 202.992188 187.09375 C 202.625 188.042969 202.402344 188.695312 201.738281 189.167969 C 201.074219 189.640625 199.972656 190.058594 199.085938 190.058594 C 198.203125 190.058594 197.023438 189.703125 196.359375 189.285156 C 195.84375 188.988281 195.402344 188.574219 195.179688 188.042969 C 194.886719 187.390625 194.738281 186.441406 195.109375 185.730469 C 195.550781 184.960938 196.730469 183.894531 197.832031 183.65625 C 198.9375 183.417969 200.707031 183.714844 201.589844 184.308594 C 202.476562 184.902344 202.992188 186.324219 202.992188 187.152344 C 202.992188 187.863281 202.476562 188.574219 201.886719 189.050781 C 201.296875 189.523438 200.488281 189.9375 199.601562 189.996094 C 198.570312 190.058594 196.730469 189.703125 195.992188 189.050781 C 195.253906 188.398438 194.8125 186.976562 195.035156 186.085938 C 195.253906 185.199219 196.433594 184.132812 197.464844 183.773438 C 198.496094 183.417969 200.339844 183.539062 201.222656 184.070312 C 202.179688 184.605469 202.992188 186.203125 202.992188 187.09375 C 202.992188 187.863281 202.402344 188.695312 201.738281 189.167969 C 201.074219 189.640625 199.972656 190.058594 199.085938 190.058594 C 198.203125 190.058594 197.023438 189.761719 196.359375 189.285156 C 195.695312 188.8125 195.179688 188.21875 194.960938 187.273438 C 194.519531 185.199219 195.550781 179.863281 196.800781 176.960938 C 197.832031 174.53125 199.308594 172.21875 201.148438 170.796875 C 202.695312 169.613281 204.832031 168.839844 206.675781 168.484375 C 208.296875 168.191406 209.621094 168.367188 211.390625 168.605469 C 213.96875 168.960938 218.316406 170.027344 220.601562 171.09375 C 222.296875 171.863281 223.476562 172.753906 224.433594 173.820312 C 225.390625 174.828125 226.128906 175.835938 226.496094 177.316406 C 227.085938 179.566406 227.085938 184.488281 226.128906 186.144531 C 225.613281 186.976562 224.800781 187.390625 223.917969 187.628906 C 223.105469 187.863281 221.855469 187.804688 221.042969 187.566406 C 220.378906 187.390625 219.863281 187.035156 219.496094 186.621094 C 218.980469 186.085938 218.539062 184.425781 218.539062 184.425781 " clip-rule="nonzero"/></clipPath><clipPath id="1dc4ce6d62"><path d="M 0.804688 0.273438 L 32.976562 0.273438 L 32.976562 22.0625 L 0.804688 22.0625 Z M 0.804688 0.273438 " clip-rule="nonzero"/></clipPath><clipPath id="0cf2ca7582"><path d="M 24.539062 16.425781 C 23.652344 9.136719 21.445312 8.605469 19.96875 8.011719 C 18.644531 7.539062 17.316406 6.886719 15.992188 7.003906 C 14.589844 7.125 12.824219 8.011719 11.863281 8.902344 C 10.90625 9.730469 10.613281 10.855469 10.171875 12.160156 C 9.507812 13.996094 9.582031 17.492188 8.992188 19.09375 C 8.625 20.042969 8.402344 20.695312 7.738281 21.167969 C 7.074219 21.640625 5.972656 22.058594 5.085938 22.058594 C 4.203125 22.058594 3.023438 21.703125 2.359375 21.285156 C 1.84375 20.988281 1.402344 20.574219 1.179688 20.042969 C 0.886719 19.390625 0.738281 18.441406 1.109375 17.730469 C 1.550781 16.960938 2.730469 15.894531 3.832031 15.65625 C 4.9375 15.417969 6.707031 15.714844 7.589844 16.308594 C 8.476562 16.902344 8.992188 18.324219 8.992188 19.152344 C 8.992188 19.863281 8.476562 20.574219 7.886719 21.050781 C 7.296875 21.523438 6.488281 21.9375 5.601562 21.996094 C 4.570312 22.058594 2.730469 21.703125 1.992188 21.050781 C 1.253906 20.398438 0.8125 18.976562 1.035156 18.085938 C 1.253906 17.199219 2.433594 16.132812 3.464844 15.773438 C 4.496094 15.417969 6.339844 15.539062 7.222656 16.070312 C 8.179688 16.605469 8.992188 18.203125 8.992188 19.09375 C 8.992188 19.863281 8.402344 20.695312 7.738281 21.167969 C 7.074219 21.640625 5.972656 22.058594 5.085938 22.058594 C 4.203125 22.058594 3.023438 21.761719 2.359375 21.285156 C 1.695312 20.8125 1.179688 20.21875 0.960938 19.273438 C 0.519531 17.199219 1.550781 11.863281 2.800781 8.960938 C 3.832031 6.53125 5.308594 4.21875 7.148438 2.796875 C 8.695312 1.613281 10.832031 0.839844 12.675781 0.484375 C 14.296875 0.191406 15.621094 0.367188 17.390625 0.605469 C 19.96875 0.960938 24.316406 2.027344 26.601562 3.09375 C 28.296875 3.863281 29.476562 4.753906 30.433594 5.820312 C 31.390625 6.828125 32.128906 7.835938 32.496094 9.316406 C 33.085938 11.566406 33.085938 16.488281 32.128906 18.144531 C 31.613281 18.976562 30.800781 19.390625 29.917969 19.628906 C 29.105469 19.863281 27.855469 19.804688 27.042969 19.566406 C 26.378906 19.390625 25.863281 19.035156 25.496094 18.621094 C 24.980469 18.085938 24.539062 16.425781 24.539062 16.425781 " clip-rule="nonzero"/></clipPath><clipPath id="8eaa309097"><rect x="0" width="33" y="0" height="23"/></clipPath><clipPath id="ecda3f9df1"><path d="M 170.382812 208.769531 L 196.710938 208.769531 L 196.710938 226.601562 L 170.382812 226.601562 Z M 170.382812 208.769531 " clip-rule="nonzero"/></clipPath><clipPath id="d65136a8b3"><path d="M 177.289062 213.382812 C 178.011719 219.347656 179.820312 219.785156 181.027344 220.269531 C 182.113281 220.65625 183.199219 221.191406 184.285156 221.09375 C 185.429688 220.996094 186.878906 220.269531 187.660156 219.542969 C 188.445312 218.863281 188.6875 217.941406 189.046875 216.875 C 189.589844 215.371094 189.53125 212.511719 190.011719 211.199219 C 190.3125 210.425781 190.496094 209.890625 191.039062 209.503906 C 191.582031 209.113281 192.484375 208.777344 193.207031 208.777344 C 193.933594 208.777344 194.898438 209.066406 195.441406 209.40625 C 195.863281 209.648438 196.222656 209.988281 196.40625 210.425781 C 196.644531 210.957031 196.765625 211.734375 196.464844 212.316406 C 196.101562 212.945312 195.136719 213.820312 194.234375 214.011719 C 193.328125 214.207031 191.882812 213.964844 191.160156 213.480469 C 190.433594 212.996094 190.011719 211.832031 190.011719 211.152344 C 190.011719 210.570312 190.433594 209.988281 190.917969 209.601562 C 191.398438 209.210938 192.0625 208.871094 192.785156 208.824219 C 193.632812 208.777344 195.136719 209.066406 195.742188 209.601562 C 196.34375 210.132812 196.707031 211.296875 196.527344 212.023438 C 196.34375 212.753906 195.378906 213.625 194.535156 213.917969 C 193.691406 214.207031 192.183594 214.109375 191.460938 213.675781 C 190.675781 213.238281 190.011719 211.929688 190.011719 211.199219 C 190.011719 210.570312 190.496094 209.890625 191.039062 209.503906 C 191.582031 209.113281 192.484375 208.777344 193.207031 208.777344 C 193.933594 208.777344 194.898438 209.019531 195.441406 209.40625 C 195.984375 209.792969 196.40625 210.277344 196.585938 211.054688 C 196.949219 212.753906 196.101562 217.117188 195.078125 219.492188 C 194.234375 221.484375 193.027344 223.375 191.519531 224.539062 C 190.253906 225.507812 188.503906 226.140625 186.996094 226.429688 C 185.671875 226.671875 184.585938 226.527344 183.136719 226.332031 C 181.027344 226.042969 177.46875 225.167969 175.601562 224.296875 C 174.214844 223.664062 173.25 222.9375 172.464844 222.066406 C 171.679688 221.238281 171.078125 220.414062 170.777344 219.203125 C 170.292969 217.359375 170.292969 213.335938 171.078125 211.976562 C 171.5 211.296875 172.164062 210.957031 172.886719 210.765625 C 173.550781 210.570312 174.574219 210.617188 175.238281 210.8125 C 175.78125 210.957031 176.203125 211.25 176.503906 211.589844 C 176.925781 212.023438 177.289062 213.382812 177.289062 213.382812 " clip-rule="nonzero"/></clipPath><clipPath id="174c404bfd"><path d="M 0.382812 0.769531 L 26.710938 0.769531 L 26.710938 18.601562 L 0.382812 18.601562 Z M 0.382812 0.769531 " clip-rule="nonzero"/></clipPath><clipPath id="ca478f3cf5"><path d="M 7.289062 5.382812 C 8.011719 11.347656 9.820312 11.785156 11.027344 12.269531 C 12.113281 12.65625 13.199219 13.191406 14.285156 13.09375 C 15.429688 12.996094 16.878906 12.269531 17.660156 11.542969 C 18.445312 10.863281 18.6875 9.941406 19.046875 8.875 C 19.589844 7.371094 19.53125 4.511719 20.011719 3.199219 C 20.3125 2.425781 20.496094 1.890625 21.039062 1.503906 C 21.582031 1.113281 22.484375 0.777344 23.207031 0.777344 C 23.933594 0.777344 24.898438 1.066406 25.441406 1.40625 C 25.863281 1.648438 26.222656 1.988281 26.40625 2.425781 C 26.644531 2.957031 26.765625 3.734375 26.464844 4.316406 C 26.101562 4.945312 25.136719 5.820312 24.234375 6.011719 C 23.328125 6.207031 21.882812 5.964844 21.160156 5.480469 C 20.433594 4.996094 20.011719 3.832031 20.011719 3.152344 C 20.011719 2.570312 20.433594 1.988281 20.917969 1.601562 C 21.398438 1.210938 22.0625 0.871094 22.785156 0.824219 C 23.632812 0.777344 25.136719 1.066406 25.742188 1.601562 C 26.34375 2.132812 26.707031 3.296875 26.527344 4.023438 C 26.34375 4.753906 25.378906 5.625 24.535156 5.917969 C 23.691406 6.207031 22.183594 6.109375 21.460938 5.675781 C 20.675781 5.238281 20.011719 3.929688 20.011719 3.199219 C 20.011719 2.570312 20.496094 1.890625 21.039062 1.503906 C 21.582031 1.113281 22.484375 0.777344 23.207031 0.777344 C 23.933594 0.777344 24.898438 1.019531 25.441406 1.40625 C 25.984375 1.792969 26.40625 2.277344 26.585938 3.054688 C 26.949219 4.753906 26.101562 9.117188 25.078125 11.492188 C 24.234375 13.484375 23.027344 15.375 21.519531 16.539062 C 20.253906 17.507812 18.503906 18.140625 16.996094 18.429688 C 15.671875 18.671875 14.585938 18.527344 13.136719 18.332031 C 11.027344 18.042969 7.46875 17.167969 5.601562 16.296875 C 4.214844 15.664062 3.25 14.9375 2.464844 14.066406 C 1.679688 13.238281 1.078125 12.414062 0.777344 11.203125 C 0.292969 9.359375 0.292969 5.335938 1.078125 3.976562 C 1.5 3.296875 2.164062 2.957031 2.886719 2.765625 C 3.550781 2.570312 4.574219 2.617188 5.238281 2.8125 C 5.78125 2.957031 6.203125 3.25 6.503906 3.589844 C 6.925781 4.023438 7.289062 5.382812 7.289062 5.382812 " clip-rule="nonzero"/></clipPath><clipPath id="6d385b6822"><rect x="0" width="27" y="0" height="19"/></clipPath></defs><path fill="#ffa343" d="M 162.695312 135.082031 C 155.75 136.957031 124.8125 84.792969 118.929688 64.289062 C 113.050781 43.785156 107.726562 15.628906 127.421875 12.054688 C 143.65625 9.101562 154.75 32.527344 160.628906 53.03125 C 166.507812 73.535156 169.644531 133.207031 162.695312 135.082031 Z M 162.695312 135.082031 " fill-opacity="1" fill-rule="evenodd"/><path fill="#ffa343" d="M 204.429688 239.160156 C 210.433594 235.191406 256.226562 274.957031 268.265625 292.566406 C 280.304688 310.175781 294.226562 335.21875 276.660156 344.816406 C 262.183594 352.730469 244.273438 333.992188 232.234375 316.386719 C 220.195312 298.777344 198.425781 243.132812 204.429688 239.160156 Z M 204.429688 239.160156 " fill-opacity="1" fill-rule="evenodd"/><path fill="#ffb653" d="M 221.449219 230.707031 C 225.8125 224.988281 282.128906 247.5 299.285156 260.175781 C 316.4375 272.851562 337.816406 291.933594 324.378906 306.769531 C 313.304688 319 290.234375 307.1875 273.078125 294.511719 C 255.921875 281.832031 217.078125 236.429688 221.449219 230.707031 Z M 221.449219 230.707031 " fill-opacity="1" fill-rule="evenodd"/><path fill="#ffa343" d="M 132.261719 219.847656 C 134.539062 226.671875 84.261719 260.589844 64.132812 267.648438 C 44.003906 274.710938 16.207031 281.660156 11.492188 262.207031 C 7.601562 246.171875 30.34375 233.734375 50.472656 226.675781 C 70.601562 219.613281 129.988281 213.019531 132.261719 219.847656 Z M 132.261719 219.847656 " fill-opacity="1" fill-rule="evenodd"/><path fill="#ffb653" d="M 225.574219 155.253906 C 221.390625 149.402344 259.441406 102.175781 276.59375 89.496094 C 293.75 76.816406 318.265625 61.984375 328.503906 79.183594 C 336.941406 93.363281 318.878906 111.945312 301.722656 124.625 C 284.570312 137.304688 229.765625 161.109375 225.574219 155.253906 Z M 225.574219 155.253906 " fill-opacity="1" fill-rule="evenodd"/><path fill="#ffcf48" d="M 149.039062 141.589844 C 143.167969 145.746094 96.125 107.472656 83.527344 90.261719 C 70.929688 73.046875 56.210938 48.460938 73.457031 38.304688 C 87.675781 29.929688 106.175781 48.082031 118.773438 65.296875 C 131.371094 82.511719 154.914062 137.429688 149.039062 141.589844 Z M 149.039062 141.589844 " fill-opacity="1" fill-rule="evenodd"/><path fill="#ffcf48" d="M 231.179688 212.257812 C 233.65625 205.632812 294.003906 211.035156 314.105469 218.171875 C 334.207031 225.3125 360.222656 237.304688 351.785156 255.089844 C 344.828125 269.75 319.339844 265.089844 299.242188 257.953125 C 279.140625 250.8125 228.703125 218.890625 231.179688 212.257812 Z M 231.179688 212.257812 " fill-opacity="1" fill-rule="evenodd"/><path fill="#ffcf48" d="M 136.777344 232.90625 C 141.691406 238.160156 110.136719 289.953125 94.789062 304.765625 C 79.4375 319.578125 57.070312 337.488281 44.671875 321.773438 C 34.453125 308.820312 49.933594 288.035156 65.285156 273.222656 C 80.636719 258.410156 131.859375 227.648438 136.777344 232.90625 Z M 136.777344 232.90625 " fill-opacity="1" fill-rule="evenodd"/><path fill="#ffa343" d="M 212.316406 135.890625 C 207.015625 131.023438 234.535156 76.980469 248.714844 61.042969 C 262.890625 45.105469 283.832031 25.546875 297.386719 40.269531 C 308.566406 52.40625 294.710938 74.3125 280.535156 90.25 C 266.355469 106.1875 217.621094 140.757812 212.316406 135.890625 Z M 212.316406 135.890625 " fill-opacity="1" fill-rule="evenodd"/><path fill="#ffa343" d="M 138.945312 154.28125 C 135.113281 160.367188 77.007812 142.988281 58.785156 131.898438 C 40.5625 120.808594 17.566406 103.71875 29.617188 87.742188 C 39.554688 74.566406 63.589844 84.269531 81.8125 95.359375 C 100.035156 106.449219 142.785156 148.191406 138.945312 154.28125 Z M 138.945312 154.28125 " fill-opacity="1" fill-rule="evenodd"/><path fill="#ffb653" d="M 232.546875 193.410156 C 233.277344 186.234375 293.351562 171.519531 314.714844 171.738281 C 336.074219 171.960938 364.421875 174.894531 360.710938 194.746094 C 357.65625 211.109375 331.683594 215.042969 310.320312 214.820312 C 288.960938 214.597656 231.8125 200.589844 232.546875 193.410156 Z M 232.546875 193.410156 " fill-opacity="1" fill-rule="evenodd"/><path fill="#ffb653" d="M 150.421875 237.316406 C 157.035156 240.148438 149.003906 300.261719 140.917969 320 C 132.828125 339.738281 119.566406 365.140625 101.890625 355.746094 C 87.320312 348.003906 93.121094 322.742188 101.210938 303.003906 C 109.296875 283.265625 143.800781 234.484375 150.421875 237.316406 Z M 150.421875 237.316406 " fill-opacity="1" fill-rule="evenodd"/><path fill="#ffcf48" d="M 196.753906 134.335938 C 190.019531 131.796875 195.394531 71.390625 202.605469 51.3125 C 209.816406 31.238281 221.949219 5.277344 240.019531 13.882812 C 254.917969 20.976562 250.234375 46.46875 243.023438 66.542969 C 235.8125 86.621094 203.488281 136.875 196.753906 134.335938 Z M 196.753906 134.335938 " fill-opacity="1" fill-rule="evenodd"/><path fill="#ffcf48" d="M 138.269531 180.316406 C 136.089844 187.941406 72.324219 188.132812 50.746094 182.261719 C 29.167969 176.386719 1.066406 165.71875 8.804688 145.070312 C 15.183594 128.050781 42.265625 130.613281 63.84375 136.488281 C 85.421875 142.359375 140.453125 172.6875 138.269531 180.316406 Z M 138.269531 180.316406 " fill-opacity="1" fill-rule="evenodd"/><path fill="#ffcf48" d="M 172.453125 240.921875 C 179.550781 242.105469 185.996094 302.410156 182.816406 323.503906 C 179.636719 344.59375 172.773438 372.414062 153.375 367.480469 C 137.382812 363.410156 137.035156 337.496094 140.210938 316.402344 C 143.390625 295.308594 165.351562 239.738281 172.453125 240.921875 Z M 172.453125 240.921875 " fill-opacity="1" fill-rule="evenodd"/><path fill="#ffb653" d="M 179.4375 130.898438 C 172.257812 130.445312 159.695312 71.113281 160.707031 49.804688 C 161.71875 28.496094 165.710938 0.121094 185.511719 3.054688 C 201.835938 5.472656 204.824219 31.21875 203.8125 52.523438 C 202.800781 73.832031 186.621094 131.351562 179.4375 130.898438 Z M 179.4375 130.898438 " fill-opacity="1" fill-rule="evenodd"/><path fill="#ffb653" d="M 134.035156 198.980469 C 134.164062 206.175781 76.03125 223.464844 54.710938 224.167969 C 33.394531 224.875 4.789062 223.175781 6.121094 203.203125 C 7.21875 186.738281 32.640625 181.6875 53.957031 180.984375 C 75.277344 180.28125 133.910156 191.785156 134.035156 198.980469 Z M 134.035156 198.980469 " fill-opacity="1" fill-rule="evenodd"/><path fill="#ffcf48" d="M 232.660156 171.769531 C 230.605469 164.875 281.953125 132.601562 302.300781 126.191406 C 322.644531 119.785156 350.652344 113.734375 354.738281 133.332031 C 358.105469 149.484375 334.976562 161.179688 314.628906 167.585938 C 294.285156 173.992188 234.714844 178.667969 232.660156 171.769531 Z M 232.660156 171.769531 " fill-opacity="1" fill-rule="evenodd"/><path fill="#ffb653" d="M 188.105469 243.222656 C 195.121094 241.640625 223.863281 295.042969 228.882812 315.777344 C 233.90625 336.507812 238.054688 364.859375 218.226562 367.613281 C 201.882812 369.886719 191.773438 346.019531 186.753906 325.289062 C 181.730469 304.558594 181.082031 244.808594 188.105469 243.222656 Z M 188.105469 243.222656 " fill-opacity="1" fill-rule="evenodd"/><path fill="#a5694f" d="M 267.242188 149.5625 C 281.851562 174.871094 281.46875 199.539062 273.570312 225.296875 C 266.492188 248.386719 255.472656 267.59375 233.050781 280.539062 C 213.199219 292 192.75 294.953125 171.578125 291.902344 C 142.167969 287.65625 114.503906 273.914062 98.394531 246.007812 C 84.066406 221.195312 83.921875 194.535156 90.84375 169.765625 C 97.3125 146.628906 113.335938 127.011719 136.242188 113.785156 C 156.515625 102.082031 179.246094 96.535156 200.816406 99.945312 C 229.714844 104.515625 251.375 122.082031 267.242188 149.5625 Z M 267.242188 149.5625 " fill-opacity="1" fill-rule="evenodd"/><path fill="#d68a59" d="M 255.691406 157.183594 C 268.121094 178.714844 267.855469 199.664062 261.230469 221.519531 C 255.292969 241.113281 246.011719 257.402344 227.0625 268.34375 C 210.28125 278.03125 192.976562 280.492188 175.046875 277.847656 C 150.140625 274.175781 126.6875 262.433594 112.980469 238.695312 C 100.796875 217.589844 100.609375 194.945312 106.410156 173.925781 C 111.828125 154.289062 125.347656 137.667969 144.710938 126.488281 C 161.84375 116.597656 181.074219 111.9375 199.34375 114.886719 C 223.816406 118.835938 242.195312 133.808594 255.691406 157.183594 Z M 255.691406 157.183594 " fill-opacity="1" fill-rule="evenodd"/><g clip-path="url(#4600d12a53)"><g clip-path="url(#16afb3b662)"><g clip-path="url(#dcbf505ee1)"><g transform="matrix(1, 0, 0, 1, 141, 169)"><g clip-path="url(#74947a4de4)"><g clip-path="url(#34dbdfbe9d)"><g clip-path="url(#4544c29010)"><g clip-path="url(#ba2a4b0f27)"><path fill="#000000" d="M 32.644531 22.511719 L -1.898438 23.421875 L -2.539062 -0.871094 L 32.003906 -1.78125 Z M 32.644531 22.511719 " fill-opacity="1" fill-rule="nonzero"/></g></g></g></g></g></g></g></g><g clip-path="url(#24e0cfe40b)"><g clip-path="url(#94404f510c)"><g transform="matrix(1, 0, 0, 1, 194, 168)"><g clip-path="url(#8eaa309097)"><g clip-path="url(#1dc4ce6d62)"><g clip-path="url(#0cf2ca7582)"><rect x="-276.5" width="540" fill="#000000" height="539.999987" y="-250.499998" fill-opacity="1"/></g></g></g></g></g></g><g clip-path="url(#ecda3f9df1)"><g clip-path="url(#d65136a8b3)"><g transform="matrix(1, 0, 0, 1, 170, 208)"><g clip-path="url(#6d385b6822)"><g clip-path="url(#174c404bfd)"><g clip-path="url(#ca478f3cf5)"><rect x="-252.5" width="540" fill="#000000" height="539.999987" y="-290.499998" fill-opacity="1"/></g></g></g></g></g></g></svg>