<svg xmlns="http://www.w3.org/2000/svg" xmlns:xlink="http://www.w3.org/1999/xlink" width="500" zoomAndPan="magnify" viewBox="0 0 375 374.999991" height="500" preserveAspectRatio="xMidYMid meet" version="1.0"><defs><g/><clipPath id="862910994c"><path d="M 256 100 L 305 100 L 305 156.835938 L 256 156.835938 Z M 256 100 " clip-rule="nonzero"/></clipPath><clipPath id="9960d2a635"><path d="M 240.898438 57.835938 L 318.898438 57.835938 L 318.898438 137 L 240.898438 137 Z M 240.898438 57.835938 " clip-rule="nonzero"/></clipPath></defs><path fill="#0081cc" d="M 335.667969 271.308594 C 338.542969 288.519531 333.382812 306.777344 320.082031 320.082031 C 306.78125 333.382812 288.523438 338.539062 271.3125 335.667969 C 256.921875 333.265625 242.011719 338.238281 233.847656 350.328125 C 223.796875 365.207031 206.839844 375 187.5 375 C 168.164062 375 151.207031 365.207031 141.15625 350.328125 C 132.992188 338.238281 118.082031 333.265625 103.691406 335.667969 C 86.480469 338.539062 68.222656 333.382812 54.921875 320.082031 C 41.621094 306.777344 36.460938 288.519531 39.335938 271.308594 C 41.738281 256.917969 36.765625 242.007812 24.675781 233.84375 C 9.792969 223.792969 0.00390625 206.835938 0.00390625 187.5 C 0.00390625 168.164062 9.792969 151.207031 24.675781 141.15625 C 36.765625 132.988281 41.738281 118.078125 39.335938 103.6875 C 36.460938 86.476562 41.621094 68.21875 54.921875 54.917969 C 68.222656 41.613281 86.480469 36.457031 103.691406 39.328125 C 118.082031 41.734375 132.992188 36.761719 141.15625 24.667969 C 151.207031 9.789062 168.164062 0 187.5 0 C 206.839844 0 223.796875 9.789062 233.847656 24.667969 C 242.011719 36.757812 256.921875 41.730469 271.3125 39.328125 C 288.523438 36.457031 306.78125 41.613281 320.082031 54.917969 C 333.386719 68.21875 338.542969 86.476562 335.667969 103.6875 C 333.265625 118.078125 338.238281 132.988281 350.328125 141.15625 C 365.210938 151.207031 375 168.160156 375 187.5 C 375 206.839844 365.210938 223.792969 350.328125 233.84375 C 338.238281 242.007812 333.265625 256.921875 335.667969 271.308594 Z M 335.667969 271.308594 " fill-opacity="1" fill-rule="nonzero"/><g clip-path="url(#862910994c)"><path fill="#ffde59" d="M 304.417969 156.652344 L 304.417969 100.652344 L 256.84375 100.652344 L 256.84375 156.652344 L 280.632812 146.8125 L 304.417969 156.652344 " fill-opacity="1" fill-rule="nonzero"/></g><g clip-path="url(#9960d2a635)"><path fill="#ffde59" d="M 319.125 96.929688 C 319.125 118.511719 301.628906 136.007812 280.050781 136.007812 C 258.46875 136.007812 240.976562 118.511719 240.976562 96.929688 C 240.976562 75.351562 258.46875 57.863281 280.050781 57.863281 C 301.628906 57.863281 319.125 75.351562 319.125 96.929688 " fill-opacity="1" fill-rule="nonzero"/></g><path fill="#ffffff" d="M 311.769531 96.929688 C 311.769531 114.449219 297.566406 128.65625 280.050781 128.65625 C 262.535156 128.65625 248.332031 114.449219 248.332031 96.929688 C 248.332031 79.417969 262.535156 65.21875 280.050781 65.21875 C 297.566406 65.21875 311.769531 79.417969 311.769531 96.929688 " fill-opacity="1" fill-rule="nonzero"/><path fill="#ffde59" d="M 311.769531 96.929688 L 311.035156 96.929688 C 311.035156 105.492188 307.566406 113.230469 301.957031 118.839844 C 296.351562 124.449219 288.605469 127.914062 280.050781 127.921875 C 271.492188 127.914062 263.75 124.449219 258.140625 118.839844 C 252.535156 113.230469 249.066406 105.492188 249.066406 96.929688 C 249.066406 88.375 252.535156 80.636719 258.140625 75.023438 C 263.75 69.414062 271.488281 65.953125 280.050781 65.953125 C 288.605469 65.953125 296.351562 69.414062 301.957031 75.023438 C 307.566406 80.636719 311.035156 88.375 311.035156 96.929688 L 312.503906 96.929688 C 312.503906 79.011719 297.976562 64.484375 280.050781 64.484375 C 262.128906 64.484375 247.597656 79.011719 247.597656 96.929688 C 247.597656 114.859375 262.128906 129.382812 280.050781 129.390625 C 297.976562 129.382812 312.503906 114.859375 312.503906 96.929688 L 311.769531 96.929688 " fill-opacity="1" fill-rule="nonzero"/><path fill="#ffde59" d="M 287.820312 89.371094 L 303.730469 92.027344 L 291.941406 103.042969 L 294.332031 118.996094 L 280.21875 111.1875 L 265.777344 118.394531 L 268.84375 102.554688 L 257.53125 91.050781 L 273.542969 89.070312 L 280.984375 74.757812 L 287.820312 89.371094 " fill-opacity="1" fill-rule="nonzero"/><g fill="#ffffff" fill-opacity="1"><g transform="translate(47.646801, 212.573789)"><g><path d="M 43.53125 -34.78125 C 43.582031 -34.351562 43.582031 -33.96875 43.53125 -33.625 C 43.488281 -33.28125 43.445312 -32.9375 43.40625 -32.59375 C 43.195312 -31.945312 42.960938 -31.429688 42.703125 -31.046875 C 42.359375 -30.273438 41.863281 -29.800781 41.21875 -29.625 C 41.175781 -29.625 41.144531 -29.625 41.125 -29.625 C 41.101562 -29.625 41.050781 -29.625 40.96875 -29.625 C 40.707031 -29.625 40.507812 -29.644531 40.375 -29.6875 C 40.125 -29.820312 39.976562 -29.953125 39.9375 -30.078125 C 39.84375 -30.421875 39.867188 -30.71875 40.015625 -30.96875 C 40.171875 -31.226562 40.398438 -31.359375 40.703125 -31.359375 C 41.304688 -31.359375 41.703125 -31.457031 41.890625 -31.65625 C 42.085938 -31.851562 42.269531 -32.226562 42.4375 -32.78125 C 42.53125 -33 42.597656 -33.253906 42.640625 -33.546875 C 42.679688 -33.847656 42.679688 -34.148438 42.640625 -34.453125 C 42.503906 -35.960938 41.664062 -36.84375 40.125 -37.09375 C 39.4375 -37.09375 38.832031 -37.050781 38.3125 -36.96875 C 37.800781 -36.882812 37.242188 -36.601562 36.640625 -36.125 C 35.828125 -35.4375 35.21875 -34.789062 34.8125 -34.1875 C 34.40625 -33.59375 33.941406 -32.820312 33.421875 -31.875 C 32.867188 -30.550781 32.363281 -29.179688 31.90625 -27.765625 C 31.457031 -26.347656 31.128906 -24.929688 30.921875 -23.515625 C 30.742188 -22.828125 30.625 -22.253906 30.5625 -21.796875 C 30.5 -21.347656 30.46875 -21.0625 30.46875 -20.9375 C 30.425781 -20.894531 30.359375 -20.484375 30.265625 -19.703125 C 30.523438 -19.703125 30.769531 -19.691406 31 -19.671875 C 31.238281 -19.648438 31.46875 -19.617188 31.6875 -19.578125 C 32.675781 -19.316406 33.535156 -18.972656 34.265625 -18.546875 C 34.867188 -18.078125 35.171875 -17.5625 35.171875 -17 C 35.117188 -16.695312 35.019531 -16.4375 34.875 -16.21875 C 34.726562 -16.007812 34.566406 -15.863281 34.390625 -15.78125 C 34.347656 -15.78125 34.316406 -15.78125 34.296875 -15.78125 C 34.273438 -15.78125 34.265625 -15.78125 34.265625 -15.78125 C 34.085938 -15.78125 33.957031 -15.820312 33.875 -15.90625 C 33.707031 -16.125 33.6875 -16.40625 33.8125 -16.75 C 33.9375 -17.050781 33.910156 -17.328125 33.734375 -17.578125 C 33.566406 -17.835938 33.3125 -18.054688 32.96875 -18.234375 C 32.675781 -18.398438 32.359375 -18.503906 32.015625 -18.546875 C 31.671875 -18.585938 31.328125 -18.609375 30.984375 -18.609375 C 30.890625 -18.609375 30.789062 -18.609375 30.6875 -18.609375 C 30.582031 -18.609375 30.488281 -18.609375 30.40625 -18.609375 C 30.351562 -18.609375 30.304688 -18.609375 30.265625 -18.609375 C 30.222656 -18.609375 30.179688 -18.609375 30.140625 -18.609375 C 30.097656 -17.921875 30.046875 -17.082031 29.984375 -16.09375 C 29.921875 -15.113281 29.863281 -14.066406 29.8125 -12.953125 C 29.8125 -11.316406 29.851562 -9.628906 29.9375 -7.890625 C 30.03125 -6.148438 30.3125 -4.460938 30.78125 -2.828125 C 30.875 -2.578125 30.953125 -2.3125 31.015625 -2.03125 C 31.078125 -1.75 31.171875 -1.5 31.296875 -1.28125 C 31.390625 -1.113281 31.457031 -0.972656 31.5 -0.859375 C 31.539062 -0.753906 31.601562 -0.640625 31.6875 -0.515625 C 31.769531 -0.390625 31.851562 -0.257812 31.9375 -0.125 C 32.03125 0 32.097656 0.125 32.140625 0.25 C 32.347656 0.507812 32.601562 0.742188 32.90625 0.953125 C 33.207031 1.171875 33.507812 1.28125 33.8125 1.28125 C 34.457031 1.28125 35.015625 1.046875 35.484375 0.578125 C 35.566406 0.453125 35.628906 0.332031 35.671875 0.21875 C 35.722656 0.113281 35.769531 0 35.8125 -0.125 C 35.894531 -0.207031 35.9375 -0.300781 35.9375 -0.40625 C 35.9375 -0.519531 35.957031 -0.597656 36 -0.640625 C 36 -1.023438 35.894531 -1.304688 35.6875 -1.484375 C 35.382812 -1.691406 35.273438 -1.96875 35.359375 -2.3125 C 35.441406 -2.65625 35.632812 -2.894531 35.9375 -3.03125 C 35.976562 -3.070312 36.066406 -3.09375 36.203125 -3.09375 C 36.628906 -3.09375 36.945312 -2.832031 37.15625 -2.3125 C 37.457031 -1.800781 37.414062 -1.113281 37.03125 -0.25 C 36.988281 -0.125 36.9375 -0.0078125 36.875 0.09375 C 36.8125 0.195312 36.734375 0.335938 36.640625 0.515625 C 36.554688 0.597656 36.445312 0.710938 36.3125 0.859375 C 36.1875 1.015625 36.0625 1.179688 35.9375 1.359375 C 35.632812 1.566406 35.289062 1.78125 34.90625 2 C 34.601562 2.125 34.257812 2.1875 33.875 2.1875 C 33.0625 2.1875 32.382812 1.945312 31.84375 1.46875 C 31.3125 1 30.875 0.425781 30.53125 -0.25 C 29.96875 -1.070312 29.535156 -2.210938 29.234375 -3.671875 C 28.941406 -5.128906 28.726562 -6.332031 28.59375 -7.28125 C 28.332031 -9.46875 28.242188 -11.546875 28.328125 -13.515625 C 28.421875 -15.492188 28.53125 -17.148438 28.65625 -18.484375 C 27.84375 -18.316406 27.015625 -18.113281 26.171875 -17.875 C 25.335938 -17.632812 24.492188 -17.363281 23.640625 -17.0625 C 23.597656 -16.8125 23.53125 -16.566406 23.4375 -16.328125 C 23.351562 -16.085938 23.269531 -15.863281 23.1875 -15.65625 C 22.625 -13.976562 22.082031 -12.644531 21.5625 -11.65625 C 21.050781 -10.664062 20.773438 -10.109375 20.734375 -9.984375 L 20.671875 -9.921875 L 20.671875 -9.859375 L 20.609375 -9.71875 C 20.566406 -9.675781 20.265625 -9.160156 19.703125 -8.171875 C 19.398438 -7.742188 19.054688 -7.207031 18.671875 -6.5625 C 18.285156 -5.925781 17.796875 -5.242188 17.203125 -4.515625 C 16.460938 -3.691406 15.648438 -2.894531 14.765625 -2.125 C 13.890625 -1.351562 12.894531 -0.796875 11.78125 -0.453125 C 11.4375 -0.316406 11.070312 -0.207031 10.6875 -0.125 C 10.300781 -0.0390625 9.914062 0 9.53125 0 C 8.625 0 7.804688 -0.148438 7.078125 -0.453125 C 6.992188 -0.535156 6.898438 -0.585938 6.796875 -0.609375 C 6.691406 -0.628906 6.59375 -0.660156 6.5 -0.703125 C 6.332031 -0.796875 6.207031 -0.882812 6.125 -0.96875 C 5.6875 -1.175781 5.363281 -1.390625 5.15625 -1.609375 C 4.25 -2.210938 3.503906 -3.015625 2.921875 -4.015625 C 2.347656 -5.023438 1.910156 -6.109375 1.609375 -7.265625 C 1.304688 -8.429688 1.15625 -9.507812 1.15625 -10.5 C 1.15625 -12.988281 1.710938 -15.15625 2.828125 -17 C 3.128906 -17.425781 3.441406 -17.820312 3.765625 -18.1875 C 4.085938 -18.5625 4.421875 -18.875 4.765625 -19.125 C 5.109375 -19.425781 5.460938 -19.660156 5.828125 -19.828125 C 6.191406 -20.003906 6.523438 -20.132812 6.828125 -20.21875 C 7.046875 -20.257812 7.238281 -20.289062 7.40625 -20.3125 C 7.582031 -20.34375 7.753906 -20.359375 7.921875 -20.359375 C 8.179688 -20.359375 8.375 -20.332031 8.5 -20.28125 C 8.84375 -20.238281 9.144531 -20.09375 9.40625 -19.84375 C 9.613281 -19.625 9.707031 -19.363281 9.6875 -19.0625 C 9.664062 -18.757812 9.59375 -18.566406 9.46875 -18.484375 C 9.207031 -18.265625 8.882812 -18.15625 8.5 -18.15625 C 8.195312 -18.15625 7.941406 -18.304688 7.734375 -18.609375 C 7.597656 -18.910156 7.316406 -19.0625 6.890625 -19.0625 C 6.421875 -18.976562 5.882812 -18.765625 5.28125 -18.421875 C 5.019531 -18.203125 4.757812 -17.941406 4.5 -17.640625 C 4.25 -17.347656 4.015625 -17.003906 3.796875 -16.609375 C 3.585938 -16.265625 3.394531 -15.898438 3.21875 -15.515625 C 3.050781 -15.128906 2.921875 -14.722656 2.828125 -14.296875 C 2.441406 -12.921875 2.316406 -11.460938 2.453125 -9.921875 C 2.578125 -8.328125 3.046875 -6.78125 3.859375 -5.28125 C 4.679688 -3.78125 5.863281 -2.664062 7.40625 -1.9375 C 7.832031 -1.757812 8.25 -1.648438 8.65625 -1.609375 C 9.070312 -1.566406 9.492188 -1.546875 9.921875 -1.546875 C 11.078125 -1.765625 12.09375 -2.148438 12.96875 -2.703125 C 13.851562 -3.265625 14.679688 -3.992188 15.453125 -4.890625 C 16.222656 -5.660156 16.953125 -6.550781 17.640625 -7.5625 C 18.328125 -8.570312 18.910156 -9.570312 19.390625 -10.5625 C 19.597656 -10.863281 19.863281 -11.390625 20.1875 -12.140625 C 20.507812 -12.890625 20.832031 -13.660156 21.15625 -14.453125 C 21.476562 -15.253906 21.703125 -15.867188 21.828125 -16.296875 C 21.742188 -16.253906 21.632812 -16.207031 21.5 -16.15625 C 21.375 -16.113281 21.25 -16.050781 21.125 -15.96875 C 20.4375 -15.625 19.820312 -15.28125 19.28125 -14.9375 C 18.75 -14.59375 18.3125 -14.296875 17.96875 -14.046875 C 17.625 -13.742188 17.351562 -13.492188 17.15625 -13.296875 C 16.96875 -13.109375 16.875 -13.015625 16.875 -13.015625 C 16.75 -12.972656 16.578125 -12.953125 16.359375 -12.953125 C 16.097656 -13.035156 15.867188 -13.148438 15.671875 -13.296875 C 15.484375 -13.453125 15.390625 -13.675781 15.390625 -13.96875 C 15.304688 -14.101562 15.394531 -14.300781 15.65625 -14.5625 C 15.695312 -14.5625 15.78125 -14.625 15.90625 -14.75 C 16.03125 -14.875 16.179688 -15.023438 16.359375 -15.203125 C 16.617188 -15.367188 16.910156 -15.570312 17.234375 -15.8125 C 17.554688 -16.050781 17.929688 -16.253906 18.359375 -16.421875 C 18.910156 -16.765625 19.53125 -17.109375 20.21875 -17.453125 C 20.90625 -17.796875 21.660156 -18.117188 22.484375 -18.421875 C 22.609375 -18.765625 22.722656 -19.140625 22.828125 -19.546875 C 22.941406 -19.953125 23.039062 -20.367188 23.125 -20.796875 C 23.46875 -22.171875 23.722656 -23.628906 23.890625 -25.171875 C 24.066406 -26.722656 24.085938 -28.296875 23.953125 -29.890625 C 23.910156 -30.703125 23.785156 -31.492188 23.578125 -32.265625 C 23.484375 -32.828125 23.316406 -33.460938 23.078125 -34.171875 C 22.847656 -34.878906 22.539062 -35.425781 22.15625 -35.8125 C 21.976562 -36.15625 21.65625 -36.390625 21.1875 -36.515625 C 21.101562 -36.554688 20.972656 -36.578125 20.796875 -36.578125 C 20.546875 -36.578125 20.289062 -36.515625 20.03125 -36.390625 C 19.6875 -36.265625 19.363281 -36.050781 19.0625 -35.75 C 18.894531 -35.613281 18.734375 -35.457031 18.578125 -35.28125 C 18.429688 -35.113281 18.269531 -34.925781 18.09375 -34.71875 C 17.96875 -34.539062 17.847656 -34.363281 17.734375 -34.1875 C 17.628906 -34.019531 17.535156 -33.832031 17.453125 -33.625 C 17.234375 -33.28125 17.035156 -32.925781 16.859375 -32.5625 C 16.691406 -32.195312 16.566406 -31.84375 16.484375 -31.5 C 16.316406 -30.8125 16.234375 -30.21875 16.234375 -29.71875 C 16.234375 -29.226562 16.359375 -28.941406 16.609375 -28.859375 C 17.003906 -28.722656 17.15625 -28.40625 17.0625 -27.90625 C 16.976562 -27.414062 16.765625 -27.003906 16.421875 -26.671875 C 16.335938 -26.535156 16.125 -26.46875 15.78125 -26.46875 C 15.476562 -26.550781 15.265625 -26.742188 15.140625 -27.046875 C 14.835938 -27.609375 14.816406 -28.507812 15.078125 -29.75 C 15.285156 -31 15.820312 -32.503906 16.6875 -34.265625 C 16.769531 -34.347656 16.84375 -34.441406 16.90625 -34.546875 C 16.96875 -34.660156 17.019531 -34.757812 17.0625 -34.84375 C 17.101562 -34.925781 17.210938 -35.097656 17.390625 -35.359375 C 17.429688 -35.441406 17.472656 -35.503906 17.515625 -35.546875 C 17.554688 -35.585938 17.597656 -35.65625 17.640625 -35.75 C 17.859375 -36.050781 18.109375 -36.328125 18.390625 -36.578125 C 18.671875 -36.835938 18.984375 -37.054688 19.328125 -37.234375 C 19.796875 -37.566406 20.351562 -37.734375 21 -37.734375 C 21.082031 -37.734375 21.164062 -37.722656 21.25 -37.703125 C 21.34375 -37.679688 21.410156 -37.671875 21.453125 -37.671875 C 22.265625 -37.503906 22.925781 -37.03125 23.4375 -36.25 C 23.957031 -35.476562 24.300781 -34.726562 24.46875 -34 C 24.5625 -33.789062 24.628906 -33.609375 24.671875 -33.453125 C 24.710938 -33.304688 24.753906 -33.171875 24.796875 -33.046875 C 24.878906 -32.867188 24.929688 -32.703125 24.953125 -32.546875 C 24.972656 -32.398438 25.003906 -32.265625 25.046875 -32.140625 C 25.179688 -31.535156 25.269531 -30.910156 25.3125 -30.265625 C 25.351562 -29.628906 25.375 -29.007812 25.375 -28.40625 C 25.457031 -27.195312 25.4375 -26.003906 25.3125 -24.828125 C 25.1875 -23.648438 25.015625 -22.523438 24.796875 -21.453125 C 24.617188 -20.546875 24.425781 -19.707031 24.21875 -18.9375 C 24.257812 -18.9375 24.363281 -18.976562 24.53125 -19.0625 C 25.269531 -19.28125 25.992188 -19.429688 26.703125 -19.515625 C 27.410156 -19.597656 28.109375 -19.660156 28.796875 -19.703125 C 28.921875 -20.484375 28.984375 -20.957031 28.984375 -21.125 L 29.046875 -21.125 L 29.046875 -21.1875 C 29.046875 -21.269531 29.109375 -21.71875 29.234375 -22.53125 C 29.367188 -23.351562 29.585938 -24.390625 29.890625 -25.640625 C 30.054688 -26.835938 30.40625 -28.1875 30.9375 -29.6875 C 31.476562 -31.195312 32.144531 -32.613281 32.9375 -33.9375 C 33.738281 -35.269531 34.609375 -36.28125 35.546875 -36.96875 C 35.984375 -37.351562 36.457031 -37.632812 36.96875 -37.8125 C 37.53125 -38.101562 38.085938 -38.273438 38.640625 -38.328125 C 39.367188 -38.328125 39.957031 -38.289062 40.40625 -38.21875 C 40.863281 -38.15625 41.414062 -37.929688 42.0625 -37.546875 C 42.53125 -37.160156 42.894531 -36.734375 43.15625 -36.265625 C 43.28125 -36.003906 43.363281 -35.742188 43.40625 -35.484375 C 43.445312 -35.222656 43.488281 -34.988281 43.53125 -34.78125 Z M 43.53125 -34.78125 "/></g></g></g><g fill="#ffffff" fill-opacity="1"><g transform="translate(85.839715, 212.573789)"><g><path d="M 14.6875 -15.328125 C 15.375 -14.128906 15.609375 -13.226562 15.390625 -12.625 C 15.347656 -12.28125 15.175781 -12.046875 14.875 -11.921875 C 14.832031 -11.867188 14.726562 -11.84375 14.5625 -11.84375 C 14.382812 -11.84375 14.253906 -11.867188 14.171875 -11.921875 C 13.785156 -12.210938 13.523438 -12.554688 13.390625 -12.953125 C 13.222656 -13.421875 13.269531 -13.738281 13.53125 -13.90625 C 13.738281 -14.082031 13.78125 -14.425781 13.65625 -14.9375 C 13.570312 -15.15625 13.429688 -15.390625 13.234375 -15.640625 C 13.046875 -15.898438 12.800781 -16.140625 12.5 -16.359375 C 12.238281 -16.578125 11.914062 -16.769531 11.53125 -16.9375 C 11.144531 -17.113281 10.710938 -17.203125 10.234375 -17.203125 C 9.296875 -17.203125 8.394531 -16.878906 7.53125 -16.234375 C 6.59375 -15.585938 5.769531 -14.628906 5.0625 -13.359375 C 4.351562 -12.097656 3.789062 -10.78125 3.375 -9.40625 C 2.96875 -8.03125 2.765625 -6.785156 2.765625 -5.671875 C 2.722656 -4.898438 2.765625 -4.144531 2.890625 -3.40625 C 2.941406 -3.0625 3.070312 -2.722656 3.28125 -2.390625 C 3.457031 -2.046875 3.71875 -1.875 4.0625 -1.875 C 4.40625 -1.875 4.722656 -2.007812 5.015625 -2.28125 C 5.316406 -2.5625 5.554688 -2.832031 5.734375 -3.09375 C 6.117188 -3.695312 6.441406 -4.210938 6.703125 -4.640625 C 6.785156 -4.765625 6.859375 -4.890625 6.921875 -5.015625 C 6.984375 -5.148438 7.035156 -5.28125 7.078125 -5.40625 L 7.53125 -6.1875 C 7.789062 -6.738281 8.035156 -7.257812 8.265625 -7.75 C 8.503906 -8.25 8.710938 -8.710938 8.890625 -9.140625 C 9.660156 -10.992188 10.066406 -11.984375 10.109375 -12.109375 C 10.410156 -12.753906 10.796875 -13.078125 11.265625 -13.078125 C 11.398438 -13.078125 11.488281 -13.054688 11.53125 -13.015625 C 11.738281 -12.921875 11.863281 -12.734375 11.90625 -12.453125 C 11.957031 -12.179688 11.9375 -11.894531 11.84375 -11.59375 C 11.84375 -11.550781 11.800781 -11.269531 11.71875 -10.75 C 11.632812 -10.238281 11.570312 -9.617188 11.53125 -8.890625 C 11.488281 -8.117188 11.488281 -7.28125 11.53125 -6.375 C 11.570312 -5.476562 11.765625 -4.660156 12.109375 -3.921875 C 12.191406 -3.753906 12.335938 -3.570312 12.546875 -3.375 C 12.765625 -3.1875 12.984375 -3.070312 13.203125 -3.03125 C 13.460938 -3.03125 13.675781 -3.070312 13.84375 -3.15625 C 14.019531 -3.28125 14.171875 -3.472656 14.296875 -3.734375 C 14.421875 -4.078125 14.53125 -4.289062 14.625 -4.375 C 14.707031 -4.414062 14.75 -4.375 14.75 -4.25 C 14.75 -3.820312 14.679688 -3.390625 14.546875 -2.953125 C 14.421875 -2.523438 14.082031 -2.269531 13.53125 -2.1875 C 13.351562 -2.1875 13.195312 -2.195312 13.0625 -2.21875 C 12.9375 -2.238281 12.789062 -2.269531 12.625 -2.3125 C 12.320312 -2.488281 12.039062 -2.660156 11.78125 -2.828125 C 11.269531 -3.265625 10.882812 -3.828125 10.625 -4.515625 C 10.457031 -4.804688 10.335938 -5.113281 10.265625 -5.4375 C 10.203125 -5.757812 10.128906 -6.070312 10.046875 -6.375 C 10.003906 -6.5 9.984375 -6.613281 9.984375 -6.71875 C 9.984375 -6.832031 9.960938 -6.929688 9.921875 -7.015625 C 9.835938 -6.847656 9.738281 -6.65625 9.625 -6.4375 C 9.519531 -6.226562 9.425781 -6.015625 9.34375 -5.796875 C 9.25 -5.617188 9.148438 -5.421875 9.046875 -5.203125 C 8.941406 -4.992188 8.820312 -4.785156 8.6875 -4.578125 C 8.6875 -4.578125 8.601562 -4.445312 8.4375 -4.1875 L 8.171875 -3.734375 C 7.878906 -3.304688 7.582031 -2.863281 7.28125 -2.40625 C 6.976562 -1.957031 6.632812 -1.539062 6.25 -1.15625 C 5.6875 -0.6875 5.171875 -0.363281 4.703125 -0.1875 C 4.441406 -0.0625 4.140625 0 3.796875 0 C 3.453125 0 3.128906 -0.109375 2.828125 -0.328125 C 2.535156 -0.535156 2.300781 -0.757812 2.125 -1 C 1.957031 -1.238281 1.804688 -1.503906 1.671875 -1.796875 C 1.410156 -2.398438 1.25 -3.140625 1.1875 -4.015625 C 1.125 -4.898438 1.15625 -5.796875 1.28125 -6.703125 L 1.484375 -7.796875 C 1.523438 -7.960938 1.566406 -8.117188 1.609375 -8.265625 C 1.648438 -8.421875 1.691406 -8.5625 1.734375 -8.6875 C 2.035156 -10.0625 2.601562 -11.488281 3.4375 -12.96875 C 4.28125 -14.457031 5.21875 -15.648438 6.25 -16.546875 C 6.507812 -16.765625 6.765625 -16.957031 7.015625 -17.125 C 7.273438 -17.300781 7.554688 -17.453125 7.859375 -17.578125 C 8.460938 -17.921875 9.082031 -18.09375 9.71875 -18.09375 C 10.5 -18.09375 11.082031 -18.039062 11.46875 -17.9375 C 11.851562 -17.832031 12.367188 -17.5625 13.015625 -17.125 C 13.398438 -16.832031 13.726562 -16.535156 14 -16.234375 C 14.28125 -15.929688 14.507812 -15.628906 14.6875 -15.328125 Z M 14.6875 -15.328125 "/></g></g></g><g fill="#ffffff" fill-opacity="1"><g transform="translate(101.361622, 212.573789)"><g><path d="M 14.6875 -14.046875 C 14.769531 -13.785156 14.8125 -13.546875 14.8125 -13.328125 C 14.8125 -13.117188 14.8125 -12.925781 14.8125 -12.75 C 14.8125 -12.363281 14.789062 -12.070312 14.75 -11.875 C 14.707031 -11.6875 14.6875 -11.570312 14.6875 -11.53125 C 14.644531 -11.445312 14.585938 -11.304688 14.515625 -11.109375 C 14.453125 -10.910156 14.378906 -10.664062 14.296875 -10.375 C 13.734375 -9.125 12.90625 -7.921875 11.8125 -6.765625 C 10.71875 -5.609375 9.523438 -4.585938 8.234375 -3.703125 C 6.953125 -2.828125 5.6875 -2.128906 4.4375 -1.609375 C 4.394531 -1.566406 4.351562 -1.535156 4.3125 -1.515625 C 4.269531 -1.492188 4.207031 -1.460938 4.125 -1.421875 C 3.945312 -0.515625 3.796875 0.382812 3.671875 1.28125 C 3.546875 2.1875 3.457031 3.066406 3.40625 3.921875 C 3.28125 5.296875 3.390625 6.609375 3.734375 7.859375 C 3.910156 8.410156 4.125 8.867188 4.375 9.234375 C 4.632812 9.609375 4.914062 9.769531 5.21875 9.71875 C 5.257812 9.71875 5.28125 9.71875 5.28125 9.71875 C 5.28125 9.71875 5.300781 9.71875 5.34375 9.71875 C 5.6875 9.71875 5.941406 9.890625 6.109375 10.234375 C 6.285156 10.578125 6.3125 10.921875 6.1875 11.265625 C 6.050781 11.566406 5.769531 11.71875 5.34375 11.71875 C 5.175781 11.71875 4.960938 11.675781 4.703125 11.59375 C 4.234375 11.375 3.757812 10.75 3.28125 9.71875 C 2.851562 8.601562 2.554688 7.296875 2.390625 5.796875 C 2.296875 4.804688 2.269531 3.742188 2.3125 2.609375 C 2.363281 1.472656 2.453125 0.300781 2.578125 -0.90625 C 2.234375 -0.8125 2 -0.742188 1.875 -0.703125 C 1.53125 -0.617188 1.289062 -0.578125 1.15625 -0.578125 C 0.8125 -0.578125 0.554688 -0.617188 0.390625 -0.703125 C 0.347656 -0.703125 0.28125 -0.722656 0.1875 -0.765625 C 0.101562 -0.816406 0.0195312 -0.863281 -0.0625 -0.90625 C -0.101562 -0.945312 -0.164062 -1.050781 -0.25 -1.21875 C -0.34375 -1.601562 -0.21875 -1.925781 0.125 -2.1875 C 0.300781 -2.269531 0.429688 -2.3125 0.515625 -2.3125 C 0.640625 -2.3125 0.832031 -2.226562 1.09375 -2.0625 C 1.3125 -1.882812 1.59375 -1.796875 1.9375 -1.796875 C 2.0625 -1.796875 2.175781 -1.804688 2.28125 -1.828125 C 2.394531 -1.859375 2.515625 -1.894531 2.640625 -1.9375 C 2.941406 -4.207031 3.390625 -6.476562 3.984375 -8.75 C 4.585938 -11.03125 5.273438 -13.242188 6.046875 -15.390625 C 5.617188 -15.085938 5.222656 -14.773438 4.859375 -14.453125 C 4.492188 -14.128906 4.140625 -13.820312 3.796875 -13.53125 C 3.492188 -13.269531 3.171875 -12.878906 2.828125 -12.359375 C 2.484375 -11.847656 2.3125 -11.378906 2.3125 -10.953125 C 2.226562 -10.648438 2.296875 -10.367188 2.515625 -10.109375 C 2.722656 -9.804688 2.722656 -9.484375 2.515625 -9.140625 C 2.296875 -8.929688 2.054688 -8.828125 1.796875 -8.828125 C 1.671875 -8.828125 1.566406 -8.847656 1.484375 -8.890625 C 1.441406 -8.890625 1.394531 -8.910156 1.34375 -8.953125 C 1.300781 -8.992188 1.238281 -9.035156 1.15625 -9.078125 C 1.070312 -9.253906 1.03125 -9.382812 1.03125 -9.46875 C 0.945312 -9.769531 0.945312 -10.050781 1.03125 -10.3125 C 1.03125 -10.4375 1.050781 -10.550781 1.09375 -10.65625 C 1.132812 -10.757812 1.175781 -10.878906 1.21875 -11.015625 L 1.546875 -11.71875 C 1.628906 -12.019531 1.753906 -12.320312 1.921875 -12.625 C 2.097656 -12.925781 2.273438 -13.226562 2.453125 -13.53125 C 3.046875 -14.34375 3.6875 -15.101562 4.375 -15.8125 C 5.0625 -16.519531 5.835938 -17.128906 6.703125 -17.640625 C 6.742188 -17.640625 6.773438 -17.648438 6.796875 -17.671875 C 6.816406 -17.703125 6.847656 -17.71875 6.890625 -17.71875 C 7.316406 -18.832031 7.550781 -19.410156 7.59375 -19.453125 C 7.726562 -20.003906 8.070312 -20.28125 8.625 -20.28125 C 8.757812 -20.28125 8.867188 -20.257812 8.953125 -20.21875 C 9.210938 -20.175781 9.394531 -20.015625 9.5 -19.734375 C 9.601562 -19.460938 9.613281 -19.15625 9.53125 -18.8125 C 9.53125 -18.8125 9.519531 -18.765625 9.5 -18.671875 C 9.476562 -18.585938 9.425781 -18.503906 9.34375 -18.421875 C 9.425781 -18.421875 9.519531 -18.421875 9.625 -18.421875 C 9.738281 -18.421875 9.816406 -18.421875 9.859375 -18.421875 C 10.066406 -18.378906 10.273438 -18.347656 10.484375 -18.328125 C 10.703125 -18.304688 10.898438 -18.25 11.078125 -18.15625 C 11.503906 -18.03125 11.847656 -17.859375 12.109375 -17.640625 C 12.191406 -17.597656 12.273438 -17.554688 12.359375 -17.515625 C 12.453125 -17.472656 12.539062 -17.410156 12.625 -17.328125 C 12.707031 -17.285156 12.78125 -17.238281 12.84375 -17.1875 C 12.914062 -17.144531 12.972656 -17.082031 13.015625 -17 C 13.097656 -16.875 13.203125 -16.753906 13.328125 -16.640625 C 13.460938 -16.535156 13.550781 -16.421875 13.59375 -16.296875 C 13.675781 -16.210938 13.757812 -16.113281 13.84375 -16 C 13.925781 -15.894531 14.015625 -15.78125 14.109375 -15.65625 C 14.234375 -15.394531 14.347656 -15.125 14.453125 -14.84375 C 14.566406 -14.5625 14.644531 -14.296875 14.6875 -14.046875 Z M 13.265625 -12.4375 C 13.347656 -12.78125 13.328125 -13.164062 13.203125 -13.59375 C 13.117188 -14.144531 12.882812 -14.660156 12.5 -15.140625 C 12.320312 -15.347656 12.113281 -15.582031 11.875 -15.84375 C 11.644531 -16.101562 11.359375 -16.316406 11.015625 -16.484375 C 10.628906 -16.660156 10.265625 -16.769531 9.921875 -16.8125 C 9.878906 -16.8125 9.820312 -16.8125 9.75 -16.8125 C 9.6875 -16.8125 9.632812 -16.8125 9.59375 -16.8125 C 9.207031 -16.8125 8.929688 -16.789062 8.765625 -16.75 C 6.828125 -12.195312 5.34375 -7.492188 4.3125 -2.640625 C 4.488281 -2.722656 4.597656 -2.804688 4.640625 -2.890625 C 5.578125 -3.578125 6.582031 -4.335938 7.65625 -5.171875 C 8.738281 -6.015625 9.707031 -6.867188 10.5625 -7.734375 C 11.164062 -8.367188 11.691406 -9.007812 12.140625 -9.65625 C 12.585938 -10.300781 12.941406 -11.03125 13.203125 -11.84375 C 13.203125 -11.894531 13.210938 -11.960938 13.234375 -12.046875 C 13.253906 -12.128906 13.265625 -12.257812 13.265625 -12.4375 Z M 13.265625 -12.4375 "/></g></g></g><g fill="#ffffff" fill-opacity="1"><g transform="translate(115.981849, 212.573789)"><g><path d="M 14.6875 -14.046875 C 14.769531 -13.785156 14.8125 -13.546875 14.8125 -13.328125 C 14.8125 -13.117188 14.8125 -12.925781 14.8125 -12.75 C 14.8125 -12.363281 14.789062 -12.070312 14.75 -11.875 C 14.707031 -11.6875 14.6875 -11.570312 14.6875 -11.53125 C 14.644531 -11.445312 14.585938 -11.304688 14.515625 -11.109375 C 14.453125 -10.910156 14.378906 -10.664062 14.296875 -10.375 C 13.734375 -9.125 12.90625 -7.921875 11.8125 -6.765625 C 10.71875 -5.609375 9.523438 -4.585938 8.234375 -3.703125 C 6.953125 -2.828125 5.6875 -2.128906 4.4375 -1.609375 C 4.394531 -1.566406 4.351562 -1.535156 4.3125 -1.515625 C 4.269531 -1.492188 4.207031 -1.460938 4.125 -1.421875 C 3.945312 -0.515625 3.796875 0.382812 3.671875 1.28125 C 3.546875 2.1875 3.457031 3.066406 3.40625 3.921875 C 3.28125 5.296875 3.390625 6.609375 3.734375 7.859375 C 3.910156 8.410156 4.125 8.867188 4.375 9.234375 C 4.632812 9.609375 4.914062 9.769531 5.21875 9.71875 C 5.257812 9.71875 5.28125 9.71875 5.28125 9.71875 C 5.28125 9.71875 5.300781 9.71875 5.34375 9.71875 C 5.6875 9.71875 5.941406 9.890625 6.109375 10.234375 C 6.285156 10.578125 6.3125 10.921875 6.1875 11.265625 C 6.050781 11.566406 5.769531 11.71875 5.34375 11.71875 C 5.175781 11.71875 4.960938 11.675781 4.703125 11.59375 C 4.234375 11.375 3.757812 10.75 3.28125 9.71875 C 2.851562 8.601562 2.554688 7.296875 2.390625 5.796875 C 2.296875 4.804688 2.269531 3.742188 2.3125 2.609375 C 2.363281 1.472656 2.453125 0.300781 2.578125 -0.90625 C 2.234375 -0.8125 2 -0.742188 1.875 -0.703125 C 1.53125 -0.617188 1.289062 -0.578125 1.15625 -0.578125 C 0.8125 -0.578125 0.554688 -0.617188 0.390625 -0.703125 C 0.347656 -0.703125 0.28125 -0.722656 0.1875 -0.765625 C 0.101562 -0.816406 0.0195312 -0.863281 -0.0625 -0.90625 C -0.101562 -0.945312 -0.164062 -1.050781 -0.25 -1.21875 C -0.34375 -1.601562 -0.21875 -1.925781 0.125 -2.1875 C 0.300781 -2.269531 0.429688 -2.3125 0.515625 -2.3125 C 0.640625 -2.3125 0.832031 -2.226562 1.09375 -2.0625 C 1.3125 -1.882812 1.59375 -1.796875 1.9375 -1.796875 C 2.0625 -1.796875 2.175781 -1.804688 2.28125 -1.828125 C 2.394531 -1.859375 2.515625 -1.894531 2.640625 -1.9375 C 2.941406 -4.207031 3.390625 -6.476562 3.984375 -8.75 C 4.585938 -11.03125 5.273438 -13.242188 6.046875 -15.390625 C 5.617188 -15.085938 5.222656 -14.773438 4.859375 -14.453125 C 4.492188 -14.128906 4.140625 -13.820312 3.796875 -13.53125 C 3.492188 -13.269531 3.171875 -12.878906 2.828125 -12.359375 C 2.484375 -11.847656 2.3125 -11.378906 2.3125 -10.953125 C 2.226562 -10.648438 2.296875 -10.367188 2.515625 -10.109375 C 2.722656 -9.804688 2.722656 -9.484375 2.515625 -9.140625 C 2.296875 -8.929688 2.054688 -8.828125 1.796875 -8.828125 C 1.671875 -8.828125 1.566406 -8.847656 1.484375 -8.890625 C 1.441406 -8.890625 1.394531 -8.910156 1.34375 -8.953125 C 1.300781 -8.992188 1.238281 -9.035156 1.15625 -9.078125 C 1.070312 -9.253906 1.03125 -9.382812 1.03125 -9.46875 C 0.945312 -9.769531 0.945312 -10.050781 1.03125 -10.3125 C 1.03125 -10.4375 1.050781 -10.550781 1.09375 -10.65625 C 1.132812 -10.757812 1.175781 -10.878906 1.21875 -11.015625 L 1.546875 -11.71875 C 1.628906 -12.019531 1.753906 -12.320312 1.921875 -12.625 C 2.097656 -12.925781 2.273438 -13.226562 2.453125 -13.53125 C 3.046875 -14.34375 3.6875 -15.101562 4.375 -15.8125 C 5.0625 -16.519531 5.835938 -17.128906 6.703125 -17.640625 C 6.742188 -17.640625 6.773438 -17.648438 6.796875 -17.671875 C 6.816406 -17.703125 6.847656 -17.71875 6.890625 -17.71875 C 7.316406 -18.832031 7.550781 -19.410156 7.59375 -19.453125 C 7.726562 -20.003906 8.070312 -20.28125 8.625 -20.28125 C 8.757812 -20.28125 8.867188 -20.257812 8.953125 -20.21875 C 9.210938 -20.175781 9.394531 -20.015625 9.5 -19.734375 C 9.601562 -19.460938 9.613281 -19.15625 9.53125 -18.8125 C 9.53125 -18.8125 9.519531 -18.765625 9.5 -18.671875 C 9.476562 -18.585938 9.425781 -18.503906 9.34375 -18.421875 C 9.425781 -18.421875 9.519531 -18.421875 9.625 -18.421875 C 9.738281 -18.421875 9.816406 -18.421875 9.859375 -18.421875 C 10.066406 -18.378906 10.273438 -18.347656 10.484375 -18.328125 C 10.703125 -18.304688 10.898438 -18.25 11.078125 -18.15625 C 11.503906 -18.03125 11.847656 -17.859375 12.109375 -17.640625 C 12.191406 -17.597656 12.273438 -17.554688 12.359375 -17.515625 C 12.453125 -17.472656 12.539062 -17.410156 12.625 -17.328125 C 12.707031 -17.285156 12.78125 -17.238281 12.84375 -17.1875 C 12.914062 -17.144531 12.972656 -17.082031 13.015625 -17 C 13.097656 -16.875 13.203125 -16.753906 13.328125 -16.640625 C 13.460938 -16.535156 13.550781 -16.421875 13.59375 -16.296875 C 13.675781 -16.210938 13.757812 -16.113281 13.84375 -16 C 13.925781 -15.894531 14.015625 -15.78125 14.109375 -15.65625 C 14.234375 -15.394531 14.347656 -15.125 14.453125 -14.84375 C 14.566406 -14.5625 14.644531 -14.296875 14.6875 -14.046875 Z M 13.265625 -12.4375 C 13.347656 -12.78125 13.328125 -13.164062 13.203125 -13.59375 C 13.117188 -14.144531 12.882812 -14.660156 12.5 -15.140625 C 12.320312 -15.347656 12.113281 -15.582031 11.875 -15.84375 C 11.644531 -16.101562 11.359375 -16.316406 11.015625 -16.484375 C 10.628906 -16.660156 10.265625 -16.769531 9.921875 -16.8125 C 9.878906 -16.8125 9.820312 -16.8125 9.75 -16.8125 C 9.6875 -16.8125 9.632812 -16.8125 9.59375 -16.8125 C 9.207031 -16.8125 8.929688 -16.789062 8.765625 -16.75 C 6.828125 -12.195312 5.34375 -7.492188 4.3125 -2.640625 C 4.488281 -2.722656 4.597656 -2.804688 4.640625 -2.890625 C 5.578125 -3.578125 6.582031 -4.335938 7.65625 -5.171875 C 8.738281 -6.015625 9.707031 -6.867188 10.5625 -7.734375 C 11.164062 -8.367188 11.691406 -9.007812 12.140625 -9.65625 C 12.585938 -10.300781 12.941406 -11.03125 13.203125 -11.84375 C 13.203125 -11.894531 13.210938 -11.960938 13.234375 -12.046875 C 13.253906 -12.128906 13.265625 -12.257812 13.265625 -12.4375 Z M 13.265625 -12.4375 "/></g></g></g><g fill="#ffffff" fill-opacity="1"><g transform="translate(130.602076, 212.573789)"><g><path d="M 6.3125 -22.09375 C 6.65625 -22.050781 6.898438 -21.800781 7.046875 -21.34375 C 7.203125 -20.894531 7.210938 -20.394531 7.078125 -19.84375 C 6.992188 -19.40625 6.8125 -19.015625 6.53125 -18.671875 C 6.257812 -18.328125 5.882812 -18.15625 5.40625 -18.15625 C 5.101562 -18.25 4.878906 -18.507812 4.734375 -18.9375 C 4.585938 -19.363281 4.578125 -19.859375 4.703125 -20.421875 C 5.003906 -21.535156 5.5 -22.09375 6.1875 -22.09375 C 6.1875 -22.09375 6.195312 -22.09375 6.21875 -22.09375 C 6.238281 -22.09375 6.269531 -22.09375 6.3125 -22.09375 Z M 6.828125 -1.875 C 6.953125 -1.914062 6.992188 -1.847656 6.953125 -1.671875 C 6.910156 -1.585938 6.820312 -1.425781 6.6875 -1.1875 C 6.5625 -0.957031 6.394531 -0.710938 6.1875 -0.453125 C 6.050781 -0.410156 5.921875 -0.34375 5.796875 -0.25 C 5.671875 -0.164062 5.519531 -0.101562 5.34375 -0.0625 C 5.175781 -0.0625 5.015625 -0.0703125 4.859375 -0.09375 C 4.710938 -0.113281 4.550781 -0.164062 4.375 -0.25 C 4.03125 -0.46875 3.734375 -0.769531 3.484375 -1.15625 C 3.347656 -1.375 3.226562 -1.578125 3.125 -1.765625 C 3.019531 -1.960938 2.921875 -2.144531 2.828125 -2.3125 C 2.535156 -3.175781 2.351562 -4.097656 2.28125 -5.078125 C 2.21875 -6.066406 2.207031 -7.054688 2.25 -8.046875 C 2.34375 -9.335938 2.503906 -10.550781 2.734375 -11.6875 C 2.972656 -12.820312 3.1875 -13.765625 3.375 -14.515625 C 3.570312 -15.273438 3.671875 -15.675781 3.671875 -15.71875 C 3.671875 -15.925781 3.832031 -16.050781 4.15625 -16.09375 C 4.476562 -16.144531 4.703125 -16.171875 4.828125 -16.171875 C 5.128906 -16.117188 5.382812 -16.03125 5.59375 -15.90625 C 5.8125 -15.78125 5.898438 -15.628906 5.859375 -15.453125 C 5.859375 -15.410156 5.738281 -14.992188 5.5 -14.203125 C 5.269531 -13.410156 5.003906 -12.410156 4.703125 -11.203125 C 4.398438 -10.046875 4.148438 -8.78125 3.953125 -7.40625 C 3.765625 -6.03125 3.691406 -4.742188 3.734375 -3.546875 C 3.734375 -2.773438 3.96875 -2.109375 4.4375 -1.546875 C 4.695312 -1.328125 4.976562 -1.175781 5.28125 -1.09375 C 5.5 -1.09375 5.753906 -1.203125 6.046875 -1.421875 C 6.265625 -1.546875 6.4375 -1.640625 6.5625 -1.703125 C 6.695312 -1.765625 6.785156 -1.820312 6.828125 -1.875 Z M 6.828125 -1.875 "/></g></g></g><g fill="#ffffff" fill-opacity="1"><g transform="translate(137.17151, 212.573789)"><g><path d="M 16.875 -2.515625 C 17.09375 -2.378906 17.203125 -2.097656 17.203125 -1.671875 C 17.023438 -0.984375 16.679688 -0.46875 16.171875 -0.125 C 16.078125 -0.0820312 15.976562 -0.0390625 15.875 0 C 15.769531 0.0390625 15.628906 0.0625 15.453125 0.0625 C 15.148438 0.0625 14.894531 0 14.6875 -0.125 C 14.425781 -0.257812 14.1875 -0.429688 13.96875 -0.640625 C 13.539062 -1.160156 13.367188 -2.0625 13.453125 -3.34375 C 13.546875 -4.632812 13.71875 -6.0625 13.96875 -7.625 C 14.226562 -9.195312 14.410156 -10.722656 14.515625 -12.203125 C 14.628906 -13.679688 14.492188 -14.894531 14.109375 -15.84375 C 13.890625 -16.351562 13.648438 -16.71875 13.390625 -16.9375 C 13.097656 -17.113281 12.78125 -17.203125 12.4375 -17.203125 C 12.09375 -17.203125 11.75 -17.03125 11.40625 -16.6875 C 10.882812 -16.25 10.363281 -15.515625 9.84375 -14.484375 C 9.332031 -13.460938 8.875 -12.335938 8.46875 -11.109375 C 8.0625 -9.890625 7.71875 -8.71875 7.4375 -7.59375 C 7.15625 -6.476562 6.953125 -5.597656 6.828125 -4.953125 C 6.703125 -4.359375 6.613281 -3.878906 6.5625 -3.515625 C 6.519531 -3.148438 6.476562 -2.921875 6.4375 -2.828125 C 6.4375 -2.660156 6.394531 -2.445312 6.3125 -2.1875 C 6.269531 -1.976562 6.238281 -1.804688 6.21875 -1.671875 C 6.195312 -1.546875 6.1875 -1.460938 6.1875 -1.421875 C 6.1875 -1.203125 6.078125 -1.0625 5.859375 -1 C 5.640625 -0.9375 5.445312 -0.90625 5.28125 -0.90625 C 5.0625 -0.90625 4.863281 -0.957031 4.6875 -1.0625 C 4.519531 -1.164062 4.460938 -1.304688 4.515625 -1.484375 C 4.515625 -1.609375 4.578125 -2.078125 4.703125 -2.890625 C 4.703125 -2.941406 4.710938 -2.96875 4.734375 -2.96875 C 4.753906 -2.96875 4.765625 -2.988281 4.765625 -3.03125 C 4.765625 -3.113281 4.773438 -3.238281 4.796875 -3.40625 C 4.816406 -3.582031 4.847656 -3.820312 4.890625 -4.125 C 4.929688 -4.332031 4.960938 -4.554688 4.984375 -4.796875 C 5.015625 -5.035156 5.050781 -5.257812 5.09375 -5.46875 C 5.175781 -6.070312 5.226562 -6.535156 5.25 -6.859375 C 5.269531 -7.179688 5.257812 -7.664062 5.21875 -8.3125 C 5.175781 -9 5.066406 -9.78125 4.890625 -10.65625 C 4.722656 -11.539062 4.378906 -12.238281 3.859375 -12.75 C 3.609375 -13.09375 3.332031 -13.285156 3.03125 -13.328125 C 2.988281 -13.328125 2.929688 -13.335938 2.859375 -13.359375 C 2.796875 -13.378906 2.722656 -13.390625 2.640625 -13.390625 C 2.515625 -13.390625 2.363281 -13.347656 2.1875 -13.265625 C 1.976562 -13.140625 1.875 -12.945312 1.875 -12.6875 C 1.820312 -12.519531 1.773438 -12.378906 1.734375 -12.265625 C 1.691406 -12.160156 1.648438 -12.066406 1.609375 -11.984375 C 1.566406 -11.941406 1.503906 -11.984375 1.421875 -12.109375 C 1.117188 -12.410156 1.007812 -12.816406 1.09375 -13.328125 C 1.175781 -13.804688 1.5625 -14.109375 2.25 -14.234375 C 2.46875 -14.234375 2.671875 -14.222656 2.859375 -14.203125 C 3.054688 -14.179688 3.238281 -14.128906 3.40625 -14.046875 C 3.582031 -13.992188 3.800781 -13.882812 4.0625 -13.71875 C 4.53125 -13.25 4.925781 -12.785156 5.25 -12.328125 C 5.570312 -11.878906 5.835938 -11.332031 6.046875 -10.6875 C 6.097656 -10.519531 6.144531 -10.347656 6.1875 -10.171875 C 6.226562 -10.003906 6.269531 -9.8125 6.3125 -9.59375 C 6.351562 -9.675781 6.414062 -9.847656 6.5 -10.109375 C 6.882812 -11.660156 7.46875 -13.25 8.25 -14.875 C 8.457031 -15.257812 8.691406 -15.65625 8.953125 -16.0625 C 9.210938 -16.476562 9.492188 -16.859375 9.796875 -17.203125 C 10.140625 -17.585938 10.515625 -17.925781 10.921875 -18.21875 C 11.328125 -18.519531 11.785156 -18.671875 12.296875 -18.671875 C 12.773438 -18.671875 13.25 -18.585938 13.71875 -18.421875 C 14.40625 -18.035156 14.898438 -17.5 15.203125 -16.8125 C 15.503906 -16.125 15.695312 -15.414062 15.78125 -14.6875 C 15.90625 -13.820312 15.847656 -12.734375 15.609375 -11.421875 C 15.378906 -10.117188 15.113281 -8.78125 14.8125 -7.40625 C 14.507812 -6.03125 14.304688 -4.816406 14.203125 -3.765625 C 14.097656 -2.710938 14.191406 -1.992188 14.484375 -1.609375 C 14.660156 -1.441406 14.859375 -1.359375 15.078125 -1.359375 C 15.203125 -1.265625 15.304688 -1.304688 15.390625 -1.484375 C 15.429688 -1.523438 15.460938 -1.546875 15.484375 -1.546875 C 15.503906 -1.546875 15.539062 -1.566406 15.59375 -1.609375 C 15.59375 -1.648438 15.59375 -1.671875 15.59375 -1.671875 C 15.59375 -1.671875 15.59375 -1.691406 15.59375 -1.734375 C 15.59375 -1.773438 15.578125 -1.816406 15.546875 -1.859375 C 15.523438 -1.910156 15.515625 -1.957031 15.515625 -2 L 15.515625 -2.0625 C 15.515625 -2.0625 15.5625 -2.101562 15.65625 -2.1875 C 15.738281 -2.226562 15.910156 -2.335938 16.171875 -2.515625 C 16.335938 -2.597656 16.460938 -2.640625 16.546875 -2.640625 C 16.679688 -2.640625 16.789062 -2.597656 16.875 -2.515625 Z M 16.875 -2.515625 "/></g></g></g><g fill="#ffffff" fill-opacity="1"><g transform="translate(154.303578, 212.573789)"><g><path d="M 13.390625 -8.25 C 13.691406 -7.601562 13.648438 -6.675781 13.265625 -5.46875 C 12.710938 -3.707031 11.769531 -2.25 10.4375 -1.09375 C 10.21875 -0.925781 9.945312 -0.753906 9.625 -0.578125 C 9.300781 -0.410156 8.96875 -0.28125 8.625 -0.1875 C 8.457031 -0.144531 8.285156 -0.113281 8.109375 -0.09375 C 7.941406 -0.0703125 7.769531 -0.0625 7.59375 -0.0625 C 7.125 -0.0625 6.695312 -0.125 6.3125 -0.25 C 5.925781 -0.34375 5.570312 -0.492188 5.25 -0.703125 C 4.925781 -0.921875 4.632812 -1.140625 4.375 -1.359375 C 3.820312 -1.828125 3.375 -2.335938 3.03125 -2.890625 C 2.601562 -3.453125 2.300781 -4.015625 2.125 -4.578125 C 2.082031 -4.742188 2.03125 -4.890625 1.96875 -5.015625 C 1.90625 -5.148438 1.828125 -5.300781 1.734375 -5.46875 C 1.691406 -5.644531 1.648438 -5.804688 1.609375 -5.953125 C 1.566406 -6.109375 1.523438 -6.269531 1.484375 -6.4375 C 1.179688 -7.6875 1.09375 -8.953125 1.21875 -10.234375 C 1.257812 -10.878906 1.332031 -11.503906 1.4375 -12.109375 C 1.550781 -12.710938 1.695312 -13.3125 1.875 -13.90625 C 2.082031 -14.507812 2.335938 -15.09375 2.640625 -15.65625 C 2.859375 -16.164062 3.242188 -16.722656 3.796875 -17.328125 C 4.097656 -17.628906 4.453125 -17.882812 4.859375 -18.09375 C 5.265625 -18.3125 5.6875 -18.421875 6.125 -18.421875 C 6.332031 -18.421875 6.554688 -18.410156 6.796875 -18.390625 C 7.035156 -18.367188 7.257812 -18.316406 7.46875 -18.234375 C 7.894531 -18.015625 8.21875 -17.796875 8.4375 -17.578125 C 8.695312 -17.410156 8.929688 -17.132812 9.140625 -16.75 C 9.359375 -16.488281 9.507812 -16.144531 9.59375 -15.71875 C 9.675781 -15.332031 9.707031 -14.976562 9.6875 -14.65625 C 9.664062 -14.332031 9.613281 -14.039062 9.53125 -13.78125 C 9.363281 -13.269531 9.160156 -12.832031 8.921875 -12.46875 C 8.679688 -12.101562 8.457031 -11.75 8.25 -11.40625 C 8.113281 -11.269531 7.875 -10.988281 7.53125 -10.5625 C 7.1875 -10.132812 6.832031 -9.738281 6.46875 -9.375 C 6.101562 -9.007812 5.859375 -8.78125 5.734375 -8.6875 C 5.390625 -8.34375 5.023438 -8.171875 4.640625 -8.171875 C 4.421875 -8.171875 4.226562 -8.257812 4.0625 -8.4375 C 3.625 -8.945312 3.707031 -9.503906 4.3125 -10.109375 L 4.953125 -10.75 C 5.171875 -10.925781 5.382812 -11.140625 5.59375 -11.390625 C 5.8125 -11.648438 6.070312 -11.929688 6.375 -12.234375 C 6.5 -12.410156 6.625 -12.59375 6.75 -12.78125 C 6.882812 -12.976562 7.019531 -13.160156 7.15625 -13.328125 C 7.40625 -13.804688 7.597656 -14.257812 7.734375 -14.6875 C 7.816406 -15.195312 7.707031 -15.625 7.40625 -15.96875 C 7.320312 -16.050781 7.222656 -16.132812 7.109375 -16.21875 C 7.003906 -16.3125 6.890625 -16.378906 6.765625 -16.421875 C 6.546875 -16.503906 6.285156 -16.546875 5.984375 -16.546875 C 5.734375 -16.503906 5.476562 -16.363281 5.21875 -16.125 C 4.957031 -15.894531 4.722656 -15.628906 4.515625 -15.328125 C 3.910156 -14.421875 3.46875 -13.367188 3.1875 -12.171875 C 2.90625 -10.972656 2.765625 -9.835938 2.765625 -8.765625 C 2.765625 -7.640625 2.96875 -6.453125 3.375 -5.203125 C 3.789062 -3.960938 4.40625 -2.976562 5.21875 -2.25 C 5.519531 -1.945312 5.851562 -1.695312 6.21875 -1.5 C 6.582031 -1.3125 6.976562 -1.195312 7.40625 -1.15625 C 7.914062 -1.15625 8.390625 -1.222656 8.828125 -1.359375 C 9.035156 -1.441406 9.234375 -1.535156 9.421875 -1.640625 C 9.617188 -1.742188 9.804688 -1.882812 9.984375 -2.0625 C 10.671875 -2.613281 11.1875 -3.234375 11.53125 -3.921875 C 11.875 -4.566406 12.066406 -5.132812 12.109375 -5.625 C 12.148438 -6.125 12.019531 -6.460938 11.71875 -6.640625 C 11.375 -6.847656 11.253906 -7.1875 11.359375 -7.65625 C 11.472656 -8.132812 11.703125 -8.523438 12.046875 -8.828125 C 12.210938 -8.910156 12.363281 -8.953125 12.5 -8.953125 C 12.882812 -8.953125 13.179688 -8.71875 13.390625 -8.25 Z M 13.390625 -8.25 "/></g></g></g><g fill="#ffffff" fill-opacity="1"><g transform="translate(167.893298, 212.573789)"><g><path d="M 5.34375 -7.734375 C 5.6875 -7.640625 5.921875 -7.550781 6.046875 -7.46875 C 6.734375 -7.125 7.078125 -6.71875 7.078125 -6.25 C 7.035156 -5.988281 6.890625 -5.859375 6.640625 -5.859375 C 6.335938 -5.941406 6.097656 -6.09375 5.921875 -6.3125 C 5.617188 -6.613281 5.296875 -6.785156 4.953125 -6.828125 C 4.742188 -6.828125 4.550781 -6.816406 4.375 -6.796875 C 4.207031 -6.773438 4.054688 -6.742188 3.921875 -6.703125 C 3.109375 -6.398438 2.617188 -5.816406 2.453125 -4.953125 C 2.316406 -4.566406 2.316406 -4.179688 2.453125 -3.796875 C 2.617188 -2.898438 3.140625 -2.28125 4.015625 -1.9375 C 4.898438 -1.59375 5.726562 -1.421875 6.5 -1.421875 C 7.320312 -1.421875 8.234375 -1.695312 9.234375 -2.25 C 10.242188 -2.8125 10.898438 -3.4375 11.203125 -4.125 C 11.503906 -4.675781 11.632812 -5.144531 11.59375 -5.53125 C 11.59375 -5.875 11.460938 -6.242188 11.203125 -6.640625 C 11.117188 -6.804688 11.054688 -6.910156 11.015625 -6.953125 L 10.953125 -6.953125 C 10.953125 -6.992188 10.953125 -7.015625 10.953125 -7.015625 L 10.953125 -7.078125 C 10.859375 -7.253906 10.554688 -7.535156 10.046875 -7.921875 C 9.960938 -8.003906 9.832031 -8.109375 9.65625 -8.234375 C 9.488281 -8.367188 9.316406 -8.5 9.140625 -8.625 C 8.972656 -8.71875 8.78125 -8.835938 8.5625 -8.984375 C 8.351562 -9.128906 8.117188 -9.289062 7.859375 -9.46875 L 6.3125 -10.4375 C 6.269531 -10.476562 6.117188 -10.582031 5.859375 -10.75 C 5.773438 -10.84375 5.6875 -10.910156 5.59375 -10.953125 C 5.507812 -10.992188 5.425781 -11.035156 5.34375 -11.078125 C 5.175781 -11.242188 5.015625 -11.390625 4.859375 -11.515625 C 4.710938 -11.648438 4.570312 -11.785156 4.4375 -11.921875 C 3.800781 -12.554688 3.351562 -13.238281 3.09375 -13.96875 C 2.875 -14.789062 2.914062 -15.546875 3.21875 -16.234375 C 3.4375 -16.828125 3.890625 -17.394531 4.578125 -17.9375 C 5.265625 -18.476562 5.882812 -18.851562 6.4375 -19.0625 C 7.164062 -19.28125 7.8125 -19.390625 8.375 -19.390625 C 9.957031 -19.210938 11.222656 -18.4375 12.171875 -17.0625 C 12.640625 -16.414062 12.832031 -15.835938 12.75 -15.328125 C 12.664062 -14.640625 12.410156 -14.253906 11.984375 -14.171875 C 11.679688 -14.171875 11.488281 -14.273438 11.40625 -14.484375 C 11.269531 -14.785156 11.289062 -15.085938 11.46875 -15.390625 C 11.8125 -15.953125 11.640625 -16.617188 10.953125 -17.390625 C 10.691406 -17.691406 10.328125 -17.945312 9.859375 -18.15625 C 9.722656 -18.25 9.59375 -18.304688 9.46875 -18.328125 C 9.34375 -18.347656 9.210938 -18.378906 9.078125 -18.421875 C 8.992188 -18.421875 8.90625 -18.421875 8.8125 -18.421875 C 8.726562 -18.421875 8.644531 -18.421875 8.5625 -18.421875 C 7.789062 -18.335938 7.082031 -18.054688 6.4375 -17.578125 C 6.175781 -17.410156 5.894531 -17.195312 5.59375 -16.9375 C 5.300781 -16.675781 5.066406 -16.332031 4.890625 -15.90625 C 4.722656 -15.519531 4.660156 -15.132812 4.703125 -14.75 C 4.703125 -14.40625 4.851562 -14 5.15625 -13.53125 C 5.5 -13.09375 5.894531 -12.710938 6.34375 -12.390625 C 6.789062 -12.078125 7.253906 -11.8125 7.734375 -11.59375 C 7.816406 -11.550781 7.898438 -11.507812 7.984375 -11.46875 C 8.066406 -11.425781 8.128906 -11.378906 8.171875 -11.328125 C 8.390625 -11.203125 8.582031 -11.082031 8.75 -10.96875 C 8.925781 -10.863281 9.101562 -10.769531 9.28125 -10.6875 C 9.488281 -10.5625 9.664062 -10.441406 9.8125 -10.328125 C 9.96875 -10.222656 10.109375 -10.128906 10.234375 -10.046875 C 10.492188 -9.878906 10.796875 -9.664062 11.140625 -9.40625 C 11.785156 -8.925781 12.25 -8.503906 12.53125 -8.140625 C 12.8125 -7.773438 12.953125 -7.59375 12.953125 -7.59375 C 12.953125 -7.550781 12.960938 -7.519531 12.984375 -7.5 C 13.003906 -7.476562 13.015625 -7.46875 13.015625 -7.46875 L 13.078125 -7.34375 C 13.160156 -7.21875 13.265625 -7.015625 13.390625 -6.734375 C 13.523438 -6.453125 13.613281 -6.097656 13.65625 -5.671875 C 13.78125 -4.679688 13.4375 -3.691406 12.625 -2.703125 C 12.539062 -2.578125 12.441406 -2.445312 12.328125 -2.3125 C 12.222656 -2.1875 12.109375 -2.0625 11.984375 -1.9375 C 11.847656 -1.84375 11.726562 -1.742188 11.625 -1.640625 C 11.519531 -1.535156 11.378906 -1.441406 11.203125 -1.359375 C 10.816406 -1.015625 10.382812 -0.734375 9.90625 -0.515625 C 9.4375 -0.296875 8.945312 -0.144531 8.4375 -0.0625 C 8.257812 0.0195312 8.085938 0.0625 7.921875 0.0625 C 7.796875 0.101562 7.601562 0.125 7.34375 0.125 C 6.914062 0.125 6.503906 0.113281 6.109375 0.09375 C 5.722656 0.0703125 5.316406 0.0195312 4.890625 -0.0625 C 4.460938 -0.1875 4.066406 -0.332031 3.703125 -0.5 C 3.335938 -0.675781 3.003906 -0.894531 2.703125 -1.15625 C 2.097656 -1.582031 1.648438 -2.160156 1.359375 -2.890625 C 1.140625 -3.628906 1.113281 -4.273438 1.28125 -4.828125 C 1.625 -5.941406 2.289062 -6.738281 3.28125 -7.21875 C 3.457031 -7.300781 3.640625 -7.382812 3.828125 -7.46875 C 4.023438 -7.550781 4.207031 -7.617188 4.375 -7.671875 C 4.550781 -7.710938 4.710938 -7.734375 4.859375 -7.734375 C 5.015625 -7.734375 5.175781 -7.734375 5.34375 -7.734375 Z M 5.34375 -7.734375 "/></g></g></g><g fill="#ffffff" fill-opacity="1"><g transform="translate(181.611834, 212.573789)"><g><path d="M 5.34375 -7.734375 C 5.6875 -7.640625 5.921875 -7.550781 6.046875 -7.46875 C 6.734375 -7.125 7.078125 -6.71875 7.078125 -6.25 C 7.035156 -5.988281 6.890625 -5.859375 6.640625 -5.859375 C 6.335938 -5.941406 6.097656 -6.09375 5.921875 -6.3125 C 5.617188 -6.613281 5.296875 -6.785156 4.953125 -6.828125 C 4.742188 -6.828125 4.550781 -6.816406 4.375 -6.796875 C 4.207031 -6.773438 4.054688 -6.742188 3.921875 -6.703125 C 3.109375 -6.398438 2.617188 -5.816406 2.453125 -4.953125 C 2.316406 -4.566406 2.316406 -4.179688 2.453125 -3.796875 C 2.617188 -2.898438 3.140625 -2.28125 4.015625 -1.9375 C 4.898438 -1.59375 5.726562 -1.421875 6.5 -1.421875 C 7.320312 -1.421875 8.234375 -1.695312 9.234375 -2.25 C 10.242188 -2.8125 10.898438 -3.4375 11.203125 -4.125 C 11.503906 -4.675781 11.632812 -5.144531 11.59375 -5.53125 C 11.59375 -5.875 11.460938 -6.242188 11.203125 -6.640625 C 11.117188 -6.804688 11.054688 -6.910156 11.015625 -6.953125 L 10.953125 -6.953125 C 10.953125 -6.992188 10.953125 -7.015625 10.953125 -7.015625 L 10.953125 -7.078125 C 10.859375 -7.253906 10.554688 -7.535156 10.046875 -7.921875 C 9.960938 -8.003906 9.832031 -8.109375 9.65625 -8.234375 C 9.488281 -8.367188 9.316406 -8.5 9.140625 -8.625 C 8.972656 -8.71875 8.78125 -8.835938 8.5625 -8.984375 C 8.351562 -9.128906 8.117188 -9.289062 7.859375 -9.46875 L 6.3125 -10.4375 C 6.269531 -10.476562 6.117188 -10.582031 5.859375 -10.75 C 5.773438 -10.84375 5.6875 -10.910156 5.59375 -10.953125 C 5.507812 -10.992188 5.425781 -11.035156 5.34375 -11.078125 C 5.175781 -11.242188 5.015625 -11.390625 4.859375 -11.515625 C 4.710938 -11.648438 4.570312 -11.785156 4.4375 -11.921875 C 3.800781 -12.554688 3.351562 -13.238281 3.09375 -13.96875 C 2.875 -14.789062 2.914062 -15.546875 3.21875 -16.234375 C 3.4375 -16.828125 3.890625 -17.394531 4.578125 -17.9375 C 5.265625 -18.476562 5.882812 -18.851562 6.4375 -19.0625 C 7.164062 -19.28125 7.8125 -19.390625 8.375 -19.390625 C 9.957031 -19.210938 11.222656 -18.4375 12.171875 -17.0625 C 12.640625 -16.414062 12.832031 -15.835938 12.75 -15.328125 C 12.664062 -14.640625 12.410156 -14.253906 11.984375 -14.171875 C 11.679688 -14.171875 11.488281 -14.273438 11.40625 -14.484375 C 11.269531 -14.785156 11.289062 -15.085938 11.46875 -15.390625 C 11.8125 -15.953125 11.640625 -16.617188 10.953125 -17.390625 C 10.691406 -17.691406 10.328125 -17.945312 9.859375 -18.15625 C 9.722656 -18.25 9.59375 -18.304688 9.46875 -18.328125 C 9.34375 -18.347656 9.210938 -18.378906 9.078125 -18.421875 C 8.992188 -18.421875 8.90625 -18.421875 8.8125 -18.421875 C 8.726562 -18.421875 8.644531 -18.421875 8.5625 -18.421875 C 7.789062 -18.335938 7.082031 -18.054688 6.4375 -17.578125 C 6.175781 -17.410156 5.894531 -17.195312 5.59375 -16.9375 C 5.300781 -16.675781 5.066406 -16.332031 4.890625 -15.90625 C 4.722656 -15.519531 4.660156 -15.132812 4.703125 -14.75 C 4.703125 -14.40625 4.851562 -14 5.15625 -13.53125 C 5.5 -13.09375 5.894531 -12.710938 6.34375 -12.390625 C 6.789062 -12.078125 7.253906 -11.8125 7.734375 -11.59375 C 7.816406 -11.550781 7.898438 -11.507812 7.984375 -11.46875 C 8.066406 -11.425781 8.128906 -11.378906 8.171875 -11.328125 C 8.390625 -11.203125 8.582031 -11.082031 8.75 -10.96875 C 8.925781 -10.863281 9.101562 -10.769531 9.28125 -10.6875 C 9.488281 -10.5625 9.664062 -10.441406 9.8125 -10.328125 C 9.96875 -10.222656 10.109375 -10.128906 10.234375 -10.046875 C 10.492188 -9.878906 10.796875 -9.664062 11.140625 -9.40625 C 11.785156 -8.925781 12.25 -8.503906 12.53125 -8.140625 C 12.8125 -7.773438 12.953125 -7.59375 12.953125 -7.59375 C 12.953125 -7.550781 12.960938 -7.519531 12.984375 -7.5 C 13.003906 -7.476562 13.015625 -7.46875 13.015625 -7.46875 L 13.078125 -7.34375 C 13.160156 -7.21875 13.265625 -7.015625 13.390625 -6.734375 C 13.523438 -6.453125 13.613281 -6.097656 13.65625 -5.671875 C 13.78125 -4.679688 13.4375 -3.691406 12.625 -2.703125 C 12.539062 -2.578125 12.441406 -2.445312 12.328125 -2.3125 C 12.222656 -2.1875 12.109375 -2.0625 11.984375 -1.9375 C 11.847656 -1.84375 11.726562 -1.742188 11.625 -1.640625 C 11.519531 -1.535156 11.378906 -1.441406 11.203125 -1.359375 C 10.816406 -1.015625 10.382812 -0.734375 9.90625 -0.515625 C 9.4375 -0.296875 8.945312 -0.144531 8.4375 -0.0625 C 8.257812 0.0195312 8.085938 0.0625 7.921875 0.0625 C 7.796875 0.101562 7.601562 0.125 7.34375 0.125 C 6.914062 0.125 6.503906 0.113281 6.109375 0.09375 C 5.722656 0.0703125 5.316406 0.0195312 4.890625 -0.0625 C 4.460938 -0.1875 4.066406 -0.332031 3.703125 -0.5 C 3.335938 -0.675781 3.003906 -0.894531 2.703125 -1.15625 C 2.097656 -1.582031 1.648438 -2.160156 1.359375 -2.890625 C 1.140625 -3.628906 1.113281 -4.273438 1.28125 -4.828125 C 1.625 -5.941406 2.289062 -6.738281 3.28125 -7.21875 C 3.457031 -7.300781 3.640625 -7.382812 3.828125 -7.46875 C 4.023438 -7.550781 4.207031 -7.617188 4.375 -7.671875 C 4.550781 -7.710938 4.710938 -7.734375 4.859375 -7.734375 C 5.015625 -7.734375 5.175781 -7.734375 5.34375 -7.734375 Z M 5.34375 -7.734375 "/></g></g></g><g fill="#ffffff" fill-opacity="1"><g transform="translate(195.33037, 212.573789)"><g/></g></g><g fill="#ffffff" fill-opacity="1"><g transform="translate(206.40825, 212.573789)"><g><path d="M 26.015625 -23.1875 C 26.234375 -23.3125 26.445312 -23.515625 26.65625 -23.796875 C 26.875 -24.078125 27.070312 -24.390625 27.25 -24.734375 C 27.539062 -25.503906 27.734375 -26.40625 27.828125 -27.4375 C 27.828125 -29.320312 27.320312 -31.023438 26.3125 -32.546875 C 25.300781 -34.078125 23.976562 -35.28125 22.34375 -36.15625 C 20.71875 -37.039062 18.976562 -37.484375 17.125 -37.484375 C 16.570312 -37.484375 16.015625 -37.453125 15.453125 -37.390625 C 14.898438 -37.328125 14.363281 -37.207031 13.84375 -37.03125 C 12 -36.519531 10.398438 -35.617188 9.046875 -34.328125 C 7.691406 -33.035156 6.570312 -31.519531 5.6875 -29.78125 C 4.8125 -28.039062 4.148438 -26.238281 3.703125 -24.375 C 3.253906 -22.507812 2.984375 -20.695312 2.890625 -18.9375 C 2.804688 -17.863281 2.765625 -16.570312 2.765625 -15.0625 C 2.765625 -13.5625 2.976562 -12 3.40625 -10.375 C 3.84375 -8.570312 4.53125 -6.851562 5.46875 -5.21875 C 6.414062 -3.582031 7.628906 -2.226562 9.109375 -1.15625 C 10.585938 -0.0820312 12.316406 0.554688 14.296875 0.765625 C 16.398438 0.765625 18.179688 0.5 19.640625 -0.03125 C 21.097656 -0.570312 22.535156 -1.632812 23.953125 -3.21875 C 24.472656 -3.863281 24.816406 -4.453125 24.984375 -4.984375 C 25.160156 -5.523438 25.117188 -5.878906 24.859375 -6.046875 C 24.554688 -6.304688 24.515625 -6.675781 24.734375 -7.15625 C 24.941406 -7.664062 25.265625 -8.050781 25.703125 -8.3125 C 25.910156 -8.4375 26.082031 -8.5 26.21875 -8.5 C 26.644531 -8.5 26.898438 -8.195312 26.984375 -7.59375 C 27.203125 -7 26.945312 -6.035156 26.21875 -4.703125 C 24.582031 -1.953125 22.238281 0.0664062 19.1875 1.359375 C 18.550781 1.566406 17.875 1.742188 17.15625 1.890625 C 16.445312 2.046875 15.726562 2.125 15 2.125 C 13.5 2.125 12.007812 1.820312 10.53125 1.21875 C 9.050781 0.625 7.753906 -0.207031 6.640625 -1.28125 C 5.085938 -2.65625 3.925781 -4.234375 3.15625 -6.015625 C 2.382812 -7.796875 1.867188 -9.675781 1.609375 -11.65625 C 1.347656 -13.632812 1.21875 -15.585938 1.21875 -17.515625 L 1.28125 -18.15625 L 1.28125 -18.8125 C 1.375 -19.238281 1.429688 -19.644531 1.453125 -20.03125 C 1.472656 -20.414062 1.503906 -20.757812 1.546875 -21.0625 C 1.765625 -22.394531 1.894531 -23.101562 1.9375 -23.1875 L 1.9375 -23.3125 C 1.9375 -23.394531 1.957031 -23.4375 2 -23.4375 C 2 -23.53125 2.03125 -23.757812 2.09375 -24.125 C 2.15625 -24.488281 2.273438 -24.96875 2.453125 -25.5625 C 3.179688 -28.488281 4.425781 -31.15625 6.1875 -33.5625 C 7.8125 -35.445312 9.503906 -36.828125 11.265625 -37.703125 C 13.023438 -38.585938 15.195312 -39.03125 17.78125 -39.03125 C 19.320312 -38.90625 20.8125 -38.507812 22.25 -37.84375 C 23.6875 -37.175781 24.921875 -36.238281 25.953125 -35.03125 C 26.941406 -33.914062 27.671875 -32.703125 28.140625 -31.390625 C 28.617188 -30.085938 28.835938 -28.832031 28.796875 -27.625 C 28.796875 -25.519531 28.109375 -23.675781 26.734375 -22.09375 C 26.347656 -21.707031 25.9375 -21.382812 25.5 -21.125 C 25.070312 -20.863281 24.582031 -20.734375 24.03125 -20.734375 C 23.6875 -20.773438 23.425781 -20.914062 23.25 -21.15625 C 23.082031 -21.394531 23.039062 -21.640625 23.125 -21.890625 C 23.207031 -22.109375 23.320312 -22.300781 23.46875 -22.46875 C 23.625 -22.644531 23.785156 -22.796875 23.953125 -22.921875 C 24.171875 -23.054688 24.390625 -23.125 24.609375 -23.125 C 24.773438 -23.125 24.898438 -23.082031 24.984375 -23 C 25.160156 -22.90625 25.269531 -22.859375 25.3125 -22.859375 C 25.476562 -22.859375 25.710938 -22.96875 26.015625 -23.1875 Z M 26.015625 -23.1875 "/></g></g></g><g fill="#ffffff" fill-opacity="1"><g transform="translate(235.069037, 212.573789)"><g><path d="M 13.203125 -14.421875 C 13.421875 -13.734375 13.550781 -13.097656 13.59375 -12.515625 C 13.632812 -11.941406 13.632812 -11.441406 13.59375 -11.015625 C 13.59375 -10.929688 13.59375 -10.832031 13.59375 -10.71875 C 13.59375 -10.613281 13.59375 -10.519531 13.59375 -10.4375 L 13.53125 -10.046875 C 13.53125 -9.960938 13.53125 -9.882812 13.53125 -9.8125 C 13.53125 -9.75 13.53125 -9.71875 13.53125 -9.71875 L 13.453125 -9.59375 L 13.453125 -9.53125 C 13.453125 -8.582031 13.300781 -7.550781 13 -6.4375 C 12.707031 -5.320312 12.28125 -4.269531 11.71875 -3.28125 C 11.164062 -2.289062 10.5 -1.519531 9.71875 -0.96875 C 9.332031 -0.625 8.773438 -0.34375 8.046875 -0.125 C 7.878906 -0.0820312 7.6875 -0.0507812 7.46875 -0.03125 C 7.257812 -0.0078125 7.046875 0 6.828125 0 C 6.484375 0 6.191406 -0.03125 5.953125 -0.09375 C 5.722656 -0.15625 5.4375 -0.253906 5.09375 -0.390625 C 4.707031 -0.597656 4.34375 -0.8125 4 -1.03125 C 3.65625 -1.25 3.332031 -1.53125 3.03125 -1.875 C 2.9375 -1.957031 2.859375 -2.0625 2.796875 -2.1875 C 2.734375 -2.320312 2.660156 -2.429688 2.578125 -2.515625 C 2.398438 -2.679688 2.25 -2.894531 2.125 -3.15625 C 1.90625 -3.539062 1.691406 -4.015625 1.484375 -4.578125 C 1.347656 -5.046875 1.257812 -5.515625 1.21875 -5.984375 C 1.175781 -6.460938 1.15625 -6.914062 1.15625 -7.34375 C 1.289062 -8.675781 1.550781 -9.859375 1.9375 -10.890625 C 1.9375 -10.929688 1.9375 -10.960938 1.9375 -10.984375 C 1.9375 -11.003906 1.9375 -11.035156 1.9375 -11.078125 C 1.894531 -11.503906 1.882812 -11.953125 1.90625 -12.421875 C 1.925781 -12.898438 1.976562 -13.351562 2.0625 -13.78125 C 2.28125 -14.9375 2.707031 -15.941406 3.34375 -16.796875 C 3.988281 -17.660156 4.867188 -18.3125 5.984375 -18.75 C 6.460938 -18.914062 7.023438 -19 7.671875 -19 C 8.003906 -19 8.320312 -18.976562 8.625 -18.9375 C 8.925781 -18.894531 9.226562 -18.804688 9.53125 -18.671875 C 10.519531 -18.378906 11.3125 -17.832031 11.90625 -17.03125 C 12.507812 -16.238281 12.941406 -15.367188 13.203125 -14.421875 Z M 12.171875 -10.5625 C 12.171875 -10.78125 12.179688 -11.023438 12.203125 -11.296875 C 12.222656 -11.578125 12.210938 -11.890625 12.171875 -12.234375 C 12.128906 -12.578125 12.078125 -12.941406 12.015625 -13.328125 C 11.953125 -13.710938 11.832031 -14.125 11.65625 -14.5625 C 11.488281 -14.988281 11.242188 -15.414062 10.921875 -15.84375 C 10.597656 -16.269531 10.195312 -16.632812 9.71875 -16.9375 C 9.289062 -17.238281 8.734375 -17.429688 8.046875 -17.515625 C 7.015625 -17.515625 6.164062 -17.289062 5.5 -16.84375 C 4.84375 -16.394531 4.273438 -15.71875 3.796875 -14.8125 C 3.710938 -14.59375 3.640625 -14.363281 3.578125 -14.125 C 3.515625 -13.894531 3.4375 -13.671875 3.34375 -13.453125 C 3.519531 -13.671875 3.679688 -13.863281 3.828125 -14.03125 C 3.984375 -14.207031 4.144531 -14.382812 4.3125 -14.5625 C 4.613281 -14.769531 4.957031 -14.960938 5.34375 -15.140625 C 5.425781 -15.179688 5.535156 -15.203125 5.671875 -15.203125 C 5.878906 -15.203125 6.066406 -15.125 6.234375 -14.96875 C 6.410156 -14.820312 6.566406 -14.660156 6.703125 -14.484375 C 6.785156 -14.398438 6.835938 -14.316406 6.859375 -14.234375 C 6.878906 -14.148438 6.910156 -14.0625 6.953125 -13.96875 C 6.953125 -13.84375 6.953125 -13.78125 6.953125 -13.78125 C 6.953125 -13.695312 6.890625 -13.65625 6.765625 -13.65625 C 6.679688 -13.613281 6.550781 -13.59375 6.375 -13.59375 C 6.15625 -13.59375 5.984375 -13.632812 5.859375 -13.71875 C 5.691406 -13.800781 5.5625 -13.84375 5.46875 -13.84375 C 4.914062 -13.84375 4.445312 -13.53125 4.0625 -12.90625 C 3.675781 -12.289062 3.375 -11.765625 3.15625 -11.328125 C 3.15625 -10.734375 3.238281 -10.046875 3.40625 -9.265625 C 3.582031 -8.492188 3.882812 -7.828125 4.3125 -7.265625 C 4.738281 -6.710938 5.363281 -6.4375 6.1875 -6.4375 C 6.695312 -6.4375 7.082031 -6.566406 7.34375 -6.828125 C 7.5625 -6.992188 7.671875 -7.226562 7.671875 -7.53125 C 7.617188 -7.75 7.632812 -7.921875 7.71875 -8.046875 C 7.8125 -8.179688 7.878906 -8.289062 7.921875 -8.375 C 8.085938 -8.457031 8.21875 -8.5 8.3125 -8.5 C 8.4375 -8.5 8.519531 -8.476562 8.5625 -8.4375 C 8.988281 -8.257812 9.160156 -7.832031 9.078125 -7.15625 C 8.992188 -6.550781 8.597656 -6.128906 7.890625 -5.890625 C 7.179688 -5.648438 6.566406 -5.53125 6.046875 -5.53125 C 5.191406 -5.625 4.460938 -5.957031 3.859375 -6.53125 C 3.265625 -7.113281 2.796875 -7.789062 2.453125 -8.5625 C 2.453125 -8.300781 2.441406 -8.039062 2.421875 -7.78125 C 2.398438 -7.53125 2.410156 -7.253906 2.453125 -6.953125 C 2.453125 -6.398438 2.523438 -5.84375 2.671875 -5.28125 C 2.816406 -4.71875 3.0625 -4.203125 3.40625 -3.734375 C 3.664062 -3.265625 4.035156 -2.835938 4.515625 -2.453125 C 5.148438 -1.804688 5.941406 -1.484375 6.890625 -1.484375 C 7.921875 -1.484375 8.78125 -1.867188 9.46875 -2.640625 C 10.15625 -3.410156 10.671875 -4.226562 11.015625 -5.09375 C 11.179688 -5.519531 11.316406 -5.925781 11.421875 -6.3125 C 11.535156 -6.695312 11.632812 -7.039062 11.71875 -7.34375 C 11.851562 -7.988281 11.941406 -8.523438 11.984375 -8.953125 C 12.023438 -9.378906 12.066406 -9.632812 12.109375 -9.71875 Z M 12.171875 -10.5625 "/></g></g></g><g fill="#ffffff" fill-opacity="1"><g transform="translate(248.529944, 212.573789)"><g><path d="M 15.84375 -32.53125 C 15.882812 -32.269531 15.90625 -32.050781 15.90625 -31.875 C 15.90625 -31.707031 15.90625 -31.535156 15.90625 -31.359375 C 15.863281 -31.191406 15.84375 -31.03125 15.84375 -30.875 C 15.84375 -30.726562 15.820312 -30.59375 15.78125 -30.46875 C 15.738281 -29.90625 15.640625 -29.375 15.484375 -28.875 C 15.335938 -28.382812 15.175781 -27.90625 15 -27.4375 C 13.96875 -24.34375 12.691406 -21.238281 11.171875 -18.125 C 9.648438 -15.007812 7.921875 -12.164062 5.984375 -9.59375 C 6.242188 -7.445312 6.738281 -5.453125 7.46875 -3.609375 C 7.726562 -2.796875 8.15625 -1.882812 8.75 -0.875 C 9.351562 0.132812 10.066406 0.832031 10.890625 1.21875 C 11.015625 1.257812 11.160156 1.28125 11.328125 1.28125 C 11.585938 1.28125 11.757812 1.238281 11.84375 1.15625 C 12.0625 0.945312 12.300781 0.84375 12.5625 0.84375 C 12.644531 0.84375 12.75 0.863281 12.875 0.90625 C 13.007812 0.945312 13.078125 1.03125 13.078125 1.15625 C 13.078125 1.675781 12.988281 2.09375 12.8125 2.40625 C 12.644531 2.726562 12.257812 2.890625 11.65625 2.890625 C 10.757812 2.765625 9.921875 2.257812 9.140625 1.375 C 8.367188 0.5 7.691406 -0.523438 7.109375 -1.703125 C 6.535156 -2.890625 6.046875 -4.0625 5.640625 -5.21875 C 5.234375 -6.375 4.941406 -7.335938 4.765625 -8.109375 C 4.335938 -7.640625 3.929688 -7.253906 3.546875 -6.953125 C 3.160156 -6.648438 2.796875 -6.476562 2.453125 -6.4375 C 2.191406 -6.4375 1.910156 -6.488281 1.609375 -6.59375 C 1.304688 -6.707031 1.15625 -6.9375 1.15625 -7.28125 C 1.15625 -7.625 1.273438 -7.957031 1.515625 -8.28125 C 1.753906 -8.601562 2.019531 -8.765625 2.3125 -8.765625 C 2.40625 -8.765625 2.535156 -8.71875 2.703125 -8.625 C 2.742188 -8.582031 2.851562 -8.5625 3.03125 -8.5625 C 3.414062 -8.5625 3.910156 -8.863281 4.515625 -9.46875 C 4.421875 -10.070312 4.332031 -10.671875 4.25 -11.265625 C 4.164062 -11.867188 4.101562 -12.453125 4.0625 -13.015625 C 3.925781 -15.203125 4 -17.328125 4.28125 -19.390625 C 4.5625 -21.453125 4.914062 -23.273438 5.34375 -24.859375 C 5.769531 -26.453125 6.1875 -27.726562 6.59375 -28.6875 C 7.007812 -29.65625 7.238281 -30.179688 7.28125 -30.265625 L 7.34375 -30.40625 C 7.382812 -30.445312 7.40625 -30.488281 7.40625 -30.53125 C 7.445312 -30.570312 7.53125 -30.734375 7.65625 -31.015625 C 7.789062 -31.296875 7.988281 -31.648438 8.25 -32.078125 C 8.757812 -33.234375 9.507812 -34.175781 10.5 -34.90625 C 10.664062 -34.988281 10.84375 -35.09375 11.03125 -35.21875 C 11.226562 -35.351562 11.476562 -35.441406 11.78125 -35.484375 C 12 -35.566406 12.191406 -35.609375 12.359375 -35.609375 C 12.535156 -35.609375 12.734375 -35.609375 12.953125 -35.609375 C 14.109375 -35.441406 14.941406 -34.800781 15.453125 -33.6875 C 15.546875 -33.601562 15.59375 -33.515625 15.59375 -33.421875 C 15.632812 -33.378906 15.65625 -33.335938 15.65625 -33.296875 C 15.65625 -33.253906 15.675781 -33.191406 15.71875 -33.109375 L 15.78125 -32.84375 L 15.78125 -32.71875 C 15.78125 -32.675781 15.789062 -32.644531 15.8125 -32.625 C 15.832031 -32.601562 15.84375 -32.570312 15.84375 -32.53125 Z M 13.71875 -28.796875 C 13.84375 -29.265625 13.957031 -29.742188 14.0625 -30.234375 C 14.175781 -30.734375 14.234375 -31.238281 14.234375 -31.75 C 14.234375 -32.007812 14.210938 -32.203125 14.171875 -32.328125 L 14.171875 -32.453125 L 14.109375 -32.59375 C 14.109375 -32.71875 14.085938 -32.800781 14.046875 -32.84375 C 13.953125 -33.144531 13.773438 -33.410156 13.515625 -33.640625 C 13.265625 -33.878906 12.96875 -34 12.625 -34 C 12.582031 -34 12.539062 -33.988281 12.5 -33.96875 C 12.457031 -33.945312 12.390625 -33.9375 12.296875 -33.9375 C 12.171875 -33.9375 12.0625 -33.914062 11.96875 -33.875 C 11.882812 -33.832031 11.800781 -33.789062 11.71875 -33.75 C 11.550781 -33.625 11.335938 -33.453125 11.078125 -33.234375 C 10.816406 -33.015625 10.625 -32.800781 10.5 -32.59375 C 9.632812 -31.5625 8.898438 -30.316406 8.296875 -28.859375 C 7.703125 -27.398438 7.222656 -25.90625 6.859375 -24.375 C 6.492188 -22.851562 6.222656 -21.425781 6.046875 -20.09375 C 5.878906 -18.800781 5.75 -17.4375 5.65625 -16 C 5.570312 -14.5625 5.597656 -13.113281 5.734375 -11.65625 C 5.734375 -11.570312 5.742188 -11.472656 5.765625 -11.359375 C 5.785156 -11.253906 5.796875 -11.160156 5.796875 -11.078125 C 6.828125 -12.710938 7.847656 -14.566406 8.859375 -16.640625 C 9.867188 -18.722656 10.800781 -20.828125 11.65625 -22.953125 C 12.519531 -25.085938 13.207031 -27.035156 13.71875 -28.796875 Z M 13.71875 -28.796875 "/></g></g></g><g fill="#ffffff" fill-opacity="1"><g transform="translate(260.187467, 212.573789)"><g><path d="M 15.84375 -32.53125 C 15.882812 -32.269531 15.90625 -32.050781 15.90625 -31.875 C 15.90625 -31.707031 15.90625 -31.535156 15.90625 -31.359375 C 15.863281 -31.191406 15.84375 -31.03125 15.84375 -30.875 C 15.84375 -30.726562 15.820312 -30.59375 15.78125 -30.46875 C 15.738281 -29.90625 15.640625 -29.375 15.484375 -28.875 C 15.335938 -28.382812 15.175781 -27.90625 15 -27.4375 C 13.96875 -24.34375 12.691406 -21.238281 11.171875 -18.125 C 9.648438 -15.007812 7.921875 -12.164062 5.984375 -9.59375 C 6.242188 -7.445312 6.738281 -5.453125 7.46875 -3.609375 C 7.726562 -2.796875 8.15625 -1.882812 8.75 -0.875 C 9.351562 0.132812 10.066406 0.832031 10.890625 1.21875 C 11.015625 1.257812 11.160156 1.28125 11.328125 1.28125 C 11.585938 1.28125 11.757812 1.238281 11.84375 1.15625 C 12.0625 0.945312 12.300781 0.84375 12.5625 0.84375 C 12.644531 0.84375 12.75 0.863281 12.875 0.90625 C 13.007812 0.945312 13.078125 1.03125 13.078125 1.15625 C 13.078125 1.675781 12.988281 2.09375 12.8125 2.40625 C 12.644531 2.726562 12.257812 2.890625 11.65625 2.890625 C 10.757812 2.765625 9.921875 2.257812 9.140625 1.375 C 8.367188 0.5 7.691406 -0.523438 7.109375 -1.703125 C 6.535156 -2.890625 6.046875 -4.0625 5.640625 -5.21875 C 5.234375 -6.375 4.941406 -7.335938 4.765625 -8.109375 C 4.335938 -7.640625 3.929688 -7.253906 3.546875 -6.953125 C 3.160156 -6.648438 2.796875 -6.476562 2.453125 -6.4375 C 2.191406 -6.4375 1.910156 -6.488281 1.609375 -6.59375 C 1.304688 -6.707031 1.15625 -6.9375 1.15625 -7.28125 C 1.15625 -7.625 1.273438 -7.957031 1.515625 -8.28125 C 1.753906 -8.601562 2.019531 -8.765625 2.3125 -8.765625 C 2.40625 -8.765625 2.535156 -8.71875 2.703125 -8.625 C 2.742188 -8.582031 2.851562 -8.5625 3.03125 -8.5625 C 3.414062 -8.5625 3.910156 -8.863281 4.515625 -9.46875 C 4.421875 -10.070312 4.332031 -10.671875 4.25 -11.265625 C 4.164062 -11.867188 4.101562 -12.453125 4.0625 -13.015625 C 3.925781 -15.203125 4 -17.328125 4.28125 -19.390625 C 4.5625 -21.453125 4.914062 -23.273438 5.34375 -24.859375 C 5.769531 -26.453125 6.1875 -27.726562 6.59375 -28.6875 C 7.007812 -29.65625 7.238281 -30.179688 7.28125 -30.265625 L 7.34375 -30.40625 C 7.382812 -30.445312 7.40625 -30.488281 7.40625 -30.53125 C 7.445312 -30.570312 7.53125 -30.734375 7.65625 -31.015625 C 7.789062 -31.296875 7.988281 -31.648438 8.25 -32.078125 C 8.757812 -33.234375 9.507812 -34.175781 10.5 -34.90625 C 10.664062 -34.988281 10.84375 -35.09375 11.03125 -35.21875 C 11.226562 -35.351562 11.476562 -35.441406 11.78125 -35.484375 C 12 -35.566406 12.191406 -35.609375 12.359375 -35.609375 C 12.535156 -35.609375 12.734375 -35.609375 12.953125 -35.609375 C 14.109375 -35.441406 14.941406 -34.800781 15.453125 -33.6875 C 15.546875 -33.601562 15.59375 -33.515625 15.59375 -33.421875 C 15.632812 -33.378906 15.65625 -33.335938 15.65625 -33.296875 C 15.65625 -33.253906 15.675781 -33.191406 15.71875 -33.109375 L 15.78125 -32.84375 L 15.78125 -32.71875 C 15.78125 -32.675781 15.789062 -32.644531 15.8125 -32.625 C 15.832031 -32.601562 15.84375 -32.570312 15.84375 -32.53125 Z M 13.71875 -28.796875 C 13.84375 -29.265625 13.957031 -29.742188 14.0625 -30.234375 C 14.175781 -30.734375 14.234375 -31.238281 14.234375 -31.75 C 14.234375 -32.007812 14.210938 -32.203125 14.171875 -32.328125 L 14.171875 -32.453125 L 14.109375 -32.59375 C 14.109375 -32.71875 14.085938 -32.800781 14.046875 -32.84375 C 13.953125 -33.144531 13.773438 -33.410156 13.515625 -33.640625 C 13.265625 -33.878906 12.96875 -34 12.625 -34 C 12.582031 -34 12.539062 -33.988281 12.5 -33.96875 C 12.457031 -33.945312 12.390625 -33.9375 12.296875 -33.9375 C 12.171875 -33.9375 12.0625 -33.914062 11.96875 -33.875 C 11.882812 -33.832031 11.800781 -33.789062 11.71875 -33.75 C 11.550781 -33.625 11.335938 -33.453125 11.078125 -33.234375 C 10.816406 -33.015625 10.625 -32.800781 10.5 -32.59375 C 9.632812 -31.5625 8.898438 -30.316406 8.296875 -28.859375 C 7.703125 -27.398438 7.222656 -25.90625 6.859375 -24.375 C 6.492188 -22.851562 6.222656 -21.425781 6.046875 -20.09375 C 5.878906 -18.800781 5.75 -17.4375 5.65625 -16 C 5.570312 -14.5625 5.597656 -13.113281 5.734375 -11.65625 C 5.734375 -11.570312 5.742188 -11.472656 5.765625 -11.359375 C 5.785156 -11.253906 5.796875 -11.160156 5.796875 -11.078125 C 6.828125 -12.710938 7.847656 -14.566406 8.859375 -16.640625 C 9.867188 -18.722656 10.800781 -20.828125 11.65625 -22.953125 C 12.519531 -25.085938 13.207031 -27.035156 13.71875 -28.796875 Z M 13.71875 -28.796875 "/></g></g></g><g fill="#ffffff" fill-opacity="1"><g transform="translate(271.845013, 212.573789)"><g><path d="M 13.390625 -8.25 C 13.691406 -7.601562 13.648438 -6.675781 13.265625 -5.46875 C 12.710938 -3.707031 11.769531 -2.25 10.4375 -1.09375 C 10.21875 -0.925781 9.945312 -0.753906 9.625 -0.578125 C 9.300781 -0.410156 8.96875 -0.28125 8.625 -0.1875 C 8.457031 -0.144531 8.285156 -0.113281 8.109375 -0.09375 C 7.941406 -0.0703125 7.769531 -0.0625 7.59375 -0.0625 C 7.125 -0.0625 6.695312 -0.125 6.3125 -0.25 C 5.925781 -0.34375 5.570312 -0.492188 5.25 -0.703125 C 4.925781 -0.921875 4.632812 -1.140625 4.375 -1.359375 C 3.820312 -1.828125 3.375 -2.335938 3.03125 -2.890625 C 2.601562 -3.453125 2.300781 -4.015625 2.125 -4.578125 C 2.082031 -4.742188 2.03125 -4.890625 1.96875 -5.015625 C 1.90625 -5.148438 1.828125 -5.300781 1.734375 -5.46875 C 1.691406 -5.644531 1.648438 -5.804688 1.609375 -5.953125 C 1.566406 -6.109375 1.523438 -6.269531 1.484375 -6.4375 C 1.179688 -7.6875 1.09375 -8.953125 1.21875 -10.234375 C 1.257812 -10.878906 1.332031 -11.503906 1.4375 -12.109375 C 1.550781 -12.710938 1.695312 -13.3125 1.875 -13.90625 C 2.082031 -14.507812 2.335938 -15.09375 2.640625 -15.65625 C 2.859375 -16.164062 3.242188 -16.722656 3.796875 -17.328125 C 4.097656 -17.628906 4.453125 -17.882812 4.859375 -18.09375 C 5.265625 -18.3125 5.6875 -18.421875 6.125 -18.421875 C 6.332031 -18.421875 6.554688 -18.410156 6.796875 -18.390625 C 7.035156 -18.367188 7.257812 -18.316406 7.46875 -18.234375 C 7.894531 -18.015625 8.21875 -17.796875 8.4375 -17.578125 C 8.695312 -17.410156 8.929688 -17.132812 9.140625 -16.75 C 9.359375 -16.488281 9.507812 -16.144531 9.59375 -15.71875 C 9.675781 -15.332031 9.707031 -14.976562 9.6875 -14.65625 C 9.664062 -14.332031 9.613281 -14.039062 9.53125 -13.78125 C 9.363281 -13.269531 9.160156 -12.832031 8.921875 -12.46875 C 8.679688 -12.101562 8.457031 -11.75 8.25 -11.40625 C 8.113281 -11.269531 7.875 -10.988281 7.53125 -10.5625 C 7.1875 -10.132812 6.832031 -9.738281 6.46875 -9.375 C 6.101562 -9.007812 5.859375 -8.78125 5.734375 -8.6875 C 5.390625 -8.34375 5.023438 -8.171875 4.640625 -8.171875 C 4.421875 -8.171875 4.226562 -8.257812 4.0625 -8.4375 C 3.625 -8.945312 3.707031 -9.503906 4.3125 -10.109375 L 4.953125 -10.75 C 5.171875 -10.925781 5.382812 -11.140625 5.59375 -11.390625 C 5.8125 -11.648438 6.070312 -11.929688 6.375 -12.234375 C 6.5 -12.410156 6.625 -12.59375 6.75 -12.78125 C 6.882812 -12.976562 7.019531 -13.160156 7.15625 -13.328125 C 7.40625 -13.804688 7.597656 -14.257812 7.734375 -14.6875 C 7.816406 -15.195312 7.707031 -15.625 7.40625 -15.96875 C 7.320312 -16.050781 7.222656 -16.132812 7.109375 -16.21875 C 7.003906 -16.3125 6.890625 -16.378906 6.765625 -16.421875 C 6.546875 -16.503906 6.285156 -16.546875 5.984375 -16.546875 C 5.734375 -16.503906 5.476562 -16.363281 5.21875 -16.125 C 4.957031 -15.894531 4.722656 -15.628906 4.515625 -15.328125 C 3.910156 -14.421875 3.46875 -13.367188 3.1875 -12.171875 C 2.90625 -10.972656 2.765625 -9.835938 2.765625 -8.765625 C 2.765625 -7.640625 2.96875 -6.453125 3.375 -5.203125 C 3.789062 -3.960938 4.40625 -2.976562 5.21875 -2.25 C 5.519531 -1.945312 5.851562 -1.695312 6.21875 -1.5 C 6.582031 -1.3125 6.976562 -1.195312 7.40625 -1.15625 C 7.914062 -1.15625 8.390625 -1.222656 8.828125 -1.359375 C 9.035156 -1.441406 9.234375 -1.535156 9.421875 -1.640625 C 9.617188 -1.742188 9.804688 -1.882812 9.984375 -2.0625 C 10.671875 -2.613281 11.1875 -3.234375 11.53125 -3.921875 C 11.875 -4.566406 12.066406 -5.132812 12.109375 -5.625 C 12.148438 -6.125 12.019531 -6.460938 11.71875 -6.640625 C 11.375 -6.847656 11.253906 -7.1875 11.359375 -7.65625 C 11.472656 -8.132812 11.703125 -8.523438 12.046875 -8.828125 C 12.210938 -8.910156 12.363281 -8.953125 12.5 -8.953125 C 12.882812 -8.953125 13.179688 -8.71875 13.390625 -8.25 Z M 13.390625 -8.25 "/></g></g></g><g fill="#ffffff" fill-opacity="1"><g transform="translate(285.434734, 212.573789)"><g><path d="M 13.015625 -6.1875 C 13.097656 -6.09375 13.140625 -5.921875 13.140625 -5.671875 C 13.140625 -5.410156 13.019531 -5.078125 12.78125 -4.671875 C 12.550781 -4.265625 12.347656 -3.953125 12.171875 -3.734375 C 11.742188 -3.085938 11.21875 -2.503906 10.59375 -1.984375 C 9.96875 -1.472656 9.3125 -1.023438 8.625 -0.640625 C 8.539062 -0.597656 8.441406 -0.554688 8.328125 -0.515625 C 8.222656 -0.472656 8.128906 -0.429688 8.046875 -0.390625 C 8.003906 -0.347656 7.953125 -0.328125 7.890625 -0.328125 C 7.828125 -0.328125 7.773438 -0.300781 7.734375 -0.25 C 7.691406 -0.207031 7.632812 -0.1875 7.5625 -0.1875 C 7.5 -0.1875 7.425781 -0.164062 7.34375 -0.125 C 7.039062 -0.0390625 6.75 0.0078125 6.46875 0.03125 C 6.1875 0.0507812 5.898438 0.0625 5.609375 0.0625 C 5.046875 -0.0195312 4.472656 -0.265625 3.890625 -0.671875 C 3.316406 -1.078125 2.898438 -1.519531 2.640625 -2 C 2.210938 -2.644531 1.878906 -3.375 1.640625 -4.1875 C 1.398438 -5 1.257812 -5.789062 1.21875 -6.5625 C 1.175781 -7.59375 1.273438 -8.613281 1.515625 -9.625 C 1.753906 -10.632812 2.085938 -11.570312 2.515625 -12.4375 C 2.984375 -13.332031 3.601562 -14.164062 4.375 -14.9375 C 5.144531 -15.707031 6.070312 -16.160156 7.15625 -16.296875 C 7.320312 -16.335938 7.46875 -16.359375 7.59375 -16.359375 C 7.726562 -16.359375 7.859375 -16.359375 7.984375 -16.359375 C 8.710938 -16.359375 9.332031 -16.25 9.84375 -16.03125 C 10.363281 -15.820312 10.90625 -15.503906 11.46875 -15.078125 C 12.28125 -14.390625 12.6875 -13.722656 12.6875 -13.078125 C 12.601562 -12.691406 12.472656 -12.410156 12.296875 -12.234375 C 12.171875 -12.023438 11.976562 -11.921875 11.71875 -11.921875 C 11.375 -11.921875 11.097656 -12.046875 10.890625 -12.296875 C 10.671875 -12.597656 10.644531 -12.921875 10.8125 -13.265625 C 10.945312 -13.523438 10.90625 -13.828125 10.6875 -14.171875 C 10.382812 -14.679688 9.910156 -15.007812 9.265625 -15.15625 C 8.628906 -15.3125 8.050781 -15.390625 7.53125 -15.390625 C 6.457031 -15.222656 5.566406 -14.707031 4.859375 -13.84375 C 4.148438 -12.988281 3.632812 -12 3.3125 -10.875 C 2.988281 -9.757812 2.828125 -8.710938 2.828125 -7.734375 C 2.828125 -7.085938 2.878906 -6.453125 2.984375 -5.828125 C 3.097656 -5.203125 3.265625 -4.613281 3.484375 -4.0625 C 3.773438 -3.457031 4.09375 -2.984375 4.4375 -2.640625 C 4.832031 -2.210938 5.265625 -1.929688 5.734375 -1.796875 C 6.585938 -1.796875 7.378906 -2.0625 8.109375 -2.59375 C 8.835938 -3.132812 9.484375 -3.6875 10.046875 -4.25 C 10.265625 -4.507812 10.445312 -4.742188 10.59375 -4.953125 C 10.738281 -5.171875 10.859375 -5.363281 10.953125 -5.53125 C 11.035156 -5.664062 11.085938 -5.773438 11.109375 -5.859375 C 11.128906 -5.941406 11.160156 -6.003906 11.203125 -6.046875 C 11.203125 -6.097656 11.242188 -6.164062 11.328125 -6.25 C 11.421875 -6.289062 11.507812 -6.351562 11.59375 -6.4375 C 11.71875 -6.476562 11.832031 -6.519531 11.9375 -6.5625 C 12.050781 -6.613281 12.191406 -6.640625 12.359375 -6.640625 C 12.660156 -6.546875 12.878906 -6.394531 13.015625 -6.1875 Z M 13.015625 -6.1875 "/></g></g></g><g fill="#ffffff" fill-opacity="1"><g transform="translate(298.573604, 212.573789)"><g><path d="M 11.78125 -25.3125 C 12.425781 -25.132812 12.941406 -24.863281 13.328125 -24.5 C 13.710938 -24.132812 13.882812 -23.71875 13.84375 -23.25 C 13.84375 -22.5625 13.671875 -22.085938 13.328125 -21.828125 C 13.285156 -21.742188 13.203125 -21.703125 13.078125 -21.703125 C 12.898438 -21.703125 12.859375 -22.003906 12.953125 -22.609375 C 13.117188 -23.160156 12.96875 -23.632812 12.5 -24.03125 C 12.0625 -24.28125 11.546875 -24.40625 10.953125 -24.40625 C 10.609375 -24.40625 10.226562 -24.363281 9.8125 -24.28125 C 9.40625 -24.195312 9.007812 -24.113281 8.625 -24.03125 C 7.644531 -21.53125 6.800781 -18.972656 6.09375 -16.359375 C 5.382812 -13.742188 5.03125 -11.101562 5.03125 -8.4375 C 5.03125 -7.96875 5.09375 -7.238281 5.21875 -6.25 C 5.34375 -5.257812 5.585938 -4.34375 5.953125 -3.5 C 6.316406 -2.664062 6.84375 -2.25 7.53125 -2.25 C 7.570312 -2.25 7.601562 -2.25 7.625 -2.25 C 7.65625 -2.25 7.671875 -2.25 7.671875 -2.25 C 8.003906 -2.25 8.300781 -2.125 8.5625 -1.875 C 8.78125 -1.476562 8.867188 -1.085938 8.828125 -0.703125 C 8.734375 -0.234375 8.390625 0 7.796875 0 C 7.617188 0 7.488281 -0.0195312 7.40625 -0.0625 C 6.800781 -0.1875 6.203125 -0.8125 5.609375 -1.9375 C 4.960938 -3.007812 4.46875 -4.445312 4.125 -6.25 C 3.945312 -7.101562 3.847656 -8.023438 3.828125 -9.015625 C 3.804688 -10.003906 3.816406 -11.015625 3.859375 -12.046875 C 3.992188 -13.929688 4.285156 -15.816406 4.734375 -17.703125 C 5.179688 -19.597656 5.6875 -21.425781 6.25 -23.1875 C 5.21875 -22.582031 4.296875 -21.984375 3.484375 -21.390625 C 3.304688 -21.210938 3.148438 -21.054688 3.015625 -20.921875 C 2.890625 -20.796875 2.828125 -20.734375 2.828125 -20.734375 C 2.578125 -20.566406 2.257812 -20.757812 1.875 -21.3125 C 1.476562 -21.875 1.410156 -22.238281 1.671875 -22.40625 C 2.359375 -23.09375 3.195312 -23.691406 4.1875 -24.203125 C 5.175781 -24.722656 6.117188 -25.070312 7.015625 -25.25 C 7.316406 -25.976562 7.597656 -26.6875 7.859375 -27.375 C 8.117188 -28.0625 8.394531 -28.679688 8.6875 -29.234375 C 9.332031 -30.648438 9.890625 -31.796875 10.359375 -32.671875 C 10.835938 -33.554688 11.097656 -34.023438 11.140625 -34.078125 C 11.441406 -34.628906 11.785156 -34.90625 12.171875 -34.90625 C 12.296875 -34.90625 12.445312 -34.863281 12.625 -34.78125 C 12.925781 -34.65625 13.109375 -34.441406 13.171875 -34.140625 C 13.234375 -33.835938 13.203125 -33.515625 13.078125 -33.171875 C 13.035156 -33.085938 12.625 -32.347656 11.84375 -30.953125 C 11.070312 -29.554688 10.21875 -27.757812 9.28125 -25.5625 C 9.363281 -25.5625 9.46875 -25.5625 9.59375 -25.5625 C 9.726562 -25.5625 9.835938 -25.5625 9.921875 -25.5625 C 10.265625 -25.5625 10.597656 -25.539062 10.921875 -25.5 C 11.242188 -25.457031 11.53125 -25.394531 11.78125 -25.3125 Z M 11.78125 -25.3125 "/></g></g></g><g fill="#ffffff" fill-opacity="1"><g transform="translate(308.814211, 212.573789)"><g><path d="M 13.203125 -14.421875 C 13.421875 -13.734375 13.550781 -13.097656 13.59375 -12.515625 C 13.632812 -11.941406 13.632812 -11.441406 13.59375 -11.015625 C 13.59375 -10.929688 13.59375 -10.832031 13.59375 -10.71875 C 13.59375 -10.613281 13.59375 -10.519531 13.59375 -10.4375 L 13.53125 -10.046875 C 13.53125 -9.960938 13.53125 -9.882812 13.53125 -9.8125 C 13.53125 -9.75 13.53125 -9.71875 13.53125 -9.71875 L 13.453125 -9.59375 L 13.453125 -9.53125 C 13.453125 -8.582031 13.300781 -7.550781 13 -6.4375 C 12.707031 -5.320312 12.28125 -4.269531 11.71875 -3.28125 C 11.164062 -2.289062 10.5 -1.519531 9.71875 -0.96875 C 9.332031 -0.625 8.773438 -0.34375 8.046875 -0.125 C 7.878906 -0.0820312 7.6875 -0.0507812 7.46875 -0.03125 C 7.257812 -0.0078125 7.046875 0 6.828125 0 C 6.484375 0 6.191406 -0.03125 5.953125 -0.09375 C 5.722656 -0.15625 5.4375 -0.253906 5.09375 -0.390625 C 4.707031 -0.597656 4.34375 -0.8125 4 -1.03125 C 3.65625 -1.25 3.332031 -1.53125 3.03125 -1.875 C 2.9375 -1.957031 2.859375 -2.0625 2.796875 -2.1875 C 2.734375 -2.320312 2.660156 -2.429688 2.578125 -2.515625 C 2.398438 -2.679688 2.25 -2.894531 2.125 -3.15625 C 1.90625 -3.539062 1.691406 -4.015625 1.484375 -4.578125 C 1.347656 -5.046875 1.257812 -5.515625 1.21875 -5.984375 C 1.175781 -6.460938 1.15625 -6.914062 1.15625 -7.34375 C 1.289062 -8.675781 1.550781 -9.859375 1.9375 -10.890625 C 1.9375 -10.929688 1.9375 -10.960938 1.9375 -10.984375 C 1.9375 -11.003906 1.9375 -11.035156 1.9375 -11.078125 C 1.894531 -11.503906 1.882812 -11.953125 1.90625 -12.421875 C 1.925781 -12.898438 1.976562 -13.351562 2.0625 -13.78125 C 2.28125 -14.9375 2.707031 -15.941406 3.34375 -16.796875 C 3.988281 -17.660156 4.867188 -18.3125 5.984375 -18.75 C 6.460938 -18.914062 7.023438 -19 7.671875 -19 C 8.003906 -19 8.320312 -18.976562 8.625 -18.9375 C 8.925781 -18.894531 9.226562 -18.804688 9.53125 -18.671875 C 10.519531 -18.378906 11.3125 -17.832031 11.90625 -17.03125 C 12.507812 -16.238281 12.941406 -15.367188 13.203125 -14.421875 Z M 12.171875 -10.5625 C 12.171875 -10.78125 12.179688 -11.023438 12.203125 -11.296875 C 12.222656 -11.578125 12.210938 -11.890625 12.171875 -12.234375 C 12.128906 -12.578125 12.078125 -12.941406 12.015625 -13.328125 C 11.953125 -13.710938 11.832031 -14.125 11.65625 -14.5625 C 11.488281 -14.988281 11.242188 -15.414062 10.921875 -15.84375 C 10.597656 -16.269531 10.195312 -16.632812 9.71875 -16.9375 C 9.289062 -17.238281 8.734375 -17.429688 8.046875 -17.515625 C 7.015625 -17.515625 6.164062 -17.289062 5.5 -16.84375 C 4.84375 -16.394531 4.273438 -15.71875 3.796875 -14.8125 C 3.710938 -14.59375 3.640625 -14.363281 3.578125 -14.125 C 3.515625 -13.894531 3.4375 -13.671875 3.34375 -13.453125 C 3.519531 -13.671875 3.679688 -13.863281 3.828125 -14.03125 C 3.984375 -14.207031 4.144531 -14.382812 4.3125 -14.5625 C 4.613281 -14.769531 4.957031 -14.960938 5.34375 -15.140625 C 5.425781 -15.179688 5.535156 -15.203125 5.671875 -15.203125 C 5.878906 -15.203125 6.066406 -15.125 6.234375 -14.96875 C 6.410156 -14.820312 6.566406 -14.660156 6.703125 -14.484375 C 6.785156 -14.398438 6.835938 -14.316406 6.859375 -14.234375 C 6.878906 -14.148438 6.910156 -14.0625 6.953125 -13.96875 C 6.953125 -13.84375 6.953125 -13.78125 6.953125 -13.78125 C 6.953125 -13.695312 6.890625 -13.65625 6.765625 -13.65625 C 6.679688 -13.613281 6.550781 -13.59375 6.375 -13.59375 C 6.15625 -13.59375 5.984375 -13.632812 5.859375 -13.71875 C 5.691406 -13.800781 5.5625 -13.84375 5.46875 -13.84375 C 4.914062 -13.84375 4.445312 -13.53125 4.0625 -12.90625 C 3.675781 -12.289062 3.375 -11.765625 3.15625 -11.328125 C 3.15625 -10.734375 3.238281 -10.046875 3.40625 -9.265625 C 3.582031 -8.492188 3.882812 -7.828125 4.3125 -7.265625 C 4.738281 -6.710938 5.363281 -6.4375 6.1875 -6.4375 C 6.695312 -6.4375 7.082031 -6.566406 7.34375 -6.828125 C 7.5625 -6.992188 7.671875 -7.226562 7.671875 -7.53125 C 7.617188 -7.75 7.632812 -7.921875 7.71875 -8.046875 C 7.8125 -8.179688 7.878906 -8.289062 7.921875 -8.375 C 8.085938 -8.457031 8.21875 -8.5 8.3125 -8.5 C 8.4375 -8.5 8.519531 -8.476562 8.5625 -8.4375 C 8.988281 -8.257812 9.160156 -7.832031 9.078125 -7.15625 C 8.992188 -6.550781 8.597656 -6.128906 7.890625 -5.890625 C 7.179688 -5.648438 6.566406 -5.53125 6.046875 -5.53125 C 5.191406 -5.625 4.460938 -5.957031 3.859375 -6.53125 C 3.265625 -7.113281 2.796875 -7.789062 2.453125 -8.5625 C 2.453125 -8.300781 2.441406 -8.039062 2.421875 -7.78125 C 2.398438 -7.53125 2.410156 -7.253906 2.453125 -6.953125 C 2.453125 -6.398438 2.523438 -5.84375 2.671875 -5.28125 C 2.816406 -4.71875 3.0625 -4.203125 3.40625 -3.734375 C 3.664062 -3.265625 4.035156 -2.835938 4.515625 -2.453125 C 5.148438 -1.804688 5.941406 -1.484375 6.890625 -1.484375 C 7.921875 -1.484375 8.78125 -1.867188 9.46875 -2.640625 C 10.15625 -3.410156 10.671875 -4.226562 11.015625 -5.09375 C 11.179688 -5.519531 11.316406 -5.925781 11.421875 -6.3125 C 11.535156 -6.695312 11.632812 -7.039062 11.71875 -7.34375 C 11.851562 -7.988281 11.941406 -8.523438 11.984375 -8.953125 C 12.023438 -9.378906 12.066406 -9.632812 12.109375 -9.71875 Z M 12.171875 -10.5625 "/></g></g></g><g fill="#ffffff" fill-opacity="1"><g transform="translate(322.275117, 212.573789)"><g><path d="M 12.75 -14.75 C 12.925781 -13.882812 12.84375 -13.238281 12.5 -12.8125 C 12.238281 -12.425781 11.875 -12.234375 11.40625 -12.234375 C 11.269531 -12.234375 11.160156 -12.253906 11.078125 -12.296875 C 10.773438 -12.429688 10.632812 -12.632812 10.65625 -12.90625 C 10.675781 -13.1875 10.859375 -13.4375 11.203125 -13.65625 C 11.421875 -13.78125 11.570312 -14.015625 11.65625 -14.359375 C 11.65625 -14.785156 11.546875 -15.195312 11.328125 -15.59375 C 10.691406 -16.570312 9.726562 -17.0625 8.4375 -17.0625 C 7.925781 -17.019531 7.429688 -16.878906 6.953125 -16.640625 C 6.484375 -16.410156 6.054688 -16.125 5.671875 -15.78125 C 4.847656 -14.96875 4.347656 -14.097656 4.171875 -13.171875 C 4.003906 -12.242188 3.921875 -11.242188 3.921875 -10.171875 C 3.878906 -9.660156 3.859375 -9.175781 3.859375 -8.71875 C 3.859375 -8.269531 3.859375 -7.8125 3.859375 -7.34375 C 3.859375 -5.539062 3.867188 -4.023438 3.890625 -2.796875 C 3.910156 -1.578125 3.921875 -0.925781 3.921875 -0.84375 C 3.878906 -0.539062 3.738281 -0.332031 3.5 -0.21875 C 3.269531 -0.113281 3.023438 -0.0625 2.765625 -0.0625 C 2.078125 -0.144531 1.78125 -0.46875 1.875 -1.03125 C 1.875 -1.113281 1.875 -1.476562 1.875 -2.125 C 1.875 -2.769531 1.875 -3.628906 1.875 -4.703125 C 1.914062 -5.210938 1.9375 -5.769531 1.9375 -6.375 C 1.9375 -6.976562 1.957031 -7.625 2 -8.3125 C 2.039062 -8.476562 2.0625 -8.644531 2.0625 -8.8125 C 2.0625 -8.988281 2.0625 -9.164062 2.0625 -9.34375 C 2.019531 -10.414062 1.835938 -11.46875 1.515625 -12.5 C 1.191406 -13.53125 0.796875 -14.515625 0.328125 -15.453125 C 0.148438 -15.753906 0.15625 -16.019531 0.34375 -16.25 C 0.539062 -16.488281 0.769531 -16.609375 1.03125 -16.609375 C 1.289062 -16.609375 1.484375 -16.484375 1.609375 -16.234375 C 2.078125 -15.410156 2.441406 -14.59375 2.703125 -13.78125 C 3.128906 -14.851562 3.78125 -15.828125 4.65625 -16.703125 C 5.539062 -17.585938 6.585938 -18.070312 7.796875 -18.15625 C 7.878906 -18.15625 7.972656 -18.164062 8.078125 -18.1875 C 8.191406 -18.21875 8.289062 -18.234375 8.375 -18.234375 C 9.1875 -18.234375 9.875 -18.035156 10.4375 -17.640625 C 11.125 -17.296875 11.660156 -16.828125 12.046875 -16.234375 C 12.253906 -15.972656 12.410156 -15.710938 12.515625 -15.453125 C 12.628906 -15.203125 12.707031 -14.96875 12.75 -14.75 Z M 12.75 -14.75 "/></g></g></g></svg>