<svg xmlns="http://www.w3.org/2000/svg" xmlns:xlink="http://www.w3.org/1999/xlink" width="500" zoomAndPan="magnify" viewBox="0 0 375 374.999991" height="500" preserveAspectRatio="xMidYMid meet" version="1.0"><defs><g/><clipPath id="174a8135b7"><path d="M 0.238281 2 L 7 2 L 7 14 L 0.238281 14 Z M 0.238281 2 " clip-rule="nonzero"/></clipPath><clipPath id="455d39dda8"><rect x="0" width="112" y="0" height="17"/></clipPath><clipPath id="9f11b048b6"><rect x="0" width="64" y="0" height="114"/></clipPath></defs><path fill="#ff751f" d="M 321.894531 117.964844 L 321.894531 109.46875 C 321.894531 87.324219 303.953125 69.375 281.816406 69.363281 C 282.996094 50.949219 265.007812 30.609375 241.597656 34.816406 C 216.132812 6.542969 161.558594 7 136.90625 35.671875 C 114.042969 28.429688 91.886719 48.546875 93.230469 69.363281 C 69.113281 69.363281 52.335938 88.191406 52.335938 109.46875 L 52.335938 118.609375 C 1.796875 158.34375 0.765625 215.695312 52.335938 256.253906 L 52.335938 265.398438 C 52.335938 286.496094 68.933594 305.492188 93.230469 305.492188 C 91.898438 326.148438 113.882812 346.5 136.90625 339.191406 C 161.585938 367.878906 216.144531 368.300781 241.597656 340.039062 C 264.121094 344.097656 283.058594 324.847656 281.816406 305.492188 C 303.953125 305.484375 321.894531 287.542969 321.894531 265.398438 L 321.894531 256.902344 C 374.015625 216.523438 374.085938 158.394531 321.894531 117.964844 " fill-opacity="1" fill-rule="nonzero"/><path fill="#004aad" d="M 148.109375 329.546875 C 137.605469 317.328125 126.152344 332.90625 114.113281 320.496094 C 103.613281 309.660156 111.785156 303.65625 104.015625 295.382812 C 100.828125 291.972656 96.933594 290.703125 92.433594 290.703125 C 78.46875 290.703125 67.117188 279.351562 67.117188 265.398438 C 67.117188 256.507812 68.246094 249.960938 61.476562 244.632812 C 18.546875 210.863281 17.292969 164.964844 61.476562 130.222656 C 68.246094 124.898438 67.117188 118.359375 67.117188 109.46875 C 67.117188 96.375 77.316406 84.15625 93.230469 84.15625 C 101.753906 84.15625 108.535156 76.929688 107.980469 68.414062 C 107.566406 61.917969 113.609375 49.101562 127.714844 49.101562 C 131.914062 49.101562 140.851562 53.765625 148.117188 45.308594 C 166.734375 23.65625 210.9375 22.859375 230.613281 44.714844 C 239.875 55.003906 250.488281 43.613281 260.929688 54.359375 C 271.445312 65.214844 263.261719 71.199219 271.03125 79.484375 C 273.804688 82.449219 277.742188 84.15625 281.816406 84.15625 C 295.761719 84.164062 307.113281 95.515625 307.113281 109.46875 C 307.113281 117.984375 306.09375 124.421875 312.84375 129.648438 C 357.347656 164.125 357.417969 210.671875 312.84375 245.207031 C 306.074219 250.453125 307.113281 257.164062 307.113281 265.398438 C 307.113281 279.351562 295.761719 290.703125 281.816406 290.703125 C 273.292969 290.710938 266.511719 297.925781 267.066406 306.441406 C 267.480469 312.929688 261.445312 325.753906 247.320312 325.753906 C 244.445312 325.753906 236.835938 323.242188 230.613281 330.152344 C 210.925781 352.015625 166.753906 351.210938 148.109375 329.546875 Z M 150.449219 327.539062 C 168.054688 347.992188 210.046875 348.386719 228.320312 328.085938 C 238.875 316.378906 249.488281 327.851562 258.710938 318.335938 C 262.878906 314.050781 264.160156 309.359375 263.988281 306.644531 C 263.324219 296.363281 271.503906 287.625 281.808594 287.625 C 294.054688 287.613281 304.023438 277.644531 304.023438 265.398438 C 304.023438 257.34375 302.8125 249.070312 310.945312 242.777344 C 353.273438 209.984375 354.492188 165.820312 310.945312 132.089844 C 302.933594 125.875 304.023438 118.066406 304.023438 109.46875 C 304.023438 97.222656 294.054688 87.242188 281.816406 87.242188 C 271.484375 87.230469 263.324219 78.496094 263.988281 68.222656 C 264.292969 63.421875 259.660156 52.191406 247.320312 52.191406 C 244.738281 52.191406 235.675781 54.953125 228.320312 46.773438 C 210.039062 26.472656 168.035156 26.875 150.449219 47.316406 C 145.765625 52.777344 138.320312 54.855469 131.511719 52.703125 C 127.464844 51.421875 120.269531 52.441406 116.335938 56.507812 C 106.75 66.40625 115.082031 72.1875 106.265625 81.59375 C 102.835938 85.253906 98.324219 87.242188 92.433594 87.242188 C 80.171875 87.242188 70.203125 97.210938 70.203125 109.46875 C 70.203125 118.53125 71.40625 126.351562 63.382812 132.65625 C 21.371094 165.679688 21.429688 209.207031 63.382812 242.210938 C 71.316406 248.457031 70.203125 256.132812 70.203125 265.398438 C 70.203125 276.917969 79.164062 287.625 93.230469 287.625 C 103.53125 287.625 111.722656 296.34375 111.058594 306.644531 C 110.484375 315.695312 121.320312 325.402344 131.5 322.160156 C 138.308594 320.003906 145.757812 322.089844 150.449219 327.539062 " fill-opacity="1" fill-rule="nonzero"/><path fill="#004aad" d="M 109.542969 145.601562 C 114.902344 146.054688 122.984375 146.449219 123.941406 139.585938 C 124.519531 141.910156 126.019531 143.917969 128.441406 145.105469 C 130.785156 146.488281 134.222656 146.246094 133.253906 145.15625 C 128.753906 139.949219 138.351562 135.046875 128.320312 129.8125 C 129.734375 126.472656 131.601562 123.152344 133.769531 120.015625 C 132.238281 125.460938 134.730469 130.0625 139.027344 132.65625 C 137.683594 135.835938 140.671875 139.609375 145.230469 137.671875 C 147.078125 136.894531 148.882812 136.320312 150.832031 135.863281 C 151.195312 135.824219 151.328125 135.230469 150.519531 134.996094 C 147.382812 134.796875 148.863281 131.203125 146.261719 130.40625 C 143.949219 129.710938 141.710938 130.507812 139.90625 131.949219 C 125.132812 123.847656 142.882812 106.191406 157.441406 99.875 C 159.09375 100.539062 161.054688 100.347656 162.757812 99.773438 C 155.835938 106.070312 154.515625 109.652344 153.777344 113.566406 C 149.027344 115.160156 144.777344 118.15625 144.40625 123.535156 C 144.394531 123.695312 144.214844 124.230469 144.890625 124.3125 C 149.054688 124.804688 151.617188 123.171875 153.132812 120.015625 C 153.503906 122.3125 152.992188 121.921875 153.746094 125.390625 C 152.851562 126.683594 152.082031 129.992188 152.921875 131.910156 C 154.152344 134.84375 158.5625 135.128906 160.398438 137.914062 C 160.78125 138.5 161.578125 137.820312 161.246094 137.226562 C 160.660156 135.359375 160.105469 133.785156 160.125 131.75 C 160.175781 127.691406 158.207031 125.554688 154.714844 124.816406 C 154.554688 124.109375 154.433594 123.382812 154.34375 122.65625 C 156.390625 125.007812 160.355469 125.148438 163.503906 125.160156 C 164.210938 125.160156 164.300781 124.078125 163.617188 124.070312 C 161.820312 122.023438 163.617188 119.003906 161.890625 117.109375 C 159.730469 114.738281 156.875 116.9375 154.394531 115.855469 C 155.65625 107.753906 159.15625 104.464844 166.570312 97.835938 C 166.742188 97.726562 166.914062 97.625 167.078125 97.511719 C 173.511719 101.136719 177.246094 99.835938 183.613281 95.980469 C 186.308594 99.117188 188.769531 99.136719 191.421875 95.980469 C 197.738281 99.804688 201.523438 101.167969 207.960938 97.511719 C 210.542969 99.238281 219.25 106.3125 220.652344 115.855469 C 218.171875 116.9375 215.304688 114.738281 213.136719 117.109375 C 211.421875 119.003906 213.226562 122.023438 211.429688 124.070312 C 210.746094 124.078125 210.835938 125.160156 211.542969 125.160156 C 214.679688 125.148438 218.65625 125.007812 220.703125 122.65625 C 220.601562 123.382812 220.480469 124.109375 220.328125 124.816406 C 216.820312 125.554688 214.851562 127.742188 214.910156 131.75 C 214.941406 133.785156 214.386719 135.359375 213.792969 137.226562 C 213.480469 137.792969 214.257812 138.507812 214.648438 137.914062 C 217.234375 133.96875 225.515625 134.976562 221.398438 125.554688 C 221.371094 125.492188 221.328125 125.441406 221.289062 125.390625 C 221.976562 122.3125 221.613281 122.3125 221.914062 120.015625 C 223.417969 123.171875 225.980469 124.804688 230.15625 124.3125 C 230.824219 124.230469 230.652344 123.695312 230.632812 123.535156 C 230.257812 118.15625 226.019531 115.160156 221.269531 113.566406 C 220.460938 109.570312 219.261719 106.121094 212.289062 99.773438 C 213.953125 100.339844 215.949219 100.550781 217.597656 99.875 C 232.527344 106.332031 249.8125 123.929688 235.132812 131.949219 C 233.324219 130.507812 231.097656 129.710938 228.785156 130.40625 C 226.191406 131.191406 227.636719 134.796875 224.527344 134.996094 C 223.710938 135.230469 223.851562 135.824219 224.214844 135.863281 C 228.363281 136.832031 231.742188 138.679688 233.296875 138.125 C 235.644531 137.308594 237.046875 135.109375 236.039062 132.707031 C 240.347656 129.972656 242.789062 125.480469 241.265625 120.015625 C 243.445312 123.152344 245.3125 126.472656 246.714844 129.8125 C 236.585938 135.109375 246.339844 139.902344 241.789062 145.15625 C 241.539062 145.441406 241.667969 146.023438 242.105469 146.046875 C 246.019531 146.398438 250.085938 143.722656 251.105469 139.585938 C 252.042969 146.167969 259.316406 146.125 265.492188 145.601562 C 266.269531 145.539062 266.289062 144.683594 265.925781 144.460938 C 261.527344 141.847656 257.691406 134.320312 251.660156 136.269531 C 251.527344 136.269531 251.425781 136.296875 251.324219 136.359375 C 251.152344 134.632812 250.550781 132.835938 249.5 131.164062 C 254.695312 132.65625 261.253906 128.871094 260.921875 127.832031 C 260.941406 127.582031 260.808594 127.339844 260.507812 127.289062 C 257.167969 126.753906 254.96875 123.859375 251.40625 124.230469 C 249.238281 124.453125 247.5 126.007812 247.117188 127.984375 C 244.332031 121.941406 240.21875 116.230469 235.546875 111.347656 C 238.269531 112.203125 241.457031 112.214844 244.089844 111.132812 C 249.902344 109.84375 253.503906 116.167969 250.457031 117.621094 C 248.925781 118.347656 246.179688 115.957031 248.167969 115.25 C 248.84375 115.019531 248.46875 113.980469 247.792969 114.222656 C 245.765625 114.9375 246.191406 117.148438 247.652344 118.269531 C 249.175781 119.429688 251.488281 118.882812 252.292969 117.1875 C 253.523438 114.605469 251.476562 110.457031 246.160156 109.972656 C 246.460938 109.742188 246.753906 109.5 247.027344 109.226562 C 249.480469 106.777344 249.871094 102.46875 245.898438 101.214844 C 243.152344 100.347656 238.582031 102.730469 240.277344 106.070312 C 241.457031 108.390625 244.910156 107.664062 244.644531 104.980469 C 244.574219 104.273438 243.476562 104.363281 243.546875 105.070312 C 243.75 107.140625 241.660156 106.371094 241.144531 105.363281 C 240.316406 103.730469 242.789062 102.226562 243.992188 102.042969 C 247.976562 101.4375 249.972656 107.554688 244.273438 110.003906 C 240.964844 111.40625 236.371094 110.863281 233.789062 109.398438 C 233.699219 109.347656 233.617188 109.328125 233.539062 109.328125 C 229.210938 105.152344 224.597656 101.8125 218.847656 99.207031 C 219.460938 98.816406 220.015625 98.320312 220.582031 97.816406 C 224.738281 100.359375 228.875 99.691406 231.933594 96.816406 C 234.082031 98.460938 236.128906 100.441406 238.84375 100.8125 C 239.550781 100.914062 239.753906 99.84375 239.054688 99.734375 C 236.402344 99.371094 234.476562 97.753906 232.488281 96.253906 C 234.707031 93.839844 236.121094 90.351562 236.445312 87.152344 C 238.914062 84.285156 243.878906 83.042969 247.089844 85.285156 C 247.652344 90.8125 252.234375 90.984375 257.359375 88.828125 C 257.542969 88.746094 257.632812 88.625 257.671875 88.492188 C 258.003906 87.90625 255.988281 83.75 253.113281 82.742188 C 251.144531 82.054688 248.773438 82.601562 247.472656 84.246094 C 244.171875 82.175781 239.46875 82.953125 236.535156 85.496094 C 236.574219 80.390625 234.234375 75.113281 228.675781 74.578125 C 224.527344 69.542969 230.277344 61.804688 236.332031 64.46875 C 239.589844 65.902344 237.007812 72.238281 234.566406 69.253906 C 234.121094 68.707031 233.214844 69.324219 233.667969 69.878906 C 237.046875 74.023438 240.933594 67.183594 237.886719 64.257812 C 233.234375 59.796875 222.136719 66.71875 227.300781 74.578125 C 223.992188 74.914062 219.441406 77.757812 220.945312 81.53125 C 223.257812 87.382812 231.933594 84.375 227.453125 78.757812 C 227.019531 78.191406 226.113281 78.816406 226.554688 79.382812 C 227.605469 80.382812 228.148438 82.078125 226.746094 83.238281 C 224.234375 85.316406 219.835938 81.8125 223.035156 77.65625 C 226.523438 73.117188 237.046875 75.597656 235.355469 87.523438 C 234.859375 90.914062 233.347656 93.910156 231.679688 95.65625 C 225.992188 91.609375 223.136719 93.902344 220.28125 96.484375 C 215.296875 93.558594 213.933594 92.75 207.808594 96.109375 C 203.226562 93.042969 197.175781 90.390625 192.554688 93.4375 C 188.828125 89.613281 190.109375 84.546875 193.523438 81.398438 C 194.804688 91.328125 204.1875 88.511719 206.769531 88.191406 C 207.324219 88.007812 207.425781 87.605469 207.273438 87.332031 C 204.550781 82.246094 202.007812 78.867188 196.367188 79.484375 C 197.929688 78.738281 199.878906 78.445312 199.878906 78.445312 C 204.46875 82.308594 207.828125 76.597656 211.015625 75.527344 C 211.179688 75.476562 211.351562 75.425781 211.523438 75.386719 C 211.773438 75.105469 211.773438 74.710938 211.449219 74.519531 C 207.265625 72.007812 199.777344 70.320312 199.292969 77.457031 C 198.605469 77.578125 197.949219 77.726562 197.304688 77.9375 C 198.949219 75.953125 199.816406 73.800781 199.183594 69.34375 C 199.171875 69.242188 199.152344 69.179688 199.121094 69.109375 C 198.789062 68.847656 198.546875 69.011719 198.144531 69.132812 C 192.582031 70.835938 189.699219 75.667969 192.128906 81.277344 C 188.851562 84.832031 187.871094 90.085938 191.675781 94.101562 C 191.503906 94.253906 191.320312 94.414062 191.160156 94.585938 C 189.597656 93.355469 187.519531 91.117188 183.886719 94.585938 C 183.714844 94.414062 183.542969 94.253906 183.359375 94.101562 C 187.175781 90.085938 186.1875 84.832031 182.917969 81.277344 C 185.347656 75.667969 182.453125 70.835938 176.902344 69.132812 C 176.511719 69.011719 176.226562 68.847656 175.925781 69.109375 C 175.894531 69.179688 175.863281 69.242188 175.855469 69.34375 C 175.390625 72.996094 175.582031 75.355469 177.730469 77.9375 C 177.085938 77.726562 176.429688 77.578125 175.753906 77.484375 C 175.277344 70.574219 168.308594 71.867188 163.886719 74.347656 C 163.453125 74.589844 163.109375 74.851562 163.425781 75.347656 C 167.367188 76.464844 170.464844 82.390625 175.160156 78.445312 C 175.160156 78.445312 177.125 78.757812 178.667969 79.484375 C 176.640625 79.261719 174.613281 79.492188 172.878906 80.714844 C 171.445312 81.722656 166.421875 87.566406 168.066406 88.128906 C 170.851562 88.511719 180.285156 91.308594 181.515625 81.398438 C 184.933594 84.546875 186.207031 89.613281 182.484375 93.4375 C 177.914062 90.410156 171.808594 93.035156 167.238281 96.109375 C 161.144531 92.769531 159.769531 93.539062 154.765625 96.484375 C 152.183594 94.171875 149.289062 91.441406 143.367188 95.65625 C 141.769531 94.023438 140.1875 90.996094 139.691406 87.523438 C 137.875 76.132812 148.308594 72.855469 152.011719 77.65625 C 155.210938 81.835938 150.800781 85.316406 148.289062 83.238281 C 146.886719 82.078125 147.429688 80.382812 148.480469 79.382812 C 148.925781 78.816406 148.027344 78.191406 147.582031 78.757812 C 143.132812 84.4375 151.800781 87.332031 154.089844 81.53125 C 155.59375 77.757812 151.054688 74.914062 147.734375 74.578125 C 152.910156 66.75 141.8125 59.777344 137.148438 64.257812 C 134.101562 67.183594 137.996094 74.023438 141.378906 69.878906 C 141.832031 69.324219 140.914062 68.707031 140.46875 69.253906 C 138.039062 72.238281 135.445312 65.902344 138.703125 64.46875 C 144.769531 61.804688 150.507812 69.542969 146.371094 74.578125 C 140.8125 75.113281 138.460938 80.390625 138.503906 85.496094 C 135.574219 82.953125 130.875 82.175781 127.566406 84.246094 C 126.261719 82.601562 123.902344 82.054688 121.933594 82.742188 C 119.199219 83.699219 116.992188 87.828125 117.363281 88.492188 C 117.617188 89.320312 122.972656 90.945312 125.636719 89.480469 C 127.28125 88.585938 127.777344 87.050781 127.957031 85.285156 C 131.167969 83.042969 136.132812 84.285156 138.601562 87.152344 C 138.886719 90.199219 140.289062 93.8125 142.558594 96.253906 C 140.558594 97.753906 138.632812 99.371094 135.988281 99.734375 C 135.285156 99.84375 135.496094 100.914062 136.191406 100.8125 C 138.90625 100.441406 140.953125 98.460938 143.125 96.816406 C 146.140625 99.664062 150.246094 100.378906 154.464844 97.816406 C 155.007812 98.320312 155.574219 98.816406 156.191406 99.207031 C 150.398438 101.832031 145.808594 105.171875 141.507812 109.328125 C 141.429688 109.328125 141.347656 109.347656 141.257812 109.398438 C 138.9375 110.710938 134.972656 111.285156 131.824219 110.378906 C 125.023438 108.410156 126.675781 101.386719 131.054688 102.042969 C 132.257812 102.226562 134.730469 103.730469 133.902344 105.363281 C 133.386719 106.371094 131.277344 107.140625 131.488281 105.070312 C 131.558594 104.363281 130.460938 104.273438 130.390625 104.980469 C 130.128906 107.664062 133.578125 108.390625 134.769531 106.070312 C 136.464844 102.730469 131.875 100.347656 129.140625 101.214844 C 124.992188 102.519531 125.414062 107.359375 128.886719 109.972656 C 118.90625 110.882812 122.367188 122.101562 127.382812 118.269531 C 128.855469 117.148438 129.28125 114.9375 127.253906 114.222656 C 126.574219 113.980469 126.203125 115.019531 126.878906 115.25 C 128.855469 115.957031 126.121094 118.347656 124.578125 117.621094 C 121.542969 116.160156 125.144531 109.851562 130.945312 111.132812 C 133.578125 112.214844 136.777344 112.203125 139.492188 111.347656 C 134.839844 116.230469 130.722656 121.941406 127.929688 127.984375 C 127.542969 126.007812 125.808594 124.453125 123.640625 124.230469 C 120.066406 123.859375 117.867188 126.753906 114.539062 127.289062 C 114.226562 127.339844 114.105469 127.582031 114.113281 127.832031 C 113.753906 128.863281 120.339844 132.65625 125.535156 131.164062 C 124.488281 132.835938 123.882812 134.632812 123.710938 136.359375 C 123.621094 136.296875 123.5 136.269531 123.386719 136.269531 C 117.355469 134.320312 113.511719 141.847656 109.121094 144.460938 C 108.769531 144.683594 108.789062 145.539062 109.542969 145.601562 Z M 139.996094 133.199219 C 141.238281 133.828125 142.578125 134.339844 144 134.785156 C 144.675781 134.988281 144.816406 134.269531 144.140625 134.058594 C 143.011719 133.714844 142.113281 133.007812 141.023438 132.515625 C 142.640625 131.496094 145.988281 130.082031 146.542969 132.292969 C 146.855469 133.574219 146.917969 134.601562 148.136719 135.402344 C 146.765625 135.792969 143.679688 137.316406 142.597656 137.15625 C 140.53125 136.851562 139.257812 135.136719 139.996094 133.199219 Z M 145.535156 123.34375 C 145.980469 118.875 149.460938 116.289062 153.425781 114.847656 C 152.960938 119.125 150.648438 124.542969 145.535156 123.34375 Z M 156.167969 131.171875 C 156.574219 131.757812 157.1875 131.234375 156.785156 130.660156 C 155.90625 129.398438 155.464844 127.683594 155 126.007812 C 160.011719 127.296875 158.417969 131.898438 159.550781 135.53125 C 156.964844 133.816406 152.195312 133.078125 154.210938 127.105469 C 154.6875 128.578125 155.320312 129.960938 156.167969 131.171875 Z M 161.414062 118.914062 C 161.578125 120.71875 161.34375 122.535156 162.234375 124.058594 C 155.796875 123.9375 154.917969 122.132812 154.152344 119.640625 C 154.152344 118.742188 154.179688 117.855469 154.261719 116.976562 C 156.503906 117.652344 161.132812 115.683594 161.414062 118.914062 Z M 229.511719 123.34375 C 224.386719 124.542969 222.085938 119.125 221.621094 114.847656 C 225.578125 116.289062 229.058594 118.875 229.511719 123.34375 Z M 215.488281 135.53125 C 216.628906 131.859375 215.042969 127.289062 220.046875 126.007812 C 219.574219 127.683594 219.140625 129.398438 218.25 130.660156 C 217.859375 131.234375 218.464844 131.757812 218.867188 131.171875 C 219.726562 129.960938 220.359375 128.578125 220.835938 127.105469 C 222.863281 133.078125 218.070312 133.816406 215.488281 135.53125 Z M 212.8125 124.058594 C 213.699219 122.535156 213.457031 120.71875 213.628906 118.914062 C 213.914062 115.683594 218.542969 117.652344 220.785156 116.976562 C 221.046875 120.125 221.449219 123.910156 212.8125 124.058594 Z M 232.449219 137.15625 C 231.347656 137.316406 228.28125 135.792969 226.898438 135.402344 C 228.128906 134.582031 228.179688 133.613281 228.503906 132.292969 C 229.058594 130.082031 232.386719 131.496094 234.011719 132.515625 C 232.933594 133.007812 232.035156 133.714844 230.894531 134.058594 C 230.21875 134.269531 230.359375 134.988281 231.035156 134.785156 C 232.457031 134.339844 233.808594 133.828125 235.050781 133.199219 C 235.789062 135.136719 234.515625 136.851562 232.449219 137.15625 Z M 260.0625 142.441406 C 257.136719 141.382812 254.777344 139.417969 252.699219 137.15625 C 257.207031 136.347656 261.304688 141.859375 264.644531 144.742188 C 260.832031 144.683594 251.890625 145.570312 252.132812 138.144531 C 254.242188 140.40625 256.996094 142.050781 259.953125 143.121094 C 260.617188 143.363281 260.738281 142.683594 260.0625 142.441406 Z M 249.992188 139.539062 C 250.234375 137.992188 250.1875 136.320312 249.882812 134.683594 C 250.367188 136.347656 250.398438 138.035156 249.992188 139.539062 Z M 254.9375 125.964844 C 256.441406 126.664062 257.691406 127.589844 259.214844 128.09375 C 256.007812 130.152344 253.070312 131.941406 248.21875 129.617188 C 247.371094 125.511719 252.171875 124.664062 254.9375 125.964844 Z M 247.257812 130.757812 C 249.972656 135.460938 250.328125 144.429688 243.324219 144.976562 C 247.238281 139.445312 238.058594 135.480469 247.257812 130.757812 Z M 254.222656 84.519531 C 255.351562 85.292969 255.917969 86.746094 256.511719 87.988281 C 252.285156 89.644531 248.601562 89.582031 248.167969 85.082031 C 250.15625 83.105469 252.34375 83.214844 254.222656 84.519531 Z M 231.097656 96.210938 C 228.574219 98.382812 225.101562 99.058594 221.378906 97.101562 C 224.375 94.367188 227.109375 93.457031 231.097656 96.210938 Z M 219.511719 97.148438 C 218.828125 97.726562 218.128906 98.21875 217.394531 98.582031 C 215.0625 97.632812 212.660156 96.835938 210.210938 96.261719 C 214.597656 94.082031 216.828125 95.414062 219.511719 97.148438 Z M 215.707031 99.109375 C 213.507812 99.449219 211.339844 98.402344 209.492188 97.230469 C 211.621094 97.714844 213.699219 98.351562 215.707031 99.109375 Z M 209.785156 74.863281 C 206.597656 76.507812 203.945312 80.613281 200.394531 77.433594 C 200.898438 72.046875 206.074219 73.027344 209.785156 74.863281 Z M 205.953125 87.191406 C 203.21875 87.625 200.746094 88.28125 198.050781 86.941406 C 195.710938 85.769531 194.761719 83.1875 194.5625 80.746094 C 194.671875 80.816406 194.824219 80.84375 194.984375 80.804688 C 200.535156 79.574219 203.511719 82.851562 205.953125 87.191406 Z M 198.183594 70.269531 C 198.75 76.355469 196.316406 77.484375 192.988281 80.441406 C 191.160156 75.679688 193.5625 71.835938 198.183594 70.269531 Z M 206.71875 96.707031 C 202.109375 99.238281 199.59375 99.964844 192.179688 95.234375 C 196.457031 91.640625 202.027344 93.679688 206.71875 96.707031 Z M 190.425781 95.375 C 188.609375 98.039062 186.308594 97.726562 184.613281 95.375 C 187.054688 93.105469 188.40625 93.375 190.425781 95.375 Z M 165.261719 74.863281 C 168.972656 73.027344 174.140625 72.046875 174.652344 77.433594 C 171.101562 80.613281 168.4375 76.507812 165.261719 74.863281 Z M 176.996094 86.941406 C 174.289062 88.28125 171.828125 87.625 169.085938 87.191406 C 171.535156 82.851562 174.503906 79.574219 180.050781 80.804688 C 180.214844 80.84375 180.363281 80.816406 180.484375 80.746094 C 180.273438 83.1875 179.335938 85.769531 176.996094 86.941406 Z M 182.058594 80.441406 C 181.707031 80.128906 181.34375 79.835938 180.949219 79.5625 C 178.921875 76.980469 176.246094 76.738281 176.863281 70.269531 C 181.472656 71.835938 183.875 75.679688 182.058594 80.441406 Z M 182.867188 95.234375 C 175.855469 99.703125 173.363281 99.472656 168.328125 96.707031 C 172.957031 93.71875 178.660156 91.632812 182.867188 95.234375 Z M 118.535156 87.988281 C 119.128906 86.746094 119.683594 85.292969 120.816406 84.519531 C 122.691406 83.214844 125.171875 83.117188 126.867188 85.082031 C 126.445312 89.59375 122.742188 89.644531 118.535156 87.988281 Z M 143.949219 96.210938 C 147.875 93.476562 150.609375 94.335938 153.667969 97.101562 C 149.972656 99.046875 146.492188 98.402344 143.949219 96.210938 Z M 159.328125 99.109375 C 161.335938 98.351562 163.414062 97.714844 165.542969 97.230469 C 163.6875 98.410156 161.515625 99.449219 159.328125 99.109375 Z M 155.523438 97.148438 C 158.207031 95.433594 160.425781 94.074219 164.835938 96.261719 C 162.375 96.835938 159.972656 97.632812 157.652344 98.582031 C 156.914062 98.21875 156.210938 97.726562 155.523438 97.148438 Z M 127.785156 130.757812 C 137.027344 135.5 127.777344 139.417969 131.722656 144.976562 C 124.730469 144.449219 125.074219 135.492188 127.785156 130.757812 Z M 115.820312 128.09375 C 117.355469 127.589844 118.605469 126.664062 120.109375 125.964844 C 122.875 124.664062 127.675781 125.511719 126.828125 129.597656 C 121.976562 131.941406 119.039062 130.152344 115.820312 128.09375 Z M 125.152344 134.683594 C 124.859375 136.320312 124.800781 137.992188 125.050781 139.539062 C 124.640625 138.035156 124.679688 136.347656 125.152344 134.683594 Z M 122.347656 137.15625 C 120.261719 139.417969 117.917969 141.382812 114.972656 142.441406 C 114.308594 142.683594 114.429688 143.363281 115.09375 143.121094 C 118.050781 142.050781 120.804688 140.40625 122.914062 138.144531 C 123.15625 145.582031 114.136719 144.691406 110.390625 144.742188 C 113.742188 141.859375 117.839844 136.347656 122.347656 137.15625 " fill-opacity="1" fill-rule="nonzero"/><path fill="#004aad" d="M 265.5 229.265625 C 261.09375 228.890625 252.101562 228.175781 251.105469 235.277344 C 250.042969 230.992188 245.855469 228.476562 242.105469 228.820312 C 241.679688 228.839844 241.539062 229.425781 241.789062 229.710938 C 246.320312 234.957031 236.664062 239.800781 246.726562 245.046875 C 245.3125 248.386719 243.445312 251.707031 241.277344 254.84375 C 242.832031 249.3125 240.238281 244.753906 236.007812 242.199219 C 237.363281 239.011719 234.363281 235.257812 229.804688 237.195312 C 227.96875 237.972656 226.160156 238.539062 224.214844 238.992188 C 223.851562 239.03125 223.71875 239.636719 224.527344 239.871094 C 227.65625 240.0625 226.183594 243.664062 228.785156 244.460938 C 231.097656 245.15625 233.335938 244.351562 235.140625 242.917969 C 250.066406 251.128906 231.863281 268.808594 217.605469 274.980469 C 215.960938 274.328125 213.992188 274.519531 212.289062 275.09375 C 219.230469 268.765625 220.542969 265.195312 221.269531 261.289062 C 226.019531 259.707031 230.269531 256.710938 230.640625 251.320312 C 230.652344 251.160156 230.832031 250.636719 230.15625 250.554688 C 225.992188 250.050781 223.417969 251.695312 221.914062 254.851562 C 221.902344 254.773438 221.894531 254.691406 221.863281 254.609375 C 221.84375 252.867188 221.660156 251.128906 221.296875 249.464844 C 222.53125 247.679688 223.175781 243.867188 221.480469 241.917969 C 219.542969 239.738281 216.273438 239.414062 214.648438 236.945312 C 214.347656 236.488281 213.800781 236.8125 213.730469 237.246094 C 215.921875 243.683594 213.46875 248.609375 220.328125 250.039062 C 220.492188 250.746094 220.613281 251.472656 220.703125 252.199219 C 218.65625 249.847656 214.691406 249.71875 211.542969 249.707031 C 210.835938 249.695312 210.746094 250.777344 211.429688 250.796875 C 213.226562 252.835938 211.429688 255.863281 213.15625 257.75 C 215.316406 260.128906 218.171875 257.929688 220.664062 259 C 219.339844 267.011719 216.292969 270.027344 208.472656 277.03125 C 208.304688 277.140625 208.132812 277.242188 207.96875 277.351562 C 201.542969 273.730469 197.800781 275.023438 191.433594 278.875 C 188.738281 275.75 186.277344 275.71875 183.625 278.875 C 177.367188 275.101562 173.542969 273.671875 167.085938 277.351562 C 166.914062 277.242188 166.742188 277.140625 166.582031 277.03125 C 159.449219 270.652344 155.675781 267.214844 154.394531 259 C 156.875 257.929688 159.742188 260.128906 161.910156 257.75 C 163.625 255.863281 161.820312 252.835938 163.617188 250.796875 C 164.300781 250.777344 164.210938 249.695312 163.503906 249.707031 C 160.367188 249.71875 156.390625 249.847656 154.34375 252.199219 C 154.445312 251.472656 154.566406 250.746094 154.714844 250.039062 C 158.167969 249.324219 160.195312 247.183594 160.132812 243.117188 C 160.105469 241.082031 160.660156 239.507812 161.253906 237.628906 C 161.578125 237.074219 160.78125 236.347656 160.398438 236.945312 C 157.835938 240.859375 149.53125 239.890625 153.648438 249.304688 C 153.675781 249.375 153.71875 249.414062 153.757812 249.464844 C 153.070312 252.53125 153.433594 252.5625 153.132812 254.851562 C 151.628906 251.695312 149.066406 250.050781 144.890625 250.554688 C 144.222656 250.636719 144.394531 251.160156 144.414062 251.320312 C 144.789062 256.710938 149.027344 259.707031 153.777344 261.289062 C 154.566406 265.304688 155.835938 268.785156 162.757812 275.09375 C 161.082031 274.527344 159.085938 274.316406 157.449219 274.980469 C 142.527344 268.523438 125.234375 250.949219 139.914062 242.917969 C 142.375 244.875 146.632812 245.78125 147.855469 242.898438 C 148.398438 241.59375 148.480469 239.992188 150.519531 239.871094 C 151.335938 239.636719 151.195312 239.03125 150.832031 238.992188 C 146.65625 238.023438 143.316406 236.175781 141.75 236.742188 C 139.398438 237.558594 137.996094 239.757812 138.996094 242.160156 C 134.707031 244.882812 132.257812 249.375 133.78125 254.84375 C 131.601562 251.707031 129.734375 248.386719 128.320312 245.046875 C 138.300781 239.839844 128.746094 234.914062 133.253906 229.710938 C 133.507812 229.425781 133.375 228.839844 132.941406 228.820312 C 129.058594 228.46875 124.972656 231.113281 123.941406 235.277344 C 122.996094 228.578125 115.324219 228.78125 109.554688 229.265625 C 108.789062 229.316406 108.769531 230.171875 109.121094 230.394531 C 113.511719 233.007812 117.355469 240.546875 123.386719 238.589844 C 123.507812 238.589844 123.621094 238.558594 123.71875 238.507812 C 123.890625 240.234375 124.488281 242.027344 125.546875 243.703125 C 120.351562 242.210938 113.792969 245.984375 114.113281 247.035156 C 114.105469 247.285156 114.234375 247.527344 114.539062 247.578125 C 117.878906 248.101562 120.078125 251.007812 123.640625 250.636719 C 125.808594 250.414062 127.542969 248.851562 127.929688 246.882812 C 130.722656 252.914062 134.828125 258.625 139.5 263.511719 C 136.777344 262.652344 133.589844 262.652344 130.945312 263.730469 C 125.152344 265.011719 121.53125 258.699219 124.589844 257.234375 C 126.121094 256.507812 128.867188 258.910156 126.878906 259.605469 C 126.203125 259.847656 126.574219 260.886719 127.253906 260.644531 C 129.28125 259.929688 128.855469 257.71875 127.394531 256.597656 C 125.871094 255.429688 123.558594 255.984375 122.761719 257.679688 C 121.519531 260.261719 123.578125 264.40625 128.886719 264.890625 C 125.414062 267.527344 124.992188 272.339844 129.148438 273.640625 C 131.882812 274.507812 136.464844 272.125 134.769531 268.785156 C 133.589844 266.464844 130.136719 267.191406 130.398438 269.886719 C 130.460938 270.582031 131.558594 270.503906 131.5 269.796875 C 131.296875 267.726562 133.386719 268.484375 133.902344 269.492188 C 134.730469 271.128906 132.257812 272.640625 131.054688 272.824219 C 128.5625 273.195312 126.585938 270.664062 127.351562 268.363281 C 129.117188 263.167969 137.402344 263.269531 141.257812 265.46875 C 141.347656 265.519531 141.429688 265.539062 141.507812 265.539062 C 145.828125 269.707031 150.417969 273.035156 156.199219 275.65625 C 155.585938 276.050781 155.019531 276.535156 154.464844 277.039062 C 150.277344 274.476562 146.140625 275.195312 143.113281 278.050781 C 140.964844 276.40625 138.914062 274.417969 136.203125 274.042969 C 135.496094 273.941406 135.292969 275.023438 135.988281 275.125 C 138.644531 275.496094 140.570312 277.109375 142.558594 278.613281 C 140.308594 281.046875 138.886719 284.648438 138.601562 287.707031 C 136.132812 290.582031 131.167969 291.820312 127.957031 289.570312 C 127.777344 287.804688 127.28125 286.28125 125.648438 285.382812 C 123.066406 283.960938 117.707031 285.457031 117.363281 286.375 C 117.042969 286.949219 119.058594 291.117188 121.933594 292.125 C 123.902344 292.8125 126.273438 292.253906 127.574219 290.621094 C 130.875 292.691406 135.574219 291.902344 138.503906 289.371094 C 138.472656 294.476562 140.8125 299.742188 146.371094 300.289062 C 150.519531 305.3125 144.769531 313.0625 138.703125 310.398438 C 135.445312 308.953125 138.039062 302.628906 140.46875 305.613281 C 140.921875 306.160156 141.832031 305.535156 141.378906 304.988281 C 137.996094 300.84375 134.113281 307.683594 137.160156 310.609375 C 141.820312 315.089844 152.898438 308.136719 147.746094 300.289062 C 151.054688 299.945312 155.605469 297.097656 154.101562 293.335938 C 151.800781 287.523438 143.132812 290.480469 147.59375 296.109375 C 148.027344 296.664062 148.933594 296.039062 148.492188 295.484375 C 145.746094 292.859375 149.054688 289.328125 152.195312 291.984375 C 154.726562 294.113281 152.34375 299.824219 146.039062 299.175781 C 138.390625 298.410156 137.542969 285.152344 143.367188 279.199219 C 148.996094 283.207031 151.789062 281.035156 154.765625 278.371094 C 159.75 281.289062 161.09375 282.117188 167.238281 278.753906 C 171.839844 281.832031 177.882812 284.464844 182.492188 281.429688 C 186.214844 285.242188 184.933594 290.308594 181.523438 293.457031 C 180.234375 283.527344 170.859375 286.34375 168.277344 286.675781 C 167.722656 286.847656 167.621094 287.261719 167.773438 287.535156 C 170.488281 292.597656 173.027344 295.988281 178.679688 295.382812 C 177.125 296.109375 175.167969 296.421875 175.167969 296.421875 C 170.394531 292.40625 167.105469 298.652344 163.523438 299.480469 C 163.109375 299.933594 163.382812 300.238281 163.898438 300.507812 C 168.316406 303 175.289062 304.292969 175.753906 297.410156 C 176.441406 297.289062 177.09375 297.140625 177.730469 296.925781 C 175.691406 299.410156 175.421875 301.546875 175.804688 305.03125 C 175.824219 305.222656 175.84375 305.574219 175.933594 305.757812 C 176.066406 305.855469 176.238281 305.925781 176.441406 305.878906 C 183.339844 303.6875 185.078125 298.5625 182.917969 293.585938 C 186.195312 290.035156 187.175781 284.769531 183.371094 280.761719 C 183.542969 280.601562 183.714844 280.449219 183.886719 280.277344 C 185.449219 281.511719 187.527344 283.75 191.160156 280.277344 C 191.320312 280.449219 191.503906 280.601562 191.683594 280.761719 C 187.871094 284.769531 188.859375 290.035156 192.128906 293.585938 C 189.699219 299.1875 192.59375 304.03125 198.144531 305.726562 C 198.535156 305.847656 198.796875 306.019531 199.121094 305.757812 C 199.535156 304.980469 199.644531 301.085938 198.65625 298.996094 C 198.292969 298.230469 197.839844 297.554688 197.316406 296.925781 C 197.949219 297.140625 198.617188 297.289062 199.292969 297.382812 C 199.765625 304.292969 206.738281 303 211.160156 300.507812 C 211.601562 300.277344 211.933594 300.003906 211.621094 299.511719 C 207.675781 298.402344 204.578125 292.46875 199.878906 296.421875 C 199.878906 296.421875 197.941406 296.121094 196.378906 295.382812 C 198.40625 295.605469 200.421875 295.375 202.167969 294.152344 C 203.601562 293.132812 208.625 287.292969 206.972656 286.738281 C 204.386719 286.363281 194.78125 283.457031 193.53125 293.457031 C 190.109375 290.308594 188.839844 285.242188 192.5625 281.429688 C 197.132812 284.445312 203.238281 281.832031 207.808594 278.753906 C 213.894531 282.085938 215.265625 281.328125 220.28125 278.371094 C 222.863281 280.671875 225.726562 283.425781 231.679688 279.199219 C 234.898438 282.5 236.855469 289.640625 234.414062 294.929688 C 231.691406 300.792969 225.050781 299.832031 223.035156 297.199219 C 219.847656 293.03125 224.234375 289.542969 226.757812 291.621094 C 228.148438 292.789062 227.613281 294.476562 226.566406 295.484375 C 226.121094 296.039062 227.019531 296.664062 227.464844 296.109375 C 231.914062 290.429688 223.234375 287.523438 220.957031 293.335938 C 219.453125 297.097656 223.992188 299.945312 227.300781 300.289062 C 222.125 308.128906 233.246094 315.078125 237.894531 310.609375 C 240.945312 307.683594 237.046875 300.84375 233.667969 304.988281 C 233.214844 305.535156 234.132812 306.160156 234.578125 305.613281 C 237.007812 302.628906 239.601562 308.953125 236.332031 310.398438 C 230.277344 313.0625 224.539062 305.3125 228.675781 300.289062 C 234.222656 299.742188 236.585938 294.476562 236.542969 289.371094 C 239.46875 291.902344 244.171875 292.691406 247.480469 290.609375 C 248.773438 292.253906 251.144531 292.8125 253.113281 292.125 C 255.847656 291.167969 258.054688 287.039062 257.671875 286.375 C 257.449219 285.554688 252.074219 283.910156 249.410156 285.382812 C 247.765625 286.28125 247.269531 287.804688 247.089844 289.570312 C 243.878906 291.820312 238.914062 290.582031 236.445312 287.714844 C 236.121094 284.507812 234.71875 281.015625 232.488281 278.613281 C 234.484375 277.109375 236.414062 275.496094 239.054688 275.125 C 239.761719 275.023438 239.550781 273.941406 238.855469 274.042969 C 236.140625 274.417969 234.09375 276.40625 231.921875 278.050781 C 228.875 275.164062 224.757812 274.507812 220.582031 277.039062 C 220.039062 276.535156 219.472656 276.050781 218.855469 275.65625 C 224.617188 273.046875 229.21875 269.707031 233.539062 265.539062 C 233.617188 265.539062 233.699219 265.519531 233.789062 265.46875 C 237.90625 263.125 245.988281 263.320312 247.695312 268.363281 C 248.460938 270.664062 246.492188 273.195312 243.992188 272.824219 C 242.789062 272.640625 240.316406 271.128906 241.144531 269.492188 C 241.660156 268.484375 243.757812 267.726562 243.554688 269.796875 C 243.476562 270.503906 244.574219 270.582031 244.65625 269.886719 C 244.917969 267.191406 241.46875 266.464844 240.277344 268.785156 C 238.582031 272.125 243.164062 274.507812 245.898438 273.640625 C 250.054688 272.339844 249.621094 267.496094 246.160156 264.890625 C 256.128906 263.996094 252.699219 252.753906 247.652344 256.597656 C 246.191406 257.71875 245.765625 259.929688 247.792969 260.644531 C 248.46875 260.886719 248.84375 259.847656 248.167969 259.605469 C 246.191406 258.910156 248.925781 256.507812 250.46875 257.234375 C 253.464844 258.6875 249.933594 265.011719 244.101562 263.730469 C 241.46875 262.652344 238.269531 262.652344 235.554688 263.511719 C 240.207031 258.625 244.332031 252.914062 247.117188 246.882812 C 247.5 248.851562 249.238281 250.414062 251.40625 250.636719 C 254.976562 251.007812 257.179688 248.101562 260.507812 247.578125 C 260.820312 247.527344 260.941406 247.285156 260.921875 247.035156 C 261.304688 246.003906 254.714844 242.210938 249.507812 243.703125 C 250.550781 242.027344 251.164062 240.234375 251.335938 238.507812 C 251.4375 238.558594 251.539062 238.589844 251.660156 238.589844 C 257.691406 240.546875 261.535156 233.007812 265.925781 230.394531 C 266.277344 230.171875 266.269531 229.316406 265.5 229.265625 Z M 235.050781 241.664062 C 233.808594 241.03125 232.46875 240.527344 231.046875 240.082031 C 230.371094 239.871094 230.226562 240.597656 230.902344 240.796875 C 232.035156 241.152344 232.933594 241.859375 234.023438 242.351562 C 232.40625 243.371094 229.058594 244.785156 228.503906 242.574219 C 228.191406 241.28125 228.128906 240.261719 226.898438 239.464844 C 228.28125 239.0625 231.367188 237.550781 232.449219 237.699219 C 234.515625 238.011719 235.789062 239.730469 235.050781 241.664062 Z M 229.511719 251.523438 C 229.066406 255.992188 225.585938 258.566406 221.621094 260.007812 C 222.085938 255.742188 224.394531 250.324219 229.511719 251.523438 Z M 218.878906 243.683594 C 218.464844 243.097656 217.859375 243.632812 218.261719 244.207031 C 219.140625 245.46875 219.582031 247.183594 220.046875 248.859375 C 215.023438 247.566406 216.628906 242.945312 215.496094 239.335938 C 218.078125 241.050781 222.851562 241.785156 220.835938 247.75 C 220.359375 246.277344 219.726562 244.894531 218.878906 243.683594 Z M 213.628906 255.941406 C 213.46875 254.136719 213.699219 252.332031 212.8125 250.808594 C 219.402344 250.917969 221.257812 252.804688 220.785156 257.890625 C 218.542969 257.203125 213.914062 259.179688 213.628906 255.941406 Z M 145.535156 251.523438 C 150.648438 250.324219 152.960938 255.742188 153.425781 260.007812 C 149.46875 258.566406 145.988281 255.992188 145.535156 251.523438 Z M 159.558594 239.335938 C 158.410156 243.027344 160.003906 247.578125 155 248.859375 C 155.464844 247.183594 155.90625 245.46875 156.785156 244.207031 C 157.1875 243.632812 156.574219 243.097656 156.179688 243.683594 C 155.320312 244.894531 154.6875 246.277344 154.210938 247.75 C 152.183594 241.785156 156.976562 241.050781 159.558594 239.335938 Z M 162.234375 250.808594 C 161.34375 252.332031 161.585938 254.136719 161.414062 255.941406 C 161.132812 259.179688 156.503906 257.203125 154.261719 257.890625 C 153.796875 252.300781 156.351562 250.90625 162.234375 250.808594 Z M 142.597656 237.699219 C 143.6875 237.539062 146.777344 239.074219 148.148438 239.464844 C 146.917969 240.273438 146.855469 241.261719 146.542969 242.574219 C 145.988281 244.785156 142.660156 243.371094 141.035156 242.351562 C 142.113281 241.859375 143.011719 241.152344 144.152344 240.796875 C 144.816406 240.597656 144.6875 239.871094 144.011719 240.082031 C 142.589844 240.527344 141.238281 241.03125 139.996094 241.664062 C 139.257812 239.730469 140.53125 238.011719 142.597656 237.699219 Z M 114.984375 232.414062 C 117.910156 233.484375 120.269531 235.449219 122.347656 237.710938 C 117.839844 238.507812 113.742188 233.007812 110.402344 230.113281 C 114.207031 230.171875 123.15625 229.277344 122.914062 236.722656 C 120.804688 234.453125 118.058594 232.816406 115.09375 231.746094 C 114.429688 231.503906 114.308594 232.171875 114.984375 232.414062 Z M 125.050781 235.320312 C 124.800781 236.875 124.859375 238.546875 125.164062 240.183594 C 124.679688 238.507812 124.640625 236.824219 125.050781 235.320312 Z M 120.109375 248.890625 C 118.605469 248.195312 117.355469 247.265625 115.832031 246.769531 C 119.039062 244.714844 121.976562 242.925781 126.828125 245.238281 C 127.675781 249.355469 122.863281 250.191406 120.109375 248.890625 Z M 127.785156 244.109375 C 125.082031 239.394531 124.730469 230.425781 131.722656 229.890625 C 127.796875 235.429688 137 239.355469 127.785156 244.109375 Z M 120.824219 290.347656 C 119.695312 289.570312 119.128906 288.117188 118.535156 286.867188 C 122.742188 285.222656 126.445312 285.261719 126.867188 289.773438 C 124.789062 291.710938 122.761719 291.691406 120.824219 290.347656 Z M 143.949219 278.644531 C 146.484375 276.476562 149.964844 275.808594 153.667969 277.765625 C 150.640625 280.511719 147.914062 281.390625 143.949219 278.644531 Z M 155.535156 277.714844 C 156.21875 277.140625 156.914062 276.636719 157.652344 276.285156 C 159.972656 277.230469 162.382812 278.019531 164.835938 278.605469 C 160.449219 280.792969 158.1875 279.421875 155.535156 277.714844 Z M 159.328125 275.75 C 161.535156 275.40625 163.6875 276.445312 165.554688 277.625 C 163.414062 277.152344 161.34375 276.515625 159.328125 275.75 Z M 165.261719 299.996094 C 168.449219 298.359375 171.101562 294.242188 174.652344 297.421875 C 174.148438 302.808594 168.972656 301.832031 165.261719 299.996094 Z M 169.09375 287.664062 C 171.828125 287.242188 174.300781 286.585938 176.996094 287.917969 C 179.335938 289.085938 180.285156 291.671875 180.484375 294.121094 C 180.375 294.050781 180.222656 294.011719 180.0625 294.050781 C 174.503906 295.292969 171.535156 292.003906 169.09375 287.664062 Z M 176.863281 304.59375 C 176.289062 298.492188 178.761719 297.339844 182.058594 294.425781 C 183.875 299.175781 181.484375 303.03125 176.863281 304.59375 Z M 168.328125 278.148438 C 172.957031 275.609375 175.460938 274.910156 182.867188 279.625 C 178.519531 283.214844 173.039062 281.199219 168.328125 278.148438 Z M 184.621094 279.480469 C 186.4375 276.828125 188.738281 277.140625 190.433594 279.480469 C 187.992188 281.753906 186.628906 281.480469 184.621094 279.480469 Z M 209.785156 299.996094 C 206.074219 301.832031 200.90625 302.808594 200.394531 297.421875 C 203.945312 294.242188 206.609375 298.359375 209.785156 299.996094 Z M 198.050781 287.917969 C 200.746094 286.585938 203.21875 287.242188 205.960938 287.664062 C 203.511719 292.003906 200.535156 295.292969 194.996094 294.050781 C 194.832031 294.011719 194.683594 294.050781 194.5625 294.121094 C 194.773438 291.671875 195.710938 289.085938 198.050781 287.917969 Z M 192.988281 294.425781 C 193.339844 294.726562 193.703125 295.03125 194.097656 295.292969 C 194.125 295.332031 194.148438 295.375 194.1875 295.414062 C 197.375 298.066406 198.648438 299.84375 198.183594 304.59375 C 193.570312 303.03125 191.160156 299.175781 192.988281 294.425781 Z M 192.179688 279.625 C 198.898438 275.34375 201.453125 275.265625 206.730469 278.148438 C 202.085938 281.136719 196.386719 283.234375 192.179688 279.625 Z M 256.511719 286.867188 C 255.917969 288.117188 255.363281 289.570312 254.230469 290.347656 C 252.363281 291.628906 250.023438 291.773438 248.179688 289.773438 C 248.601562 285.273438 252.304688 285.222656 256.511719 286.867188 Z M 231.097656 278.644531 C 227.160156 281.378906 224.425781 280.519531 221.378906 277.765625 C 225.050781 275.820312 228.542969 276.457031 231.097656 278.644531 Z M 215.71875 275.75 C 213.710938 276.515625 211.632812 277.152344 209.503906 277.625 C 211.371094 276.445312 213.519531 275.417969 215.71875 275.75 Z M 219.523438 277.714844 C 216.839844 279.433594 214.597656 280.785156 210.210938 278.605469 C 212.671875 278.019531 215.074219 277.230469 217.394531 276.285156 C 218.128906 276.636719 218.828125 277.140625 219.523438 277.714844 Z M 247.269531 244.109375 C 238.046875 239.367188 247.257812 235.410156 243.324219 229.890625 C 250.296875 230.414062 250.003906 239.355469 247.269531 244.109375 Z M 259.226562 246.769531 C 257.691406 247.265625 256.441406 248.195312 254.9375 248.890625 C 252.171875 250.191406 247.371094 249.355469 248.21875 245.257812 C 253.070312 242.925781 256.007812 244.714844 259.226562 246.769531 Z M 249.894531 240.183594 C 250.1875 238.546875 250.234375 236.875 249.992188 235.320312 C 250.40625 236.824219 250.367188 238.507812 249.894531 240.183594 Z M 252.699219 237.710938 C 254.777344 235.449219 257.128906 233.484375 260.074219 232.414062 C 260.738281 232.171875 260.617188 231.503906 259.953125 231.746094 C 256.996094 232.816406 254.242188 234.453125 252.132812 236.722656 C 251.890625 229.277344 260.910156 230.171875 264.65625 230.113281 C 261.304688 233.007812 257.207031 238.507812 252.699219 237.710938 " fill-opacity="1" fill-rule="nonzero"/><path fill="#004aad" d="M 195.972656 51.363281 C 194.953125 49.527344 191.867188 50.203125 190.3125 51.28125 C 190.0625 50.535156 189.445312 49.992188 188.578125 49.847656 C 187.609375 37.703125 196.761719 39.953125 194.53125 43.855469 C 193.855469 45.046875 191.777344 44.167969 192.894531 43 C 193.160156 42.726562 192.765625 42.273438 192.503906 42.554688 C 191.484375 43.625 192.167969 45.066406 193.644531 45.058594 C 195.46875 45.058594 195.800781 42.453125 194.945312 41.285156 C 192.765625 38.328125 187.304688 40.789062 187.980469 49.789062 C 187.738281 49.769531 187.316406 49.769531 187.074219 49.789062 C 187.738281 40.789062 182.28125 38.316406 180.101562 41.285156 C 179.265625 42.453125 179.585938 45.058594 181.414062 45.058594 C 182.886719 45.066406 183.574219 43.625 182.554688 42.554688 C 182.28125 42.273438 181.898438 42.726562 182.160156 43 C 183.269531 44.167969 181.203125 45.046875 180.527344 43.855469 C 178.328125 40.023438 187.449219 37.652344 186.46875 49.847656 C 185.601562 49.992188 184.996094 50.546875 184.742188 51.28125 C 183.191406 50.203125 180.09375 49.527344 179.074219 51.363281 C 179.003906 51.496094 179.003906 51.675781 179.152344 51.765625 C 182.726562 53.988281 179.71875 58.75 180.082031 61.867188 C 180.585938 66.054688 182.816406 66.851562 185.398438 67.011719 C 212.359375 67.011719 187.0625 67.445312 189.648438 67.011719 C 192.230469 66.851562 194.460938 66.054688 194.953125 61.867188 C 195.328125 58.75 192.3125 53.988281 195.894531 51.765625 C 196.042969 51.675781 196.042969 51.496094 195.972656 51.363281 Z M 180.847656 62.601562 C 179.921875 59.40625 183.554688 54.308594 179.738281 51.453125 C 180.777344 50.210938 183.554688 51.011719 184.621094 51.929688 C 184.621094 55.792969 185.804688 54.378906 183.664062 59.554688 C 182.664062 61.96875 182.484375 64.378906 184.300781 66.285156 C 181.980469 65.871094 181.484375 64.78125 180.847656 62.601562 Z M 189.445312 66.4375 C 185.5625 66.4375 185.207031 66.929688 183.945312 64.730469 C 182.140625 61.664062 185.882812 58.507812 185.480469 54.136719 C 185.417969 53.441406 185.148438 52.382812 185.257812 51.796875 C 185.601562 49.878906 189.503906 49.839844 189.808594 51.847656 C 189.898438 52.390625 189.625 53.53125 189.566406 54.136719 C 189.183594 58.425781 192.886719 61.664062 191.109375 64.730469 C 190.132812 66.417969 189.445312 66.4375 189.445312 66.4375 Z M 194.199219 62.601562 C 193.5625 64.800781 193.066406 65.851562 190.757812 66.285156 C 194.117188 62.746094 190.324219 58.546875 190.132812 55.703125 C 190.0625 54.640625 190.453125 52.382812 190.425781 51.929688 C 191.503906 51 194.269531 50.210938 195.316406 51.453125 C 191.515625 54.289062 195.105469 59.425781 194.199219 62.601562 " fill-opacity="1" fill-rule="nonzero"/><g transform="matrix(1, 0, 0, 1, 132, 147)"><g clip-path="url(#455d39dda8)"><g clip-path="url(#174a8135b7)"><g fill="#ffffff" fill-opacity="1"><g transform="translate(0.66403, 13.294774)"><g><path d="M 5.171875 -0.15625 C 5.148438 -0.15625 5.09375 -0.164062 5 -0.1875 C 4.988281 -0.195312 4.976562 -0.203125 4.96875 -0.203125 C 4.96875 -0.210938 4.957031 -0.21875 4.9375 -0.21875 C 4.925781 -0.226562 4.851562 -0.242188 4.71875 -0.265625 C 4.625 -0.316406 4.566406 -0.351562 4.546875 -0.375 C 4.523438 -0.414062 4.515625 -0.484375 4.515625 -0.578125 C 4.523438 -0.628906 4.53125 -0.703125 4.53125 -0.796875 C 4.550781 -1.734375 4.5625 -3.132812 4.5625 -5 L 4.5625 -5.109375 C 4.5625 -5.128906 4.550781 -5.171875 4.53125 -5.234375 L 2.640625 -5.234375 C 1.953125 -5.234375 1.320312 -5.210938 0.75 -5.171875 C 0.75 -4.796875 0.742188 -4.507812 0.734375 -4.3125 C 0.734375 -4.21875 0.734375 -4.078125 0.734375 -3.890625 C 0.710938 -3.679688 0.703125 -3.53125 0.703125 -3.4375 C 0.703125 -3.34375 0.703125 -3.207031 0.703125 -3.03125 C 0.691406 -2.84375 0.6875 -2.703125 0.6875 -2.609375 L 0.6875 -0.890625 C 0.726562 -0.617188 0.726562 -0.332031 0.6875 -0.03125 C 0.625 -0.0507812 0.523438 -0.0625 0.390625 -0.0625 C 0.273438 -0.0820312 0.1875 -0.101562 0.125 -0.125 C 0.0390625 -0.15625 0 -0.226562 0 -0.34375 L 0 -7.984375 C 0.03125 -8.691406 0.046875 -9.40625 0.046875 -10.125 C 0.109375 -10.195312 0.160156 -10.226562 0.203125 -10.21875 L 0.375 -10.21875 C 0.4375 -10.21875 0.488281 -10.222656 0.53125 -10.234375 C 0.59375 -10.265625 0.644531 -10.28125 0.6875 -10.28125 C 0.75 -10.1875 0.78125 -10.097656 0.78125 -10.015625 C 0.789062 -9.953125 0.796875 -9.851562 0.796875 -9.71875 C 0.773438 -9.382812 0.765625 -9.125 0.765625 -8.9375 C 0.765625 -8.601562 0.757812 -8.347656 0.75 -8.171875 L 0.75 -6.34375 C 0.789062 -6.332031 0.832031 -6.316406 0.875 -6.296875 C 0.9375 -6.296875 0.984375 -6.273438 1.015625 -6.234375 C 1.023438 -6.234375 1.046875 -6.234375 1.078125 -6.234375 C 1.097656 -6.222656 1.125 -6.21875 1.15625 -6.21875 C 1.175781 -6.207031 1.195312 -6.195312 1.21875 -6.1875 C 1.332031 -6.164062 1.410156 -6.15625 1.453125 -6.15625 C 1.703125 -6.1875 1.945312 -6.203125 2.1875 -6.203125 C 2.289062 -6.203125 2.457031 -6.191406 2.6875 -6.171875 C 3.226562 -6.148438 3.640625 -6.140625 3.921875 -6.140625 C 4.046875 -6.160156 4.253906 -6.171875 4.546875 -6.171875 C 4.554688 -6.265625 4.5625 -6.390625 4.5625 -6.546875 C 4.570312 -6.628906 4.578125 -6.753906 4.578125 -6.921875 L 4.578125 -8.4375 C 4.585938 -8.78125 4.59375 -9.289062 4.59375 -9.96875 C 4.59375 -10.207031 4.710938 -10.328125 4.953125 -10.328125 L 5.453125 -10.328125 C 5.554688 -10.253906 5.597656 -10.164062 5.578125 -10.0625 C 5.578125 -10.03125 5.578125 -9.976562 5.578125 -9.90625 C 5.566406 -9.84375 5.5625 -9.785156 5.5625 -9.734375 C 5.5625 -9.566406 5.550781 -9.300781 5.53125 -8.9375 C 5.53125 -8.851562 5.53125 -8.71875 5.53125 -8.53125 C 5.519531 -8.351562 5.515625 -8.21875 5.515625 -8.125 L 5.515625 -5.796875 C 5.515625 -5.222656 5.507812 -4.785156 5.5 -4.484375 C 5.5 -4.335938 5.5 -4.117188 5.5 -3.828125 C 5.488281 -3.515625 5.484375 -3.28125 5.484375 -3.125 C 5.484375 -3.007812 5.484375 -2.835938 5.484375 -2.609375 C 5.460938 -2.359375 5.453125 -2.171875 5.453125 -2.046875 L 5.453125 -0.78125 C 5.453125 -0.757812 5.460938 -0.726562 5.484375 -0.6875 C 5.484375 -0.644531 5.484375 -0.613281 5.484375 -0.59375 C 5.515625 -0.457031 5.476562 -0.335938 5.375 -0.234375 C 5.320312 -0.179688 5.253906 -0.15625 5.171875 -0.15625 Z M 5.171875 -0.15625 "/></g></g></g></g><g fill="#ffffff" fill-opacity="1"><g transform="translate(8.221616, 13.294774)"><g><path d="M 2.5625 -8.875 L 2.71875 -8.265625 C 2.769531 -8.054688 2.835938 -7.75 2.921875 -7.34375 C 3.015625 -6.9375 3.082031 -6.625 3.125 -6.40625 C 3.164062 -6.269531 3.207031 -6.109375 3.25 -5.921875 C 3.28125 -5.804688 3.316406 -5.632812 3.359375 -5.40625 C 3.378906 -5.332031 3.429688 -5.082031 3.515625 -4.65625 C 3.566406 -4.457031 3.625 -4.195312 3.6875 -3.875 C 3.6875 -3.863281 3.691406 -3.847656 3.703125 -3.828125 C 3.703125 -3.796875 3.703125 -3.773438 3.703125 -3.765625 C 3.929688 -2.929688 4.160156 -1.90625 4.390625 -0.6875 C 4.453125 -0.550781 4.484375 -0.441406 4.484375 -0.359375 C 4.515625 -0.203125 4.453125 -0.125 4.296875 -0.125 C 4.179688 -0.144531 4.09375 -0.15625 4.03125 -0.15625 L 3.71875 -0.203125 C 3.625 -0.234375 3.5625 -0.320312 3.53125 -0.46875 C 3.46875 -0.925781 3.410156 -1.265625 3.359375 -1.484375 C 3.285156 -1.984375 3.226562 -2.328125 3.1875 -2.515625 C 2.957031 -2.523438 2.597656 -2.53125 2.109375 -2.53125 C 1.640625 -2.550781 1.28125 -2.5625 1.03125 -2.5625 C 1.019531 -2.5 0.992188 -2.398438 0.953125 -2.265625 C 0.941406 -2.234375 0.925781 -2.179688 0.90625 -2.109375 C 0.882812 -2.035156 0.867188 -1.976562 0.859375 -1.9375 L 0.8125 -1.65625 C 0.78125 -1.507812 0.757812 -1.394531 0.75 -1.3125 C 0.6875 -1 0.644531 -0.785156 0.625 -0.671875 C 0.625 -0.597656 0.617188 -0.535156 0.609375 -0.484375 C 0.609375 -0.316406 0.5625 -0.1875 0.46875 -0.09375 C 0.414062 -0.0625 0.359375 -0.046875 0.296875 -0.046875 L 0.234375 -0.046875 C 0.191406 -0.0664062 0.160156 -0.078125 0.140625 -0.078125 C 0.0859375 -0.109375 0.046875 -0.125 0.015625 -0.125 C -0.078125 -0.164062 -0.160156 -0.1875 -0.234375 -0.1875 C -0.234375 -0.21875 -0.226562 -0.253906 -0.21875 -0.296875 C -0.21875 -0.347656 -0.21875 -0.378906 -0.21875 -0.390625 C -0.195312 -0.515625 -0.15625 -0.695312 -0.09375 -0.9375 C -0.0507812 -1.164062 -0.0195312 -1.34375 0 -1.46875 C 0.113281 -1.96875 0.191406 -2.332031 0.234375 -2.5625 C 0.253906 -2.675781 0.289062 -2.828125 0.34375 -3.015625 C 0.382812 -3.210938 0.410156 -3.363281 0.421875 -3.46875 C 0.441406 -3.507812 0.453125 -3.570312 0.453125 -3.65625 L 0.453125 -3.859375 L 0.46875 -3.90625 L 0.46875 -3.96875 C 0.59375 -4.144531 0.660156 -4.320312 0.671875 -4.5 C 0.710938 -4.695312 0.734375 -4.890625 0.734375 -5.078125 C 0.753906 -5.179688 0.765625 -5.253906 0.765625 -5.296875 C 0.773438 -5.359375 0.800781 -5.429688 0.84375 -5.515625 C 0.875 -5.578125 0.90625 -5.675781 0.9375 -5.8125 C 0.957031 -5.882812 0.976562 -6 1 -6.15625 L 1.703125 -9.5 L 1.703125 -9.5625 C 1.710938 -9.59375 1.71875 -9.617188 1.71875 -9.640625 C 1.6875 -9.859375 1.796875 -10.003906 2.046875 -10.078125 C 2.328125 -10.003906 2.46875 -9.8125 2.46875 -9.5 C 2.476562 -9.4375 2.492188 -9.335938 2.515625 -9.203125 C 2.535156 -9.054688 2.550781 -8.945312 2.5625 -8.875 Z M 2.5625 -8.875 "/></g></g></g><g fill="#ffffff" fill-opacity="1"><g transform="translate(14.663361, 13.294774)"><g><path d="M 0.046875 -0.125 C 0.015625 -0.15625 0.0078125 -0.191406 0.03125 -0.234375 C 0.113281 -0.367188 0.148438 -0.5 0.140625 -0.625 L 0.140625 -2.875 C 0.140625 -3.082031 0.144531 -3.390625 0.15625 -3.796875 C 0.15625 -4.203125 0.15625 -4.507812 0.15625 -4.71875 L 0.15625 -9.703125 C 0.15625 -9.722656 0.160156 -9.75 0.171875 -9.78125 C 0.171875 -9.820312 0.171875 -9.847656 0.171875 -9.859375 C 0.179688 -9.890625 0.1875 -9.925781 0.1875 -9.96875 C 0.363281 -10 0.484375 -10.015625 0.546875 -10.015625 C 0.617188 -10.023438 0.726562 -10.03125 0.875 -10.03125 L 2.015625 -10.03125 C 2.109375 -10.03125 2.257812 -10.015625 2.46875 -9.984375 C 2.769531 -9.972656 3.039062 -9.847656 3.28125 -9.609375 C 3.519531 -9.359375 3.671875 -9.070312 3.734375 -8.75 C 3.867188 -8.132812 3.832031 -7.53125 3.625 -6.9375 C 3.488281 -6.507812 3.257812 -6.132812 2.9375 -5.8125 C 2.644531 -5.539062 2.421875 -5.335938 2.265625 -5.203125 C 2.078125 -5.023438 1.820312 -4.863281 1.5 -4.71875 C 1.363281 -4.675781 1.253906 -4.640625 1.171875 -4.609375 C 1.046875 -4.585938 0.914062 -4.554688 0.78125 -4.515625 L 0.78125 -0.046875 C 0.644531 -0.0234375 0.535156 -0.015625 0.453125 -0.015625 C 0.421875 -0.0234375 0.378906 -0.0351562 0.328125 -0.046875 C 0.253906 -0.0546875 0.203125 -0.0625 0.171875 -0.0625 C 0.117188 -0.0625 0.078125 -0.0820312 0.046875 -0.125 Z M 0.046875 -0.125 "/></g></g></g><g fill="#ffffff" fill-opacity="1"><g transform="translate(19.989265, 13.294774)"><g><path d="M 0.046875 -0.125 C 0.015625 -0.15625 0.0078125 -0.191406 0.03125 -0.234375 C 0.113281 -0.367188 0.148438 -0.5 0.140625 -0.625 L 0.140625 -2.875 C 0.140625 -3.082031 0.144531 -3.390625 0.15625 -3.796875 C 0.15625 -4.203125 0.15625 -4.507812 0.15625 -4.71875 L 0.15625 -9.703125 C 0.15625 -9.722656 0.160156 -9.75 0.171875 -9.78125 C 0.171875 -9.820312 0.171875 -9.847656 0.171875 -9.859375 C 0.179688 -9.890625 0.1875 -9.925781 0.1875 -9.96875 C 0.363281 -10 0.484375 -10.015625 0.546875 -10.015625 C 0.617188 -10.023438 0.726562 -10.03125 0.875 -10.03125 L 2.015625 -10.03125 C 2.109375 -10.03125 2.257812 -10.015625 2.46875 -9.984375 C 2.769531 -9.972656 3.039062 -9.847656 3.28125 -9.609375 C 3.519531 -9.359375 3.671875 -9.070312 3.734375 -8.75 C 3.867188 -8.132812 3.832031 -7.53125 3.625 -6.9375 C 3.488281 -6.507812 3.257812 -6.132812 2.9375 -5.8125 C 2.644531 -5.539062 2.421875 -5.335938 2.265625 -5.203125 C 2.078125 -5.023438 1.820312 -4.863281 1.5 -4.71875 C 1.363281 -4.675781 1.253906 -4.640625 1.171875 -4.609375 C 1.046875 -4.585938 0.914062 -4.554688 0.78125 -4.515625 L 0.78125 -0.046875 C 0.644531 -0.0234375 0.535156 -0.015625 0.453125 -0.015625 C 0.421875 -0.0234375 0.378906 -0.0351562 0.328125 -0.046875 C 0.253906 -0.0546875 0.203125 -0.0625 0.171875 -0.0625 C 0.117188 -0.0625 0.078125 -0.0820312 0.046875 -0.125 Z M 0.046875 -0.125 "/></g></g></g><g fill="#ffffff" fill-opacity="1"><g transform="translate(25.315168, 13.294774)"><g><path d="M 0.765625 -0.03125 C 0.660156 -0.0507812 0.492188 -0.0625 0.265625 -0.0625 C 0.0664062 -0.101562 0.00390625 -0.203125 0.078125 -0.359375 C 0.179688 -0.609375 0.238281 -0.742188 0.25 -0.765625 L 0.25 -0.8125 C 0.21875 -0.957031 0.21875 -1.097656 0.25 -1.234375 C 0.3125 -1.367188 0.328125 -1.503906 0.296875 -1.640625 C 0.273438 -1.835938 0.265625 -1.976562 0.265625 -2.0625 C 0.273438 -2.164062 0.28125 -2.3125 0.28125 -2.5 L 0.28125 -2.921875 C 0.289062 -3.023438 0.296875 -3.171875 0.296875 -3.359375 C 0.316406 -3.773438 0.328125 -4.390625 0.328125 -5.203125 L 0.328125 -8.1875 C 0.335938 -8.445312 0.34375 -8.832031 0.34375 -9.34375 L 0.34375 -9.703125 C 0.34375 -9.742188 0.34375 -9.804688 0.34375 -9.890625 C 0.332031 -9.972656 0.328125 -10.03125 0.328125 -10.0625 C 0.328125 -10.207031 0.332031 -10.285156 0.34375 -10.296875 C 0.363281 -10.316406 0.398438 -10.328125 0.453125 -10.328125 C 0.503906 -10.328125 0.546875 -10.320312 0.578125 -10.3125 L 0.6875 -10.3125 C 0.8125 -10.3125 0.894531 -10.289062 0.9375 -10.25 C 0.96875 -10.207031 0.984375 -10.128906 0.984375 -10.015625 L 0.984375 -6.171875 L 1 -6.171875 L 1 -4.53125 C 1 -4.351562 1 -4.082031 1 -3.71875 C 0.988281 -3.34375 0.984375 -3.0625 0.984375 -2.875 L 0.984375 -1.609375 C 1.003906 -1.046875 1.015625 -0.617188 1.015625 -0.328125 C 1.015625 -0.128906 0.929688 -0.03125 0.765625 -0.03125 Z M 0.765625 -0.03125 "/></g></g></g><g fill="#ffffff" fill-opacity="1"><g transform="translate(28.274131, 13.294774)"><g><path d="M 4.734375 -9 L 4.734375 -9.296875 C 4.734375 -9.421875 4.6875 -9.523438 4.59375 -9.609375 C 4.582031 -9.628906 4.554688 -9.695312 4.515625 -9.8125 C 4.503906 -9.90625 4.523438 -9.976562 4.578125 -10.03125 C 4.640625 -10.019531 4.722656 -10.015625 4.828125 -10.015625 C 4.910156 -10.015625 4.972656 -10.019531 5.015625 -10.03125 C 5.148438 -10.050781 5.25 -10.0625 5.3125 -10.0625 C 5.382812 -10.0625 5.441406 -10.054688 5.484375 -10.046875 C 5.484375 -9.992188 5.484375 -9.914062 5.484375 -9.8125 C 5.460938 -9.6875 5.453125 -9.578125 5.453125 -9.484375 L 5.453125 -8.171875 C 5.453125 -7.835938 5.445312 -7.582031 5.4375 -7.40625 C 5.4375 -6.988281 5.429688 -6.671875 5.421875 -6.453125 C 5.421875 -6.253906 5.410156 -5.941406 5.390625 -5.515625 L 5.390625 -5.296875 C 5.398438 -5.242188 5.40625 -5.171875 5.40625 -5.078125 L 5.40625 -2.359375 C 5.40625 -1.984375 5.410156 -1.691406 5.421875 -1.484375 C 5.460938 -1.179688 5.484375 -0.882812 5.484375 -0.59375 L 5.484375 -0.4375 C 5.484375 -0.164062 5.429688 -0.03125 5.328125 -0.03125 L 5.109375 -0.03125 C 5.085938 -0.0390625 5.050781 -0.046875 5 -0.046875 C 4.957031 -0.046875 4.921875 -0.0390625 4.890625 -0.03125 C 4.835938 -0.03125 4.78125 -0.0859375 4.71875 -0.203125 C 4.65625 -0.347656 4.613281 -0.4375 4.59375 -0.46875 C 4.582031 -0.507812 4.566406 -0.5625 4.546875 -0.625 C 4.515625 -0.675781 4.492188 -0.71875 4.484375 -0.75 C 4.441406 -0.851562 4.398438 -0.941406 4.359375 -1.015625 C 4.273438 -1.242188 4.128906 -1.582031 3.921875 -2.03125 C 3.484375 -3.1875 2.878906 -4.609375 2.109375 -6.296875 C 2.035156 -6.472656 1.929688 -6.726562 1.796875 -7.0625 C 1.648438 -7.40625 1.554688 -7.609375 1.515625 -7.671875 L 1.0625 -8.734375 C 1.0625 -8.742188 1.046875 -8.769531 1.015625 -8.8125 C 0.984375 -8.875 0.960938 -8.910156 0.953125 -8.921875 C 0.953125 -8.867188 0.945312 -8.832031 0.9375 -8.8125 C 0.9375 -7.476562 0.914062 -6.148438 0.875 -4.828125 C 0.875 -4.234375 0.867188 -3.785156 0.859375 -3.484375 C 0.859375 -3.335938 0.859375 -3.117188 0.859375 -2.828125 C 0.847656 -2.515625 0.84375 -2.28125 0.84375 -2.125 L 0.84375 -1.25 C 0.863281 -0.84375 0.875 -0.546875 0.875 -0.359375 L 0.875 -0.1875 C 0.875 -0.125 0.847656 -0.0703125 0.796875 -0.03125 C 0.753906 -0.0625 0.6875 -0.0820312 0.59375 -0.09375 C 0.53125 -0.125 0.457031 -0.148438 0.375 -0.171875 C 0.351562 -0.191406 0.335938 -0.203125 0.328125 -0.203125 C 0.304688 -0.210938 0.28125 -0.21875 0.25 -0.21875 C 0.144531 -0.25 0.0859375 -0.265625 0.078125 -0.265625 C 0.0664062 -0.285156 0.0507812 -0.335938 0.03125 -0.421875 L 0.03125 -0.625 C 0.03125 -0.738281 0.0390625 -0.816406 0.0625 -0.859375 C 0.0703125 -0.878906 0.0820312 -0.910156 0.09375 -0.953125 C 0.113281 -0.972656 0.125 -0.988281 0.125 -1 C 0.15625 -1.039062 0.15625 -1.078125 0.125 -1.109375 C 0.09375 -1.191406 0.09375 -1.242188 0.125 -1.265625 C 0.164062 -1.304688 0.1875 -1.351562 0.1875 -1.40625 C 0.195312 -1.414062 0.203125 -1.4375 0.203125 -1.46875 C 0.179688 -1.6875 0.175781 -1.84375 0.1875 -1.9375 C 0.21875 -2.101562 0.222656 -2.269531 0.203125 -2.4375 L 0.203125 -2.796875 C 0.222656 -2.953125 0.234375 -3.066406 0.234375 -3.140625 C 0.242188 -3.273438 0.25 -3.460938 0.25 -3.703125 C 0.257812 -3.835938 0.265625 -4.03125 0.265625 -4.28125 C 0.285156 -4.84375 0.296875 -5.671875 0.296875 -6.765625 C 0.328125 -7.867188 0.34375 -8.695312 0.34375 -9.25 L 0.34375 -9.546875 C 0.363281 -9.660156 0.335938 -9.757812 0.265625 -9.84375 C 0.335938 -9.925781 0.378906 -9.972656 0.390625 -9.984375 C 0.421875 -10.023438 0.457031 -10.046875 0.5 -10.046875 L 0.5625 -10.046875 C 0.582031 -10.046875 0.613281 -10.046875 0.65625 -10.046875 C 0.707031 -10.035156 0.75 -10.03125 0.78125 -10.03125 C 0.894531 -10.050781 0.992188 -10.0625 1.078125 -10.0625 C 1.128906 -10.0625 1.164062 -10.046875 1.1875 -10.015625 C 1.226562 -9.960938 1.265625 -9.894531 1.296875 -9.8125 C 1.390625 -9.601562 1.484375 -9.382812 1.578125 -9.15625 C 1.648438 -9 1.738281 -8.78125 1.84375 -8.5 C 1.875 -8.425781 1.921875 -8.3125 1.984375 -8.15625 C 2.035156 -7.988281 2.078125 -7.875 2.109375 -7.8125 C 2.265625 -7.4375 2.363281 -7.207031 2.40625 -7.125 C 2.550781 -6.800781 2.796875 -6.207031 3.140625 -5.34375 C 3.273438 -5.03125 3.476562 -4.546875 3.75 -3.890625 C 3.769531 -3.828125 3.863281 -3.617188 4.03125 -3.265625 C 4.1875 -2.898438 4.300781 -2.625 4.375 -2.4375 C 4.445312 -2.28125 4.570312 -2.03125 4.75 -1.6875 L 4.75 -1.8125 C 4.757812 -1.832031 4.765625 -1.867188 4.765625 -1.921875 L 4.765625 -3.828125 C 4.765625 -4.660156 4.757812 -5.289062 4.75 -5.71875 L 4.75 -7.140625 C 4.75 -7.785156 4.742188 -8.269531 4.734375 -8.59375 L 4.734375 -8.796875 C 4.753906 -8.859375 4.753906 -8.925781 4.734375 -9 Z M 4.734375 -9 "/></g></g></g><g fill="#ffffff" fill-opacity="1"><g transform="translate(35.696465, 13.294774)"><g><path d="M 3.125 -0.046875 C 2.957031 -0.046875 2.71875 -0.046875 2.40625 -0.046875 C 2.070312 -0.0351562 1.828125 -0.03125 1.671875 -0.03125 L 0.203125 -0.03125 C 0.160156 -0.195312 0.109375 -0.332031 0.046875 -0.4375 C 0.015625 -0.539062 0.015625 -0.640625 0.046875 -0.734375 C 0.0546875 -0.773438 0.0625 -0.832031 0.0625 -0.90625 C 0.0820312 -0.988281 0.078125 -1.050781 0.046875 -1.09375 L 0.015625 -1.171875 C 0.015625 -1.179688 0.0234375 -1.207031 0.046875 -1.25 C 0.117188 -1.351562 0.15625 -1.441406 0.15625 -1.515625 C 0.164062 -1.585938 0.171875 -1.691406 0.171875 -1.828125 C 0.191406 -3.203125 0.203125 -5.257812 0.203125 -8 L 0.203125 -8.84375 C 0.203125 -8.9375 0.191406 -9.050781 0.171875 -9.1875 C 0.171875 -9.34375 0.175781 -9.453125 0.1875 -9.515625 C 0.21875 -9.578125 0.21875 -9.613281 0.1875 -9.625 C 0.113281 -9.695312 0.0976562 -9.765625 0.140625 -9.828125 C 0.191406 -9.890625 0.1875 -9.972656 0.125 -10.078125 C 0.226562 -10.078125 0.296875 -10.085938 0.328125 -10.109375 C 0.359375 -10.128906 0.40625 -10.140625 0.46875 -10.140625 C 0.507812 -10.140625 0.554688 -10.140625 0.609375 -10.140625 C 0.648438 -10.128906 0.695312 -10.125 0.75 -10.125 C 0.789062 -10.113281 0.832031 -10.101562 0.875 -10.09375 C 0.925781 -10.082031 1 -10.070312 1.09375 -10.0625 C 1.1875 -10.050781 1.253906 -10.046875 1.296875 -10.046875 C 1.410156 -10.046875 1.582031 -10.050781 1.8125 -10.0625 C 2.03125 -10.0625 2.195312 -10.0625 2.3125 -10.0625 C 2.550781 -10.070312 2.890625 -10.078125 3.328125 -10.078125 C 3.410156 -10.078125 3.460938 -10.046875 3.484375 -9.984375 C 3.523438 -9.921875 3.546875 -9.867188 3.546875 -9.828125 C 3.546875 -9.660156 3.453125 -9.578125 3.265625 -9.578125 C 2.421875 -9.578125 1.789062 -9.566406 1.375 -9.546875 L 1.09375 -9.546875 C 1.09375 -9.210938 1.085938 -8.960938 1.078125 -8.796875 C 1.078125 -8.117188 1.066406 -7.613281 1.046875 -7.28125 L 1.046875 -6.546875 C 1.046875 -6.265625 1.035156 -6.046875 1.015625 -5.890625 C 0.992188 -5.660156 0.992188 -5.425781 1.015625 -5.1875 C 1.054688 -5.1875 1.078125 -5.179688 1.078125 -5.171875 C 1.128906 -5.148438 1.160156 -5.140625 1.171875 -5.140625 L 2.078125 -5.140625 C 2.492188 -5.140625 2.804688 -5.132812 3.015625 -5.125 L 3.25 -5.125 C 3.363281 -5.125 3.445312 -5.117188 3.5 -5.109375 L 3.5 -4.828125 C 3.53125 -4.660156 3.46875 -4.578125 3.3125 -4.578125 L 2.6875 -4.578125 C 2.550781 -4.585938 2.332031 -4.59375 2.03125 -4.59375 L 1.53125 -4.59375 C 1.476562 -4.59375 1.394531 -4.59375 1.28125 -4.59375 C 1.164062 -4.582031 1.078125 -4.578125 1.015625 -4.578125 C 0.972656 -3.992188 0.953125 -3.34375 0.953125 -2.625 C 0.972656 -1.894531 0.96875 -1.234375 0.9375 -0.640625 C 1 -0.640625 1.046875 -0.632812 1.078125 -0.625 C 1.097656 -0.625 1.132812 -0.625 1.1875 -0.625 C 1.21875 -0.613281 1.238281 -0.609375 1.25 -0.609375 L 2.265625 -0.609375 C 2.378906 -0.609375 2.546875 -0.613281 2.765625 -0.625 C 2.992188 -0.625 3.164062 -0.625 3.28125 -0.625 C 3.425781 -0.625 3.492188 -0.550781 3.484375 -0.40625 L 3.484375 -0.25 C 3.484375 -0.195312 3.476562 -0.144531 3.46875 -0.09375 C 3.445312 -0.09375 3.390625 -0.0820312 3.296875 -0.0625 C 3.285156 -0.0625 3.265625 -0.0625 3.234375 -0.0625 C 3.179688 -0.0507812 3.144531 -0.046875 3.125 -0.046875 Z M 3.125 -0.046875 "/></g></g></g><g fill="#ffffff" fill-opacity="1"><g transform="translate(41.191433, 13.294774)"><g><path d="M 2.859375 -1.125 C 2.847656 -1.113281 2.816406 -1.078125 2.765625 -1.015625 C 2.515625 -0.722656 2.179688 -0.457031 1.765625 -0.21875 C 1.515625 -0.09375 1.203125 -0.03125 0.828125 -0.03125 L 0.8125 -0.046875 C 0.625 -0.109375 0.441406 -0.238281 0.265625 -0.4375 C 0.128906 -0.65625 0.0625 -0.867188 0.0625 -1.078125 C 0.0703125 -1.148438 0.0976562 -1.234375 0.140625 -1.328125 C 0.160156 -1.429688 0.175781 -1.492188 0.1875 -1.515625 C 0.25 -1.722656 0.296875 -1.878906 0.328125 -1.984375 C 0.328125 -2.003906 0.335938 -2.035156 0.359375 -2.078125 C 0.367188 -2.085938 0.378906 -2.101562 0.390625 -2.125 C 0.398438 -2.144531 0.410156 -2.164062 0.421875 -2.1875 C 0.441406 -2.207031 0.46875 -2.21875 0.5 -2.21875 C 0.53125 -2.21875 0.550781 -2.210938 0.5625 -2.203125 C 0.613281 -2.203125 0.640625 -2.175781 0.640625 -2.125 C 0.640625 -2.070312 0.632812 -2.03125 0.625 -2 C 0.625 -1.90625 0.613281 -1.757812 0.59375 -1.5625 C 0.59375 -1.46875 0.582031 -1.316406 0.5625 -1.109375 C 0.5625 -0.835938 0.6875 -0.703125 0.9375 -0.703125 C 1.332031 -0.703125 1.710938 -0.875 2.078125 -1.21875 C 2.429688 -1.539062 2.613281 -1.90625 2.625 -2.3125 C 2.625 -2.675781 2.582031 -2.945312 2.5 -3.125 C 2.4375 -3.34375 2.320312 -3.585938 2.15625 -3.859375 C 1.925781 -4.347656 1.578125 -4.816406 1.109375 -5.265625 L 1.015625 -5.40625 L 0.9375 -5.578125 C 0.738281 -5.960938 0.578125 -6.351562 0.453125 -6.75 C 0.316406 -7.144531 0.257812 -7.5625 0.28125 -8 C 0.3125 -8.445312 0.398438 -8.8125 0.546875 -9.09375 C 0.679688 -9.363281 0.921875 -9.613281 1.265625 -9.84375 C 1.515625 -10 1.734375 -10.078125 1.921875 -10.078125 C 2.015625 -10.078125 2.109375 -10.046875 2.203125 -9.984375 C 2.347656 -9.910156 2.453125 -9.796875 2.515625 -9.640625 C 2.578125 -9.535156 2.609375 -9.457031 2.609375 -9.40625 C 2.609375 -9.332031 2.578125 -9.238281 2.515625 -9.125 C 2.503906 -9.132812 2.484375 -9.15625 2.453125 -9.1875 C 2.441406 -9.21875 2.421875 -9.238281 2.390625 -9.25 C 2.234375 -9.425781 2.078125 -9.515625 1.921875 -9.515625 C 1.765625 -9.515625 1.617188 -9.453125 1.484375 -9.328125 C 1.304688 -9.191406 1.164062 -8.921875 1.0625 -8.515625 C 1.050781 -8.472656 1.035156 -8.410156 1.015625 -8.328125 C 0.992188 -8.242188 0.976562 -8.175781 0.96875 -8.125 C 0.957031 -8.09375 0.953125 -8.046875 0.953125 -7.984375 C 0.941406 -7.910156 0.9375 -7.859375 0.9375 -7.828125 C 0.9375 -7.679688 0.945312 -7.570312 0.96875 -7.5 C 0.988281 -7.425781 1.019531 -7.316406 1.0625 -7.171875 C 1.101562 -7.015625 1.140625 -6.894531 1.171875 -6.8125 C 1.191406 -6.726562 1.226562 -6.609375 1.28125 -6.453125 C 1.332031 -6.296875 1.367188 -6.179688 1.390625 -6.109375 C 1.421875 -6.054688 1.441406 -6.003906 1.453125 -5.953125 C 1.472656 -5.910156 1.492188 -5.851562 1.515625 -5.78125 C 1.628906 -5.5625 1.742188 -5.390625 1.859375 -5.265625 C 1.992188 -5.128906 2.128906 -4.960938 2.265625 -4.765625 C 2.359375 -4.648438 2.421875 -4.578125 2.453125 -4.546875 C 2.523438 -4.484375 2.597656 -4.410156 2.671875 -4.328125 C 2.898438 -4.085938 3.046875 -3.8125 3.109375 -3.5 C 3.203125 -3.1875 3.226562 -2.867188 3.1875 -2.546875 C 3.164062 -2.273438 3.144531 -2.054688 3.125 -1.890625 C 3.101562 -1.671875 3.035156 -1.457031 2.921875 -1.25 C 2.890625 -1.1875 2.867188 -1.144531 2.859375 -1.125 Z M 2.859375 -1.125 "/></g></g></g><g fill="#ffffff" fill-opacity="1"><g transform="translate(46.382078, 13.294774)"><g><path d="M 2.859375 -1.125 C 2.847656 -1.113281 2.816406 -1.078125 2.765625 -1.015625 C 2.515625 -0.722656 2.179688 -0.457031 1.765625 -0.21875 C 1.515625 -0.09375 1.203125 -0.03125 0.828125 -0.03125 L 0.8125 -0.046875 C 0.625 -0.109375 0.441406 -0.238281 0.265625 -0.4375 C 0.128906 -0.65625 0.0625 -0.867188 0.0625 -1.078125 C 0.0703125 -1.148438 0.0976562 -1.234375 0.140625 -1.328125 C 0.160156 -1.429688 0.175781 -1.492188 0.1875 -1.515625 C 0.25 -1.722656 0.296875 -1.878906 0.328125 -1.984375 C 0.328125 -2.003906 0.335938 -2.035156 0.359375 -2.078125 C 0.367188 -2.085938 0.378906 -2.101562 0.390625 -2.125 C 0.398438 -2.144531 0.410156 -2.164062 0.421875 -2.1875 C 0.441406 -2.207031 0.46875 -2.21875 0.5 -2.21875 C 0.53125 -2.21875 0.550781 -2.210938 0.5625 -2.203125 C 0.613281 -2.203125 0.640625 -2.175781 0.640625 -2.125 C 0.640625 -2.070312 0.632812 -2.03125 0.625 -2 C 0.625 -1.90625 0.613281 -1.757812 0.59375 -1.5625 C 0.59375 -1.46875 0.582031 -1.316406 0.5625 -1.109375 C 0.5625 -0.835938 0.6875 -0.703125 0.9375 -0.703125 C 1.332031 -0.703125 1.710938 -0.875 2.078125 -1.21875 C 2.429688 -1.539062 2.613281 -1.90625 2.625 -2.3125 C 2.625 -2.675781 2.582031 -2.945312 2.5 -3.125 C 2.4375 -3.34375 2.320312 -3.585938 2.15625 -3.859375 C 1.925781 -4.347656 1.578125 -4.816406 1.109375 -5.265625 L 1.015625 -5.40625 L 0.9375 -5.578125 C 0.738281 -5.960938 0.578125 -6.351562 0.453125 -6.75 C 0.316406 -7.144531 0.257812 -7.5625 0.28125 -8 C 0.3125 -8.445312 0.398438 -8.8125 0.546875 -9.09375 C 0.679688 -9.363281 0.921875 -9.613281 1.265625 -9.84375 C 1.515625 -10 1.734375 -10.078125 1.921875 -10.078125 C 2.015625 -10.078125 2.109375 -10.046875 2.203125 -9.984375 C 2.347656 -9.910156 2.453125 -9.796875 2.515625 -9.640625 C 2.578125 -9.535156 2.609375 -9.457031 2.609375 -9.40625 C 2.609375 -9.332031 2.578125 -9.238281 2.515625 -9.125 C 2.503906 -9.132812 2.484375 -9.15625 2.453125 -9.1875 C 2.441406 -9.21875 2.421875 -9.238281 2.390625 -9.25 C 2.234375 -9.425781 2.078125 -9.515625 1.921875 -9.515625 C 1.765625 -9.515625 1.617188 -9.453125 1.484375 -9.328125 C 1.304688 -9.191406 1.164062 -8.921875 1.0625 -8.515625 C 1.050781 -8.472656 1.035156 -8.410156 1.015625 -8.328125 C 0.992188 -8.242188 0.976562 -8.175781 0.96875 -8.125 C 0.957031 -8.09375 0.953125 -8.046875 0.953125 -7.984375 C 0.941406 -7.910156 0.9375 -7.859375 0.9375 -7.828125 C 0.9375 -7.679688 0.945312 -7.570312 0.96875 -7.5 C 0.988281 -7.425781 1.019531 -7.316406 1.0625 -7.171875 C 1.101562 -7.015625 1.140625 -6.894531 1.171875 -6.8125 C 1.191406 -6.726562 1.226562 -6.609375 1.28125 -6.453125 C 1.332031 -6.296875 1.367188 -6.179688 1.390625 -6.109375 C 1.421875 -6.054688 1.441406 -6.003906 1.453125 -5.953125 C 1.472656 -5.910156 1.492188 -5.851562 1.515625 -5.78125 C 1.628906 -5.5625 1.742188 -5.390625 1.859375 -5.265625 C 1.992188 -5.128906 2.128906 -4.960938 2.265625 -4.765625 C 2.359375 -4.648438 2.421875 -4.578125 2.453125 -4.546875 C 2.523438 -4.484375 2.597656 -4.410156 2.671875 -4.328125 C 2.898438 -4.085938 3.046875 -3.8125 3.109375 -3.5 C 3.203125 -3.1875 3.226562 -2.867188 3.1875 -2.546875 C 3.164062 -2.273438 3.144531 -2.054688 3.125 -1.890625 C 3.101562 -1.671875 3.035156 -1.457031 2.921875 -1.25 C 2.890625 -1.1875 2.867188 -1.144531 2.859375 -1.125 Z M 2.859375 -1.125 "/></g></g></g><g fill="#ffffff" fill-opacity="1"><g transform="translate(51.572724, 13.294774)"><g/></g></g><g fill="#ffffff" fill-opacity="1"><g transform="translate(55.461556, 13.294774)"><g><path d="M 2.28125 -0.46875 C 2.445312 -0.488281 2.582031 -0.554688 2.6875 -0.671875 C 2.78125 -0.765625 2.84375 -0.84375 2.875 -0.90625 C 2.96875 -1.007812 3.050781 -1.0625 3.125 -1.0625 C 3.195312 -1.0625 3.253906 -1.039062 3.296875 -1 C 3.421875 -0.925781 3.429688 -0.800781 3.328125 -0.625 C 3.148438 -0.226562 2.738281 -0.03125 2.09375 -0.03125 C 1.882812 -0.0390625 1.679688 -0.109375 1.484375 -0.234375 C 1.304688 -0.378906 1.15625 -0.535156 1.03125 -0.703125 C 0.695312 -1.296875 0.441406 -2.085938 0.265625 -3.078125 C 0.242188 -3.316406 0.210938 -3.535156 0.171875 -3.734375 L 0.0625 -4.390625 C 0.0625 -4.441406 0.0546875 -4.503906 0.046875 -4.578125 C 0.0351562 -4.660156 0.0234375 -4.722656 0.015625 -4.765625 C 0.015625 -7.003906 0.257812 -8.519531 0.75 -9.3125 C 0.875 -9.539062 1.050781 -9.734375 1.28125 -9.890625 C 1.445312 -10.023438 1.625 -10.09375 1.8125 -10.09375 C 1.851562 -10.101562 1.914062 -10.109375 2 -10.109375 C 2.3125 -10.109375 2.679688 -9.992188 3.109375 -9.765625 C 3.148438 -9.753906 3.1875 -9.726562 3.21875 -9.6875 C 3.1875 -9.65625 3.15625 -9.601562 3.125 -9.53125 L 3.078125 -9.4375 C 3.066406 -9.40625 3.054688 -9.378906 3.046875 -9.359375 C 3.015625 -9.347656 2.96875 -9.34375 2.90625 -9.34375 C 2.8125 -9.34375 2.726562 -9.367188 2.65625 -9.421875 C 2.539062 -9.492188 2.410156 -9.53125 2.265625 -9.53125 C 1.929688 -9.53125 1.671875 -9.394531 1.484375 -9.125 C 1.367188 -8.957031 1.25 -8.75 1.125 -8.5 C 1 -8.144531 0.90625 -7.875 0.84375 -7.6875 C 0.769531 -7.382812 0.722656 -7.101562 0.703125 -6.84375 C 0.703125 -6.519531 0.695312 -6.320312 0.6875 -6.25 C 0.675781 -6.113281 0.671875 -5.914062 0.671875 -5.65625 C 0.722656 -4.59375 0.890625 -3.445312 1.171875 -2.21875 C 1.210938 -2.082031 1.265625 -1.867188 1.328125 -1.578125 C 1.429688 -1.304688 1.507812 -1.140625 1.5625 -1.078125 C 1.675781 -0.910156 1.785156 -0.769531 1.890625 -0.65625 C 2.015625 -0.53125 2.144531 -0.46875 2.28125 -0.46875 Z M 2.28125 -0.46875 "/></g></g></g><g fill="#ffffff" fill-opacity="1"><g transform="translate(60.821271, 13.294774)"><g><path d="M 3.71875 -0.140625 C 3.65625 -0.0976562 3.613281 -0.0703125 3.59375 -0.0625 C 3.40625 -0.0195312 3.191406 0 2.953125 0 C 2.523438 0 2.128906 -0.09375 1.765625 -0.28125 C 1.390625 -0.476562 1.09375 -0.753906 0.875 -1.109375 C 0.820312 -1.242188 0.757812 -1.351562 0.6875 -1.4375 C 0.625 -1.5625 0.578125 -1.679688 0.546875 -1.796875 C 0.410156 -2.398438 0.320312 -2.753906 0.28125 -2.859375 C 0.195312 -3.210938 0.148438 -3.570312 0.140625 -3.9375 C 0.148438 -4.03125 0.160156 -4.128906 0.171875 -4.234375 C 0.171875 -4.328125 0.175781 -4.4375 0.1875 -4.5625 C 0.1875 -4.6875 0.1875 -4.785156 0.1875 -4.859375 C 0.207031 -5.054688 0.226562 -5.359375 0.25 -5.765625 C 0.257812 -5.816406 0.265625 -5.890625 0.265625 -5.984375 C 0.273438 -6.035156 0.28125 -6.113281 0.28125 -6.21875 C 0.289062 -6.425781 0.3125 -6.613281 0.34375 -6.78125 C 0.382812 -7.03125 0.425781 -7.210938 0.46875 -7.328125 C 0.488281 -7.367188 0.5 -7.425781 0.5 -7.5 C 0.539062 -7.675781 0.5625 -7.78125 0.5625 -7.8125 C 0.675781 -8.007812 0.785156 -8.226562 0.890625 -8.46875 C 1.078125 -8.851562 1.265625 -9.148438 1.453125 -9.359375 C 1.628906 -9.566406 1.890625 -9.765625 2.234375 -9.953125 C 2.335938 -10.015625 2.445312 -10.046875 2.5625 -10.046875 C 2.78125 -10.046875 3.023438 -10 3.296875 -9.90625 C 3.648438 -9.800781 3.914062 -9.679688 4.09375 -9.546875 C 4.257812 -9.398438 4.414062 -9.175781 4.5625 -8.875 C 4.8125 -8.375 4.953125 -7.847656 4.984375 -7.296875 C 4.992188 -7.140625 5.007812 -6.894531 5.03125 -6.5625 C 5.070312 -6.320312 5.09375 -6.070312 5.09375 -5.8125 C 5.113281 -5.6875 5.125 -5.488281 5.125 -5.21875 L 5.125 -4.625 C 5.125 -4.550781 5.101562 -4.410156 5.0625 -4.203125 C 5.0625 -4.015625 5.050781 -3.863281 5.03125 -3.75 C 5.03125 -3.257812 4.957031 -2.675781 4.8125 -2 C 4.664062 -1.320312 4.472656 -0.847656 4.234375 -0.578125 C 4.117188 -0.441406 3.988281 -0.3125 3.84375 -0.1875 C 3.832031 -0.175781 3.8125 -0.164062 3.78125 -0.15625 C 3.75 -0.15625 3.726562 -0.148438 3.71875 -0.140625 Z M 3.71875 -0.140625 "/></g></g></g><g fill="#ffffff" fill-opacity="1"><g transform="translate(67.871654, 13.294774)"><g><path d="M 0.9375 -8.28125 L 0.9375 -7.15625 C 0.9375 -7.03125 0.9375 -6.84375 0.9375 -6.59375 C 0.914062 -6.34375 0.90625 -6.148438 0.90625 -6.015625 L 0.90625 -0.953125 C 0.90625 -0.941406 0.914062 -0.921875 0.9375 -0.890625 C 0.9375 -0.867188 0.9375 -0.851562 0.9375 -0.84375 C 0.957031 -0.800781 0.96875 -0.753906 0.96875 -0.703125 L 1.109375 -0.703125 C 1.140625 -0.703125 1.175781 -0.703125 1.21875 -0.703125 C 1.25 -0.691406 1.269531 -0.6875 1.28125 -0.6875 L 2.859375 -0.6875 C 3.617188 -0.71875 4.1875 -0.734375 4.5625 -0.734375 C 4.632812 -0.734375 4.675781 -0.710938 4.6875 -0.671875 C 4.738281 -0.640625 4.753906 -0.550781 4.734375 -0.40625 C 4.734375 -0.351562 4.726562 -0.304688 4.71875 -0.265625 C 4.71875 -0.253906 4.71875 -0.234375 4.71875 -0.203125 C 4.707031 -0.171875 4.703125 -0.144531 4.703125 -0.125 C 4.585938 -0.125 4.515625 -0.113281 4.484375 -0.09375 L 2.671875 -0.09375 C 1.867188 -0.09375 1.265625 -0.0859375 0.859375 -0.078125 C 0.710938 -0.078125 0.570312 -0.0625 0.4375 -0.03125 C 0.3125 -0.03125 0.210938 -0.0625 0.140625 -0.125 C 0.128906 -0.132812 0.113281 -0.148438 0.09375 -0.171875 C 0.0703125 -0.191406 0.0546875 -0.207031 0.046875 -0.21875 C 0.0351562 -0.25 0.046875 -0.296875 0.078125 -0.359375 C 0.117188 -0.410156 0.140625 -0.457031 0.140625 -0.5 C 0.148438 -0.550781 0.15625 -0.613281 0.15625 -0.6875 C 0.164062 -0.820312 0.171875 -1.023438 0.171875 -1.296875 L 0.171875 -3.96875 C 0.179688 -4.4375 0.1875 -5.125 0.1875 -6.03125 L 0.1875 -7.71875 C 0.1875 -7.914062 0.1875 -8.207031 0.1875 -8.59375 C 0.175781 -8.957031 0.171875 -9.238281 0.171875 -9.4375 L 0.171875 -9.625 C 0.191406 -9.707031 0.203125 -9.769531 0.203125 -9.8125 C 0.210938 -9.894531 0.238281 -9.960938 0.28125 -10.015625 C 0.332031 -10.046875 0.378906 -10.066406 0.421875 -10.078125 C 0.453125 -10.078125 0.519531 -10.078125 0.625 -10.078125 L 0.65625 -10.078125 C 0.675781 -10.078125 0.707031 -10.078125 0.75 -10.078125 C 0.769531 -10.066406 0.785156 -10.0625 0.796875 -10.0625 C 0.867188 -9.976562 0.90625 -9.910156 0.90625 -9.859375 C 0.925781 -9.804688 0.9375 -9.722656 0.9375 -9.609375 C 0.9375 -9.535156 0.9375 -9.425781 0.9375 -9.28125 C 0.914062 -9.132812 0.90625 -9.019531 0.90625 -8.9375 C 0.925781 -8.800781 0.9375 -8.582031 0.9375 -8.28125 Z M 0.9375 -8.28125 "/></g></g></g><g fill="#ffffff" fill-opacity="1"><g transform="translate(74.567001, 13.294774)"><g><path d="M 0.9375 -8.28125 L 0.9375 -7.15625 C 0.9375 -7.03125 0.9375 -6.84375 0.9375 -6.59375 C 0.914062 -6.34375 0.90625 -6.148438 0.90625 -6.015625 L 0.90625 -0.953125 C 0.90625 -0.941406 0.914062 -0.921875 0.9375 -0.890625 C 0.9375 -0.867188 0.9375 -0.851562 0.9375 -0.84375 C 0.957031 -0.800781 0.96875 -0.753906 0.96875 -0.703125 L 1.109375 -0.703125 C 1.140625 -0.703125 1.175781 -0.703125 1.21875 -0.703125 C 1.25 -0.691406 1.269531 -0.6875 1.28125 -0.6875 L 2.859375 -0.6875 C 3.617188 -0.71875 4.1875 -0.734375 4.5625 -0.734375 C 4.632812 -0.734375 4.675781 -0.710938 4.6875 -0.671875 C 4.738281 -0.640625 4.753906 -0.550781 4.734375 -0.40625 C 4.734375 -0.351562 4.726562 -0.304688 4.71875 -0.265625 C 4.71875 -0.253906 4.71875 -0.234375 4.71875 -0.203125 C 4.707031 -0.171875 4.703125 -0.144531 4.703125 -0.125 C 4.585938 -0.125 4.515625 -0.113281 4.484375 -0.09375 L 2.671875 -0.09375 C 1.867188 -0.09375 1.265625 -0.0859375 0.859375 -0.078125 C 0.710938 -0.078125 0.570312 -0.0625 0.4375 -0.03125 C 0.3125 -0.03125 0.210938 -0.0625 0.140625 -0.125 C 0.128906 -0.132812 0.113281 -0.148438 0.09375 -0.171875 C 0.0703125 -0.191406 0.0546875 -0.207031 0.046875 -0.21875 C 0.0351562 -0.25 0.046875 -0.296875 0.078125 -0.359375 C 0.117188 -0.410156 0.140625 -0.457031 0.140625 -0.5 C 0.148438 -0.550781 0.15625 -0.613281 0.15625 -0.6875 C 0.164062 -0.820312 0.171875 -1.023438 0.171875 -1.296875 L 0.171875 -3.96875 C 0.179688 -4.4375 0.1875 -5.125 0.1875 -6.03125 L 0.1875 -7.71875 C 0.1875 -7.914062 0.1875 -8.207031 0.1875 -8.59375 C 0.175781 -8.957031 0.171875 -9.238281 0.171875 -9.4375 L 0.171875 -9.625 C 0.191406 -9.707031 0.203125 -9.769531 0.203125 -9.8125 C 0.210938 -9.894531 0.238281 -9.960938 0.28125 -10.015625 C 0.332031 -10.046875 0.378906 -10.066406 0.421875 -10.078125 C 0.453125 -10.078125 0.519531 -10.078125 0.625 -10.078125 L 0.65625 -10.078125 C 0.675781 -10.078125 0.707031 -10.078125 0.75 -10.078125 C 0.769531 -10.066406 0.785156 -10.0625 0.796875 -10.0625 C 0.867188 -9.976562 0.90625 -9.910156 0.90625 -9.859375 C 0.925781 -9.804688 0.9375 -9.722656 0.9375 -9.609375 C 0.9375 -9.535156 0.9375 -9.425781 0.9375 -9.28125 C 0.914062 -9.132812 0.90625 -9.019531 0.90625 -8.9375 C 0.925781 -8.800781 0.9375 -8.582031 0.9375 -8.28125 Z M 0.9375 -8.28125 "/></g></g></g><g fill="#ffffff" fill-opacity="1"><g transform="translate(81.262347, 13.294774)"><g><path d="M 3.125 -0.046875 C 2.957031 -0.046875 2.71875 -0.046875 2.40625 -0.046875 C 2.070312 -0.0351562 1.828125 -0.03125 1.671875 -0.03125 L 0.203125 -0.03125 C 0.160156 -0.195312 0.109375 -0.332031 0.046875 -0.4375 C 0.015625 -0.539062 0.015625 -0.640625 0.046875 -0.734375 C 0.0546875 -0.773438 0.0625 -0.832031 0.0625 -0.90625 C 0.0820312 -0.988281 0.078125 -1.050781 0.046875 -1.09375 L 0.015625 -1.171875 C 0.015625 -1.179688 0.0234375 -1.207031 0.046875 -1.25 C 0.117188 -1.351562 0.15625 -1.441406 0.15625 -1.515625 C 0.164062 -1.585938 0.171875 -1.691406 0.171875 -1.828125 C 0.191406 -3.203125 0.203125 -5.257812 0.203125 -8 L 0.203125 -8.84375 C 0.203125 -8.9375 0.191406 -9.050781 0.171875 -9.1875 C 0.171875 -9.34375 0.175781 -9.453125 0.1875 -9.515625 C 0.21875 -9.578125 0.21875 -9.613281 0.1875 -9.625 C 0.113281 -9.695312 0.0976562 -9.765625 0.140625 -9.828125 C 0.191406 -9.890625 0.1875 -9.972656 0.125 -10.078125 C 0.226562 -10.078125 0.296875 -10.085938 0.328125 -10.109375 C 0.359375 -10.128906 0.40625 -10.140625 0.46875 -10.140625 C 0.507812 -10.140625 0.554688 -10.140625 0.609375 -10.140625 C 0.648438 -10.128906 0.695312 -10.125 0.75 -10.125 C 0.789062 -10.113281 0.832031 -10.101562 0.875 -10.09375 C 0.925781 -10.082031 1 -10.070312 1.09375 -10.0625 C 1.1875 -10.050781 1.253906 -10.046875 1.296875 -10.046875 C 1.410156 -10.046875 1.582031 -10.050781 1.8125 -10.0625 C 2.03125 -10.0625 2.195312 -10.0625 2.3125 -10.0625 C 2.550781 -10.070312 2.890625 -10.078125 3.328125 -10.078125 C 3.410156 -10.078125 3.460938 -10.046875 3.484375 -9.984375 C 3.523438 -9.921875 3.546875 -9.867188 3.546875 -9.828125 C 3.546875 -9.660156 3.453125 -9.578125 3.265625 -9.578125 C 2.421875 -9.578125 1.789062 -9.566406 1.375 -9.546875 L 1.09375 -9.546875 C 1.09375 -9.210938 1.085938 -8.960938 1.078125 -8.796875 C 1.078125 -8.117188 1.066406 -7.613281 1.046875 -7.28125 L 1.046875 -6.546875 C 1.046875 -6.265625 1.035156 -6.046875 1.015625 -5.890625 C 0.992188 -5.660156 0.992188 -5.425781 1.015625 -5.1875 C 1.054688 -5.1875 1.078125 -5.179688 1.078125 -5.171875 C 1.128906 -5.148438 1.160156 -5.140625 1.171875 -5.140625 L 2.078125 -5.140625 C 2.492188 -5.140625 2.804688 -5.132812 3.015625 -5.125 L 3.25 -5.125 C 3.363281 -5.125 3.445312 -5.117188 3.5 -5.109375 L 3.5 -4.828125 C 3.53125 -4.660156 3.46875 -4.578125 3.3125 -4.578125 L 2.6875 -4.578125 C 2.550781 -4.585938 2.332031 -4.59375 2.03125 -4.59375 L 1.53125 -4.59375 C 1.476562 -4.59375 1.394531 -4.59375 1.28125 -4.59375 C 1.164062 -4.582031 1.078125 -4.578125 1.015625 -4.578125 C 0.972656 -3.992188 0.953125 -3.34375 0.953125 -2.625 C 0.972656 -1.894531 0.96875 -1.234375 0.9375 -0.640625 C 1 -0.640625 1.046875 -0.632812 1.078125 -0.625 C 1.097656 -0.625 1.132812 -0.625 1.1875 -0.625 C 1.21875 -0.613281 1.238281 -0.609375 1.25 -0.609375 L 2.265625 -0.609375 C 2.378906 -0.609375 2.546875 -0.613281 2.765625 -0.625 C 2.992188 -0.625 3.164062 -0.625 3.28125 -0.625 C 3.425781 -0.625 3.492188 -0.550781 3.484375 -0.40625 L 3.484375 -0.25 C 3.484375 -0.195312 3.476562 -0.144531 3.46875 -0.09375 C 3.445312 -0.09375 3.390625 -0.0820312 3.296875 -0.0625 C 3.285156 -0.0625 3.265625 -0.0625 3.234375 -0.0625 C 3.179688 -0.0507812 3.144531 -0.046875 3.125 -0.046875 Z M 3.125 -0.046875 "/></g></g></g><g fill="#ffffff" fill-opacity="1"><g transform="translate(86.757315, 13.294774)"><g><path d="M 2.28125 -0.46875 C 2.445312 -0.488281 2.582031 -0.554688 2.6875 -0.671875 C 2.78125 -0.765625 2.84375 -0.84375 2.875 -0.90625 C 2.96875 -1.007812 3.050781 -1.0625 3.125 -1.0625 C 3.195312 -1.0625 3.253906 -1.039062 3.296875 -1 C 3.421875 -0.925781 3.429688 -0.800781 3.328125 -0.625 C 3.148438 -0.226562 2.738281 -0.03125 2.09375 -0.03125 C 1.882812 -0.0390625 1.679688 -0.109375 1.484375 -0.234375 C 1.304688 -0.378906 1.15625 -0.535156 1.03125 -0.703125 C 0.695312 -1.296875 0.441406 -2.085938 0.265625 -3.078125 C 0.242188 -3.316406 0.210938 -3.535156 0.171875 -3.734375 L 0.0625 -4.390625 C 0.0625 -4.441406 0.0546875 -4.503906 0.046875 -4.578125 C 0.0351562 -4.660156 0.0234375 -4.722656 0.015625 -4.765625 C 0.015625 -7.003906 0.257812 -8.519531 0.75 -9.3125 C 0.875 -9.539062 1.050781 -9.734375 1.28125 -9.890625 C 1.445312 -10.023438 1.625 -10.09375 1.8125 -10.09375 C 1.851562 -10.101562 1.914062 -10.109375 2 -10.109375 C 2.3125 -10.109375 2.679688 -9.992188 3.109375 -9.765625 C 3.148438 -9.753906 3.1875 -9.726562 3.21875 -9.6875 C 3.1875 -9.65625 3.15625 -9.601562 3.125 -9.53125 L 3.078125 -9.4375 C 3.066406 -9.40625 3.054688 -9.378906 3.046875 -9.359375 C 3.015625 -9.347656 2.96875 -9.34375 2.90625 -9.34375 C 2.8125 -9.34375 2.726562 -9.367188 2.65625 -9.421875 C 2.539062 -9.492188 2.410156 -9.53125 2.265625 -9.53125 C 1.929688 -9.53125 1.671875 -9.394531 1.484375 -9.125 C 1.367188 -8.957031 1.25 -8.75 1.125 -8.5 C 1 -8.144531 0.90625 -7.875 0.84375 -7.6875 C 0.769531 -7.382812 0.722656 -7.101562 0.703125 -6.84375 C 0.703125 -6.519531 0.695312 -6.320312 0.6875 -6.25 C 0.675781 -6.113281 0.671875 -5.914062 0.671875 -5.65625 C 0.722656 -4.59375 0.890625 -3.445312 1.171875 -2.21875 C 1.210938 -2.082031 1.265625 -1.867188 1.328125 -1.578125 C 1.429688 -1.304688 1.507812 -1.140625 1.5625 -1.078125 C 1.675781 -0.910156 1.785156 -0.769531 1.890625 -0.65625 C 2.015625 -0.53125 2.144531 -0.46875 2.28125 -0.46875 Z M 2.28125 -0.46875 "/></g></g></g><g fill="#ffffff" fill-opacity="1"><g transform="translate(92.11703, 13.294774)"><g><path d="M 2.5625 -8.953125 C 2.5625 -8.929688 2.5625 -8.898438 2.5625 -8.859375 C 2.550781 -8.816406 2.546875 -8.78125 2.546875 -8.75 L 2.546875 -3.953125 C 2.578125 -3.097656 2.59375 -2.457031 2.59375 -2.03125 L 2.59375 -1.375 C 2.601562 -1.238281 2.609375 -1.015625 2.609375 -0.703125 C 2.609375 -0.648438 2.617188 -0.578125 2.640625 -0.484375 C 2.679688 -0.429688 2.738281 -0.390625 2.8125 -0.359375 C 2.75 -0.335938 2.707031 -0.296875 2.6875 -0.234375 C 2.582031 -0.0976562 2.46875 -0.03125 2.34375 -0.03125 C 2.300781 -0.03125 2.238281 -0.0351562 2.15625 -0.046875 C 2.070312 -0.0546875 2.007812 -0.0664062 1.96875 -0.078125 C 1.84375 -0.128906 1.78125 -0.222656 1.78125 -0.359375 C 1.789062 -0.554688 1.796875 -0.835938 1.796875 -1.203125 C 1.804688 -1.390625 1.8125 -1.675781 1.8125 -2.0625 L 1.8125 -2.640625 C 1.8125 -2.703125 1.8125 -2.800781 1.8125 -2.9375 C 1.800781 -3.0625 1.796875 -3.15625 1.796875 -3.21875 C 1.796875 -3.332031 1.796875 -3.507812 1.796875 -3.75 C 1.785156 -3.988281 1.78125 -4.171875 1.78125 -4.296875 C 1.800781 -4.671875 1.800781 -5.035156 1.78125 -5.390625 C 1.78125 -5.679688 1.773438 -5.898438 1.765625 -6.046875 C 1.765625 -6.210938 1.75 -6.441406 1.71875 -6.734375 C 1.71875 -6.804688 1.722656 -6.859375 1.734375 -6.890625 C 1.773438 -6.953125 1.785156 -7.007812 1.765625 -7.0625 C 1.734375 -7.15625 1.71875 -7.285156 1.71875 -7.453125 C 1.75 -7.628906 1.769531 -7.757812 1.78125 -7.84375 C 1.8125 -8.050781 1.8125 -8.242188 1.78125 -8.421875 C 1.769531 -8.484375 1.753906 -8.578125 1.734375 -8.703125 C 1.710938 -8.828125 1.695312 -8.925781 1.6875 -9 C 1.6875 -9.125 1.613281 -9.1875 1.46875 -9.1875 L 1 -9.1875 C 0.957031 -9.1875 0.882812 -9.1875 0.78125 -9.1875 C 0.664062 -9.164062 0.582031 -9.15625 0.53125 -9.15625 L 0.375 -9.15625 C 0.363281 -9.15625 0.347656 -9.15625 0.328125 -9.15625 C 0.285156 -9.144531 0.253906 -9.140625 0.234375 -9.140625 C 0.0664062 -9.140625 -0.00390625 -9.234375 0.015625 -9.421875 L 0.015625 -9.8125 C -0.00390625 -9.914062 0.03125 -9.96875 0.125 -9.96875 C 0.164062 -10 0.234375 -10.015625 0.328125 -10.015625 C 0.429688 -10.035156 0.503906 -10.046875 0.546875 -10.046875 L 2.34375 -10.046875 C 2.820312 -10.066406 3.535156 -10.078125 4.484375 -10.078125 C 4.546875 -10.078125 4.601562 -10.070312 4.65625 -10.0625 C 4.707031 -10.0625 4.765625 -10.050781 4.828125 -10.03125 C 4.859375 -9.925781 4.882812 -9.785156 4.90625 -9.609375 C 4.9375 -9.472656 4.9375 -9.335938 4.90625 -9.203125 L 2.5625 -9.203125 Z M 2.5625 -8.953125 "/></g></g></g><g fill="#ffffff" fill-opacity="1"><g transform="translate(99.015252, 13.294774)"><g><path d="M 3.71875 -0.140625 C 3.65625 -0.0976562 3.613281 -0.0703125 3.59375 -0.0625 C 3.40625 -0.0195312 3.191406 0 2.953125 0 C 2.523438 0 2.128906 -0.09375 1.765625 -0.28125 C 1.390625 -0.476562 1.09375 -0.753906 0.875 -1.109375 C 0.820312 -1.242188 0.757812 -1.351562 0.6875 -1.4375 C 0.625 -1.5625 0.578125 -1.679688 0.546875 -1.796875 C 0.410156 -2.398438 0.320312 -2.753906 0.28125 -2.859375 C 0.195312 -3.210938 0.148438 -3.570312 0.140625 -3.9375 C 0.148438 -4.03125 0.160156 -4.128906 0.171875 -4.234375 C 0.171875 -4.328125 0.175781 -4.4375 0.1875 -4.5625 C 0.1875 -4.6875 0.1875 -4.785156 0.1875 -4.859375 C 0.207031 -5.054688 0.226562 -5.359375 0.25 -5.765625 C 0.257812 -5.816406 0.265625 -5.890625 0.265625 -5.984375 C 0.273438 -6.035156 0.28125 -6.113281 0.28125 -6.21875 C 0.289062 -6.425781 0.3125 -6.613281 0.34375 -6.78125 C 0.382812 -7.03125 0.425781 -7.210938 0.46875 -7.328125 C 0.488281 -7.367188 0.5 -7.425781 0.5 -7.5 C 0.539062 -7.675781 0.5625 -7.78125 0.5625 -7.8125 C 0.675781 -8.007812 0.785156 -8.226562 0.890625 -8.46875 C 1.078125 -8.851562 1.265625 -9.148438 1.453125 -9.359375 C 1.628906 -9.566406 1.890625 -9.765625 2.234375 -9.953125 C 2.335938 -10.015625 2.445312 -10.046875 2.5625 -10.046875 C 2.78125 -10.046875 3.023438 -10 3.296875 -9.90625 C 3.648438 -9.800781 3.914062 -9.679688 4.09375 -9.546875 C 4.257812 -9.398438 4.414062 -9.175781 4.5625 -8.875 C 4.8125 -8.375 4.953125 -7.847656 4.984375 -7.296875 C 4.992188 -7.140625 5.007812 -6.894531 5.03125 -6.5625 C 5.070312 -6.320312 5.09375 -6.070312 5.09375 -5.8125 C 5.113281 -5.6875 5.125 -5.488281 5.125 -5.21875 L 5.125 -4.625 C 5.125 -4.550781 5.101562 -4.410156 5.0625 -4.203125 C 5.0625 -4.015625 5.050781 -3.863281 5.03125 -3.75 C 5.03125 -3.257812 4.957031 -2.675781 4.8125 -2 C 4.664062 -1.320312 4.472656 -0.847656 4.234375 -0.578125 C 4.117188 -0.441406 3.988281 -0.3125 3.84375 -0.1875 C 3.832031 -0.175781 3.8125 -0.164062 3.78125 -0.15625 C 3.75 -0.15625 3.726562 -0.148438 3.71875 -0.140625 Z M 3.71875 -0.140625 "/></g></g></g><g fill="#ffffff" fill-opacity="1"><g transform="translate(106.065646, 13.294774)"><g><path d="M 3.390625 -6.6875 C 3.347656 -6.46875 3.253906 -6.253906 3.109375 -6.046875 C 2.953125 -5.847656 2.8125 -5.691406 2.6875 -5.578125 C 2.5625 -5.460938 2.375 -5.316406 2.125 -5.140625 C 2.101562 -5.117188 2.082031 -5.101562 2.0625 -5.09375 C 2.050781 -5.09375 2.03125 -5.070312 2 -5.03125 C 2.019531 -4.988281 2.066406 -4.816406 2.140625 -4.515625 C 2.191406 -4.398438 2.25 -4.21875 2.3125 -3.96875 C 2.414062 -3.675781 2.554688 -3.238281 2.734375 -2.65625 L 3.1875 -1.328125 C 3.207031 -1.296875 3.257812 -1.148438 3.34375 -0.890625 C 3.40625 -0.785156 3.460938 -0.632812 3.515625 -0.4375 C 3.546875 -0.34375 3.554688 -0.28125 3.546875 -0.25 C 3.546875 -0.21875 3.492188 -0.179688 3.390625 -0.140625 C 3.378906 -0.128906 3.367188 -0.125 3.359375 -0.125 C 3.347656 -0.125 3.335938 -0.113281 3.328125 -0.09375 C 3.203125 -0.0507812 3.128906 -0.0351562 3.109375 -0.046875 C 3.078125 -0.078125 3.039062 -0.140625 3 -0.234375 C 2.957031 -0.390625 2.875 -0.628906 2.75 -0.953125 C 2.695312 -1.128906 2.566406 -1.523438 2.359375 -2.140625 C 2.179688 -2.679688 2.050781 -3.082031 1.96875 -3.34375 C 1.832031 -3.769531 1.75 -4.019531 1.71875 -4.09375 C 1.65625 -4.363281 1.570312 -4.609375 1.46875 -4.828125 C 1.445312 -4.847656 1.328125 -4.867188 1.109375 -4.890625 C 1.023438 -4.910156 0.90625 -4.929688 0.75 -4.953125 C 0.75 -4.910156 0.75 -4.84375 0.75 -4.75 C 0.738281 -4.644531 0.734375 -4.570312 0.734375 -4.53125 L 0.734375 -4.140625 C 0.734375 -3.398438 0.71875 -2.847656 0.6875 -2.484375 L 0.6875 -2.25 C 0.695312 -2.207031 0.703125 -2.128906 0.703125 -2.015625 L 0.703125 -1.203125 C 0.722656 -1.023438 0.734375 -0.75 0.734375 -0.375 C 0.734375 -0.238281 0.703125 -0.15625 0.640625 -0.125 C 0.585938 -0.0703125 0.492188 -0.046875 0.359375 -0.046875 C 0.242188 -0.078125 0.179688 -0.09375 0.171875 -0.09375 C 0.0976562 -0.144531 0.0390625 -0.175781 0 -0.1875 C 0.0078125 -0.21875 0.0195312 -0.269531 0.03125 -0.34375 C 0.0390625 -0.394531 0.046875 -0.425781 0.046875 -0.4375 C 0.0664062 -0.5 0.078125 -0.570312 0.078125 -0.65625 C 0.109375 -1.082031 0.125 -1.734375 0.125 -2.609375 L 0.125 -3.75 C 0.125 -3.882812 0.128906 -4.082031 0.140625 -4.34375 C 0.140625 -4.59375 0.140625 -4.78125 0.140625 -4.90625 C 0.179688 -6.257812 0.203125 -7.265625 0.203125 -7.921875 C 0.222656 -8.316406 0.226562 -8.601562 0.21875 -8.78125 C 0.21875 -8.875 0.21875 -9.019531 0.21875 -9.21875 C 0.207031 -9.40625 0.203125 -9.546875 0.203125 -9.640625 L 0.203125 -9.78125 C 0.210938 -9.820312 0.21875 -9.875 0.21875 -9.9375 C 0.300781 -9.945312 0.421875 -9.960938 0.578125 -9.984375 C 0.722656 -10.015625 0.832031 -10.035156 0.90625 -10.046875 C 1.070312 -10.066406 1.191406 -10.078125 1.265625 -10.078125 C 1.359375 -10.078125 1.472656 -10.066406 1.609375 -10.046875 C 1.890625 -10.023438 2.039062 -10.003906 2.0625 -9.984375 C 2.21875 -9.972656 2.359375 -9.90625 2.484375 -9.78125 C 2.753906 -9.601562 2.960938 -9.378906 3.109375 -9.109375 C 3.265625 -8.867188 3.359375 -8.578125 3.390625 -8.234375 C 3.421875 -8.117188 3.4375 -8.039062 3.4375 -8 C 3.457031 -7.90625 3.46875 -7.820312 3.46875 -7.75 C 3.5 -7.363281 3.472656 -7.007812 3.390625 -6.6875 Z M 3.390625 -6.6875 "/></g></g></g></g></g><g transform="matrix(1, 0, 0, 1, 155, 152)"><g clip-path="url(#9f11b048b6)"><g fill="#ffffff" fill-opacity="1"><g transform="translate(0.630561, 97.321253)"><g><path d="M 2.875 -22.390625 L 3.75 -30.453125 C 16.914062 -28.609375 26.625 -27.941406 32.875 -28.453125 C 39.132812 -28.972656 42.300781 -32.101562 42.375 -37.84375 C 42.445312 -43.0625 38.710938 -45.890625 31.171875 -46.328125 C 23.628906 -46.773438 16.4375 -46.117188 9.59375 -44.359375 C 4.957031 -43.617188 2.640625 -45.75 2.640625 -50.75 L 2.640625 -67.75 C 2.640625 -69.289062 3.171875 -70.59375 4.234375 -71.65625 C 5.304688 -72.726562 6.617188 -73.265625 8.171875 -73.265625 L 58.375 -73.265625 C 58.375 -68.117188 56.09375 -65.546875 51.53125 -65.546875 L 19.09375 -65.546875 L 19.09375 -53.40625 C 23.351562 -54.207031 28.644531 -54.550781 34.96875 -54.4375 C 41.300781 -54.332031 46.929688 -52.9375 51.859375 -50.25 C 56.785156 -47.570312 59.285156 -43.328125 59.359375 -37.515625 C 59.503906 -30.816406 56.820312 -25.925781 51.3125 -22.84375 C 46.375 -20.5625 38.515625 -19.546875 27.734375 -19.796875 C 16.960938 -20.054688 8.675781 -20.921875 2.875 -22.390625 Z M 2.875 -22.390625 "/></g></g></g></g></g></svg>