<svg xmlns="http://www.w3.org/2000/svg" xmlns:xlink="http://www.w3.org/1999/xlink" width="500" zoomAndPan="magnify" viewBox="0 0 375 374.999991" height="500" preserveAspectRatio="xMidYMid meet" version="1.0"><defs><filter x="0%" y="0%" width="100%" height="100%" id="315173a9ff"><feColorMatrix values="0 0 0 0 1 0 0 0 0 1 0 0 0 0 1 0 0 0 1 0" color-interpolation-filters="sRGB"/></filter><clipPath id="9a3e3b68d9"><path d="M 20.324219 33 L 375 33 L 375 375 L 20.324219 375 Z M 20.324219 33 " clip-rule="nonzero"/></clipPath><clipPath id="a1c83aaa28"><path d="M 20.324219 220.351562 C 22.5 189.824219 25.425781 182.773438 27.148438 175.425781 C 28.949219 168.074219 29.699219 160.574219 31.949219 153.226562 C 34.199219 145.648438 38.023438 136.351562 40.726562 130.648438 C 42.449219 126.976562 44.925781 123.824219 45.75 121.949219 C 46.125 121.125 46.125 120.675781 46.351562 120 C 46.574219 119.175781 47.101562 117.523438 47.101562 117.449219 C 47.175781 117.449219 48.074219 115.949219 48.523438 115.199219 C 48.976562 114.449219 49.875 112.949219 49.875 112.875 C 49.949219 112.875 51.300781 111.523438 51.75 111 C 52.125 110.625 52.199219 110.625 52.648438 110.101562 C 54.449219 108 60.75 98.398438 65.398438 92.699219 C 70.273438 86.699219 75.523438 79.5 81.226562 75 C 86.25 71.101562 92.925781 69.375 97.273438 66.375 C 100.648438 64.125 102.148438 61.875 105.601562 59.398438 C 110.550781 55.726562 117.898438 50.851562 124.648438 47.324219 C 131.773438 43.648438 139.726562 40.199219 147.449219 37.875 C 154.949219 35.699219 162.601562 34.425781 170.25 33.675781 C 177.824219 32.851562 185.398438 33.148438 193.050781 33.148438 C 200.851562 33.148438 208.800781 33.148438 216.523438 33.601562 C 224.023438 34.050781 231.300781 34.726562 238.574219 35.773438 C 245.925781 36.824219 253.273438 38.324219 260.550781 39.898438 C 267.824219 41.398438 275.25 42.601562 282.226562 45 C 289.351562 47.398438 296.699219 49.949219 302.925781 54.226562 C 309.449219 58.648438 314.925781 65.476562 320.398438 71.324219 C 325.726562 76.949219 330.226562 82.949219 335.25 88.574219 C 340.199219 94.199219 346.050781 98.851562 350.324219 104.925781 C 354.675781 111 358.425781 117.976562 361.199219 125.023438 C 363.976562 132.074219 364.800781 139.800781 366.976562 147.148438 C 369.226562 154.425781 372.300781 161.550781 374.398438 168.824219 C 376.425781 176.023438 378.824219 183.074219 379.273438 190.5 C 379.800781 198.074219 377.851562 206.023438 376.949219 213.824219 C 375.976562 221.699219 374.773438 229.875 373.5 237.75 C 372.226562 245.398438 371.324219 253.050781 369.226562 260.398438 C 367.125 267.898438 364.425781 275.324219 360.824219 282.226562 C 357.074219 289.273438 351.976562 295.875 347.25 302.25 C 342.675781 308.324219 338.175781 314.175781 333 319.648438 C 327.75 325.199219 322.351562 330.449219 316.050781 335.25 C 309.148438 340.574219 297.976562 347.476562 292.800781 349.800781 C 290.476562 350.925781 289.726562 350.625 287.398438 351.523438 C 282.75 353.175781 274.425781 357.375 267.375 359.699219 C 259.949219 362.25 247.351562 365.101562 243.675781 365.773438 C 242.625 366 242.550781 365.851562 241.5 366.148438 C 238.574219 366.824219 230.773438 370.125 224.773438 371.851562 C 217.949219 373.875 210.148438 376.351562 202.648438 377.101562 C 195 377.925781 187.050781 377.175781 179.324219 376.726562 C 171.675781 376.273438 163.949219 375.824219 156.523438 374.398438 C 149.101562 372.976562 141.824219 371.023438 134.773438 368.101562 C 127.5 365.023438 116.476562 357.976562 113.625 356.101562 C 112.875 355.648438 112.949219 355.5 112.273438 355.050781 C 111.074219 354.375 109.050781 353.625 106.648438 352.273438 C 102 349.800781 92.773438 345.148438 86.699219 340.574219 C 80.699219 336.148438 75.601562 330.75 70.273438 325.273438 C 64.800781 319.726562 59.023438 313.800781 54.148438 307.574219 C 49.5 301.5 45.375 295.273438 41.625 288.601562 C 37.875 281.773438 34.726562 274.351562 31.800781 267 C 28.875 259.648438 26.023438 252.375 24.148438 244.726562 C 22.199219 236.851562 20.324219 220.351562 20.324219 220.351562 " clip-rule="nonzero"/></clipPath><mask id="0e8638a740"><g filter="url(#315173a9ff)"><rect x="-37.5" width="450" fill="#000000" y="-37.499999" height="449.999989" fill-opacity="0.5"/></g></mask><clipPath id="d696ba1100"><path d="M 0.324219 0 L 355 0 L 355 342 L 0.324219 342 Z M 0.324219 0 " clip-rule="nonzero"/></clipPath><clipPath id="3fd9b6f097"><path d="M 0.324219 187.351562 C 2.5 156.824219 5.425781 149.773438 7.148438 142.425781 C 8.949219 135.074219 9.699219 127.574219 11.949219 120.226562 C 14.199219 112.648438 18.023438 103.351562 20.726562 97.648438 C 22.449219 93.976562 24.925781 90.824219 25.75 88.949219 C 26.125 88.125 26.125 87.675781 26.351562 87 C 26.574219 86.175781 27.101562 84.523438 27.101562 84.449219 C 27.175781 84.449219 28.074219 82.949219 28.523438 82.199219 C 28.976562 81.449219 29.875 79.949219 29.875 79.875 C 29.949219 79.875 31.300781 78.523438 31.75 78 C 32.125 77.625 32.199219 77.625 32.648438 77.101562 C 34.449219 75 40.75 65.398438 45.398438 59.699219 C 50.273438 53.699219 55.523438 46.5 61.226562 42 C 66.25 38.101562 72.925781 36.375 77.273438 33.375 C 80.648438 31.125 82.148438 28.875 85.601562 26.398438 C 90.550781 22.726562 97.898438 17.851562 104.648438 14.324219 C 111.773438 10.648438 119.726562 7.199219 127.449219 4.875 C 134.949219 2.699219 142.601562 1.425781 150.25 0.675781 C 157.824219 -0.148438 165.398438 0.148438 173.050781 0.148438 C 180.851562 0.148438 188.800781 0.148438 196.523438 0.601562 C 204.023438 1.050781 211.300781 1.726562 218.574219 2.773438 C 225.925781 3.824219 233.273438 5.324219 240.550781 6.898438 C 247.824219 8.398438 255.25 9.601562 262.226562 12 C 269.351562 14.398438 276.699219 16.949219 282.925781 21.226562 C 289.449219 25.648438 294.925781 32.476562 300.398438 38.324219 C 305.726562 43.949219 310.226562 49.949219 315.25 55.574219 C 320.199219 61.199219 326.050781 65.851562 330.324219 71.925781 C 334.675781 78 338.425781 84.976562 341.199219 92.023438 C 343.976562 99.074219 344.800781 106.800781 346.976562 114.148438 C 349.226562 121.425781 352.300781 128.550781 354.398438 135.824219 C 356.425781 143.023438 358.824219 150.074219 359.273438 157.5 C 359.800781 165.074219 357.851562 173.023438 356.949219 180.824219 C 355.976562 188.699219 354.773438 196.875 353.5 204.75 C 352.226562 212.398438 351.324219 220.050781 349.226562 227.398438 C 347.125 234.898438 344.425781 242.324219 340.824219 249.226562 C 337.074219 256.273438 331.976562 262.875 327.25 269.25 C 322.675781 275.324219 318.175781 281.175781 313 286.648438 C 307.75 292.199219 302.351562 297.449219 296.050781 302.25 C 289.148438 307.574219 277.976562 314.476562 272.800781 316.800781 C 270.476562 317.925781 269.726562 317.625 267.398438 318.523438 C 262.75 320.175781 254.425781 324.375 247.375 326.699219 C 239.949219 329.25 227.351562 332.101562 223.675781 332.773438 C 222.625 333 222.550781 332.851562 221.5 333.148438 C 218.574219 333.824219 210.773438 337.125 204.773438 338.851562 C 197.949219 340.875 190.148438 343.351562 182.648438 344.101562 C 175 344.925781 167.050781 344.175781 159.324219 343.726562 C 151.675781 343.273438 143.949219 342.824219 136.523438 341.398438 C 129.101562 339.976562 121.824219 338.023438 114.773438 335.101562 C 107.5 332.023438 96.476562 324.976562 93.625 323.101562 C 92.875 322.648438 92.949219 322.5 92.273438 322.050781 C 91.074219 321.375 89.050781 320.625 86.648438 319.273438 C 82 316.800781 72.773438 312.148438 66.699219 307.574219 C 60.699219 303.148438 55.601562 297.75 50.273438 292.273438 C 44.800781 286.726562 39.023438 280.800781 34.148438 274.574219 C 29.5 268.5 25.375 262.273438 21.625 255.601562 C 17.875 248.773438 14.726562 241.351562 11.800781 234 C 8.875 226.648438 6.023438 219.375 4.148438 211.726562 C 2.199219 203.851562 0.324219 187.351562 0.324219 187.351562 " clip-rule="nonzero"/></clipPath><clipPath id="611416d29d"><rect x="0" width="355" y="0" height="342"/></clipPath><clipPath id="cd326e1019"><path d="M 140.816406 142 L 164.65625 142 L 164.65625 167.632812 L 140.816406 167.632812 Z M 140.816406 142 " clip-rule="nonzero"/></clipPath><clipPath id="f95bb2dbee"><path d="M 140.925781 156.226562 C 142.351562 148.351562 143.925781 145.875 145.351562 145.050781 C 146.398438 144.449219 148.199219 144.976562 148.648438 144.601562 C 148.875 144.523438 148.726562 144.300781 148.949219 144.148438 C 149.699219 143.550781 153.300781 141.675781 155.023438 142.050781 C 156.601562 142.425781 158.324219 145.726562 159.074219 146.175781 C 159.300781 146.324219 159.375 146.25 159.601562 146.398438 C 159.824219 146.476562 160.273438 146.925781 160.351562 146.925781 C 160.351562 146.925781 160.351562 147 160.351562 147 C 160.425781 147 160.648438 147.148438 160.726562 147.226562 C 160.949219 147.523438 161.398438 148.199219 161.550781 148.5 C 161.625 148.648438 161.625 148.800781 161.625 148.875 C 161.699219 148.875 161.699219 148.875 161.699219 148.949219 C 161.773438 148.949219 161.699219 148.949219 161.773438 149.023438 C 161.925781 149.476562 164.324219 151.800781 164.550781 153.226562 C 164.699219 154.425781 163.425781 156.601562 163.425781 157.050781 C 163.425781 157.125 163.425781 157.125 163.425781 157.199219 C 163.425781 157.425781 163.125 157.875 163.050781 158.25 C 162.898438 158.699219 162.75 159.523438 162.601562 159.675781 C 162.523438 159.75 162.523438 159.75 162.449219 159.824219 C 162.148438 160.199219 161.773438 162.449219 161.101562 163.199219 C 160.574219 163.800781 159.375 163.949219 158.925781 164.324219 C 158.625 164.550781 158.625 164.851562 158.398438 165.074219 C 158.175781 165.375 157.875 165.601562 157.574219 165.824219 C 157.199219 166.050781 156.523438 166.351562 156.523438 166.351562 C 156.523438 166.351562 155.625 167.175781 154.800781 167.324219 C 153.300781 167.699219 149.476562 167.851562 147.449219 166.949219 C 145.574219 166.125 143.925781 164.324219 142.875 162.523438 C 141.75 160.726562 140.925781 156.226562 140.925781 156.226562 " clip-rule="nonzero"/></clipPath><clipPath id="62a7400fd5"><path d="M 0.878906 0 L 24.65625 0 L 24.65625 25.632812 L 0.878906 25.632812 Z M 0.878906 0 " clip-rule="nonzero"/></clipPath><clipPath id="421e0deb92"><path d="M 0.925781 14.226562 C 2.351562 6.351562 3.925781 3.875 5.351562 3.050781 C 6.398438 2.449219 8.199219 2.976562 8.648438 2.601562 C 8.875 2.523438 8.726562 2.300781 8.949219 2.148438 C 9.699219 1.550781 13.300781 -0.324219 15.023438 0.0507812 C 16.601562 0.425781 18.324219 3.726562 19.074219 4.175781 C 19.300781 4.324219 19.375 4.25 19.601562 4.398438 C 19.824219 4.476562 20.273438 4.925781 20.351562 4.925781 C 20.351562 4.925781 20.351562 5 20.351562 5 C 20.425781 5 20.648438 5.148438 20.726562 5.226562 C 20.949219 5.523438 21.398438 6.199219 21.550781 6.5 C 21.625 6.648438 21.625 6.800781 21.625 6.875 C 21.699219 6.875 21.699219 6.875 21.699219 6.949219 C 21.773438 6.949219 21.699219 6.949219 21.773438 7.023438 C 21.925781 7.476562 24.324219 9.800781 24.550781 11.226562 C 24.699219 12.425781 23.425781 14.601562 23.425781 15.050781 C 23.425781 15.125 23.425781 15.125 23.425781 15.199219 C 23.425781 15.425781 23.125 15.875 23.050781 16.25 C 22.898438 16.699219 22.75 17.523438 22.601562 17.675781 C 22.523438 17.75 22.523438 17.75 22.449219 17.824219 C 22.148438 18.199219 21.773438 20.449219 21.101562 21.199219 C 20.574219 21.800781 19.375 21.949219 18.925781 22.324219 C 18.625 22.550781 18.625 22.851562 18.398438 23.074219 C 18.175781 23.375 17.875 23.601562 17.574219 23.824219 C 17.199219 24.050781 16.523438 24.351562 16.523438 24.351562 C 16.523438 24.351562 15.625 25.175781 14.800781 25.324219 C 13.300781 25.699219 9.476562 25.851562 7.449219 24.949219 C 5.574219 24.125 3.925781 22.324219 2.875 20.523438 C 1.75 18.726562 0.925781 14.226562 0.925781 14.226562 " clip-rule="nonzero"/></clipPath><clipPath id="4c64a2fc1f"><rect x="0" width="25" y="0" height="26"/></clipPath><clipPath id="ced1ebecdc"><path d="M 249.988281 129.351562 L 273.816406 129.351562 L 273.816406 156.617188 L 249.988281 156.617188 Z M 249.988281 129.351562 " clip-rule="nonzero"/></clipPath><clipPath id="c964876a07"><path d="M 250.125 145.125 C 250.199219 143.550781 250.125 143.476562 250.199219 143.398438 C 250.199219 143.324219 250.199219 143.398438 250.199219 143.324219 C 250.273438 142.949219 249.601562 138.148438 250.351562 137.25 C 250.875 136.726562 252.074219 137.324219 252.824219 136.949219 C 253.648438 136.5 254.324219 135.375 254.851562 134.550781 C 255.449219 133.726562 255.375 132.675781 256.199219 131.925781 C 257.398438 130.800781 260.101562 129.375 262.125 129.375 C 264.375 129.300781 268.574219 131.476562 269.101562 132 C 269.25 132.148438 269.175781 132.226562 269.25 132.300781 C 269.324219 132.375 269.476562 132.300781 269.550781 132.375 C 270.148438 132.824219 272.398438 135.449219 273.074219 137.398438 C 273.824219 139.648438 273.976562 142.875 273.449219 145.125 C 272.851562 147.148438 270.601562 150.148438 270.074219 150.523438 C 270 150.601562 270 150.601562 269.925781 150.601562 C 269.773438 150.75 269.625 151.199219 269.398438 151.5 C 269.101562 151.726562 268.574219 152.25 268.574219 152.25 C 268.574219 152.25 268.050781 153.300781 267.449219 153.824219 C 266.25 154.800781 263.398438 156.226562 261.300781 156.449219 C 259.125 156.675781 256.425781 156.449219 254.625 155.324219 C 252.824219 154.199219 251.101562 151.425781 250.425781 149.550781 C 249.898438 148.125 250.425781 145.726562 250.273438 145.273438 C 250.199219 145.199219 250.125 145.125 250.125 145.125 " clip-rule="nonzero"/></clipPath><clipPath id="1b205b7932"><path d="M 0.988281 0.351562 L 24.816406 0.351562 L 24.816406 27.617188 L 0.988281 27.617188 Z M 0.988281 0.351562 " clip-rule="nonzero"/></clipPath><clipPath id="fecf7302ee"><path d="M 1.125 16.125 C 1.199219 14.550781 1.125 14.476562 1.199219 14.398438 C 1.199219 14.324219 1.199219 14.398438 1.199219 14.324219 C 1.273438 13.949219 0.601562 9.148438 1.351562 8.25 C 1.875 7.726562 3.074219 8.324219 3.824219 7.949219 C 4.648438 7.5 5.324219 6.375 5.851562 5.550781 C 6.449219 4.726562 6.375 3.675781 7.199219 2.925781 C 8.398438 1.800781 11.101562 0.375 13.125 0.375 C 15.375 0.300781 19.574219 2.476562 20.101562 3 C 20.25 3.148438 20.175781 3.226562 20.25 3.300781 C 20.324219 3.375 20.476562 3.300781 20.550781 3.375 C 21.148438 3.824219 23.398438 6.449219 24.074219 8.398438 C 24.824219 10.648438 24.976562 13.875 24.449219 16.125 C 23.851562 18.148438 21.601562 21.148438 21.074219 21.523438 C 21 21.601562 21 21.601562 20.925781 21.601562 C 20.773438 21.75 20.625 22.199219 20.398438 22.5 C 20.101562 22.726562 19.574219 23.25 19.574219 23.25 C 19.574219 23.25 19.050781 24.300781 18.449219 24.824219 C 17.25 25.800781 14.398438 27.226562 12.300781 27.449219 C 10.125 27.675781 7.425781 27.449219 5.625 26.324219 C 3.824219 25.199219 2.101562 22.425781 1.425781 20.550781 C 0.898438 19.125 1.425781 16.726562 1.273438 16.273438 C 1.199219 16.199219 1.125 16.125 1.125 16.125 " clip-rule="nonzero"/></clipPath><clipPath id="14644b99b2"><rect x="0" width="25" y="0" height="28"/></clipPath><clipPath id="e5340de62a"><path d="M 177.859375 189.484375 L 234.785156 189.484375 L 234.785156 215.816406 L 177.859375 215.816406 Z M 177.859375 189.484375 " clip-rule="nonzero"/></clipPath><clipPath id="ad59ed0b3f"><path d="M 186.976562 192.074219 C 194.476562 200.699219 196.5 201.976562 198.601562 202.949219 C 200.625 203.851562 202.800781 204.449219 204.976562 204.601562 C 207.148438 204.824219 209.25 205.050781 211.574219 204.074219 C 215.023438 202.648438 219.449219 196.648438 222.898438 194.476562 C 225.300781 192.976562 227.851562 191.550781 229.648438 191.398438 C 230.773438 191.25 231.675781 191.476562 232.5 191.925781 C 233.25 192.375 234.074219 193.199219 234.375 194.101562 C 234.75 195.226562 234.601562 197.25 234 198.300781 C 233.550781 199.125 232.726562 199.800781 231.75 200.101562 C 230.625 200.398438 228.601562 200.101562 227.625 199.425781 C 226.800781 198.976562 226.199219 198 225.898438 197.101562 C 225.675781 196.273438 225.75 195.074219 226.050781 194.25 C 226.351562 193.425781 227.101562 192.523438 227.851562 192 C 228.601562 191.550781 229.726562 191.175781 230.625 191.324219 C 231.824219 191.550781 233.550781 192.601562 234.148438 193.648438 C 234.75 194.699219 234.898438 196.273438 234.226562 197.851562 C 233.023438 201 226.726562 206.550781 223.351562 209.398438 C 220.875 211.5 218.773438 213.074219 216.300781 214.125 C 213.976562 215.101562 211.425781 215.476562 208.949219 215.699219 C 206.476562 215.851562 203.851562 215.625 201.449219 215.175781 C 199.351562 214.800781 197.476562 214.351562 195.449219 213.523438 C 193.351562 212.625 191.023438 211.199219 189.148438 209.851562 C 187.351562 208.574219 185.773438 207.300781 184.273438 205.726562 C 182.550781 203.925781 180.523438 201.75 179.476562 199.648438 C 178.5 197.625 177.824219 194.925781 177.976562 193.425781 C 178.050781 192.523438 178.425781 191.925781 179.023438 191.324219 C 179.699219 190.574219 180.976562 189.75 182.023438 189.601562 C 183.074219 189.449219 184.5 189.898438 185.398438 190.351562 C 186.074219 190.800781 186.976562 192.074219 186.976562 192.074219 " clip-rule="nonzero"/></clipPath><clipPath id="8fc6d9b763"><path d="M 0.859375 0.484375 L 57.785156 0.484375 L 57.785156 26.816406 L 0.859375 26.816406 Z M 0.859375 0.484375 " clip-rule="nonzero"/></clipPath><clipPath id="f3337272ba"><path d="M 9.976562 3.074219 C 17.476562 11.699219 19.5 12.976562 21.601562 13.949219 C 23.625 14.851562 25.800781 15.449219 27.976562 15.601562 C 30.148438 15.824219 32.25 16.050781 34.574219 15.074219 C 38.023438 13.648438 42.449219 7.648438 45.898438 5.476562 C 48.300781 3.976562 50.851562 2.550781 52.648438 2.398438 C 53.773438 2.25 54.675781 2.476562 55.5 2.925781 C 56.25 3.375 57.074219 4.199219 57.375 5.101562 C 57.75 6.226562 57.601562 8.25 57 9.300781 C 56.550781 10.125 55.726562 10.800781 54.75 11.101562 C 53.625 11.398438 51.601562 11.101562 50.625 10.425781 C 49.800781 9.976562 49.199219 9 48.898438 8.101562 C 48.675781 7.273438 48.75 6.074219 49.050781 5.25 C 49.351562 4.425781 50.101562 3.523438 50.851562 3 C 51.601562 2.550781 52.726562 2.175781 53.625 2.324219 C 54.824219 2.550781 56.550781 3.601562 57.148438 4.648438 C 57.75 5.699219 57.898438 7.273438 57.226562 8.851562 C 56.023438 12 49.726562 17.550781 46.351562 20.398438 C 43.875 22.5 41.773438 24.074219 39.300781 25.125 C 36.976562 26.101562 34.425781 26.476562 31.949219 26.699219 C 29.476562 26.851562 26.851562 26.625 24.449219 26.175781 C 22.351562 25.800781 20.476562 25.351562 18.449219 24.523438 C 16.351562 23.625 14.023438 22.199219 12.148438 20.851562 C 10.351562 19.574219 8.773438 18.300781 7.273438 16.726562 C 5.550781 14.925781 3.523438 12.75 2.476562 10.648438 C 1.5 8.625 0.824219 5.925781 0.976562 4.425781 C 1.050781 3.523438 1.425781 2.925781 2.023438 2.324219 C 2.699219 1.574219 3.976562 0.75 5.023438 0.601562 C 6.074219 0.449219 7.5 0.898438 8.398438 1.351562 C 9.074219 1.800781 9.976562 3.074219 9.976562 3.074219 " clip-rule="nonzero"/></clipPath><clipPath id="3683784266"><rect x="0" width="58" y="0" height="27"/></clipPath><clipPath id="a9c4e6824a"><path d="M 279.269531 156.722656 L 322.761719 156.722656 L 322.761719 185.355469 L 279.269531 185.355469 Z M 279.269531 156.722656 " clip-rule="nonzero"/></clipPath><clipPath id="04484b3f68"><path d="M 286.574219 173.699219 C 288.824219 171 288.523438 167.925781 289.351562 166.050781 C 290.25 164.175781 291.449219 162.074219 293.25 160.949219 C 295.273438 159.75 298.875 158.699219 301.050781 159.300781 C 303.226562 159.898438 304.351562 164.101562 306.449219 164.25 C 309.074219 164.398438 313.351562 158.773438 315.601562 157.648438 C 316.648438 157.050781 317.324219 156.675781 318.300781 156.75 C 319.425781 156.824219 321.300781 157.800781 321.976562 158.773438 C 322.574219 159.523438 322.800781 160.574219 322.726562 161.550781 C 322.726562 162.449219 322.351562 163.5 321.675781 164.175781 C 320.851562 165 318.976562 165.824219 317.699219 165.675781 C 316.5 165.523438 314.851562 164.398438 314.25 163.273438 C 313.726562 162.226562 313.800781 160.125 314.324219 159.074219 C 314.699219 158.175781 315.601562 157.5 316.425781 157.125 C 317.25 156.75 318.375 156.675781 319.273438 156.824219 C 320.175781 157.050781 321.148438 157.648438 321.75 158.324219 C 322.273438 159.074219 322.800781 159.898438 322.726562 161.023438 C 322.648438 163.273438 319.5 168.074219 317.699219 170.851562 C 316.199219 173.101562 314.773438 175.273438 312.976562 176.625 C 311.324219 177.824219 309.300781 178.875 307.425781 178.949219 C 305.476562 179.023438 302.773438 178.351562 301.5 176.925781 C 300.074219 175.5 300.675781 170.25 299.625 170.101562 C 298.125 169.949219 295.425781 179.773438 292.726562 182.25 C 290.773438 184.050781 288.375 185.550781 286.425781 185.25 C 284.398438 185.023438 281.851562 182.398438 280.648438 180.375 C 279.523438 178.5 279.226562 175.875 279.300781 173.625 C 279.375 171.226562 279.976562 167.851562 281.324219 166.351562 C 282.375 165.148438 284.324219 164.476562 285.675781 164.476562 C 286.800781 164.398438 288 165 288.75 165.675781 C 289.5 166.425781 290.101562 167.625 290.175781 168.675781 C 290.324219 169.726562 289.949219 171 289.351562 171.824219 C 288.75 172.726562 286.574219 173.699219 286.574219 173.699219 " clip-rule="nonzero"/></clipPath><clipPath id="9b9e335381"><path d="M 0.269531 0.722656 L 43.761719 0.722656 L 43.761719 29.355469 L 0.269531 29.355469 Z M 0.269531 0.722656 " clip-rule="nonzero"/></clipPath><clipPath id="de75ad6188"><path d="M 7.574219 17.699219 C 9.824219 15 9.523438 11.925781 10.351562 10.050781 C 11.25 8.175781 12.449219 6.074219 14.25 4.949219 C 16.273438 3.75 19.875 2.699219 22.050781 3.300781 C 24.226562 3.898438 25.351562 8.101562 27.449219 8.25 C 30.074219 8.398438 34.351562 2.773438 36.601562 1.648438 C 37.648438 1.050781 38.324219 0.675781 39.300781 0.75 C 40.425781 0.824219 42.300781 1.800781 42.976562 2.773438 C 43.574219 3.523438 43.800781 4.574219 43.726562 5.550781 C 43.726562 6.449219 43.351562 7.5 42.675781 8.175781 C 41.851562 9 39.976562 9.824219 38.699219 9.675781 C 37.5 9.523438 35.851562 8.398438 35.25 7.273438 C 34.726562 6.226562 34.800781 4.125 35.324219 3.074219 C 35.699219 2.175781 36.601562 1.5 37.425781 1.125 C 38.25 0.75 39.375 0.675781 40.273438 0.824219 C 41.175781 1.050781 42.148438 1.648438 42.75 2.324219 C 43.273438 3.074219 43.800781 3.898438 43.726562 5.023438 C 43.648438 7.273438 40.5 12.074219 38.699219 14.851562 C 37.199219 17.101562 35.773438 19.273438 33.976562 20.625 C 32.324219 21.824219 30.300781 22.875 28.425781 22.949219 C 26.476562 23.023438 23.773438 22.351562 22.5 20.925781 C 21.074219 19.5 21.675781 14.25 20.625 14.101562 C 19.125 13.949219 16.425781 23.773438 13.726562 26.25 C 11.773438 28.050781 9.375 29.550781 7.425781 29.25 C 5.398438 29.023438 2.851562 26.398438 1.648438 24.375 C 0.523438 22.5 0.226562 19.875 0.300781 17.625 C 0.375 15.226562 0.976562 11.851562 2.324219 10.351562 C 3.375 9.148438 5.324219 8.476562 6.675781 8.476562 C 7.800781 8.398438 9 9 9.75 9.675781 C 10.5 10.425781 11.101562 11.625 11.175781 12.675781 C 11.324219 13.726562 10.949219 15 10.351562 15.824219 C 9.75 16.726562 7.574219 17.699219 7.574219 17.699219 " clip-rule="nonzero"/></clipPath><clipPath id="d39c8a52dc"><rect x="0" width="44" y="0" height="30"/></clipPath><clipPath id="6104b23a5e"><path d="M 90.859375 186.355469 L 132.246094 186.355469 L 132.246094 213.4375 L 90.859375 213.4375 Z M 90.859375 186.355469 " clip-rule="nonzero"/></clipPath><clipPath id="e05ef10782"><path d="M 100.726562 190.949219 C 103.050781 202.050781 104.101562 196.648438 105.449219 194.625 C 106.648438 192.824219 108.074219 191.023438 109.875 190.199219 C 111.75 189.375 114.601562 189.148438 116.625 189.824219 C 118.648438 190.574219 120.824219 194.699219 122.023438 194.324219 C 123 194.101562 122.773438 190.574219 123.75 189.300781 C 124.574219 188.175781 126.074219 187.199219 127.199219 186.976562 C 128.175781 186.824219 129.226562 187.050781 130.050781 187.648438 C 130.949219 188.324219 132 190.050781 132.148438 191.25 C 132.300781 192.226562 131.925781 193.273438 131.398438 194.023438 C 130.875 194.773438 130.050781 195.523438 129.074219 195.75 C 127.949219 195.976562 125.925781 195.75 124.949219 195 C 123.976562 194.25 123.148438 192.449219 123.226562 191.175781 C 123.300781 189.976562 124.351562 188.25 125.398438 187.574219 C 126.449219 186.976562 128.476562 186.976562 129.601562 187.351562 C 130.5 187.726562 131.25 188.550781 131.699219 189.375 C 132.074219 190.199219 132.226562 191.101562 132.148438 192.226562 C 131.925781 194.023438 130.5 197.023438 129.226562 199.125 C 128.023438 201.074219 126.601562 203.398438 124.726562 204.226562 C 122.925781 205.125 119.773438 205.351562 118.199219 204.449219 C 116.625 203.550781 116.550781 198.898438 115.199219 198.824219 C 113.25 198.675781 109.800781 206.925781 107.023438 209.398438 C 104.851562 211.273438 102.675781 213.375 100.5 213.375 C 98.25 213.300781 95.25 211.050781 93.675781 208.726562 C 91.648438 205.648438 91.199219 198.976562 91.050781 195.375 C 90.898438 192.824219 90.898438 190.5 91.648438 189 C 92.175781 187.949219 93.074219 187.050781 94.050781 186.675781 C 95.25 186.300781 97.425781 186.375 98.550781 187.125 C 99.601562 187.800781 100.726562 190.949219 100.726562 190.949219 " clip-rule="nonzero"/></clipPath><clipPath id="fd7b7ab79c"><path d="M 0.859375 0.355469 L 42.246094 0.355469 L 42.246094 27.4375 L 0.859375 27.4375 Z M 0.859375 0.355469 " clip-rule="nonzero"/></clipPath><clipPath id="5bd0a1e17d"><path d="M 10.726562 4.949219 C 13.050781 16.050781 14.101562 10.648438 15.449219 8.625 C 16.648438 6.824219 18.074219 5.023438 19.875 4.199219 C 21.75 3.375 24.601562 3.148438 26.625 3.824219 C 28.648438 4.574219 30.824219 8.699219 32.023438 8.324219 C 33 8.101562 32.773438 4.574219 33.75 3.300781 C 34.574219 2.175781 36.074219 1.199219 37.199219 0.976562 C 38.175781 0.824219 39.226562 1.050781 40.050781 1.648438 C 40.949219 2.324219 42 4.050781 42.148438 5.25 C 42.300781 6.226562 41.925781 7.273438 41.398438 8.023438 C 40.875 8.773438 40.050781 9.523438 39.074219 9.75 C 37.949219 9.976562 35.925781 9.75 34.949219 9 C 33.976562 8.25 33.148438 6.449219 33.226562 5.175781 C 33.300781 3.976562 34.351562 2.25 35.398438 1.574219 C 36.449219 0.976562 38.476562 0.976562 39.601562 1.351562 C 40.5 1.726562 41.25 2.550781 41.699219 3.375 C 42.074219 4.199219 42.226562 5.101562 42.148438 6.226562 C 41.925781 8.023438 40.5 11.023438 39.226562 13.125 C 38.023438 15.074219 36.601562 17.398438 34.726562 18.226562 C 32.925781 19.125 29.773438 19.351562 28.199219 18.449219 C 26.625 17.550781 26.550781 12.898438 25.199219 12.824219 C 23.25 12.675781 19.800781 20.925781 17.023438 23.398438 C 14.851562 25.273438 12.675781 27.375 10.5 27.375 C 8.25 27.300781 5.25 25.050781 3.675781 22.726562 C 1.648438 19.648438 1.199219 12.976562 1.050781 9.375 C 0.898438 6.824219 0.898438 4.5 1.648438 3 C 2.175781 1.949219 3.074219 1.050781 4.050781 0.675781 C 5.25 0.300781 7.425781 0.375 8.550781 1.125 C 9.601562 1.800781 10.726562 4.949219 10.726562 4.949219 " clip-rule="nonzero"/></clipPath><clipPath id="e317ee271b"><rect x="0" width="43" y="0" height="28"/></clipPath><clipPath id="cd1d9452b5"><path d="M 249.828125 129.515625 L 266.367188 129.515625 L 266.367188 146.226562 L 249.828125 146.226562 Z M 249.828125 129.515625 " clip-rule="nonzero"/></clipPath><clipPath id="7608d484bf"><path d="M 259.5 144.976562 C 257.476562 146.175781 253.273438 146.625 251.925781 145.574219 C 250.648438 144.523438 250.273438 141.523438 250.5 139.648438 C 250.726562 137.625 252.824219 133.800781 253.5 133.875 C 254.175781 134.023438 253.351562 139.574219 254.550781 140.324219 C 255.824219 141.074219 260.625 137.476562 261.226562 138.074219 C 261.675781 138.675781 260.25 141.523438 259.273438 142.574219 C 258.375 143.476562 256.949219 144.074219 255.675781 144.148438 C 254.476562 144.226562 252.898438 143.625 252 142.949219 C 251.25 142.425781 250.726562 141.675781 250.351562 140.851562 C 250.050781 140.101562 249.75 139.273438 249.898438 138.300781 C 250.199219 136.726562 251.925781 133.949219 253.574219 132.675781 C 255.148438 131.476562 257.476562 130.574219 259.351562 130.726562 C 261.148438 130.949219 263.625 132.675781 264.675781 133.726562 C 265.351562 134.398438 265.648438 134.925781 265.875 135.75 C 266.175781 136.800781 266.324219 138.523438 266.101562 139.574219 C 265.875 140.476562 265.425781 141.226562 264.675781 141.824219 C 263.851562 142.574219 262.351562 143.324219 261.148438 143.398438 C 259.949219 143.476562 258.300781 143.175781 257.398438 142.273438 C 256.273438 141.074219 255.148438 136.273438 255.675781 135.976562 C 256.125 135.601562 259.574219 138.523438 259.5 138.675781 C 259.425781 138.824219 257.476562 138.300781 256.726562 137.773438 C 256.050781 137.25 255.300781 136.351562 255.148438 135.375 C 254.925781 134.25 255.375 132.226562 256.125 131.25 C 256.648438 130.5 257.699219 129.976562 258.601562 129.824219 C 259.425781 129.601562 260.625 129.75 261.449219 130.125 C 262.273438 130.5 263.101562 131.324219 263.476562 132.148438 C 263.925781 132.976562 264.148438 134.023438 263.925781 135 C 263.625 136.125 262.351562 137.773438 261.375 138.300781 C 260.550781 138.75 259.351562 138.824219 258.523438 138.601562 C 257.625 138.375 256.574219 137.851562 256.050781 137.101562 C 255.375 136.125 254.925781 134.101562 255.148438 132.976562 C 255.375 132 256.050781 131.175781 256.800781 130.574219 C 257.550781 130.050781 258.601562 129.375 259.574219 129.675781 C 261.523438 130.425781 265.574219 140.023438 266.023438 139.875 C 266.398438 139.726562 264 133.800781 264.226562 133.648438 C 264.449219 133.574219 265.5 134.925781 265.875 135.75 C 266.175781 136.5 266.476562 137.398438 266.324219 138.300781 C 266.175781 139.425781 265.574219 141 264.675781 141.824219 C 263.851562 142.726562 262.351562 143.324219 261.148438 143.398438 C 259.949219 143.476562 257.625 142.949219 257.398438 142.273438 C 257.25 141.523438 260.550781 138.824219 260.851562 138.976562 C 261.074219 139.125 260.550781 140.773438 260.101562 141.523438 C 259.648438 142.199219 259.050781 142.949219 258.226562 143.324219 C 257.25 143.851562 255.601562 144.300781 254.398438 144.074219 C 253.199219 143.851562 251.773438 142.949219 251.023438 141.976562 C 250.351562 141.074219 249.75 139.726562 249.898438 138.300781 C 250.125 136.273438 251.925781 132.226562 253.875 131.175781 C 255.675781 130.199219 259.800781 130.5 260.851562 131.773438 C 261.976562 133.125 261.601562 137.773438 260.175781 139.125 C 258.675781 140.625 251.851562 140.398438 251.550781 139.648438 C 251.324219 138.976562 255.675781 135.601562 257.550781 135.300781 C 258.976562 135.074219 260.773438 136.050781 261.75 136.726562 C 262.425781 137.175781 262.875 137.699219 263.175781 138.449219 C 263.550781 139.273438 263.699219 140.699219 263.476562 141.675781 C 263.324219 142.425781 262.949219 143.023438 262.425781 143.550781 C 261.75 144.226562 259.5 144.976562 259.5 144.976562 " clip-rule="nonzero"/></clipPath><clipPath id="ad75979034"><path d="M 0.828125 0.515625 L 17.367188 0.515625 L 17.367188 17.226562 L 0.828125 17.226562 Z M 0.828125 0.515625 " clip-rule="nonzero"/></clipPath><clipPath id="d2f4d7695c"><path d="M 10.5 15.976562 C 8.476562 17.175781 4.273438 17.625 2.925781 16.574219 C 1.648438 15.523438 1.273438 12.523438 1.5 10.648438 C 1.726562 8.625 3.824219 4.800781 4.5 4.875 C 5.175781 5.023438 4.351562 10.574219 5.550781 11.324219 C 6.824219 12.074219 11.625 8.476562 12.226562 9.074219 C 12.675781 9.675781 11.25 12.523438 10.273438 13.574219 C 9.375 14.476562 7.949219 15.074219 6.675781 15.148438 C 5.476562 15.226562 3.898438 14.625 3 13.949219 C 2.25 13.425781 1.726562 12.675781 1.351562 11.851562 C 1.050781 11.101562 0.75 10.273438 0.898438 9.300781 C 1.199219 7.726562 2.925781 4.949219 4.574219 3.675781 C 6.148438 2.476562 8.476562 1.574219 10.351562 1.726562 C 12.148438 1.949219 14.625 3.675781 15.675781 4.726562 C 16.351562 5.398438 16.648438 5.925781 16.875 6.75 C 17.175781 7.800781 17.324219 9.523438 17.101562 10.574219 C 16.875 11.476562 16.425781 12.226562 15.675781 12.824219 C 14.851562 13.574219 13.351562 14.324219 12.148438 14.398438 C 10.949219 14.476562 9.300781 14.175781 8.398438 13.273438 C 7.273438 12.074219 6.148438 7.273438 6.675781 6.976562 C 7.125 6.601562 10.574219 9.523438 10.5 9.675781 C 10.425781 9.824219 8.476562 9.300781 7.726562 8.773438 C 7.050781 8.25 6.300781 7.351562 6.148438 6.375 C 5.925781 5.25 6.375 3.226562 7.125 2.25 C 7.648438 1.5 8.699219 0.976562 9.601562 0.824219 C 10.425781 0.601562 11.625 0.75 12.449219 1.125 C 13.273438 1.5 14.101562 2.324219 14.476562 3.148438 C 14.925781 3.976562 15.148438 5.023438 14.925781 6 C 14.625 7.125 13.351562 8.773438 12.375 9.300781 C 11.550781 9.75 10.351562 9.824219 9.523438 9.601562 C 8.625 9.375 7.574219 8.851562 7.050781 8.101562 C 6.375 7.125 5.925781 5.101562 6.148438 3.976562 C 6.375 3 7.050781 2.175781 7.800781 1.574219 C 8.550781 1.050781 9.601562 0.375 10.574219 0.675781 C 12.523438 1.425781 16.574219 11.023438 17.023438 10.875 C 17.398438 10.726562 15 4.800781 15.226562 4.648438 C 15.449219 4.574219 16.5 5.925781 16.875 6.75 C 17.175781 7.5 17.476562 8.398438 17.324219 9.300781 C 17.175781 10.425781 16.574219 12 15.675781 12.824219 C 14.851562 13.726562 13.351562 14.324219 12.148438 14.398438 C 10.949219 14.476562 8.625 13.949219 8.398438 13.273438 C 8.25 12.523438 11.550781 9.824219 11.851562 9.976562 C 12.074219 10.125 11.550781 11.773438 11.101562 12.523438 C 10.648438 13.199219 10.050781 13.949219 9.226562 14.324219 C 8.25 14.851562 6.601562 15.300781 5.398438 15.074219 C 4.199219 14.851562 2.773438 13.949219 2.023438 12.976562 C 1.351562 12.074219 0.75 10.726562 0.898438 9.300781 C 1.125 7.273438 2.925781 3.226562 4.875 2.175781 C 6.675781 1.199219 10.800781 1.5 11.851562 2.773438 C 12.976562 4.125 12.601562 8.773438 11.175781 10.125 C 9.675781 11.625 2.851562 11.398438 2.550781 10.648438 C 2.324219 9.976562 6.675781 6.601562 8.550781 6.300781 C 9.976562 6.074219 11.773438 7.050781 12.75 7.726562 C 13.425781 8.175781 13.875 8.699219 14.175781 9.449219 C 14.550781 10.273438 14.699219 11.699219 14.476562 12.675781 C 14.324219 13.425781 13.949219 14.023438 13.425781 14.550781 C 12.75 15.226562 10.5 15.976562 10.5 15.976562 " clip-rule="nonzero"/></clipPath><clipPath id="58cd291ca2"><rect x="0" width="18" y="0" height="18"/></clipPath><clipPath id="a773cd06ae"><path d="M 139.171875 139.5 L 164.398438 139.5 L 164.398438 165.574219 L 139.171875 165.574219 Z M 139.171875 139.5 " clip-rule="nonzero"/></clipPath><clipPath id="5cabfa0802"><path d="M 139.273438 150.675781 C 142.351562 147.226562 142.273438 147 142.273438 147 C 142.273438 147 141.898438 146.851562 141.824219 146.625 C 141.824219 145.800781 144.074219 141.675781 145.949219 140.476562 C 147.675781 139.425781 150.375 139.425781 152.476562 139.726562 C 154.574219 140.023438 156.824219 141.074219 158.550781 142.351562 C 160.199219 143.476562 162.148438 145.726562 162.675781 146.851562 C 162.898438 147.300781 162.675781 147.75 162.824219 148.050781 C 162.898438 148.199219 162.976562 148.351562 163.125 148.5 C 163.199219 148.648438 163.5 149.023438 163.5 149.023438 C 163.5 149.023438 163.648438 149.476562 163.726562 149.625 C 163.800781 149.851562 163.875 150.300781 163.875 150.300781 C 163.875 150.300781 163.949219 150.675781 163.949219 150.898438 C 164.023438 151.125 164.023438 151.574219 164.023438 151.574219 C 164.023438 151.574219 164.625 155.699219 164.175781 157.648438 C 163.726562 159.675781 162.824219 162.226562 161.324219 163.5 C 159.898438 164.773438 157.574219 165.375 155.625 165.449219 C 153.601562 165.523438 150.601562 164.625 149.25 163.726562 C 148.425781 163.125 148.574219 161.851562 147.824219 161.476562 C 146.773438 161.023438 144.375 162.898438 143.175781 162.300781 C 141.75 161.550781 140.324219 157.875 140.175781 156.675781 C 140.023438 156.226562 140.324219 156.074219 140.25 155.625 C 140.25 154.574219 139.273438 150.675781 139.273438 150.675781 " clip-rule="nonzero"/></clipPath><clipPath id="7cea5f78e5"><path d="M 0.199219 0.5 L 25.398438 0.5 L 25.398438 26.574219 L 0.199219 26.574219 Z M 0.199219 0.5 " clip-rule="nonzero"/></clipPath><clipPath id="90eca38173"><path d="M 0.273438 11.675781 C 3.351562 8.226562 3.273438 8 3.273438 8 C 3.273438 8 2.898438 7.851562 2.824219 7.625 C 2.824219 6.800781 5.074219 2.675781 6.949219 1.476562 C 8.675781 0.425781 11.375 0.425781 13.476562 0.726562 C 15.574219 1.023438 17.824219 2.074219 19.550781 3.351562 C 21.199219 4.476562 23.148438 6.726562 23.675781 7.851562 C 23.898438 8.300781 23.675781 8.75 23.824219 9.050781 C 23.898438 9.199219 23.976562 9.351562 24.125 9.5 C 24.199219 9.648438 24.5 10.023438 24.5 10.023438 C 24.5 10.023438 24.648438 10.476562 24.726562 10.625 C 24.800781 10.851562 24.875 11.300781 24.875 11.300781 C 24.875 11.300781 24.949219 11.675781 24.949219 11.898438 C 25.023438 12.125 25.023438 12.574219 25.023438 12.574219 C 25.023438 12.574219 25.625 16.699219 25.175781 18.648438 C 24.726562 20.675781 23.824219 23.226562 22.324219 24.5 C 20.898438 25.773438 18.574219 26.375 16.625 26.449219 C 14.601562 26.523438 11.601562 25.625 10.25 24.726562 C 9.425781 24.125 9.574219 22.851562 8.824219 22.476562 C 7.773438 22.023438 5.375 23.898438 4.175781 23.300781 C 2.75 22.550781 1.324219 18.875 1.175781 17.675781 C 1.023438 17.226562 1.324219 17.074219 1.25 16.625 C 1.25 15.574219 0.273438 11.675781 0.273438 11.675781 " clip-rule="nonzero"/></clipPath><clipPath id="b82a851a5d"><rect x="0" width="26" y="0" height="27"/></clipPath></defs><g clip-path="url(#9a3e3b68d9)"><g clip-path="url(#a1c83aaa28)"><g mask="url(#0e8638a740)"><g transform="matrix(1, 0, 0, 1, 20, 33)"><g clip-path="url(#611416d29d)"><g clip-path="url(#d696ba1100)"><g clip-path="url(#3fd9b6f097)"><rect x="-102.5" width="540" fill="#fff234" height="539.999987" y="-115.499998" fill-opacity="1"/></g></g></g></g></g></g></g><g clip-path="url(#cd326e1019)"><g clip-path="url(#f95bb2dbee)"><g transform="matrix(1, 0, 0, 1, 140, 142)"><g clip-path="url(#4c64a2fc1f)"><g clip-path="url(#62a7400fd5)"><g clip-path="url(#421e0deb92)"><rect x="-222.5" width="540" fill="#201803" height="539.999987" y="-224.499998" fill-opacity="1"/></g></g></g></g></g></g><g clip-path="url(#ced1ebecdc)"><g clip-path="url(#c964876a07)"><g transform="matrix(1, 0, 0, 1, 249, 129)"><g clip-path="url(#14644b99b2)"><g clip-path="url(#1b205b7932)"><g clip-path="url(#fecf7302ee)"><rect x="-331.5" width="540" fill="#201803" height="539.999987" y="-211.499998" fill-opacity="1"/></g></g></g></g></g></g><g clip-path="url(#e5340de62a)"><g clip-path="url(#ad59ed0b3f)"><g transform="matrix(1, 0, 0, 1, 177, 189)"><g clip-path="url(#3683784266)"><g clip-path="url(#8fc6d9b763)"><g clip-path="url(#f3337272ba)"><rect x="-259.5" width="540" fill="#201803" height="539.999987" y="-271.499998" fill-opacity="1"/></g></g></g></g></g></g><g clip-path="url(#a9c4e6824a)"><g clip-path="url(#04484b3f68)"><g transform="matrix(1, 0, 0, 1, 279, 156)"><g clip-path="url(#d39c8a52dc)"><g clip-path="url(#9b9e335381)"><g clip-path="url(#de75ad6188)"><rect x="-361.5" width="540" fill="#ff9e2c" height="539.999987" y="-238.499998" fill-opacity="1"/></g></g></g></g></g></g><g clip-path="url(#6104b23a5e)"><g clip-path="url(#e05ef10782)"><g transform="matrix(1, 0, 0, 1, 90, 186)"><g clip-path="url(#e317ee271b)"><g clip-path="url(#fd7b7ab79c)"><g clip-path="url(#5bd0a1e17d)"><rect x="-172.5" width="540" fill="#ff9e2c" height="539.999987" y="-268.499998" fill-opacity="1"/></g></g></g></g></g></g><g clip-path="url(#cd1d9452b5)"><g clip-path="url(#7608d484bf)"><g transform="matrix(1, 0, 0, 1, 249, 129)"><g clip-path="url(#58cd291ca2)"><g clip-path="url(#ad75979034)"><g clip-path="url(#d2f4d7695c)"><rect x="-331.5" width="540" fill="#201803" height="539.999987" y="-211.499998" fill-opacity="1"/></g></g></g></g></g></g><g clip-path="url(#a773cd06ae)"><g clip-path="url(#5cabfa0802)"><g transform="matrix(1, 0, 0, 1, 139, 139)"><g clip-path="url(#b82a851a5d)"><g clip-path="url(#7cea5f78e5)"><g clip-path="url(#90eca38173)"><rect x="-221.5" width="540" fill="#201803" height="539.999987" y="-221.499998" fill-opacity="1"/></g></g></g></g></g></g></svg>