<svg xmlns="http://www.w3.org/2000/svg" xmlns:xlink="http://www.w3.org/1999/xlink" width="500" zoomAndPan="magnify" viewBox="0 0 375 374.999991" height="500" preserveAspectRatio="xMidYMid meet" version="1.0"><defs><filter x="0%" y="0%" width="100%" height="100%" id="d22413bf11"><feColorMatrix values="0 0 0 0 1 0 0 0 0 1 0 0 0 0 1 0 0 0 1 0" color-interpolation-filters="sRGB"/></filter><clipPath id="aa18b9126c"><path d="M 15.222656 52.273438 L 349.960938 52.273438 L 349.960938 342.828125 L 15.222656 342.828125 Z M 15.222656 52.273438 " clip-rule="nonzero"/></clipPath><clipPath id="9ddd1dee5f"><path d="M 15.976562 185.175781 C 19.125 148.5 21.074219 138.375 24.074219 129.300781 C 27 120.675781 30.824219 112.351562 35.324219 104.699219 C 39.75 97.199219 44.398438 89.851562 50.851562 83.773438 C 57.898438 77.101562 67.5 70.726562 76.726562 66.976562 C 85.648438 63.375 96.449219 62.324219 105.375 61.425781 C 113.101562 60.675781 119.550781 61.648438 126.976562 61.273438 C 135.148438 60.898438 143.851562 60 152.398438 58.800781 C 161.25 57.449219 170.25 54.449219 179.25 53.550781 C 188.101562 52.574219 197.175781 52.648438 205.875 53.023438 C 214.273438 53.324219 222.375 53.625 230.398438 55.5 C 238.425781 57.375 246.226562 60.75 253.949219 64.273438 C 261.898438 67.949219 269.925781 72.148438 277.199219 77.175781 C 284.550781 82.125 291.074219 88.199219 297.898438 94.199219 C 305.023438 100.574219 313.125 106.875 319.125 114.449219 C 325.050781 121.875 329.550781 130.800781 333.675781 139.125 C 337.648438 147 341.023438 154.800781 343.648438 163.050781 C 346.273438 171.449219 348.824219 180 349.5 189 C 350.25 198.375 348.75 209.023438 347.476562 218.25 C 346.273438 226.800781 344.625 234.226562 342.375 242.625 C 340.050781 251.773438 337.050781 262.351562 333.375 271.199219 C 330 279.375 326.324219 286.726562 321.375 293.851562 C 316.273438 301.351562 309.75 308.476562 303 314.773438 C 296.175781 321.074219 289.199219 327.523438 280.726562 331.648438 C 271.574219 336.148438 259.726562 338.324219 249.601562 339.976562 C 240.148438 341.550781 231.148438 341.625 221.925781 341.925781 C 212.851562 342.300781 203.699219 342 194.699219 342 C 185.851562 342 177 342 168.300781 342 C 159.976562 342 152.023438 342.523438 143.625 342 C 134.699219 341.398438 125.023438 340.351562 116.175781 338.550781 C 107.699219 336.824219 99.601562 334.351562 91.648438 331.574219 C 83.851562 328.875 76.875 325.875 69 322.050781 C 60 317.699219 48.976562 312.226562 40.875 306.523438 C 33.898438 301.574219 27 297.074219 22.875 290.398438 C 18.601562 283.5 17.398438 273.824219 16.199219 265.351562 C 15.074219 257.023438 16.050781 248.550781 15.976562 239.925781 C 15.898438 231 15.976562 221.773438 15.976562 212.625 C 15.976562 203.476562 15.976562 185.175781 15.976562 185.175781 " clip-rule="nonzero"/></clipPath><mask id="916076c25c"><g filter="url(#d22413bf11)"><rect x="-37.5" width="450" fill="#000000" y="-37.499999" height="449.999989" fill-opacity="0.5"/></g></mask><clipPath id="9b32b1c015"><path d="M 0.222656 0.558594 L 334.960938 0.558594 L 334.960938 290.71875 L 0.222656 290.71875 Z M 0.222656 0.558594 " clip-rule="nonzero"/></clipPath><clipPath id="d057a14d19"><path d="M 0.976562 133.175781 C 4.125 96.5 6.074219 86.375 9.074219 77.300781 C 12 68.675781 15.824219 60.351562 20.324219 52.699219 C 24.75 45.199219 29.398438 37.851562 35.851562 31.773438 C 42.898438 25.101562 52.5 18.726562 61.726562 14.976562 C 70.648438 11.375 81.449219 10.324219 90.375 9.425781 C 98.101562 8.675781 104.550781 9.648438 111.976562 9.273438 C 120.148438 8.898438 128.851562 8 137.398438 6.800781 C 146.25 5.449219 155.25 2.449219 164.25 1.550781 C 173.101562 0.574219 182.175781 0.648438 190.875 1.023438 C 199.273438 1.324219 207.375 1.625 215.398438 3.5 C 223.425781 5.375 231.226562 8.75 238.949219 12.273438 C 246.898438 15.949219 254.925781 20.148438 262.199219 25.175781 C 269.550781 30.125 276.074219 36.199219 282.898438 42.199219 C 290.023438 48.574219 298.125 54.875 304.125 62.449219 C 310.050781 69.875 314.550781 78.800781 318.675781 87.125 C 322.648438 95 326.023438 102.800781 328.648438 111.050781 C 331.273438 119.449219 333.824219 128 334.5 137 C 335.25 146.375 333.75 157.023438 332.476562 166.25 C 331.273438 174.800781 329.625 182.226562 327.375 190.625 C 325.050781 199.773438 322.050781 210.351562 318.375 219.199219 C 315 227.375 311.324219 234.726562 306.375 241.851562 C 301.273438 249.351562 294.75 256.476562 288 262.773438 C 281.175781 269.074219 274.199219 275.523438 265.726562 279.648438 C 256.574219 284.148438 244.726562 286.324219 234.601562 287.976562 C 225.148438 289.550781 216.148438 289.625 206.925781 289.925781 C 197.851562 290.300781 188.699219 290 179.699219 290 C 170.851562 290 162 290 153.300781 290 C 144.976562 290 137.023438 290.523438 128.625 290 C 119.699219 289.398438 110.023438 288.351562 101.175781 286.550781 C 92.699219 284.824219 84.601562 282.351562 76.648438 279.574219 C 68.851562 276.875 61.875 273.875 54 270.050781 C 45 265.699219 33.976562 260.226562 25.875 254.523438 C 18.898438 249.574219 12 245.074219 7.875 238.398438 C 3.601562 231.5 2.398438 221.824219 1.199219 213.351562 C 0.0742188 205.023438 1.050781 196.550781 0.976562 187.925781 C 0.898438 179 0.976562 169.773438 0.976562 160.625 C 0.976562 151.476562 0.976562 133.175781 0.976562 133.175781 " clip-rule="nonzero"/></clipPath><clipPath id="2b2d6703f4"><rect x="0" width="335" y="0" height="291"/></clipPath><clipPath id="da72e6f295"><path d="M 98.765625 147.777344 L 120.949219 147.777344 L 120.949219 175.640625 L 98.765625 175.640625 Z M 98.765625 147.777344 " clip-rule="nonzero"/></clipPath><clipPath id="7d65303cae"><path d="M 120.824219 158.699219 C 120 169.5 119.398438 170.324219 118.648438 171.226562 C 117.976562 172.199219 117.074219 173.023438 116.101562 173.699219 C 115.125 174.375 114 174.898438 112.875 175.199219 C 111.75 175.5 110.476562 175.648438 109.351562 175.574219 C 108.148438 175.5 106.949219 175.273438 105.824219 174.824219 C 104.773438 174.375 103.648438 173.699219 102.75 172.949219 C 101.925781 172.199219 101.101562 171.226562 100.5 170.25 C 99.898438 169.273438 99.375 168.074219 99.148438 166.949219 C 98.925781 165.824219 98.851562 164.550781 99 163.351562 C 99.074219 162.226562 99.449219 161.023438 99.898438 159.976562 C 100.425781 158.925781 101.101562 157.875 101.925781 156.976562 C 102.75 156.148438 103.726562 155.398438 104.773438 154.875 C 105.824219 154.273438 106.949219 153.898438 108.148438 153.675781 C 109.273438 153.523438 110.550781 153.523438 111.675781 153.675781 C 112.875 153.898438 114.074219 154.273438 115.050781 154.875 C 116.101562 155.398438 117.074219 156.148438 117.898438 156.976562 C 118.726562 157.875 119.398438 158.925781 119.925781 159.976562 C 120.375 161.023438 120.75 162.226562 120.824219 163.425781 C 120.976562 164.550781 120.898438 165.824219 120.675781 166.949219 C 120.449219 168.074219 119.925781 169.273438 119.324219 170.25 C 118.726562 171.226562 117.898438 172.199219 117.074219 172.949219 C 116.175781 173.699219 115.050781 174.375 114 174.824219 C 112.875 175.273438 111.675781 175.5 110.476562 175.574219 C 109.351562 175.648438 108.074219 175.5 106.949219 175.199219 C 105.824219 174.898438 104.699219 174.375 103.726562 173.699219 C 102.75 173.023438 101.851562 172.199219 101.175781 171.226562 C 100.425781 170.324219 99.824219 169.199219 99.449219 168.074219 C 99.074219 166.949219 99 165.976562 98.925781 164.550781 C 98.773438 162.375 98.925781 158.023438 99.300781 156.074219 C 99.523438 155.023438 99.75 154.5 100.273438 153.601562 C 100.949219 152.398438 102.601562 150.601562 103.726562 149.699219 C 104.476562 149.101562 105.074219 148.800781 106.050781 148.5 C 107.398438 148.050781 109.574219 147.675781 111.226562 147.824219 C 112.875 148.050781 114.75 148.726562 116.101562 149.699219 C 117.523438 150.675781 118.800781 152.101562 119.550781 153.601562 C 120.375 155.101562 120.824219 158.699219 120.824219 158.699219 " clip-rule="nonzero"/></clipPath><clipPath id="c58faa10b8"><path d="M 0.765625 0.777344 L 22.949219 0.777344 L 22.949219 28.640625 L 0.765625 28.640625 Z M 0.765625 0.777344 " clip-rule="nonzero"/></clipPath><clipPath id="fb1ab87d2e"><path d="M 22.824219 11.699219 C 22 22.5 21.398438 23.324219 20.648438 24.226562 C 19.976562 25.199219 19.074219 26.023438 18.101562 26.699219 C 17.125 27.375 16 27.898438 14.875 28.199219 C 13.75 28.5 12.476562 28.648438 11.351562 28.574219 C 10.148438 28.5 8.949219 28.273438 7.824219 27.824219 C 6.773438 27.375 5.648438 26.699219 4.75 25.949219 C 3.925781 25.199219 3.101562 24.226562 2.5 23.25 C 1.898438 22.273438 1.375 21.074219 1.148438 19.949219 C 0.925781 18.824219 0.851562 17.550781 1 16.351562 C 1.074219 15.226562 1.449219 14.023438 1.898438 12.976562 C 2.425781 11.925781 3.101562 10.875 3.925781 9.976562 C 4.75 9.148438 5.726562 8.398438 6.773438 7.875 C 7.824219 7.273438 8.949219 6.898438 10.148438 6.675781 C 11.273438 6.523438 12.550781 6.523438 13.675781 6.675781 C 14.875 6.898438 16.074219 7.273438 17.050781 7.875 C 18.101562 8.398438 19.074219 9.148438 19.898438 9.976562 C 20.726562 10.875 21.398438 11.925781 21.925781 12.976562 C 22.375 14.023438 22.75 15.226562 22.824219 16.425781 C 22.976562 17.550781 22.898438 18.824219 22.675781 19.949219 C 22.449219 21.074219 21.925781 22.273438 21.324219 23.25 C 20.726562 24.226562 19.898438 25.199219 19.074219 25.949219 C 18.175781 26.699219 17.050781 27.375 16 27.824219 C 14.875 28.273438 13.675781 28.5 12.476562 28.574219 C 11.351562 28.648438 10.074219 28.5 8.949219 28.199219 C 7.824219 27.898438 6.699219 27.375 5.726562 26.699219 C 4.75 26.023438 3.851562 25.199219 3.175781 24.226562 C 2.425781 23.324219 1.824219 22.199219 1.449219 21.074219 C 1.074219 19.949219 1 18.976562 0.925781 17.550781 C 0.773438 15.375 0.925781 11.023438 1.300781 9.074219 C 1.523438 8.023438 1.75 7.5 2.273438 6.601562 C 2.949219 5.398438 4.601562 3.601562 5.726562 2.699219 C 6.476562 2.101562 7.074219 1.800781 8.050781 1.5 C 9.398438 1.050781 11.574219 0.675781 13.226562 0.824219 C 14.875 1.050781 16.75 1.726562 18.101562 2.699219 C 19.523438 3.675781 20.800781 5.101562 21.550781 6.601562 C 22.375 8.101562 22.824219 11.699219 22.824219 11.699219 " clip-rule="nonzero"/></clipPath><clipPath id="9a20abb81e"><rect x="0" width="23" y="0" height="29"/></clipPath><clipPath id="d83101af97"><path d="M 204.148438 137.175781 L 226.578125 137.175781 L 226.578125 167.378906 L 204.148438 167.378906 Z M 204.148438 137.175781 " clip-rule="nonzero"/></clipPath><clipPath id="445087cef4"><path d="M 226.574219 148.875 C 224.773438 162 224.175781 162.75 223.351562 163.574219 C 222.601562 164.476562 221.625 165.226562 220.648438 165.824219 C 219.601562 166.425781 218.476562 166.875 217.273438 167.101562 C 216.148438 167.324219 214.875 167.398438 213.75 167.25 C 212.625 167.101562 211.425781 166.726562 210.375 166.199219 C 209.324219 165.75 208.273438 165 207.449219 164.175781 C 206.625 163.351562 205.875 162.375 205.351562 161.324219 C 204.824219 160.273438 204.449219 159.074219 204.300781 157.949219 C 204.074219 156.75 204.148438 155.550781 204.300781 154.351562 C 204.523438 153.226562 204.976562 152.101562 205.5 151.050781 C 206.101562 150 206.851562 149.023438 207.75 148.273438 C 208.574219 147.449219 209.625 146.773438 210.675781 146.324219 C 211.726562 145.875 213 145.5 214.125 145.425781 C 215.324219 145.351562 216.523438 145.425781 217.648438 145.648438 C 218.773438 145.949219 219.976562 146.398438 220.949219 147.074219 C 221.925781 147.675781 222.898438 148.5 223.574219 149.398438 C 224.324219 150.300781 225 151.351562 225.375 152.476562 C 225.824219 153.523438 226.050781 154.800781 226.125 155.925781 C 226.125 157.125 225.976562 158.324219 225.675781 159.449219 C 225.300781 160.574219 224.773438 161.699219 224.101562 162.675781 C 223.425781 163.648438 222.523438 164.476562 221.625 165.226562 C 220.648438 165.898438 219.523438 166.425781 218.476562 166.800781 C 217.351562 167.175781 216.074219 167.324219 214.949219 167.324219 C 213.75 167.324219 212.550781 167.101562 211.425781 166.648438 C 210.375 166.273438 209.25 165.675781 208.351562 165 C 207.449219 164.25 206.550781 163.351562 205.949219 162.375 C 205.273438 161.398438 204.824219 160.199219 204.523438 159.074219 C 204.226562 157.949219 204.226562 156.976562 204.148438 155.550781 C 204.148438 153.375 204.375 149.699219 204.824219 147.375 C 205.199219 145.425781 205.800781 143.625 206.476562 142.351562 C 206.925781 141.449219 207.300781 141 208.050781 140.324219 C 209.175781 139.425781 210.976562 138.148438 212.550781 137.699219 C 214.199219 137.175781 216.148438 137.101562 217.800781 137.398438 C 219.449219 137.699219 221.25 138.523438 222.523438 139.574219 C 223.875 140.699219 225 142.199219 225.675781 143.773438 C 226.351562 145.273438 226.574219 148.875 226.574219 148.875 " clip-rule="nonzero"/></clipPath><clipPath id="12e361b4d4"><path d="M 0.148438 0.175781 L 22.578125 0.175781 L 22.578125 30.378906 L 0.148438 30.378906 Z M 0.148438 0.175781 " clip-rule="nonzero"/></clipPath><clipPath id="2d3b158eeb"><path d="M 22.574219 11.875 C 20.773438 25 20.175781 25.75 19.351562 26.574219 C 18.601562 27.476562 17.625 28.226562 16.648438 28.824219 C 15.601562 29.425781 14.476562 29.875 13.273438 30.101562 C 12.148438 30.324219 10.875 30.398438 9.75 30.25 C 8.625 30.101562 7.425781 29.726562 6.375 29.199219 C 5.324219 28.75 4.273438 28 3.449219 27.175781 C 2.625 26.351562 1.875 25.375 1.351562 24.324219 C 0.824219 23.273438 0.449219 22.074219 0.300781 20.949219 C 0.0742188 19.75 0.148438 18.550781 0.300781 17.351562 C 0.523438 16.226562 0.976562 15.101562 1.5 14.050781 C 2.101562 13 2.851562 12.023438 3.75 11.273438 C 4.574219 10.449219 5.625 9.773438 6.675781 9.324219 C 7.726562 8.875 9 8.5 10.125 8.425781 C 11.324219 8.351562 12.523438 8.425781 13.648438 8.648438 C 14.773438 8.949219 15.976562 9.398438 16.949219 10.074219 C 17.925781 10.675781 18.898438 11.5 19.574219 12.398438 C 20.324219 13.300781 21 14.351562 21.375 15.476562 C 21.824219 16.523438 22.050781 17.800781 22.125 18.925781 C 22.125 20.125 21.976562 21.324219 21.675781 22.449219 C 21.300781 23.574219 20.773438 24.699219 20.101562 25.675781 C 19.425781 26.648438 18.523438 27.476562 17.625 28.226562 C 16.648438 28.898438 15.523438 29.425781 14.476562 29.800781 C 13.351562 30.175781 12.074219 30.324219 10.949219 30.324219 C 9.75 30.324219 8.550781 30.101562 7.425781 29.648438 C 6.375 29.273438 5.25 28.675781 4.351562 28 C 3.449219 27.25 2.550781 26.351562 1.949219 25.375 C 1.273438 24.398438 0.824219 23.199219 0.523438 22.074219 C 0.226562 20.949219 0.226562 19.976562 0.148438 18.550781 C 0.148438 16.375 0.375 12.699219 0.824219 10.375 C 1.199219 8.425781 1.800781 6.625 2.476562 5.351562 C 2.925781 4.449219 3.300781 4 4.050781 3.324219 C 5.175781 2.425781 6.976562 1.148438 8.550781 0.699219 C 10.199219 0.175781 12.148438 0.101562 13.800781 0.398438 C 15.449219 0.699219 17.25 1.523438 18.523438 2.574219 C 19.875 3.699219 21 5.199219 21.675781 6.773438 C 22.351562 8.273438 22.574219 11.875 22.574219 11.875 " clip-rule="nonzero"/></clipPath><clipPath id="17dd169271"><rect x="0" width="23" y="0" height="31"/></clipPath><clipPath id="a42abd258e"><path d="M 85.421875 178.199219 L 268.417969 178.199219 L 268.417969 261.722656 L 85.421875 261.722656 Z M 85.421875 178.199219 " clip-rule="nonzero"/></clipPath><clipPath id="5ee0126ba1"><path d="M 97.199219 210.449219 C 105.75 226.273438 106.800781 228.375 108.75 230.398438 C 110.851562 232.574219 113.773438 234.449219 116.398438 236.101562 C 118.949219 237.675781 120.976562 238.726562 124.125 240 C 128.773438 241.875 135.824219 244.199219 141.75 245.699219 C 147.449219 247.199219 153.601562 248.550781 158.925781 249 C 163.425781 249.375 166.648438 249.523438 171.523438 248.773438 C 178.425781 247.800781 188.699219 244.648438 195.976562 241.800781 C 202.273438 239.324219 207.523438 236.175781 212.851562 233.101562 C 217.949219 230.175781 223.050781 227.175781 227.398438 223.875 C 231.300781 220.949219 234.75 217.949219 237.898438 214.574219 C 241.050781 211.273438 243.75 207.75 246.300781 203.925781 C 248.925781 199.875 251.476562 195 253.351562 190.875 C 254.925781 187.425781 255.601562 183 257.175781 180.976562 C 258.074219 179.773438 259.351562 179.101562 260.324219 178.648438 C 261 178.425781 261.675781 178.425781 262.273438 178.425781 C 262.949219 178.425781 263.550781 178.5 264.226562 178.800781 C 265.199219 179.25 266.625 180.226562 267.300781 181.273438 C 267.976562 182.324219 268.273438 183.976562 268.273438 185.023438 C 268.273438 185.773438 268.125 186.300781 267.824219 186.976562 C 267.300781 187.949219 266.023438 189.300781 265.199219 189.898438 C 264.523438 190.351562 263.925781 190.5 263.324219 190.574219 C 262.648438 190.726562 262.050781 190.800781 261.300781 190.648438 C 260.324219 190.425781 258.675781 189.824219 257.773438 188.925781 C 256.949219 188.023438 256.199219 186.601562 256.050781 185.398438 C 255.898438 184.199219 256.199219 182.625 256.800781 181.574219 C 257.398438 180.449219 258.601562 179.398438 259.726562 178.949219 C 260.851562 178.425781 262.574219 178.425781 263.625 178.574219 C 264.375 178.726562 264.824219 178.949219 265.425781 179.398438 C 266.324219 180 267.449219 181.5 267.898438 182.398438 C 268.199219 183.148438 268.351562 183.601562 268.273438 184.425781 C 268.273438 185.699219 267.898438 187.199219 267.074219 189.375 C 265.273438 194.101562 258.976562 205.949219 255.824219 210.976562 C 253.949219 213.976562 252.523438 215.550781 250.800781 217.648438 C 249.074219 219.75 247.648438 221.398438 245.398438 223.574219 C 242.398438 226.5 238.125 230.175781 233.925781 233.324219 C 229.199219 236.773438 223.875 240 218.398438 243.148438 C 212.550781 246.523438 206.101562 250.273438 199.800781 252.976562 C 193.875 255.523438 186.898438 257.476562 181.800781 258.898438 C 178.125 259.875 175.875 260.550781 172.273438 261 C 167.699219 261.449219 161.925781 261.601562 156.523438 261.074219 C 150.75 260.476562 144.75 258.824219 138.601562 257.324219 C 132.148438 255.601562 124.726562 253.800781 118.648438 251.324219 C 113.175781 249 107.101562 246 103.5 243.148438 C 101.023438 241.199219 99.75 239.324219 98.023438 237.074219 C 96.300781 234.75 94.949219 232.5 93.226562 229.5 C 90.898438 225.449219 86.25 218.398438 85.648438 214.875 C 85.273438 213 85.5 211.648438 86.175781 210.449219 C 86.773438 209.25 88.199219 207.976562 89.476562 207.523438 C 90.75 207 92.625 207 93.898438 207.523438 C 95.175781 207.976562 97.199219 210.449219 97.199219 210.449219 " clip-rule="nonzero"/></clipPath><clipPath id="6a59016ff2"><path d="M 0.421875 0.320312 L 183.417969 0.320312 L 183.417969 83.601562 L 0.421875 83.601562 Z M 0.421875 0.320312 " clip-rule="nonzero"/></clipPath><clipPath id="684ba8274e"><path d="M 12.199219 32.449219 C 20.75 48.273438 21.800781 50.375 23.75 52.398438 C 25.851562 54.574219 28.773438 56.449219 31.398438 58.101562 C 33.949219 59.675781 35.976562 60.726562 39.125 62 C 43.773438 63.875 50.824219 66.199219 56.75 67.699219 C 62.449219 69.199219 68.601562 70.550781 73.925781 71 C 78.425781 71.375 81.648438 71.523438 86.523438 70.773438 C 93.425781 69.800781 103.699219 66.648438 110.976562 63.800781 C 117.273438 61.324219 122.523438 58.175781 127.851562 55.101562 C 132.949219 52.175781 138.050781 49.175781 142.398438 45.875 C 146.300781 42.949219 149.75 39.949219 152.898438 36.574219 C 156.050781 33.273438 158.75 29.75 161.300781 25.925781 C 163.925781 21.875 166.476562 17 168.351562 12.875 C 169.925781 9.425781 170.601562 5 172.175781 2.976562 C 173.074219 1.773438 174.351562 1.101562 175.324219 0.648438 C 176 0.425781 176.675781 0.425781 177.273438 0.425781 C 177.949219 0.425781 178.550781 0.5 179.226562 0.800781 C 180.199219 1.25 181.625 2.226562 182.300781 3.273438 C 182.976562 4.324219 183.273438 5.976562 183.273438 7.023438 C 183.273438 7.773438 183.125 8.300781 182.824219 8.976562 C 182.300781 9.949219 181.023438 11.300781 180.199219 11.898438 C 179.523438 12.351562 178.925781 12.5 178.324219 12.574219 C 177.648438 12.726562 177.050781 12.800781 176.300781 12.648438 C 175.324219 12.425781 173.675781 11.824219 172.773438 10.925781 C 171.949219 10.023438 171.199219 8.601562 171.050781 7.398438 C 170.898438 6.199219 171.199219 4.625 171.800781 3.574219 C 172.398438 2.449219 173.601562 1.398438 174.726562 0.949219 C 175.851562 0.425781 177.574219 0.425781 178.625 0.574219 C 179.375 0.726562 179.824219 0.949219 180.425781 1.398438 C 181.324219 2 182.449219 3.5 182.898438 4.398438 C 183.199219 5.148438 183.351562 5.601562 183.273438 6.425781 C 183.273438 7.699219 182.898438 9.199219 182.074219 11.375 C 180.273438 16.101562 173.976562 27.949219 170.824219 32.976562 C 168.949219 35.976562 167.523438 37.550781 165.800781 39.648438 C 164.074219 41.75 162.648438 43.398438 160.398438 45.574219 C 157.398438 48.5 153.125 52.175781 148.925781 55.324219 C 144.199219 58.773438 138.875 62 133.398438 65.148438 C 127.550781 68.523438 121.101562 72.273438 114.800781 74.976562 C 108.875 77.523438 101.898438 79.476562 96.800781 80.898438 C 93.125 81.875 90.875 82.550781 87.273438 83 C 82.699219 83.449219 76.925781 83.601562 71.523438 83.074219 C 65.75 82.476562 59.75 80.824219 53.601562 79.324219 C 47.148438 77.601562 39.726562 75.800781 33.648438 73.324219 C 28.175781 71 22.101562 68 18.5 65.148438 C 16.023438 63.199219 14.75 61.324219 13.023438 59.074219 C 11.300781 56.75 9.949219 54.5 8.226562 51.5 C 5.898438 47.449219 1.25 40.398438 0.648438 36.875 C 0.273438 35 0.5 33.648438 1.175781 32.449219 C 1.773438 31.25 3.199219 29.976562 4.476562 29.523438 C 5.75 29 7.625 29 8.898438 29.523438 C 10.175781 29.976562 12.199219 32.449219 12.199219 32.449219 " clip-rule="nonzero"/></clipPath><clipPath id="2aa7731001"><rect x="0" width="184" y="0" height="84"/></clipPath><clipPath id="3af2964fd4"><path d="M 53.253906 186.304688 L 87 186.304688 L 87 220.511719 L 53.253906 220.511719 Z M 53.253906 186.304688 " clip-rule="nonzero"/></clipPath><clipPath id="a3959c4c5b"><path d="M 53.324219 204 C 55.800781 193.949219 57.675781 191.851562 59.550781 190.5 C 61.273438 189.226562 63.449219 188.773438 65.476562 188.023438 C 67.574219 187.351562 69.601562 186.300781 71.699219 186.375 C 73.875 186.375 76.425781 187.125 78.449219 188.25 C 80.550781 189.523438 82.425781 191.699219 83.851562 193.648438 C 85.199219 195.523438 86.324219 197.476562 86.773438 199.800781 C 87.226562 202.425781 86.851562 207.074219 86.25 208.648438 C 85.949219 209.324219 85.351562 209.398438 85.125 209.925781 C 84.824219 210.601562 85.273438 211.351562 84.898438 212.175781 C 84.148438 213.824219 81.375 217.199219 79.351562 218.101562 C 77.699219 218.851562 74.25 218.324219 74.175781 218.398438 C 74.101562 218.398438 74.101562 218.398438 74.101562 218.398438 C 74.101562 218.476562 73.351562 219.148438 72.898438 219.375 C 72.523438 219.675781 72 219.898438 71.550781 220.125 C 71.023438 220.273438 70.5 220.425781 69.976562 220.425781 C 69.449219 220.5 68.925781 220.5 68.398438 220.425781 C 67.875 220.351562 67.351562 220.199219 66.898438 219.976562 C 66.375 219.824219 65.550781 219.226562 65.550781 219.226562 C 65.550781 219.226562 63.148438 217.726562 61.800781 216.523438 C 59.925781 214.949219 57.226562 212.550781 55.800781 210.375 C 54.523438 208.351562 53.324219 204 53.324219 204 " clip-rule="nonzero"/></clipPath><clipPath id="a458228d6a"><path d="M 0.28125 0.304688 L 34 0.304688 L 34 34.511719 L 0.28125 34.511719 Z M 0.28125 0.304688 " clip-rule="nonzero"/></clipPath><clipPath id="1803a0fa6f"><path d="M 0.324219 18 C 2.800781 7.949219 4.675781 5.851562 6.550781 4.5 C 8.273438 3.226562 10.449219 2.773438 12.476562 2.023438 C 14.574219 1.351562 16.601562 0.300781 18.699219 0.375 C 20.875 0.375 23.425781 1.125 25.449219 2.25 C 27.550781 3.523438 29.425781 5.699219 30.851562 7.648438 C 32.199219 9.523438 33.324219 11.476562 33.773438 13.800781 C 34.226562 16.425781 33.851562 21.074219 33.25 22.648438 C 32.949219 23.324219 32.351562 23.398438 32.125 23.925781 C 31.824219 24.601562 32.273438 25.351562 31.898438 26.175781 C 31.148438 27.824219 28.375 31.199219 26.351562 32.101562 C 24.699219 32.851562 21.25 32.324219 21.175781 32.398438 C 21.101562 32.398438 21.101562 32.398438 21.101562 32.398438 C 21.101562 32.476562 20.351562 33.148438 19.898438 33.375 C 19.523438 33.675781 19 33.898438 18.550781 34.125 C 18.023438 34.273438 17.5 34.425781 16.976562 34.425781 C 16.449219 34.5 15.925781 34.5 15.398438 34.425781 C 14.875 34.351562 14.351562 34.199219 13.898438 33.976562 C 13.375 33.824219 12.550781 33.226562 12.550781 33.226562 C 12.550781 33.226562 10.148438 31.726562 8.800781 30.523438 C 6.925781 28.949219 4.226562 26.550781 2.800781 24.375 C 1.523438 22.351562 0.324219 18 0.324219 18 " clip-rule="nonzero"/></clipPath><clipPath id="3f239ff7fb"><rect x="0" width="34" y="0" height="35"/></clipPath><clipPath id="9aa270f37b"><path d="M 265.46875 153.253906 L 301.757812 153.253906 L 301.757812 191.683594 L 265.46875 191.683594 Z M 265.46875 153.253906 " clip-rule="nonzero"/></clipPath><clipPath id="fd0c2505ed"><path d="M 265.5 172.726562 C 267.75 162 268.800781 160.199219 270.375 158.625 C 272.324219 156.75 275.699219 154.726562 278.324219 153.898438 C 280.5 153.226562 282.675781 153.148438 284.851562 153.449219 C 287.101562 153.675781 289.800781 154.425781 291.824219 155.699219 C 293.699219 156.824219 295.125 158.699219 296.550781 160.574219 C 298.050781 162.449219 299.550781 164.699219 300.449219 166.949219 C 301.273438 169.273438 301.726562 171.675781 301.648438 174.226562 C 301.574219 177.226562 300.976562 181.875 299.398438 183.824219 C 298.199219 185.324219 294.601562 185.925781 294.449219 186.226562 C 294.375 186.300781 294.449219 186.300781 294.449219 186.375 C 294.375 186.523438 294.148438 187.351562 293.925781 187.875 C 293.699219 188.324219 293.476562 188.773438 293.101562 189.226562 C 292.800781 189.601562 292.425781 189.976562 291.976562 190.273438 C 291.601562 190.648438 291.148438 190.875 290.625 191.101562 C 290.175781 191.324219 289.648438 191.476562 289.125 191.550781 C 288.675781 191.625 288.074219 191.699219 287.625 191.625 C 287.101562 191.625 286.726562 191.550781 286.050781 191.398438 C 284.625 191.023438 281.773438 190.125 279.601562 189.300781 C 277.5 188.476562 275.175781 187.800781 273.226562 186.300781 C 270.976562 184.726562 268.5 182.101562 267.226562 179.625 C 266.023438 177.523438 265.5 172.726562 265.5 172.726562 " clip-rule="nonzero"/></clipPath><clipPath id="e12a77463b"><path d="M 0.46875 0.253906 L 36.757812 0.253906 L 36.757812 38.683594 L 0.46875 38.683594 Z M 0.46875 0.253906 " clip-rule="nonzero"/></clipPath><clipPath id="0bbf4b5bda"><path d="M 0.5 19.726562 C 2.75 9 3.800781 7.199219 5.375 5.625 C 7.324219 3.75 10.699219 1.726562 13.324219 0.898438 C 15.5 0.226562 17.675781 0.148438 19.851562 0.449219 C 22.101562 0.675781 24.800781 1.425781 26.824219 2.699219 C 28.699219 3.824219 30.125 5.699219 31.550781 7.574219 C 33.050781 9.449219 34.550781 11.699219 35.449219 13.949219 C 36.273438 16.273438 36.726562 18.675781 36.648438 21.226562 C 36.574219 24.226562 35.976562 28.875 34.398438 30.824219 C 33.199219 32.324219 29.601562 32.925781 29.449219 33.226562 C 29.375 33.300781 29.449219 33.300781 29.449219 33.375 C 29.375 33.523438 29.148438 34.351562 28.925781 34.875 C 28.699219 35.324219 28.476562 35.773438 28.101562 36.226562 C 27.800781 36.601562 27.425781 36.976562 26.976562 37.273438 C 26.601562 37.648438 26.148438 37.875 25.625 38.101562 C 25.175781 38.324219 24.648438 38.476562 24.125 38.550781 C 23.675781 38.625 23.074219 38.699219 22.625 38.625 C 22.101562 38.625 21.726562 38.550781 21.050781 38.398438 C 19.625 38.023438 16.773438 37.125 14.601562 36.300781 C 12.5 35.476562 10.175781 34.800781 8.226562 33.300781 C 5.976562 31.726562 3.5 29.101562 2.226562 26.625 C 1.023438 24.523438 0.5 19.726562 0.5 19.726562 " clip-rule="nonzero"/></clipPath><clipPath id="74a08d7868"><rect x="0" width="37" y="0" height="39"/></clipPath></defs><rect x="-37.5" width="450" fill="#ffffff" y="-37.499999" height="449.999989" fill-opacity="1"/><rect x="-37.5" width="450" fill="#ffffff" y="-37.499999" height="449.999989" fill-opacity="1"/><g clip-path="url(#aa18b9126c)"><g clip-path="url(#9ddd1dee5f)"><g mask="url(#916076c25c)"><g transform="matrix(1, 0, 0, 1, 15, 52)"><g clip-path="url(#2b2d6703f4)"><g clip-path="url(#9b32b1c015)"><g clip-path="url(#d057a14d19)"><rect x="-97.5" width="540" fill="#ffde59" height="539.999987" y="-134.499998" fill-opacity="1"/></g></g></g></g></g></g></g><g clip-path="url(#da72e6f295)"><g clip-path="url(#7d65303cae)"><g transform="matrix(1, 0, 0, 1, 98, 147)"><g clip-path="url(#9a20abb81e)"><g clip-path="url(#c58faa10b8)"><g clip-path="url(#fb1ab87d2e)"><rect x="-180.5" width="540" fill="#635247" height="539.999987" y="-229.499998" fill-opacity="1"/></g></g></g></g></g></g><g clip-path="url(#d83101af97)"><g clip-path="url(#445087cef4)"><g transform="matrix(1, 0, 0, 1, 204, 137)"><g clip-path="url(#17dd169271)"><g clip-path="url(#12e361b4d4)"><g clip-path="url(#2d3b158eeb)"><rect x="-286.5" width="540" fill="#635247" height="539.999987" y="-219.499998" fill-opacity="1"/></g></g></g></g></g></g><g clip-path="url(#a42abd258e)"><g clip-path="url(#5ee0126ba1)"><g transform="matrix(1, 0, 0, 1, 85, 178)"><g clip-path="url(#2aa7731001)"><g clip-path="url(#6a59016ff2)"><g clip-path="url(#684ba8274e)"><rect x="-167.5" width="540" fill="#635247" height="539.999987" y="-260.499998" fill-opacity="1"/></g></g></g></g></g></g><g clip-path="url(#3af2964fd4)"><g clip-path="url(#a3959c4c5b)"><g transform="matrix(1, 0, 0, 1, 53, 186)"><g clip-path="url(#3f239ff7fb)"><g clip-path="url(#a458228d6a)"><g clip-path="url(#1803a0fa6f)"><rect x="-135.5" width="540" fill="#f89a4c" height="539.999987" y="-268.499998" fill-opacity="1"/></g></g></g></g></g></g><g clip-path="url(#9aa270f37b)"><g clip-path="url(#fd0c2505ed)"><g transform="matrix(1, 0, 0, 1, 265, 153)"><g clip-path="url(#74a08d7868)"><g clip-path="url(#e12a77463b)"><g clip-path="url(#0bbf4b5bda)"><rect x="-347.5" width="540" fill="#f89a4c" height="539.999987" y="-235.499998" fill-opacity="1"/></g></g></g></g></g></g></svg>