<svg xmlns="http://www.w3.org/2000/svg" xmlns:xlink="http://www.w3.org/1999/xlink" width="332" zoomAndPan="magnify" viewBox="0 0 249.12 374.999991" height="500" preserveAspectRatio="xMidYMid meet" version="1.0"><path fill="#91b380" d="M 140.445312 305.964844 C 140.429688 308.644531 140.382812 311.296875 140.300781 313.917969 C 140.296875 314 140.296875 314.078125 140.292969 314.160156 C 140.1875 317.542969 140.023438 320.871094 139.796875 324.140625 C 136.691406 323.375 59.890625 308.757812 26.1875 258.011719 C 18.335938 246.1875 0.148438 186.023438 64.445312 227.152344 C 94.765625 246.542969 111.53125 268.058594 140.445312 305.964844 Z M 140.445312 305.964844 " fill-opacity="1" fill-rule="evenodd"/><path fill="#91b380" d="M 140.300781 313.917969 C 141.121094 290.4375 169.148438 226.738281 227.113281 212.105469 C 229.375 211.535156 244.078125 207.820312 241.308594 237.566406 C 241.285156 237.8125 243.464844 259.367188 202.039062 294.734375 C 169.46875 322.542969 150.589844 321.902344 139.796875 324.140625 C 140.023438 320.871094 140.1875 317.542969 140.292969 314.160156 C 140.296875 314.082031 140.296875 314 140.300781 313.917969 Z M 140.300781 313.917969 " fill-opacity="1" fill-rule="evenodd"/><path stroke-linecap="round" transform="matrix(0.284535, 0, 0, 0.284535, 11.772442, 5.582453)" fill="none" stroke-linejoin="round" d="M 432.122806 631.909168 C 432.603304 848.435592 485.856284 1116.416558 417.131248 1272.249137 " stroke="#91b380" stroke-width="41.669998" stroke-opacity="1" stroke-miterlimit="1.5"/><path stroke-linecap="round" transform="matrix(0.284535, 0, 0, 0.284535, 11.772442, 5.582453)" fill="none" stroke-linejoin="round" d="M 451.685965 1084.497719 C 453.923716 1002.675661 552.398484 777.431619 756.816342 725.826063 C 764.765163 723.821697 816.439361 710.765862 806.705831 815.308642 C 806.62346 816.173539 814.283982 891.927585 668.692888 1016.225724 C 554.224379 1113.959151 487.874379 1111.707671 449.942442 1119.574121 " stroke="#91b380" stroke-width="41.669998" stroke-opacity="1" stroke-miterlimit="1.5"/><path stroke-linecap="round" transform="matrix(0.284535, 0, 0, 0.284535, 11.772442, 5.582453)" fill="none" stroke-linejoin="round" d="M 452.221378 1055.695256 C 350.602776 922.473571 291.679912 846.856811 185.119038 778.708373 C -40.852617 634.160648 23.067434 845.607514 50.661785 887.163784 C 169.111569 1065.511157 439.028258 1116.883328 449.942442 1119.574121 " stroke="#91b380" stroke-width="41.669998" stroke-opacity="1" stroke-miterlimit="1.5"/><path stroke-linecap="round" transform="matrix(0.284535, 0, 0, 0.284535, 11.772442, 5.582453)" fill-opacity="1" fill="#ffde59" fill-rule="evenodd" stroke-linejoin="round" d="M 438.135903 651.952826 C 0.250612 561.715178 41.35384 158.068848 101.99277 93.956599 C 136.355289 57.6309 200.412624 59.044939 222.25472 67.55663 C 261.600696 82.90513 294.810018 158.041391 313.233709 197.318724 C 328.774409 124.749698 318.381909 119.807427 364.880451 62.573172 C 410.912222 5.929244 464.522144 19.657778 484.181403 31.011274 C 541.909885 64.344153 556.681787 173.458534 563.57351 207.944609 C 596.302333 114.247371 618.103244 50.794091 717.772394 44.698622 C 812.677743 38.905181 812.265887 267.073401 771.231302 378.91976 C 687.377422 607.417465 492.981393 633.309479 438.135903 651.952826 Z M 438.135903 651.952826 " stroke="#f5a67b" stroke-width="41.669998" stroke-opacity="1" stroke-miterlimit="1.5"/></svg>